<svg id="レイヤー_1" data-name="レイヤー 1" xmlns="http://www.w3.org/2000/svg" viewBox="0 0 291.95 291.95"><defs><style>.cls-1,.cls-2{fill:none;stroke:#000;stroke-miterlimit:10}.cls-2{stroke-linecap:square}</style></defs><title>bg_logo_frame</title><path class="cls-1" d="M172.13.25l112.6 195.02m-277.51 0L119.82.25m138.75 240.33H33.38m86.44 51.12L7.22 96.68m277.51 0L172.13 291.7M33.38 51.38h225.19M.25 119.82L195.27 7.22m0 277.51L.25 172.13M240.58 33.38v225.19m51.12-86.44L96.68 284.73m0-277.51l195.02 112.6M51.38 258.57V33.38"/><path class="cls-2" d="M170 12.15l103.4 179.1v-90.54L170 279.8m-48.04 0L18.56 100.71v90.54l103.4-179.1"/><path class="cls-2" d="M279.8 170L100.71 273.4h90.54L12.15 170m0-48.04l179.1-103.4h-90.54l179.09 103.4"/><path class="cls-2" d="M59.1 249.38V42.58L42.58 59.1h206.8l-16.53-16.52v206.8l16.53-16.53H42.58l16.52 16.53z"/></svg>