<svg id="レイヤー_1" data-name="レイヤー 1" xmlns="http://www.w3.org/2000/svg" viewBox="0 0 33.44 33.44"><defs><style>.cls-1{fill:#040000}</style></defs><title>ico_instagram</title><path class="cls-1" d="M29.46 0H4a4 4 0 0 0-4 4v25.47a4 4 0 0 0 4 4h25.47a4 4 0 0 0 4-4V4a4 4 0 0 0-4.01-4zm-6.23 4.75a.93.93 0 0 1 .94-.93h4.52a.93.93 0 0 1 .94.93v4.5a.93.93 0 0 1-.94.93h-4.53a.94.94 0 0 1-.94-.93zm-6.47 5.6a6.41 6.41 0 1 1-6.43 6.42 6.42 6.42 0 0 1 6.43-6.43zM29.7 28.62a.93.93 0 0 1-.94.93h-24a.93.93 0 0 1-.93-.93V14.08h3.12a10.05 10.05 0 0 0-.36 2.68 10.17 10.17 0 1 0 20-2.68h3.11z"/></svg>