<svg id="レイヤー_1" data-name="レイヤー 1" xmlns="http://www.w3.org/2000/svg" viewBox="0 0 22.5 22.5"><defs><style>.cls-1{fill:none;stroke:#000;stroke-miterlimit:10}.cls-2{fill:#333}</style></defs><title>ico_knowledge_number3</title><circle class="cls-1" cx="11.25" cy="11.25" r="10.75"/><path class="cls-2" d="M9.56 16.48c-1.22 0-1.64-.49-1.64-.84a.62.62 0 0 1 .63-.6h.11c.66.13.71.88 1.5.88a3.2 3.2 0 0 0 2.64-3.32c0-1.74-1-2.27-1.64-2.27a1.49 1.49 0 0 0-.76.21.54.54 0 0 1-.28.13c-.08 0-.14-.05-.14-.2a.73.73 0 0 1 .43-.69c1.37-.42 1.91-1.26 1.91-2.14a1.07 1.07 0 0 0-1.05-1.19 2.8 2.8 0 0 0-2 1.2.38.38 0 0 1-.27.18.16.16 0 0 1-.17-.17 3.55 3.55 0 0 1 2.91-2 1.65 1.65 0 0 1 1.79 1.61A3.05 3.05 0 0 1 12.1 9.6v.06c0 .06 0 0 .06 0a2.38 2.38 0 0 1 2 2.48 4.67 4.67 0 0 1-4.6 4.34z"/></svg>