<svg id="レイヤー_1" data-name="レイヤー 1" xmlns="http://www.w3.org/2000/svg" viewBox="0 0 22.5 22.5"><defs><style>.cls-1{fill:#333}.cls-2{fill:none;stroke:#000;stroke-miterlimit:10}</style></defs><title>ico_knowledge_number2</title><path class="cls-1" d="M14.29 13.43c-.2 1.05-.42 1.61-.48 2a.2.2 0 0 1-.15.18s-1.46-.07-3-.07c-.78 0-1.6 0-2.27.07-.11 0-.38-.18-.38-.32a.11.11 0 0 1 .06-.1 15.65 15.65 0 0 0 4.26-5.1 4.48 4.48 0 0 0 .43-1.79c0-.9-.41-1.65-1.51-1.65a2.75 2.75 0 0 0-2.33 1.61.22.22 0 0 1-.18.11.21.21 0 0 1-.21-.2c0-.15.91-2.54 3-2.54A2.42 2.42 0 0 1 14 8.19a4.32 4.32 0 0 1-.87 2.45c-1 1.34-2.63 2.65-3.33 3.68a.1.1 0 0 0 0 .08c0 .06 0 .1.11.11h1.06c1.65 0 2.58-.08 3-1.22a.13.13 0 0 1 .13-.07c.1 0 .2.06.2.14z"/><circle class="cls-2" cx="11.25" cy="11.25" r="10.75"/></svg>