<svg id="レイヤー_1" data-name="レイヤー 1" xmlns="http://www.w3.org/2000/svg" viewBox="0 0 22.5 22.5"><defs><style>.cls-1{fill:#333}.cls-2{fill:none;stroke:#000;stroke-miterlimit:10}</style></defs><title>ico_knowledge_number1</title><path class="cls-1" d="M9.29 7.52a.21.21 0 0 1-.21-.21.29.29 0 0 1 .11-.21 7.63 7.63 0 0 0 2.56-1.28.52.52 0 0 1 .31-.18c.1 0 .18.1.18.29v.13c-.15 1.44-.15 4.89-.15 5.32v1.86c0 1.5.06 1.79 1.55 1.95a.31.31 0 0 1 .14.24.16.16 0 0 1-.18.17s-1.21-.08-2.51-.08a16.87 16.87 0 0 0-1.92.08.15.15 0 0 1-.17-.15.3.3 0 0 1 .15-.25c1.71-.2 1.65-.34 1.72-1.93 0-.66.06-1.92.06-3.18 0-2.66 0-2.82-.27-2.82a11.82 11.82 0 0 0-1.34.25z"/><circle class="cls-2" cx="11.25" cy="11.25" r="10.75"/></svg>