<svg id="レイヤー_1" data-name="レイヤー 1" xmlns="http://www.w3.org/2000/svg" viewBox="0 0 15 10.97"><defs><style>.cls-1{fill:#b81c22}</style></defs><title>ico_knowledge_arrow</title><path class="cls-1" d="M8.95 9.48l.19-.19c.37.37.75.37 1.49-.37L14.54 5l.19.19-3.92 3.92-1 1-.09.09-.77.8-.19-.19a1.55 1.55 0 0 0 .19-1.33z"/><path class="cls-1" d="M8.95 1.49l.19.19c.37-.37.75-.37 1.49.37L14.54 6l.19-.19-3.92-3.95-1-1-.12-.11L8.95 0l-.19.19a1.55 1.55 0 0 1 .19 1.3z"/><path class="cls-1" d="M0 5.46c1 0 1.61.59 1.92.59h11.45c.3 0 .63-.59 1.63-.59V5H0z"/></svg>