<svg id="レイヤー_1" data-name="レイヤー 1" xmlns="http://www.w3.org/2000/svg" viewBox="0 0 35 13"><defs><style>.cls-1{fill:#fff;stroke:#fff;stroke-width:.17px}</style></defs><title>icon_new</title><rect width="35" height="13" rx="1" ry="1"/><path class="cls-1" d="M9.29 5.38V8.5c0 .46.29.63.79.63v.26H8.23c-.11 0 0-.06 0-.13v-.13c.46 0 .67-.17.68-.63V5.32c0-.46-.2-.67-.83-.67v-.13c0-.13 0-.13.06-.13h1.27a.14.14 0 0 1 .12.06c.31.39 1 1.17 1.62 1.93a21 21 0 0 1 1.32 1.67V5.32c0-.41-.09-.67-.74-.67 0 0-.06 0-.06-.13s0-.13.07-.13h1.76c.11 0 0 0 0 .13s0 .13-.06.13c-.41 0-.67.13-.68.69s0 2.07 0 2.85v1.18h-.2a.13.13 0 0 1-.11-.07c-.28-.43-2.45-3.17-3.16-3.92zm6.19 4.01v-.26c.5 0 .69-.14.69-.55V5.2c0-.36-.16-.55-.7-.55v-.12c0-.12 0-.14.06-.14h3.59c.11 0 .12 0 .12.13v1s-.06.07-.15.07-.13 0-.13-.06c-.11-.6-.41-.9-1.16-.9a6.63 6.63 0 0 0-.84 0c0 .51 0 1.51-.06 1.87 1 0 1.08-.28 1.08-.71 0-.08 0-.1.15-.1s.14 0 .14.1a7.67 7.67 0 0 0 0 .83v.83c0 .09 0 .1-.14.1s-.15 0-.15-.1c0-.48-.13-.71-1.08-.71V8.5c0 .22.11.51.8.51 1.18 0 1.46-.36 1.53-1.11 0-.07 0-.1.13-.1s.15 0 .15.08V9.2c0 .08 0 .09-.11.09h-2.82c-.58.08-.93.1-1.1.1zm10.82.03c0 .08-.13.1-.2.1s-.18 0-.19-.1c-.08-.29-.67-2.1-1.1-3.33-.32 1-.64 1.9-.89 2.58-.09.24-.21.59-.25.75s-.11.1-.18.1-.18 0-.2-.1C23.19 9 21.83 5.25 21.7 5a.6.6 0 0 0-.57-.36V4.5c0-.14 0-.12.06-.12h1.92s.06 0 .06.1v.16c-.28 0-.54 0-.54.29a1.1 1.1 0 0 0 .08.34c.08.22.32 1 .55 1.69s.41 1.21.48 1.42c.21-.56.46-1.34.71-2.08a13.52 13.52 0 0 0 .47-1.56c0-.09.08-.11.18-.11s.18 0 .19.11c.06.41.92 3.14 1.08 3.64a26.23 26.23 0 0 0 .95-3.29c0-.26-.2-.43-.58-.43 0 0-.06 0-.06-.13s0-.13.07-.13h1.69c.06 0 .06 0 .06.13s0 .13-.08.13a.75.75 0 0 0-.72.6c-.14.47-.85 2.63-1.16 3.54-.16.34-.24.57-.24.62z"/></svg>