<svg id="レイヤー_1" data-name="レイヤー 1" xmlns="http://www.w3.org/2000/svg" viewBox="0 0 79.52 14.36"><defs><style>.cls-1{fill:#040000}.cls-2{fill:#b81c22}</style></defs><title>ico_okaki_sono3</title><path class="cls-1" d="M38.28 2l-.28.2c-.49-.49-1-.49-2 .49l-5 5.12-.24-.24 5.13-5.13 1.29-1.34.12-.1 1-1 .24.24A2 2 0 0 0 38.28 2z"/><path class="cls-1" d="M38.28 12.41l-.28-.24c-.49.49-1 .49-2-.49l-5-5.13-.24.24 5.13 5.13 1.34 1.34.12.12 1 1 .24-.24a2 2 0 0 1-.31-1.73zM72 2l.24.24c.49-.49 1-.49 2 .49l5.13 5.13.24-.24-5.21-5.18-1.34-1.34-.13-.1L72 0l-.24.24A2 2 0 0 1 72 2z"/><path class="cls-1" d="M72 12.41l.24-.24c.49.49 1 .49 2-.49l5.13-5.13.24.24-5.21 5.13-1.34 1.34-.12.12-1 1-.24-.24a2 2 0 0 0 .3-1.73z"/><path d="M45.86 5.32a.43.43 0 0 0 .29.08 6.51 6.51 0 0 0 1.08-.25 3.9 3.9 0 0 0 .54-.15.54.54 0 0 0 .14-.1.22.22 0 0 1 .13 0 1 1 0 0 1 .64.66c0 .08 0 .1-.17.16a8.36 8.36 0 0 0-.92.71c-.53.44-1.32 1.05-2 1.58a28.28 28.28 0 0 1 2.72-.88l.65-.2a.74.74 0 0 1 .29-.07.7.7 0 0 1 .36.17c.09.08.12.13.12.2a.14.14 0 0 1-.14.13h-.45a3.21 3.21 0 0 0-1.25.35 1.58 1.58 0 0 0-1 1.3.92.92 0 0 0 .69.88 1.59 1.59 0 0 0 .62.08h.25a.56.56 0 0 1 .41.4c0 .13-.11.19-.36.19-1.11 0-1.9-.59-1.9-1.4a1.44 1.44 0 0 1 .43-1 2.91 2.91 0 0 1 .79-.6 12.77 12.77 0 0 0-2.51 1c-.1.06-.13.08-.18.08a.51.51 0 0 1-.39-.37c0-.1 0-.14.19-.18a6.92 6.92 0 0 0 2-1.53C47.7 5.77 48 5.38 48 5.27a.09.09 0 0 0-.1-.09 2.85 2.85 0 0 0-.76.27 5.66 5.66 0 0 0-.85.39.41.41 0 0 1-.21.08c-.14 0-.3-.14-.43-.39a.89.89 0 0 1-.13-.41.25.25 0 0 1 0-.13.88.88 0 0 0 .34.33zm9.79 4.8a3.19 3.19 0 0 0 1.64-1 2.49 2.49 0 0 0 .62-1.69 1.74 1.74 0 0 0-.79-1.55 2.31 2.31 0 0 0-1.21-.32h-.25a.91.91 0 0 1 .22.58A5.75 5.75 0 0 1 55 8.6c-.44.7-.78 1-1 1a.41.41 0 0 1-.31-.15 1.38 1.38 0 0 1-.2-.45 4.34 4.34 0 0 0-.31-.66 1.35 1.35 0 0 1-.16-.64 2.19 2.19 0 0 1 .63-1.39 3.4 3.4 0 0 1 2.41-1 2.66 2.66 0 0 1 1.72.69 2.14 2.14 0 0 1 .67 1.65 2.41 2.41 0 0 1-1.39 2.15 4.19 4.19 0 0 1-1.37.43zm-2.3-2.18a1.64 1.64 0 0 0 .28.92c.1.13.19.2.27.2s.49-.38.83-.92A5.41 5.41 0 0 0 55.61 6a.78.78 0 0 0-.1-.35 2.54 2.54 0 0 0-2.17 2.29z"/><path class="cls-2" d="M62.47 12.77c-1.22 0-1.64-.49-1.64-.84a.62.62 0 0 1 .63-.6h.11c.66.13.71.88 1.5.88a3.2 3.2 0 0 0 2.65-3.33c0-1.74-1-2.27-1.64-2.27a1.51 1.51 0 0 0-.76.21A.54.54 0 0 1 63 7c-.08 0-.14-.06-.14-.2a.73.73 0 0 1 .43-.69c1.37-.42 1.91-1.26 1.91-2.14a1.07 1.07 0 0 0-1.05-1.19 2.8 2.8 0 0 0-2 1.2.38.38 0 0 1-.28.17.15.15 0 0 1-.17-.17 3.55 3.55 0 0 1 2.91-2 1.65 1.65 0 0 1 1.79 1.61 3.05 3.05 0 0 1-1.4 2.3V6a2.37 2.37 0 0 1 2 2.48 4.67 4.67 0 0 1-4.53 4.29zM8.73 11.16l.19-.16c.37.37.75.37 1.49-.37l3.92-3.92.19.19-3.92 3.92-1 1-.09.09-.75.75-.19-.19a1.55 1.55 0 0 0 .16-1.31z"/><path class="cls-2" d="M8.73 3.17l.19.19c.37-.37.75-.37 1.49.37l3.92 3.92.19-.19-3.93-3.92-1-1-.09-.09-.75-.75-.19.19a1.55 1.55 0 0 1 .17 1.28z"/><path class="cls-2" d="M0 7.13c1 0 1.39.59 1.7.59h11.46c.3 0 .84-.59 1.84-.59v-.41H0z"/></svg>