<svg id="レイヤー_1" data-name="レイヤー 1" xmlns="http://www.w3.org/2000/svg" viewBox="0 0 954.66 44"><defs><style>.cls-1,.cls-2{fill:none;stroke:#000;stroke-miterlimit:10}.cls-1{stroke-width:2px}.cls-2{stroke-linecap:square}.cls-3{fill:#fff}.cls-4{fill:#b81c22}</style></defs><title>img_knowledge_header5</title><path class="cls-1" d="M18 44V.17m918.66 0V44M0 18.16h954.66"/><path class="cls-2" d="M25.72 44V9.36L9.2 25.89h936.26L928.93 9.36V44"/><path class="cls-3" d="M497.21-14h-48.37l-36.96 37 40.91 41h40.48l40.9-41-36.96-37z"/><path d="M456.54 30.59a3.81 3.81 0 0 1-3.92-3.43 2.81 2.81 0 0 1 .86-2c.21-.21.3-.34.3-.4a8.72 8.72 0 0 0-1.71.91 1.39 1.39 0 0 1-.75.24.83.83 0 0 1-.91-.72.86.86 0 0 1 .08-.32c.19-.4.29-.29.78-.85 4.11-4.72 4.13-5.06 4.13-5.38s-.11-.32-.29-.32a.88.88 0 0 0-.61.35 4.1 4.1 0 0 1-.58.66.94.94 0 0 1-.54.19 1.54 1.54 0 0 1-1.41-1.36s0-.08.08-.08h.16a4.15 4.15 0 0 0 1.06.27 2 2 0 0 0 1.22-.46 1.5 1.5 0 0 1 .9-.29c.64 0 1.28.35 1.28 1a2 2 0 0 1-.8 1.34c-1.09 1-4.37 4-4.37 4.72a.12.12 0 0 0 .13.13h.06a30.31 30.31 0 0 0 3.75-1.55c3.09-1.31 3.67-.32 3.67.06s-.24.51-.7.51a1.8 1.8 0 0 1-.29 0 6 6 0 0 0-1-.11 5.16 5.16 0 0 0-2.74 1 3 3 0 0 0-1.14 2.21 2.78 2.78 0 0 0 3 2.51 3.67 3.67 0 0 0 .59 0 .56.56 0 0 1 .16 0 .69.69 0 0 1 .74.62c-.1.49-.73.55-1.19.55zM474 21.77c0 3.51-2.8 7.08-4.18 7.08-.78 0-1.07-1.07-1.73-2a2.49 2.49 0 0 1-.38-1.46 6.52 6.52 0 0 1 6.45-6.29c3.63 0 5.51 2.51 5.51 5.12 0 4.87-5.57 6.24-6.88 6.24-.14 0-.22 0-.22-.06s.26-.21.72-.34c4.21-1.14 5.35-3.92 5.35-5.91a4.4 4.4 0 0 0-4.67-4.53h-.58a2.79 2.79 0 0 1 .61 2.15zm-.56-.58c0-1.15-.27-1.42-.62-1.42h-.29a5.66 5.66 0 0 0-4 5.2c0 1.41.7 2.48 1.47 2.48 1.05.04 3.44-3.31 3.44-6.25z"/><path class="cls-4" d="M486.43 35.31a.53.53 0 0 1-.51-.54.41.41 0 0 1 .36-.42c3.51-.81 9.27-3.48 9.3-9.12 0-2.91-2-4.65-5.31-4.65a11.07 11.07 0 0 0-2.34.3c-.42.09-.42.36-1 .36-.27 0-.45 0-.45-.21a1.49 1.49 0 0 1 .18-.51 36.14 36.14 0 0 0 1.89-6.9c0-.18 0-.48.48-.48h.12a61 61 0 0 0 7.68-1.44 1 1 0 0 1 .36-.09c.18 0 .27.06.27.27a6.52 6.52 0 0 1-1.11 2.19 1.16 1.16 0 0 1-.72.39l-2.94.48c-.93.15-2.13.3-2.76.45-.27.06-.51.15-.6.45-.21.72-.39 1.65-.6 2.28a.32.32 0 0 0 0 .15c0 .15.12.21.27.21h.21a9.85 9.85 0 0 1 1.65-.12c3.63 0 7.5 1.89 7.5 6.54-.06 7.53-10.92 10.41-11.93 10.41z"/><path class="cls-1" d="M429.27 34.49l-12.25-12.26 12.73-12.72m86.88 25.25l12.25-12.26-12.73-12.73"/></svg>