<svg id="レイヤー_1" data-name="レイヤー 1" xmlns="http://www.w3.org/2000/svg" viewBox="0 0 147.28 130"><defs><style>.cls-1{fill:none;stroke:#000;stroke-miterlimit:10}</style></defs><title>img_knowledge_step4</title><path class="cls-1" d="M53.57 128.69L126 96.8l20.25-24S100 72.16 47.33 26.94c0 0-14.51 68.51-46.24 85.39 0 0 30.21 15 52.48 16.37 0 0 23.79-6.08 12-37.63 0 0-4.39-7.76-9.79-7.59l21.6-7.93L105.72 87s2.36 8.78 9.79 9.11l9.11 1"/><path class="cls-1" d="M77.37 75.54l5.06-1.86 23.29 13.33m-49.95-3.54l-11.48 4.22 24.47 13.67M42.82 88.02v19.58l21.77 12.82m4.17-19.06l36.96-14.35"/></svg>