<svg id="レイヤー_1" data-name="レイヤー 1" xmlns="http://www.w3.org/2000/svg" viewBox="0 0 133.96 130"><defs><style>.cls-1{fill:none;stroke:#000;stroke-miterlimit:10}</style></defs><title>img_knowledge_step3</title><path class="cls-1" d="M66.5 92.08s-9.25.75-13.37-3.75c0 0-7.12-8.25-23.25-3 0 0-12.37 1.88-19.12-.75 0 0 28.88 31.88 46.13 7.13M35.12 91a24.24 24.24 0 0 0 21.38 1.83"/><path class="cls-1" d="M62.25 82.71S78 80.21 78 92.71c0 0 .5 9.75-16.25 10.25 0 .04 10.25-9.5.5-20.25zm9.25 5.75s5.5 6.25-.25 12.75M49.5 85.46s4.25-8 13.5-2.75m3.5 9.37a14.08 14.08 0 0 1-8.5-6.62m-.25 13.75S60 93 66.5 93.71M48 99.21s3.25 4.75 14.75 2.5"/><path class="cls-1" d="M74 84.71s6.75-5.71 19.5 1.75c0 0 5.75 3.5 19.75 2.75 0 0-6 3.75-10.75 7 0 0-16 12.5-27.75 3m20-5.5s-6.75 4.63-17.5 1.5M84 88s-6-.5-6.25 2.5m-35.5 10.71s-8 16-3 29M22 94S1.5 104.71.5 129.46M30.75 99s-8.25 3.75-12.25 17.75M87 102.71s7.75 14.5 2.75 27.5M107 94s15 4 26.5 31M98.25 99s8.25 3.75 12.25 17.75"/></svg>