<svg id="レイヤー_1" data-name="レイヤー 1" xmlns="http://www.w3.org/2000/svg" viewBox="0 0 132.81 130"><defs><style>.cls-1{fill:none;stroke:#000;stroke-miterlimit:10}</style></defs><title>img_knowledge_step1</title><path class="cls-1" d="M60.85 87.66S49.6 69.28 21.1 95.53c0 0-14.62 13.12-20.62 32.25M69.1 85.22c-7.12 5.63-14.62.94-14.62.94m-18 45.75S37.6 98 55.6 85.22m25.63 1.19s-2.5 27.12-24 19M44.1 99.78s8.25 8 16.13 4.62M90 80.78s22.25.38 42.37 47.87M84 98.91s9.38 8.75 7 31.12m-2.15-40.87S100.1 87.53 109.1 114M52.73 81.91s-13.37.5-21 16.75m3.5-38.5s-3.5 14.75 4.25 22.63M49.23 91s4.31 3.38 8.25 2.06"/><path class="cls-1" d="M46.48 81.16S38.73 68.91 43 41.66c0 0-27.25 20.75-10.75 45m29.23 15s13-12 13.25-61.5c0 0 17.63 8.13 15.56 41.31 0 0-.94 19.87-18.56 23.62"/></svg>