<svg id="レイヤー_1" data-name="レイヤー 1" xmlns="http://www.w3.org/2000/svg" viewBox="0 0 954.66 45.75"><defs><style>.cls-1{fill:#040000}.cls-2,.cls-3,.cls-4{fill:none;stroke:#000;stroke-miterlimit:10}.cls-3{stroke-width:2px}.cls-4{stroke-linecap:square}</style></defs><title>img_knowledge_footer</title><path class="cls-1" d="M842.53 7.6a1.08 1.08 0 0 1-.55-.18 49.09 49.09 0 0 1-4.54-3.48 1 1 0 0 0-.59-.24.7.7 0 0 0-.53.27c-.28.31-.84 1.24-1 1.49a.77.77 0 0 1-.63.36c-.23 0-1-.22-1-.68 0-.17 0-.21.08-.21a.21.21 0 0 1 .12.07.59.59 0 0 0 .32.09.8.8 0 0 0 .44-.14c.21-.14.9-.81 1.36-1.21a1.23 1.23 0 0 1 .83-.34 1.45 1.45 0 0 1 .8.26 40.23 40.23 0 0 0 4.8 3 .71.71 0 0 1 .48.61.34.34 0 0 1-.39.33zM840 4.1a1 1 0 1 1 0-2 1 1 0 1 1 0 2zm.69-1a.67.67 0 0 0-.69-.7.68.68 0 0 0-.69.68.69.69 0 0 0 .69.69.68.68 0 0 0 .66-.69zm10.95 1.77a36 36 0 0 0-5 .28 2.84 2.84 0 0 1-.63.1c-.56 0-1.41-.55-1.41-1 0-.09 0-.12.08-.12a.88.88 0 0 1 .31.15 2.58 2.58 0 0 0 1.06.15c.18 0 3.54-.15 5-.26h.38c.25 0 1 0 1 .32s-.43.37-.79.38zm5.23-.78c.95 0 1.33.4 1.33.79a.3.3 0 0 1-.32.33.82.82 0 0 1-.42-.14 7.91 7.91 0 0 0-1.46-.71c-.09 0-.13 0-.13-.07a2.05 2.05 0 0 1 1-.2zm7.4-1.75a1.89 1.89 0 0 1-.13.36c-.69 1.67-3.11 4.1-5.45 5.5-.29.18-.4.42-.67.42s-1.26-.43-1.26-1c0-.13.09-.43.21-.43s.11.08.14.17a.55.55 0 0 0 .53.31c1.52 0 5.13-3.55 6.38-5.07.14-.18.23-.26.25-.26zm-5.23.9a8 8 0 0 0-1.4-.91c-.08 0-.12-.07-.12-.08s.26-.1.59-.1c1.31 0 1.69.57 1.69.94a.32.32 0 0 1-.32.35.72.72 0 0 1-.43-.19zm3.5-1.18a3.47 3.47 0 0 0-.95-.77c-.09 0-.17-.08-.17-.11a1 1 0 0 1 .43-.07c.59 0 1.3.25 1.3.75a.34.34 0 0 1-.32.36.43.43 0 0 1-.28-.15zm1.15-.53a3.77 3.77 0 0 0-1-.75c-.09 0-.18-.08-.18-.1S863 .6 863 .6c.61 0 1.27.25 1.27.73a.33.33 0 0 1-.32.35.42.42 0 0 1-.24-.14zm5.99 3.56v2.92c0 .73-.17 1.09-.39 1.09s-.48-.37-.48-1a2.82 2.82 0 0 1 .05-.51 5.89 5.89 0 0 0 .13-.68c.07-.53.1-1.9.1-3.07 0-2.2-.13-2.62-.52-2.64-.15 0-.22-.06-.22-.13a.33.33 0 0 1 .34-.25c.35 0 1.17.45 1.17 1 0 .23-.11.48-.15.9s-.07.88-.08 1.46h.67c1.63 0 2 .58 2 .92a.38.38 0 0 1-.38.4.73.73 0 0 1-.43-.18 5.21 5.21 0 0 0-1.87-1zm8.41.91a6.35 6.35 0 0 0-.8-.82c-.05 0-.09-.09-.09-.12s.05-.08.15-.08c.48 0 1.4.32 1.4.9 0 .21-.12.36-.29.36a.53.53 0 0 1-.37-.24zm-.54 3.08h-.08s.09-.11.26-.19a7.65 7.65 0 0 0 3.61-4.1c0-.13-.09-.19-.26-.23s-.18-.08-.18-.13a.38.38 0 0 1 .41-.27c.37 0 .94.34.94.6s-.26.4-.36.59c-1.79 3.29-4.14 3.7-4.34 3.7zm1.86-3.65a5.34 5.34 0 0 0-.68-.94.27.27 0 0 1-.07-.12s0-.07.1-.07c.4 0 1.32.45 1.32 1 0 .22-.13.37-.3.37s-.25-.06-.37-.27zm6.49 3.25a1 1 0 0 1-.29.06h-.07s.11-.12.3-.21C888.89 7.13 891 3 891 2.82s-.12-.26-.32-.26a13.5 13.5 0 0 0-2.45.56 3.81 3.81 0 0 1-1 .26c-.45 0-1.44-.54-1.44-.88 0-.18.09-.24.19-.24a.25.25 0 0 1 .2.11c.1.15.47.22.94.22h.75l2.54-.36c.29 0 .41-.3.65-.3s1.31.38 1.31.69c0 .1-.08.2-.23.31a1.31 1.31 0 0 0-.48.52c-1.44 2.49-3.21 4.46-5.76 5.23zM892.6 2a1 1 0 1 1 0-2 1 1 0 0 1 1 1 1 1 0 0 1-1 1zm.67-1a.65.65 0 0 0-.66-.66.66.66 0 0 0-.67.66.67.67 0 0 0 .67.67.66.66 0 0 0 .66-.67zm10.8 6.4a1.6 1.6 0 0 1-.36 0c-2.07-.5-3.15-2.39-5-3.58a.73.73 0 0 0-.41-.12.89.89 0 0 0-.59.26 12.8 12.8 0 0 0-1.07 1.51.87.87 0 0 1-.71.41A1 1 0 0 1 895 5c0-.11 0-.17.1-.17a.19.19 0 0 1 .13.09.43.43 0 0 0 .34.12.78.78 0 0 0 .44-.13c.22-.14.85-.81 1.41-1.24a1.46 1.46 0 0 1 .9-.33 1.35 1.35 0 0 1 .71.21c2 1.19 3.31 2.76 4.91 3 .43.05.66.31.66.54s-.16.31-.53.31z"/><path class="cls-2" d="M817.88 6.01l3.49-3.48 3.48 3.48m-7.06 3.59h7.15"/><path class="cls-3" d="M18 1.92v43.83m918.66 0V1.92M0 27.76h954.66"/><path class="cls-4" d="M25.72 1.92v34.64L9.2 20.03h936.26l-16.53 16.53V1.92"/></svg>