<svg id="レイヤー_1" data-name="レイヤー 1" xmlns="http://www.w3.org/2000/svg" viewBox="0 0 207.32 130"><defs><style>.cls-1{fill:none;stroke:#000;stroke-miterlimit:10}</style></defs><title>img_knowledge_step5</title><path class="cls-1" d="M64.94 34.59c10.13 35.1-15.52 38.14-15.52 38.14L1.15 58.22 40.3 31.56l46.91-17.44s9.22-2 22.5 2.47c0 0 26.32 3.38 36.67-.45L125.24 40 57.06 70.14"/><path class="cls-1" d="M37.71 33.24s12.15-6.08 35.77 5A36.18 36.18 0 0 1 82 44l10.8 7s5.4-11.7 4-18.9l-5.17-10.8s-2.25-5.4 6.3-7.42M46.71 31.67l20.25 12.82m25.2-25.2l10.35 8.55"/><path class="cls-1" d="M92.61 23.79s9 2.7 12.82 6.3 1.8 6.3 8.78 7.88a111.88 111.88 0 0 0 11 2m-53.97 5.42l6.3-2.7m22.05-9.45l4.5-2.02m-20.7 8.77l10.8-4.5m-49.35-2.98v15.58l20.47 13.59M40 21.52a13.39 13.39 0 0 1 19-17"/><path class="cls-1" d="M57.09.21l1.95 4.3-4.3 1.95m51.7 79.92a13.39 13.39 0 0 1 1.43-25.49"/><path class="cls-1" d="M103.45 59.23l4.42 1.66-1.66 4.42m82.85-2.93a13.39 13.39 0 0 0-19-17"/><path class="cls-1" d="M171.98 41.06l-1.95 4.31 4.3 1.95m-56.24 46c3.73-2.29 10.77-4.88 18.39-2 0 0 11.7 2.48 32.63 20 0 0 11-11.25 5.4-22 0 0-6.75-11.64 2.48-15.69"/><path class="cls-1" d="M91.26 86.34s12.6 23.85 32.63 1.8l46.12-14s7.65-.23 12.83-2c0 0 15.75-3.15 23.85-14 0 0 2.25 25-11.92 45.45l-53.55 24.75s-45.46 11.78-49.96-42zm52.65 8.1s6.3 28.58-15.3 34.88"/><path class="cls-1" d="M172.94 84.09a26 26 0 0 1 15.53 12.38s9.45 10.13 15.3-11.92m-31.28-4.96l7.42 7.65m-54.9 2.93l19.8 11.7m-20.98-10.36v18.68l16.88 10.24m7.12-14.92v17m38-30v13m-35.17-2.29l4.95-1.8m20.7-7.65l5.63-1.8m-23.18 8.55l14.85-5.18"/></svg>