<svg id="design" xmlns="http://www.w3.org/2000/svg" viewBox="0 0 52.37 173.63" preserveAspectRatio="xMidYMin"><defs><style>.cls-1{fill:#fff}</style></defs><title>txt_top_okaki</title><path class="cls-1" d="M8.65 15.79v.14c0 1.48-.59 2.16-1.15 2.16a1 1 0 0 1-.87-.62 3.73 3.73 0 0 0-2.27-1.4 6.87 6.87 0 0 1-1.6.76A4.26 4.26 0 0 1 1.6 17c-.67 0-1-.28-1-.7s.67-1.54 1.12-1.54c.08 0 .14.06.22.08s.14.14.31.14 1.12-.25 5.21-2.86v-2c0-1.18 0-2.32-.08-3.42A7.84 7.84 0 0 1 4 7.73C2.07 7.73 1.6 6.58 1.6 6c0-.11 0-.17.11-.17a1.4 1.4 0 0 1 .39.11 7.07 7.07 0 0 0 2.1.31 6.16 6.16 0 0 0 3.16-.9C7.17 2.07 7 1.06 5.66 1.06c-.36 0-.5-.08-.5-.22A1.11 1.11 0 0 1 6.36 0C7.28 0 8.6.7 8.6 1.88a6.52 6.52 0 0 1 0 .7 9.74 9.74 0 0 0 1.82.36.78.78 0 0 1 .81.81c0 1-1.18 1.68-2.72 2.49 0 1.71.06 3.5.08 5.24a13.27 13.27 0 0 1 7-2.49c3 0 4.56 1.43 4.56 3.3 0 2.94-3.44 4.93-5.82 4.93a2.63 2.63 0 0 1-2.91-2.77 6 6 0 0 1 1.2-3.5c.06 0 .08.06.08.2a3.68 3.68 0 0 1-.14.76 5.79 5.79 0 0 0-.22 1.46 2 2 0 0 0 2.1 2.21c2.1 0 4.2-1.6 4.2-3.53 0-1.71-1.9-2.32-3.5-2.32-2.41 0-4.54 1.43-6.52 3 0 1.1 0 2.14.03 3.06zm-3.81 0a13.89 13.89 0 0 0 1.71.17c.76 0 .78-.22.81-.62s.06-1.09.08-1.62c-.89.73-1.76 1.46-2.6 2.04zm3.67-11a8.57 8.57 0 0 0 .84-.56.65.65 0 0 0 .2-.39c0-.22-.25-.45-1-.84v.92zM20.3 5.94a5.68 5.68 0 0 0-1.46.64 1.16 1.16 0 0 1-.39.17c-.06 0-.08 0-.08-.06a.73.73 0 0 1 .22-.34 3 3 0 0 0 .87-1.68c0-.22-.11-.87-1.4-.87a3.45 3.45 0 0 0-2 .67 1.4 1.4 0 0 1-.62.28c-.06 0-.08 0-.08-.06a4.45 4.45 0 0 1 3.75-2c1.74 0 3.33 1 3.33 2.16 0 .36-.25.59-.62.76-.51.21-.51.02-1.52.33zM8.26 35.36A4.91 4.91 0 0 1 9.94 35c1.54 0 2.86 1 2.86 4.68 0 5.82-3.08 8.85-5.94 8.85a3 3 0 0 1-1-.17c-1.23-.39-.7-1.43-1-2.46a4.54 4.54 0 0 1-.22-1c0-.08 0-.11.06-.11s.36.25.73.76a2.5 2.5 0 0 0 2 1.12c2.38 0 4.06-3.95 4.06-7.59 0-1.9-.45-3.22-1.62-3.22a4 4 0 0 0-2.1 1C6.33 40 4.09 44.52 2.52 47.43A2.59 2.59 0 0 1 .62 49a.57.57 0 0 1-.62-.67 3.6 3.6 0 0 1 .87-1.88 55.94 55.94 0 0 0 5.57-9.21 12.07 12.07 0 0 1-3.5 1.2 2.06 2.06 0 0 1-2.18-2c0-.92.17-1 .22-1s.34.25.53.53a2.06 2.06 0 0 0 1.74.62A11 11 0 0 0 7 35.81a12.41 12.41 0 0 0 .53-3.08c0-.9-.22-1.54-.9-1.65-.33-.08-.63-.2-.63-.39 0-.39 1.18-1 1.76-1 .39 0 1.46.14 1.46 1.76a13.92 13.92 0 0 1-.9 3.64zm11.56 7.28a2.11 2.11 0 0 0-1-.14h-1.54c-.62 0-.87-.06-.87-.14s.34-.2.81-.28c2-.39 3.11-.87 3.11-2.38 0-2.16-2.24-2.86-3.7-3.44-.62-.22-.92-.36-.92-.45s.14-.06.36-.06c3.72 0 6.19 2 6.19 4.4 0 1.43-.87 2.6-1.88 2.6a1.18 1.18 0 0 1-.56-.11zM8.37 70.7c-1.9 0-3.28-.62-4-2.66a1.25 1.25 0 0 1-.11-.48c0-.08 0-.14.11-.14a1 1 0 0 1 .48.28A6.1 6.1 0 0 0 9 69.27a13.22 13.22 0 0 0 4-.73c-.42-1-.84-2-1.32-3a6.54 6.54 0 0 1-1.82.28c-2.94 0-4.34-2-4.34-2.77 0-.08 0-.11.08-.11s.36.17.56.25a7.92 7.92 0 0 0 3.7 1.34 4.39 4.39 0 0 0 1.18-.2 18.45 18.45 0 0 0-3.14-4.21 2.52 2.52 0 0 0-1.76-.92c-.22 0-.34-.14-.34-.28s.45-.81 1.43-.81c1.48 0 2.21.9 4.59 6a3 3 0 0 0 .67-.36 3 3 0 0 1 1.4-.67.61.61 0 0 1 .62.64c0 .53-.62 1.09-2.1 1.65.45 1 .9 2 1.34 2.91 1-.39 1.43-.67 1.43-1s-.17-.59-.81-1.06c-.34-.25-.5-.39-.5-.48s0-.06.08-.06a3.56 3.56 0 0 1 .87.31 8.25 8.25 0 0 0 1.9.64c.59 0 1 .28 1 .67 0 .76-1.85 1.68-3.33 2.21a35.38 35.38 0 0 0 1.79 3.22 3.3 3.3 0 0 1 .59 1.79 1.84 1.84 0 0 1-1.68 2c-.45 0-.5-.28-.67-.5-.34-.48-2.86-1.18-4.9-1.18-2.72 0-3.47 1.6-3.47 2.3s.84 2.58 4 2.58a7.59 7.59 0 0 0 2-.28 1.43 1.43 0 0 1 .48-.08 1 1 0 0 1 1.12.92c0 .67-1 1.2-3.08 1.2-4.28 0-5.71-2.58-5.71-4 0-.59.22-3.3 5.74-3.3 1.57 0 3.11.17 3.78.2h.06a.62.62 0 0 0 .7-.64 1.68 1.68 0 0 0-.2-.76c-.48-1-.92-2-1.37-3.14a19.83 19.83 0 0 1-5.2.86zm2.75 25.59c0 6.13-4.9 12.38-7.31 12.38-1.37 0-1.88-1.88-3-3.53a4.36 4.36 0 0 1-.67-2.55c0-4.26 3.72-11 11.28-11 6.36 0 9.63 4.4 9.63 9 0 8.51-9.74 10.92-12 10.92-.25 0-.39-.06-.39-.11s.45-.36 1.26-.59c7.36-2 9.35-6.86 9.35-10.33 0-4.14-2.86-7.92-8.18-7.92-.34 0-.67 0-1 .06.63.45 1.03 1.88 1.03 3.67zm-1-1c0-2-.48-2.49-1.09-2.49a1 1 0 0 0-.28 0 .69.69 0 0 1-.22 0 9.89 9.89 0 0 0-7 9.1c0 2.46 1.23 4.34 2.58 4.34 1.89.05 6.03-5.8 6.03-10.96zm1.33 46.25c-4.42 0-8-2-8-4.48a3.35 3.35 0 0 1 1.46-2.69c.08 0 .11.08.11.2a1.23 1.23 0 0 1-.2.56 2.31 2.31 0 0 0-.45 1.29c0 1.9 3.14 3.19 6.38 3.19a11.07 11.07 0 0 0 2.38-.25c1.26-.28 1.88-.67 2.6-.81a5.4 5.4 0 0 1 .64-.06c.87 0 1.43.36 1.43.87-.02 1.09-2.8 2.18-6.35 2.18zm3.11-16.07a10.36 10.36 0 0 0-5 2.24 1.47 1.47 0 0 1-.7.36c-.08 0-.11 0-.11-.11a1 1 0 0 1 .28-.5 16.11 16.11 0 0 0 1.6-2.07c0-.14-.14-.2-.42-.2l-1.26-.06C6 124.88 5 123.09 5 122.95s.06-.08.14-.08a3.9 3.9 0 0 1 .87.25 10.58 10.58 0 0 0 3.67.5c.87 0 1.74 0 2.63-.06.45 0 .81-.08 1.26-.08 1.29 0 2.18.7 2.18 1.26.01.36-.35.7-1.19.73zM8.4 158.82a33.57 33.57 0 0 1 .42-4.06A16.43 16.43 0 0 0 9 153c0-1.06-.34-1.46-1.46-1.68-.25-.06-.39-.17-.39-.31a1.08 1.08 0 0 1 1.15-.78 3 3 0 0 1 2.6 2.72 8.8 8.8 0 0 1-.34 1.71 23.16 23.16 0 0 0-.76 4.56c0 1.43.45 2.63 1.9 3a6.17 6.17 0 0 1 2.44-.67c1.12 0 1.2.67 1.2.87 0 1.06-1.4 1.4-2.21 1.4h-.64c-2.32 0-6 2.16-6 4.76 0 1.74 1.46 3.22 4.4 3.22a8.64 8.64 0 0 0 3.78-.84 2.21 2.21 0 0 1 .87-.22 1.05 1.05 0 0 1 1.15 1c0 1.34-3 2-5 2-4.82 0-6.36-3-6.36-4.79 0-2.32 2.07-4.76 5-6.08-1.51-.78-1.93-2.35-1.93-4.05zM43.3 5.5a.91.91 0 0 0-.24 0 .22.22 0 0 0-.24.23c0 .41.58.94 1.46 1.27a.12.12 0 0 1 .07.11c0 .08-.07.24-.22.24-.93-.3-2-1.08-2-2.12 0-.49.35-.62.92-.62a3.72 3.72 0 0 1 .54 0 2.61 2.61 0 0 1-1.5-2.08 1.53 1.53 0 0 1 1.7-1.62c2.32 0 5 2.13 5 4a1 1 0 0 1-.58 1l.42.14c.12 0 .16.2.16.39s-.13.65-.39.65c-1.89-.63-4.05-1.3-5.1-1.59zm4.91-.55c0-1.2-2.77-2.87-4.72-2.87-.46 0-.82.16-.82.66 0 .88.92 1.58 2.27 2.15a8.66 8.66 0 0 0 2.56.73c.43-.01.71-.12.71-.67zm3.35 6.95a2.61 2.61 0 0 0 .09-.81c0-.07.08-.09.26-.09s.24 0 .24.11a9.36 9.36 0 0 0 .22 1.9c0 .18 0 .28-.2.28a.68.68 0 0 1-.2 0c-1.07-.39-2.87-1-4.57-1.62a2.67 2.67 0 0 1 1.36 2.13c0 .89-.66 1.44-1.7 1.44-2.35 0-5-2.08-5-4 0-1.07.39-1.67 1.29-1.67a4 4 0 0 1 1.16.22zm-8.93-.67c0 1.19 2.54 2.87 4.75 2.87.46 0 .8-.19.8-.61 0-1-.92-1.66-2.27-2.23a10.78 10.78 0 0 0-2.62-.73c-.41.01-.66.16-.66.7zm-.54 7.97c0-.71.27-1.9 2.06-1.9s4.6 1.65 4.6 3.72c0 .92-.53 1.89-2.16 1.89s-4.5-1.47-4.5-3.71zm6.16 1.8c0-1.36-2.85-2.68-4.69-2.68-.74 0-1 .24-1 .8 0 1.33 2.74 2.67 4.55 2.67.89.03 1.14-.2 1.14-.79zm-6.12 5.85a1.07 1.07 0 0 1 1.13-1.2 6.07 6.07 0 0 1 2.41.62 7.14 7.14 0 0 0 2.14.67.22.22 0 0 0 .24-.23c0-.41-.58-.94-1.46-1.27a.12.12 0 0 1-.07-.11c0-.09.08-.28.22-.24.94.27 2 1.15 2 2.1 0 .54-.22.8-.81.8a8 8 0 0 1-2.52-.7 6.24 6.24 0 0 0-2.2-.59c-.35 0-.5.15-.5.49 0 .71 1.13 1.88 2.35 2.35.66.26 3.06 1 3.52 1.12.08 0 .16.16.16.38s-.09.65-.23.65a2.31 2.31 0 0 1-.59-.12l-2.32-.71a16.59 16.59 0 0 0-2.48-.67c-.28 0-.36.09-.36.23 0 .4.58.94 1.46 1.27a.12.12 0 0 1 .07.11c0 .09-.08.28-.22.24a2.49 2.49 0 0 1-1.94-2.12c0-.49.38-.66.86-.66a4.33 4.33 0 0 1 1 .17 3.29 3.29 0 0 1-1.86-2.58zm1.31 8.43a.91.91 0 0 0-.24 0 .22.22 0 0 0-.24.23c0 .4.58.94 1.46 1.27a.12.12 0 0 1 .07.11c0 .08-.07.24-.22.24-.94-.27-2.13-1.08-2.13-2.12 0-.49.31-.77.88-.77a3.32 3.32 0 0 1 1 .16l4 1.23v-.73c0-.11 0-.09.15-.09.27 0 .35 0 .35.13v.82l1.75.55c.14 0 .22.4.22.71s-.05.44-.19.44c-.55-.2-1.16-.4-1.78-.61v1.16c0 .24 0 .15-.2.15s-.3-.07-.3-.15V36.7c-1.84-.59-3.61-1.14-4.58-1.42zm3.75 9.59a5.32 5.32 0 0 1 0 10.63 5 5 0 0 1-5-5.33 5 5 0 0 1 5-5.3zm-.05 1.69c-2.72 0-4.38 1.28-4.38 3.61s1.86 3.64 4.38 3.64c2.72 0 4.56-1.48 4.56-3.64s-1.77-3.62-4.56-3.62zM47 61.41l-.54-.73H44c-.71 0-1.11.08-1.11 1.12 0 .08-.11.11-.23.11s-.27 0-.27-.13v-3.85c0-.08.08-.09.24-.09s.26 0 .26.09c0 1 .27 1.32 1.07 1.32h6.5c.7 0 1.05-.31 1.05-1.35 0-.07.08-.09.23-.09s.27 0 .27.12c0 .34-.07 1-.07 2.08s.07 1.47.07 1.82c0 .09-.11.11-.26.11s-.24 0-.24-.11c0-1-.35-1.09-1.11-1.09h-3.39a19.16 19.16 0 0 0 3.6 3.43 1.11 1.11 0 0 0 .57.23c.24 0 .32-.22.32-.63 0-.08.11-.11.28-.11s.22 0 .22.11c0 .34-.07 1-.07 1.62 0 .86.07 1.42.07 1.69 0 .09-.07.12-.23.12s-.27 0-.27-.12a2.28 2.28 0 0 0-.86-1.82c-.55-.51-2.12-2.06-2.81-2.83-3 2.63-4.49 4.32-4.82 5.11a2.42 2.42 0 0 0-.12.71c0 .05-.11.08-.23.08s-.28 0-.28-.11v-3.94c0-.07.05-.09.27-.09s.23 0 .23.12c0 .47.09.61.23.61s.28-.15.46-.34c.58-.68 1.97-1.97 3.43-3.17zm-4.35 11.75c-.16 0-.27 0-.27-.13 0-.34.05-.63.05-1.39s-.05-1.13-.05-1.33.08-.09.24-.09.26 0 .26.12c0 .49.36.78 1 1.15.42.23 7.63 3.38 8 3.45.2.05.28.13.28.32s-.07.23-.24.3c-.93.32-7.65 3.08-8.4 3.59a1.16 1.16 0 0 0-.69 1.09c0 .08-.11.11-.23.11s-.27 0-.27-.13c0-.34.05-.89.05-2s-.05-1.75-.05-2.08c0-.08.08-.09.24-.09s.26 0 .26.09c0 1 .2 1.21.7 1.21a1 1 0 0 0 .38-.08l2.09-.82v-1.63c0-.7 0-1.31.05-1.74-.57-.23-1-.45-1.44-.59a2.81 2.81 0 0 0-1-.27c-.51 0-.69.32-.69.84-.04.07-.15.1-.27.1zm3.93.11v2.92l3.42-1.4c-.44-.22-2-.93-3.43-1.52zM47 86.22l-.54-.73H44c-.71 0-1.11.08-1.11 1.12 0 .08-.11.11-.23.11s-.27 0-.27-.13v-3.85c0-.08.08-.09.24-.09s.26 0 .26.09c0 1 .27 1.32 1.07 1.32h6.5c.7 0 1.05-.31 1.05-1.35 0-.07.08-.09.23-.09s.27 0 .27.12c0 .34-.07 1-.07 2.08s.07 1.47.07 1.82c0 .09-.11.11-.26.11s-.24 0-.24-.11c0-1-.35-1.09-1.11-1.09h-3.39a19.16 19.16 0 0 0 3.6 3.43 1.11 1.11 0 0 0 .57.23c.24 0 .32-.22.32-.63 0-.08.11-.11.28-.11s.22 0 .22.11c0 .34-.07 1-.07 1.62 0 .86.07 1.42.07 1.69 0 .09-.07.12-.23.12s-.27 0-.27-.12a2.28 2.28 0 0 0-.85-1.89c-.55-.51-2.12-2.06-2.81-2.83-3 2.63-4.49 4.32-4.82 5.11a2.42 2.42 0 0 0-.12.71c0 .05-.11.08-.23.08s-.28 0-.28-.11v-3.94c0-.07.05-.09.27-.09s.23 0 .23.12c0 .47.09.61.23.61s.28-.15.46-.34c.57-.62 1.96-1.9 3.42-3.1zm-4.11 13.5c0 .08-.12.11-.24.11s-.26 0-.26-.14v-4.08c0-.08.08-.09.24-.09s.26 0 .26.09c0 1 .27 1.32 1.07 1.32h6.5c.7 0 1.05-.31 1.05-1.35 0-.07.08-.09.23-.09s.27 0 .27.12c0 .34-.07 1-.07 2.08s.07 1.71.07 2.06c0 .09-.11.11-.26.11s-.24 0-.24-.11c0-1-.47-1.31-1.11-1.31-.92 0-3.61-.08-6.41-.08-.71.03-1.1.32-1.1 1.36z"/></svg>