<svg id="design" xmlns="http://www.w3.org/2000/svg" viewBox="0 0 220.8 165.75"><defs><style>.cls-1{fill:#040000}</style></defs><title>txt_top_c1</title><path class="cls-1" d="M155.6 29.55h-.52c-.32 0-.44.12-.8.48-3.24 3.48-7.08 5.52-7.68 5.52h-.08s.16-.24.52-.56c2.16-1.8 5.08-5.36 5.76-8 0-.16.08-.24.2-.24.4 0 3.28 1.88 3.28 2.48 0 .2-.28.32-.68.32zm2.6-5.2h-5V25a1.53 1.53 0 0 1-1.48 1.48c-.52 0-1-.32-1-1.2v-.12c.2-3.72.24-8.44.24-12.64 0-6.08 0-9.68-.44-11.64a1.42 1.42 0 0 0 0-.24c0-.08 0-.12.08-.12a15.07 15.07 0 0 1 3.48 1.76h3.28a.67.67 0 0 0 .52-.36c.2-.36.76-1.12 1.08-1.12.56 0 3 1.4 3 2.16 0 .44-.48.72-.76.92-.56.44-.64.32-.68 1.32 0 1.2-.08 3.16-.08 5.44 0 4.72.12 10.72.24 13.88v.08a1.58 1.58 0 0 1-1.48 1.6c-.52 0-1-.36-1-1.28zm.12-15.16c0-2.2 0-4.08-.08-5.32 0-.2-.08-.48-.32-.48H154c-.08 0-.12.12-.2.16-.6.4-.64.48-.64 5.64zm0 6.28v-5.2h-5.16v5.2zm-.08 7.8c0-2 0-4.36.08-6.72h-5.12c0 2.24.08 4.56.08 6.72zm1.76 9a17 17 0 0 0-3.6-5c-.12-.12-.16-.2-.16-.28s0-.08.12-.08c.64 0 6.24 2.12 6.24 5.08a1.51 1.51 0 0 1-1.24 1.64c-.52-.04-1.04-.44-1.36-1.4zm19.84-13.72v-.28h-13.93v.6a1.34 1.34 0 0 1-1.4 1.16.9.9 0 0 1-1-.92v-.16c.2-2.4.28-6.24.28-7.84a36.39 36.39 0 0 0-.4-4.68v-.11c0-.12 0-.16.12-.16a12 12 0 0 1 3.24 1.4h6.64a25.94 25.94 0 0 0 2.96-7.12c0-.32 0-.44.12-.44s3.92 1.8 3.92 2.56c0 .28-.36.52-1.2.56-.6 0-.64.16-1 .56-.84.88-2.4 2.56-3.88 3.92H179a.52.52 0 0 0 .48-.24c.68-.8.92-1 1.2-1 .12 0 2.8 1 2.8 2 0 .4-.44.72-.84 1-.72.4-.72.72-.72 1.52v.44c0 1.84.2 5.36.28 6.88a1.32 1.32 0 0 1-1.4 1.36 1 1 0 0 1-1-1zm-2.28 15.28v-1.44h-9.32v1.52a1.32 1.32 0 0 1-1.44 1.28 1 1 0 0 1-1.08-1V34c.24-3.52.28-5.24.28-6.6a38.58 38.58 0 0 0-.48-7 .7.7 0 0 1 0-.24c0-.08 0-.12.08-.12a19.78 19.78 0 0 1 3.6 1.72h7.4a.69.69 0 0 0 .56-.32c.08-.12.72-1.12 1.24-1.12s3.08 1.36 3.08 2.28c0 .44-.52.72-.92 1-.72.44-.8.48-.8 3 0 1.8.12 3.88.32 6.84.08 1.08-1 1.48-1.48 1.48a1.06 1.06 0 0 1-1.12-1.16zm-9.16-29a11.41 11.41 0 0 0-2.48-3.36c-.2-.2-.32-.32-.32-.4s0-.08.2-.08c1.2 0 5.56 1 5.56 3.44a1.61 1.61 0 0 1-1.48 1.68c-.61.01-1.17-.35-1.53-1.27zm3.4 6.88c0-1.12 0-2.28-.12-3.08h-4.92c-.08.08-.16.12-.24.2-.48.32-.56.32-.6 1.56v1.88h5.88zm-5.88 1.6v3.88h5.8c0-1.36.08-2.72.08-3.88zm3.32 9.6a1.69 1.69 0 0 1-.28.2c-.6.44-.64.32-.68 1.52v1.8h9.4c0-1.12 0-2.12-.08-3a.5.5 0 0 0-.56-.48zm-1 4.56v3.84h9.32v-3.84zm6.72-18.84a.24.24 0 0 1 0 .16c0 .2-.2.4-.52.52s-.52.28-.52.84v2.12h6c0-1.2 0-2.32-.08-3.2a.42.42 0 0 0-.4-.44zm-1 4.68v3.88h5.92v-3.88zm-11.49 41.77v.08s.12-.2.28-.68c1.08-3.44 3.08-5.08 5-5.08 4.12 0 6.16 6.16 6.16 11.36 0 13-11.24 19.28-12.84 19.28A.09.09 0 0 1 161 80c0-.12.4-.48 1.32-1.08 5.36-3.44 9-10.64 9-17.88 0-5-1.72-9.88-4.36-9.88-2.2 0-4.44 3.32-4.44 7.52a11.05 11.05 0 0 0 1.2 5 2.63 2.63 0 0 1 .24 1.08c0 1-.56 2-1.24 2-1.16 0-2.68-3.44-2.68-6.2a25.18 25.18 0 0 1 .8-5.48 36.2 36.2 0 0 0 1.16-7c0-1.08-.2-1.92-.72-2.16-.28-.12-.56-.32-.56-.6s.76-.72 1.08-.72c.72 0 2.16.64 2.16 3.2 0 1.12-.08 1.4-1.4 6.68-.05.28-.09.52-.09.6zm14.88 42.28a.22.22 0 0 1 .08.2c0 .2-.32.4-.68.56s-.52.48-.64 1.56c-2.56 20.24-16.08 22.6-16.4 22.6h-.16s.44-.48.92-.68c11.12-4.8 13.28-19.8 13.28-24.2h-1.88a.3.3 0 0 1 .08.16c0 .2-.32.4-.68.56s-.4.28-.68 1.32c-3.2 12-10.84 15.4-11.2 15.4a2.55 2.55 0 0 1 .72-.84c6.24-5.52 8.32-14.36 8.48-16.56h-3.12c-2.12 4-5.16 7.72-5.68 7.72 0 0-.08 0-.08-.08a1.28 1.28 0 0 1 .28-.52 31.94 31.94 0 0 0 2.76-5h-4.56v7.56c1.84-.64 3.6-1.36 5.08-2a4.06 4.06 0 0 1 .92-.28c.08 0 .12 0 .12.08 0 .2-1.6 1.28-6.12 3.68 0 5.2.08 10.28.2 13.24a1.61 1.61 0 0 1-1.64 1.52 1.11 1.11 0 0 1-1.16-1.24V122c.2-3.2.32-7.68.4-12.24-1.56.8-3.2 1.6-4.88 2.4-.36.16-.48.56-.72.56-.48 0-2.4-2.88-2.4-3.08h.28c2.28-.08 3.88-.44 7.72-1.76v-8.32h-3.39c-1.68 5.44-3.24 7.64-3.44 7.64 0 0-.08 0-.08-.12a2 2 0 0 1 .12-.56 55.71 55.71 0 0 0 2-12.88 11.24 11.24 0 0 0 0-1.24v-.36a.09.09 0 0 1 .08-.08c.44 0 4.28 1 4.28 1.92 0 .28-.36.6-1 .8s-.68.36-.8.88c-.24 1-.52 2-.8 3H156a86.58 86.58 0 0 0-.48-10.28.78.78 0 0 1 0-.28s4.48.48 4.48 1.48c0 .24-.24.52-.64.8-.84.56-.92.2-1 1.92-.08 1.52-.12 3.76-.16 6.4h.2a.82.82 0 0 0 .56-.32c1.2-1.88 1.28-2 1.56-2 .52 0 1.92 1.28 2.52 2.4v.08c1.08-2.56 3-7.8 3-10.28 0-.44 0-.44.08-.44.52 0 4.12.88 4.12 1.84 0 .36-.36.68-1.12.88a1.11 1.11 0 0 0-1 .84 74.4 74.4 0 0 1-2.16 4.76h12.28A.69.69 0 0 0 179 96c.88-1.08 1.08-1.08 1.12-1.08.4 0 3.08 1.6 3.08 2.44 0 .32-.28.64-.92 1-1 .48-1 .6-1 1.68a124.07 124.07 0 0 1-.6 13.08c-.92 7-4.24 9.28-7.76 9.56a.47.47 0 0 1-.52-.32c-.36-1.12-4.92-3-4.92-3.36a.18.18 0 0 1 .12 0 3.34 3.34 0 0 1 .4.08 24.92 24.92 0 0 0 4.8.72c2.8 0 4.56-1.44 5.44-6.84.6-3.56.6-11.52.68-14.88 0-.56-.32-.6-.6-.6zm-10.08 46.72c0 8.76-7 17.68-10.44 17.68-2 0-2.68-2.68-4.32-5a6.22 6.22 0 0 1-1-3.64c0-6.08 5.32-15.72 16.12-15.72 9.08 0 13.76 6.28 13.76 12.8 0 12.16-13.92 15.6-17.2 15.6-.36 0-.56-.08-.56-.16s.64-.52 1.8-.84c10.57-2.88 13.4-9.8 13.4-14.8 0-5.92-4.08-11.32-11.68-11.32-.48 0-1 0-1.44.08 1 .72 1.56 2.76 1.56 5.32zm-1.4-1.44c0-2.88-.68-3.56-1.56-3.56a1.5 1.5 0 0 0-.4 0 1 1 0 0 1-.32 0 14.13 14.13 0 0 0-10 13c0 3.52 1.76 6.2 3.68 6.2 2.65.08 8.6-8.28 8.6-15.64zM117.75 25.88v.2c0 2.12-.84 3.08-1.64 3.08a1.5 1.5 0 0 1-1.24-.88 5.34 5.34 0 0 0-3.24-2 9.84 9.84 0 0 1-2.28 1.08 6.06 6.06 0 0 1-1.68.28c-1 0-1.36-.4-1.36-1s1-2.2 1.6-2.2c.12 0 .2.08.32.12s.2.2.44.2 1.6-.36 7.44-4.08v-2.8c0-1.68 0-3.32-.12-4.88a11.2 11.2 0 0 1-4.92 1.36c-2.76 0-3.44-1.64-3.44-2.52 0-.16 0-.24.16-.24a2 2 0 0 1 .56.16 10 10 0 0 0 3 .44 8.79 8.79 0 0 0 4.52-1.28c-.28-4.64-.48-6.08-2.44-6.08-.52 0-.72-.12-.72-.32a1.59 1.59 0 0 1 1.72-1.2c1.32 0 3.2 1 3.2 2.68a9.42 9.42 0 0 1 0 1 13.89 13.89 0 0 0 2.6.52 1.11 1.11 0 0 1 1.16 1.16c0 1.44-1.68 2.4-3.88 3.56 0 2.44.08 5 .12 7.48 3.12-2 6.36-3.56 10-3.56 4.28 0 6.52 2 6.52 4.72 0 4.2-4.92 7-8.32 7-2.48 0-4.16-1.4-4.16-4 0-2.4 1.48-5 1.72-5 .08 0 .12.08.12.28a5.25 5.25 0 0 1-.2 1.08 8.23 8.23 0 0 0-.31 2.16c0 1.88 1 3.16 3 3.16 3 0 6-2.28 6-5 0-2.44-2.72-3.32-5-3.32-3.44 0-6.48 2-9.32 4.32.03 1.52.03 2.99.07 4.32zm-5.44 0a20.06 20.06 0 0 0 2.44.24c1.08 0 1.12-.32 1.16-.88.08-.76.08-1.56.12-2.32-1.27 1.08-2.51 2.08-3.71 2.91zm5.24-15.76a12.23 12.23 0 0 0 1.2-.8.93.93 0 0 0 .28-.56c0-.32-.36-.64-1.44-1.2v1.32zm16.84 1.72a8.12 8.12 0 0 0-2.08.92 1.66 1.66 0 0 1-.56.24c-.08 0-.12 0-.12-.08a1.05 1.05 0 0 1 .32-.48 4.31 4.31 0 0 0 1.24-2.4c0-.32-.16-1.24-2-1.24a4.93 4.93 0 0 0-2.8 1 2 2 0 0 1-.88.4c-.08 0-.12 0-.12-.08a6.36 6.36 0 0 1 5.36-2.88c2.48 0 4.76 1.44 4.76 3.08 0 .52-.36.84-.88 1.08-.8.24-.8-.04-2.24.4zm-17.2 42a7 7 0 0 1 2.4-.52c2.2 0 4.08 1.4 4.08 6.68 0 8.32-4.4 12.64-8.48 12.64a4.27 4.27 0 0 1-1.48-.24c-1.76-.56-1-2-1.48-3.52a6.51 6.51 0 0 1-.32-1.36c0-.12 0-.16.08-.16s.52.36 1 1.08a3.57 3.57 0 0 0 2.84 1.6c3.4 0 5.8-5.64 5.8-10.84 0-2.72-.64-4.6-2.32-4.6a5.71 5.71 0 0 0-3 1.36c-1.92 4.56-5.12 11-7.36 15.12a3.7 3.7 0 0 1-2.72 2.2.81.81 0 0 1-.88-.92 5.14 5.14 0 0 1 1.24-2.68 79.82 79.82 0 0 0 8-13.16 17.3 17.3 0 0 1-5 1.72 2.94 2.94 0 0 1-3.12-2.92c0-1.32.24-1.44.32-1.44s.48.36.76.76a2.94 2.94 0 0 0 2.48.88 15.78 15.78 0 0 0 5.36-1 17.75 17.75 0 0 0 .76-4.4c0-1.28-.32-2.2-1.28-2.36-.48-.08-.88-.28-.88-.56 0-.56 1.68-1.36 2.52-1.36.56 0 2.08.2 2.08 2.52a19.88 19.88 0 0 1-1.28 5.2zm16.52 10.4a3 3 0 0 0-1.44-.2h-2.2c-.88 0-1.24-.08-1.24-.2s.48-.28 1.16-.4c2.8-.56 4.44-1.24 4.44-3.4 0-3.08-3.2-4.08-5.28-4.92-.88-.32-1.32-.52-1.32-.64s.2-.08.52-.08c5.32 0 8.84 2.84 8.84 6.28 0 2-1.24 3.72-2.68 3.72a1.69 1.69 0 0 1-.8-.16zm-16.36 40.08c-2.72 0-4.68-.88-5.68-3.8a1.79 1.79 0 0 1-.16-.68c0-.12 0-.2.16-.2a1.38 1.38 0 0 1 .68.4 8.72 8.72 0 0 0 5.88 2.24 18.86 18.86 0 0 0 5.68-1c-.6-1.4-1.2-2.84-1.88-4.24a9.35 9.35 0 0 1-2.6.4c-4.2 0-6.2-2.92-6.2-4 0-.12 0-.16.12-.16a3.31 3.31 0 0 1 .8.36c1.28.68 3.12 1.92 5.28 1.92a6.25 6.25 0 0 0 1.68-.28 26.37 26.37 0 0 0-4.44-6.08 3.61 3.61 0 0 0-2.52-1.32c-.32 0-.48-.2-.48-.4s.64-1.16 2-1.16c2.12 0 3.16 1.28 6.56 8.56a4.3 4.3 0 0 0 1-.52 4.23 4.23 0 0 1 2-1 .88.88 0 0 1 .88.92c0 .76-.88 1.56-3 2.36.64 1.44 1.28 2.8 1.92 4.16 1.44-.56 2-1 2-1.4s-.24-.84-1.16-1.52c-.48-.36-.72-.56-.72-.68s0-.08.12-.08a5.06 5.06 0 0 1 1.24.44 11.78 11.78 0 0 0 2.72.92c.84 0 1.36.4 1.36 1 0 1.08-2.64 2.4-4.76 3.16a50.64 50.64 0 0 0 2.56 4.6 4.71 4.71 0 0 1 .84 2.56 2.63 2.63 0 0 1-2.4 2.84c-.64 0-.72-.4-1-.72-.48-.68-4.08-1.68-7-1.68-3.88 0-5 2.28-5 3.28s1.2 3.68 5.72 3.68a10.81 10.81 0 0 0 2.88-.4 2 2 0 0 1 .68-.12 1.49 1.49 0 0 1 1.6 1.32c0 1-1.4 1.72-4.4 1.72-6.12 0-8.16-3.68-8.16-5.72 0-.84.32-4.72 8.2-4.72 2.24 0 4.44.24 5.4.28h.25a.88.88 0 0 0 1-.92 2.4 2.4 0 0 0-.28-1.08c-.68-1.4-1.32-2.92-2-4.48a28.37 28.37 0 0 1-7.37 1.24zm93.78-81.39c-3-.89-4-1.81-4-3.44 0-1.19.51-1.63 1.09-1.63a.6.6 0 0 1 .65.59.49.49 0 0 1-.54.5.55.55 0 0 0-.62.59c0 .69.51 1.55 3.24 2.31l5.48 1.52v-.73c0-.11 0-.09.15-.09.27 0 .35 0 .35.13v.81l1.56.46c1.87.55 2.27 1.63 2.27 2.55 0 1.13-.47 1.58-1.07 1.58a.57.57 0 0 1-.58-.53.48.48 0 0 1 .53-.49c.34 0 .53-.15.53-.63s-.7-1.08-3.24-1.81v1.17c0 .25 0 .15-.2.15s-.3-.07-.3-.15v-1.31zm-.51 5.74c0-.71.27-1.9 2.06-1.9s4.6 1.65 4.6 3.72c0 .92-.53 1.89-2.16 1.89s-4.5-1.47-4.5-3.71zm6.16 1.83c0-1.36-2.85-2.68-4.69-2.68-.74 0-1 .24-1 .8 0 1.34 2.74 2.67 4.55 2.67.87 0 1.14-.23 1.14-.78zm.5 8.82c0 .47-.35.69-.89.69s-.8-.28-.8-.62A.34.34 0 0 1 216 39c.23 0 .39-.11.39-.27 0-.32-.49-1.05-2.52-1.87a23.93 23.93 0 0 0-2.9-.89c-.08 0-.16-.16-.16-.38s.09-.65.23-.65a2.27 2.27 0 0 1 .59.12l2.21.67a16.66 16.66 0 0 0 2.48.67c.28 0 .36-.09.36-.23 0-.4-.58-.94-1.46-1.27a.12.12 0 0 1-.07-.11c0-.09.08-.28.22-.24a2.49 2.49 0 0 1 1.94 2.12c0 .49-.4.66-.89.66a4.88 4.88 0 0 1-1.05-.19c1.12.68 1.91 1.34 1.91 2.18zm-6.17 9.25c.32-.51.49-.61.49-.78s-.2-.19-.43-.19c-.07 0-.12-.07-.12-.19s.07-.35.16-.35h2.91c.16 0 .19.07.19.26s0 .3-.14.3a2.83 2.83 0 0 0-3 2.75 1.84 1.84 0 0 0 1.88 1.94c1.38 0 1.81-1.19 2.29-2.4s1.07-2.52 2.85-2.52a2.62 2.62 0 0 1 2.58 2.73 2.74 2.74 0 0 1-.3 1.38c-.22.43-.3.53-.3.63s.07.26.28.27.08.05.08.11 0 .28-.09.28h-2.52c-.12 0-.18-.05-.18-.28s0-.27.19-.27a2.09 2.09 0 0 0 2.29-2.13 1.48 1.48 0 0 0-1.52-1.62c-1.15 0-1.51 1-2 2.1-.51 1.35-1.09 2.86-3.16 2.86a2.89 2.89 0 0 1-3-3.1 3 3 0 0 1 .57-1.78zm1.43 12.52c-.71 0-1.12.28-1.12 1.32 0 .08-.11.11-.23.11s-.27 0-.27-.13v-4.08c0-.08.08-.09.24-.09s.26 0 .26.09c0 1 .28 1.32 1.08 1.32h7.38c0-.44.05-.82.05-1.13 0-1.69-.54-2.19-1.9-2.52-.09 0-.09-.07-.09-.12s0-.34.09-.34c.39 0 1.86.09 2.25.09a.23.23 0 0 1 .26.24c0 .22-.07 3.25-.07 4.45s.07 4.21.07 4.42-.11.27-.26.27c-.39 0-1.86.08-2.25.08-.05 0-.11-.13-.11-.31s0-.11.11-.14c1.29-.31 1.9-.85 1.9-2.51v-1c-.87.02-4.6-.02-7.39-.02zm-1.36 7.55c-.16 0-.27 0-.27-.13 0-.34.05-.63.05-1.39s-.05-1.13-.05-1.34.08-.09.24-.09.26 0 .26.12c0 .49.36.78 1 1.15.42.23 7.63 3.39 8 3.45.2.05.28.13.28.32s-.07.23-.24.3c-.93.32-7.65 3.08-8.4 3.59a1.16 1.16 0 0 0-.69 1.09c0 .08-.11.11-.23.11s-.27 0-.27-.13c0-.34.05-.89.05-2s-.05-1.75-.05-2.08c0-.08.08-.09.24-.09s.26 0 .26.09c0 1 .2 1.21.7 1.21a1 1 0 0 0 .38-.08l2.06-.84v-1.63c0-.7 0-1.31.05-1.74-.57-.23-1-.45-1.44-.59a2.82 2.82 0 0 0-1-.27c-.51 0-.69.32-.69.84-.01.1-.12.13-.24.13zm3.93.11v2.92l3.44-1.4c-.47-.27-2.03-.93-3.45-1.53zm3.54 11.46h-6c-.89 0-1.21.55-1.21 1.52 0 .05-.09.09-.24.09s-.26 0-.26-.09v-3.56s.12-.07.24-.07.26 0 .26.09c0 .89.32 1.29 1.21 1.31l6.12.05c.61 0 1.28-.38 1.28-1.6 0-.05 0-.09.24-.09s.26.07.26.12c0 .24-.07 1-.07 1.78v.67a.26.26 0 0 1-.12.23c-.76.59-2.25 1.89-3.72 3.13a40.47 40.47 0 0 1-3.21 2.55h5.33c.78 0 1.28-.18 1.28-1.43 0-.07.09-.11.26-.11s.24 0 .24.13c0 .39-.07.86-.07 1.66 0 1 .07 1.51.07 1.73 0 .05-.07.09-.24.09s-.26 0-.26-.11c0-.8-.24-1.28-1.34-1.31s-4 0-5.49 0h-2.27c-.07 0-.09-.15-.09-.38a.26.26 0 0 1 .13-.22c.95-.63 6.21-4.8 7.67-6.18zm-7.73 10.95c0-.08.08-.09.24-.09s.26 0 .26.09c0 1 .27 1.32 1.07 1.32H219c.7 0 1.05-.31 1.05-1.35 0-.07.08-.09.23-.09s.27 0 .27.12c0 .34-.07 1-.07 2.08 0 .57.08 1.2.08 2.29 0 3.55-2.36 5.22-4.79 5.22-3.24 0-4.88-1.88-4.88-4.92 0-1.15.08-2.08.08-2.59.03-1.05-.05-1.75-.05-2.08zm8.94 2.84l-7-.07c-1.2 0-1.54.62-1.54 1.9 0 2 1.12 3.26 4.29 3.26 2.21 0 4.34-1.11 4.34-3.9a4.89 4.89 0 0 0-.09-1.19zm-8.68 10.93c-.16 0-.27 0-.27-.13 0-.34.05-.63.05-1.39s-.05-1.13-.05-1.34.08-.09.24-.09.26 0 .26.12c0 .49.36.78 1 1.15.42.23 7.63 3.39 8 3.45.2.05.28.13.28.32s-.07.23-.24.3c-.93.32-7.65 3.08-8.4 3.59a1.16 1.16 0 0 0-.69 1.09c0 .08-.11.11-.23.11s-.27 0-.27-.14c0-.34.05-.89.05-2s-.05-1.75-.05-2.08c0-.08.08-.09.24-.09s.26 0 .26.09c0 1 .2 1.21.7 1.21a1 1 0 0 0 .38-.08l2.06-.84v-1.63c0-.7 0-1.31.05-1.74-.57-.23-1-.44-1.44-.59a2.82 2.82 0 0 0-1-.27c-.51 0-.69.32-.69.84-.01.11-.12.14-.24.14zm3.93.11v2.92l3.44-1.4c-.47-.23-2.03-.93-3.45-1.56zm-3.69 13.53c0 .08-.11.11-.23.11s-.27 0-.27-.13v-4.08c0-.08.08-.09.24-.09s.26 0 .26.09c0 1 .28 1.32 1.08 1.32h6.5c.7 0 1.05-.3 1.05-1.34 0-.07.08-.11.23-.11s.27 0 .27.12c0 .34-.07 1-.07 2.08v2.1c0 2.25-1.17 3.32-2.48 3.32-1.05 0-2.1-.82-2.36-2.55a22.33 22.33 0 0 1-2 1.9c-1.74 1.52-2.21 2.09-2.21 2.86 0 .14-.07.18-.26.18s-.28 0-.28-.15v-1.9c0-.66.66-1.29 2-2.36l1.78-1.38a2.6 2.6 0 0 0 .66-.63v-.71h-2.89c-.61.02-1.02.31-1.02 1.35zm8.55-1.23c-.92 0-2.75-.08-4.07-.08v.86c0 1.62.82 2.19 2 2.19a1.86 1.86 0 0 0 2.12-2 6.9 6.9 0 0 0-.02-.97zm-9.05 9.34c0-.08.08-.09.24-.09s.26 0 .26.09c0 1 .27 1.32 1.07 1.32H219c.7 0 1.05-.31 1.05-1.35 0-.07.08-.09.23-.09s.27 0 .27.12c0 .34-.07 1-.07 2.08 0 .57.08 1.2.08 2.29 0 3.55-2.36 5.22-4.79 5.22-3.24 0-4.88-1.87-4.88-4.92 0-1.15.08-2.08.08-2.59.03-1.05-.05-1.76-.05-2.08zm8.94 2.81l-7-.07c-1.2 0-1.54.62-1.54 1.9 0 2 1.12 3.26 4.29 3.26 2.21 0 4.34-1.11 4.34-3.9a4.89 4.89 0 0 0-.09-1.19zM0 85.87c5.66-.34 21.1-3.69 21.1-20.39 0-16.69-15.43-20-21.1-20.39 6.86 2 17.71 7.41 17.71 20.39S6.86 83.89 0 85.87zm18.72-54.68C4.55 23.41.61 37.88.61 37.88s5.7-9.09 18.12-6.68"/><path class="cls-1" d="M12.41 40.76C2.77 35.47.08 45.31.08 45.31S4 39.13 12.41 40.77m6.31 59C4.55 107.55.61 93.08.61 93.08s5.7 9.09 18.12 6.68m-6.32-9.57C2.77 95.49.08 85.64.08 85.64S4 91.83 12.41 90.19m23.22-27.46v.43c0 4.06-4.54 8-10.13 8s-10.13-3.94-10.13-8v-.43c.34 3.86 19.95 3.86 20.26 0z"/><path class="cls-1" d="M24.06 65.48c0 11.18-.84 36.46-13 37.64 0 0 16.1 4.28 16.1-37.65z"/><path class="cls-1" d="M27.25 65.48c0 11.18.84 36.46 13 37.64 0 0-16.1 4.28-16.1-37.65z"/><path class="cls-1" d="M.61 37.88c4.33 1 22.61 3.64 22.61 27.6S4.94 92.12.61 93.08c4.73.7 27.48-1.94 27.48-27.6S5.35 37.18.61 37.88z"/><path class="cls-1" d="M50.7 37.88c-4.33 1-22.61 3.64-22.61 27.6s18.29 26.64 22.61 27.6c-4.73.7-27.48-1.94-27.48-27.6S46 37.18 50.7 37.88z"/><path class="cls-1" d="M51.32 85.87c-5.66-.34-21.1-3.69-21.1-20.39 0-16.69 15.43-20 21.1-20.39-6.86 2-17.71 7.41-17.71 20.39s10.85 18.41 17.71 20.39zM11.06 27.83c12.17 1.18 13 26.47 13 37.64h3.1c0-41.92-16.1-37.64-16.1-37.64z"/><path class="cls-1" d="M40.25 27.83c-12.17 1.18-13 26.47-13 37.64h-3.1c0-41.92 16.1-37.64 16.1-37.64z"/><path class="cls-1" d="M40.25 27.83c-16-18.52-29.19 0-29.19 0s12.86-9.94 29.2 0"/><path class="cls-1" d="M32.6 31.19c14.17-7.78 18.11 6.69 18.11 6.69s-5.71-9.1-18.12-6.69m6.32 9.57c9.64-5.29 12.32 4.55 12.32 4.55s-3.88-6.19-12.33-4.55m1.35 62.36c-16 18.52-29.19 0-29.19 0s12.86 9.94 29.2 0"/><path class="cls-1" d="M32.6 99.77c14.17 7.78 18.11-6.69 18.11-6.69s-5.7 9.09-18.12 6.68m6.32-9.57c9.64 5.29 12.32-4.55 12.32-4.55s-3.88 6.19-12.33 4.55"/></svg>