<svg id="レイヤー_1" data-name="レイヤー 1" xmlns="http://www.w3.org/2000/svg" viewBox="0 0 55.37 179.32" preserveAspectRatio="xMidYMin"><defs><style>.cls-1{fill:#fff}</style></defs><title>txt_top_waselect</title><path class="cls-1" d="M8.67 23.09a1.13 1.13 0 0 1-1.15 1 .79.79 0 0 1-.81-.9v-.06c.14-3.16.25-7.34.31-11-2.24 4-6.27 6.41-6.94 6.41-.06 0-.08 0-.08-.06s.14-.25.45-.48c2-1.46 6-6.72 6.58-9.49V8.4a36.6 36.6 0 0 0-4.42.25c-.34 0-1.12-1-1.12-1.34a45.78 45.78 0 0 0 5.57.39V6.19c0-.45 0-2.27-.11-3.36a33.07 33.07 0 0 1-3.89.25c-.64 0-1.06 0-1.06-.14s.2-.14.59-.17c2.07-.22 6.69-1.4 7.76-2.6.08-.08.08-.17.14-.17s2 1.34 2 1.85c0 .17-.17.28-.45.28a1 1 0 0 1-.39-.06L11.31 2a1.13 1.13 0 0 0-.42.08 10.3 10.3 0 0 1-1.65.39c.14.08.22.17.22.25S9.32 3 9 3.15s-.48.36-.48 4.54h1.22a.48.48 0 0 0 .34-.22c.25-.42.92-1.54 1.23-1.54.48 0 2.21 1.51 2.21 2.16 0 .17-.14.31-.53.31H8.57v2.94h.17c2.13 0 4.28 1 4.28 2.41a.87.87 0 0 1-.73 1h-.08A1.52 1.52 0 0 1 11 14a8.2 8.2 0 0 0-2.46-2.35c0 3.7.08 8 .2 11.42zM22.08 22v-1.77H16v2.18a1.06 1.06 0 0 1-1.12 1 .72.72 0 0 1-.78-.78v-.08c.2-2.8.25-8.76.25-12.63V6.78A24.86 24.86 0 0 0 14 3.25a.49.49 0 0 1 0-.17C14 3 14 3 14.08 3a13 13 0 0 1 2.63 1.23h4.7a.58.58 0 0 0 .42-.23c.36-.59.59-.84.9-.84S25 4.26 25 4.82c0 .31-.36.5-.64.67-.56.31-.56.39-.56 2.94 0 3.44.08 10.16.22 13.36a1.07 1.07 0 0 1-1.12 1 .76.76 0 0 1-.81-.81zm.06-2.46v-7c0-3.36 0-6.38-.08-7.2a.38.38 0 0 0-.42-.34h-5c-.06 0-.08.08-.14.11-.45.31-.45.14-.5 1.09 0 .76-.06 2.91-.06 5.46v7.84zm-7.9 19.11c0 6.13-4.9 12.35-7.31 12.35-1.37 0-1.88-1.88-3-3.53a4.36 4.36 0 0 1-.67-2.55c0-4.26 3.72-11 11.28-11 6.36 0 9.63 4.4 9.63 9 0 8.51-9.74 10.92-12 10.92-.25 0-.39-.06-.39-.11a2.94 2.94 0 0 1 1.22-.56c7.36-2 9.35-6.86 9.35-10.33 0-4.14-2.86-7.92-8.18-7.92a5.54 5.54 0 0 0-1 .06c.68.45 1.07 1.88 1.07 3.67zm-1-1c0-2-.48-2.49-1.09-2.49a1 1 0 0 0-.28 0 .69.69 0 0 1-.22 0 9.89 9.89 0 0 0-7 9.1c0 2.46 1.23 4.34 2.58 4.34 1.86.05 6-5.8 6-11zM9 71.72c-3.7 0-5.82-3.08-5.82-6.41a9.72 9.72 0 0 1 1-4.28.69.69 0 0 1 .7-.42c.78 0 3-.28 3.39-.28.14 0 .2.22.2.42s0 .34-.11.34C8 61.15 4 61.9 4 65.32a4.13 4.13 0 0 0 4.2 4.07h.27a5 5 0 0 0 3.84-2.55c.34-.48.67-1 1-1.51 1.34-2 3.05-3.86 5.71-3.86 3.89 0 4.84 4 4.84 6a22.86 22.86 0 0 1-.31 3.08c0 .28-.06.34-.36.42a24.92 24.92 0 0 1-3.28.5c-.08 0-.25-.31-.25-.53a.19.19 0 0 1 .11-.2C21.7 70.2 23 69.08 23 67.09a3.33 3.33 0 0 0-3.12-3.53h-.1c-2 0-3 1.51-4.68 4.17-1.32 2-3.22 3.99-6.1 3.99zM8 93.23c-1.18-.36-3.42-1.46-4.23-1.74-.22-.08-.31-.31-.31-.76 0 0 .11-4.59.11-8.65 0-2 0-3.89-.11-5a.29.29 0 0 1 .27-.31.63.63 0 0 1 .5.28c.17 1.82.31 2.1 1.23 2.32a71.58 71.58 0 0 0 7.9.2c6.44 0 7.22-.08 7.9-.22s1.26-.5 1.26-2.44a.56.56 0 0 1 .48-.22c.2 0 .36.08.36.28-.08.87-.11 2.55-.11 4.45 0 3.75.11 8.26.11 8.26 0 .48 0 .62-.28.62h-.48c-.92 0-2.21.2-3.14.2-.22 0-.34-.22-.34-.45s0-.22.14-.25c2.72-1 3.22-2.16 3.22-5.38a8.84 8.84 0 0 0-.11-1.54c-.14-.9-.9-.9-5.35-.9h-2c-.31 0-.45.11-.45 1.57 0 2.49.25 3.89 2.49 4.28.17 0 .25.22.25.42s-.08.42-.31.42a16.44 16.44 0 0 0-2.46-.14c-1.74 0-3.44.14-3.44.14-.17 0-.28-.2-.28-.42a.41.41 0 0 1 .28-.42c2.24-.2 2.66-1.57 2.66-4.42 0-1.32-.06-1.43-.48-1.43h-1.1c-1.34 0-3.25 0-4 .06-2.32.11-3.28 0-3.7 2.72a7 7 0 0 0-.08 1.12c0 3 1 4.68 3.95 6.64a.29.29 0 0 1 .14.25c0 .22-.22.48-.36.48zm-4.33 8.69a37.94 37.94 0 0 0-.17-4.56v-.06a.27.27 0 0 1 .26-.3h.05a.68.68 0 0 1 .5.25c.2 2.46.42 2.44 4.87 2.49h8.37c4.45-.06 4.76.31 5-2.58a.58.58 0 0 1 .45-.25.33.33 0 0 1 .36.3s-.14 2.13-.14 4.31a23 23 0 0 0 .17 3.28v.06c0 .17-.14.25-.34.25a.68.68 0 0 1-.5-.25c-.34-2.83-.59-2.58-5.07-2.66h-5c-7.53 0-7.73 0-8 2.52v.36a15.89 15.89 0 0 0 .14 1.62c.34 3 1.6 4 3.56 5.29.06 0 .08.11.08.22s-.11.5-.25.5a26.11 26.11 0 0 1-4.12-1.65c-.34-.14-.36-.25-.36-.78-.03.01.14-4.52.14-8.36zM8 133c-1.18-.36-3.42-1.46-4.23-1.74-.22-.08-.31-.31-.31-.76 0 0 .11-4.59.11-8.65 0-2 0-3.89-.11-5a.29.29 0 0 1 .27-.31.63.63 0 0 1 .5.28c.17 1.82.31 2.1 1.23 2.32a71.58 71.58 0 0 0 7.9.2c6.44 0 7.22-.08 7.9-.22s1.26-.5 1.26-2.44a.56.56 0 0 1 .48-.22c.2 0 .36.08.36.28-.08.87-.11 2.55-.11 4.45 0 3.75.11 8.26.11 8.26 0 .48 0 .62-.28.62h-.48c-.92 0-2.21.2-3.14.2-.22 0-.34-.22-.34-.45s0-.22.14-.25c2.72-1 3.22-2.16 3.22-5.38a8.84 8.84 0 0 0-.11-1.54c-.14-.9-.9-.9-5.35-.9h-2c-.31 0-.45.11-.45 1.57 0 2.49.25 3.89 2.49 4.28.17 0 .25.22.25.42s-.08.42-.31.42a16.44 16.44 0 0 0-2.46-.14c-1.74 0-3.44.14-3.44.14-.17 0-.28-.2-.28-.42a.41.41 0 0 1 .28-.42c2.24-.2 2.66-1.57 2.66-4.42 0-1.32-.06-1.43-.48-1.43h-1.1c-1.34 0-3.25 0-4 .06-2.32.11-3.28 0-3.7 2.72a7 7 0 0 0-.08 1.12c0 3 1 4.68 3.95 6.64a.29.29 0 0 1 .14.25c0 .22-.22.48-.36.48zm-4.89 15.66c0-5.94 3.5-11.28 10.58-11.28 5.52 0 10.19 4.62 10.19 10.84 0 2.55-.53 4-.53 6v.14c0 .73 0 .81-.64.84s-3.08.48-4.12.48c-.2 0-.31-.25-.31-.48a.34.34 0 0 1 .17-.34c3.19-1.09 4.48-3.72 4.48-6.72 0-3.86-3-7.81-9.24-7.81s-9.58 4.06-9.58 8.67c0 2.38 1.88 4.87 4.59 6.08a.31.31 0 0 1 .14.31c0 .14-.14.59-.39.59a.41.41 0 0 1-.17-.06 14.81 14.81 0 0 0-3-.73c-.39-.08-.42-.08-.62-.42a13 13 0 0 1-1.55-6.11zm.59 20.79a24.27 24.27 0 0 0-.2-3.39V166c0-.2.14-.28.34-.28a.68.68 0 0 1 .5.25c.48 2.94.48 3 5.07 3h7.93a43.55 43.55 0 0 0 4.45-.17c.61-.17.62-.2.62-2.07 0-2.74-.31-3.92-3.56-5.32a.4.4 0 0 1-.2-.39c0-.2.08-.39.28-.39H19c1.79.34 3.81 1 5 1.09.17 0 .25.22.25.45a.4.4 0 0 1-.2.39c-.42.17-.78.73-.78 2.74 0 1.76-.06 3.44-.06 5.12 0 5.68.11 7.62.92 8.23a.32.32 0 0 1 .11.28c0 .2-.11.39-.22.39a12.52 12.52 0 0 0-1.6-.08h-2.17c-1.37 0-1.37-.08-1.37-.39s.08-.34.2-.36c2-.62 2.88-.84 3.28-3.72a10.94 10.94 0 0 0 .08-1.26 8.47 8.47 0 0 0-.06-1.32c0-.73-.08-.81-7.36-.81H8c-2.63 0-3.36.2-3.7 3a.62.62 0 0 1-.48.28.31.31 0 0 1-.34-.34s.22-2.41.22-4.87zM46.43 5.57a.91.91 0 0 0-.24 0 .22.22 0 0 0-.24.23c0 .41.58.94 1.46 1.27a.12.12 0 0 1 .07.11.24.24 0 0 1-.22.24c-.93-.3-2-1.08-2-2.12 0-.49.35-.62.92-.62a3.72 3.72 0 0 1 .54 0 2.61 2.61 0 0 1-1.5-2.08A1.53 1.53 0 0 1 46.64 1h.28c2.32 0 5 2.13 5 4a1 1 0 0 1-.58 1l.42.14c.12 0 .16.2.16.39s-.13.65-.39.65c-1.89-.66-4.05-1.32-5.1-1.61zM51.34 5c0-1.2-2.77-2.87-4.72-2.87-.46 0-.82.16-.82.66 0 .88.92 1.58 2.27 2.15a8.66 8.66 0 0 0 2.56.73c.43 0 .71-.12.71-.68zm-.86 13c0-.65.85-.28.85-1a.69.69 0 0 0-.66-.72h-.12a4.46 4.46 0 0 0-1.65.58 4.12 4.12 0 0 1-1.87.59 1.83 1.83 0 0 1-1.82-1.84v-.16c0-.88.4-1.66 1.12-1.66a.51.51 0 0 1 .57.53.38.38 0 0 1-.32.43h-.11c-.54 0-.7.36-.7.77a.81.81 0 0 0 .72.89h.17a3.7 3.7 0 0 0 1.58-.55 3.92 3.92 0 0 1 1.76-.57A1.79 1.79 0 0 1 51.89 17v.13c0 .82-.34 1.31-.86 1.31a.49.49 0 0 1-.55-.5zm-2.27 3.35a5.47 5.47 0 0 0-1.38-.23c-.7 0-1 .3-1 .86a2.41 2.41 0 0 0 1.52 1.92c.11 0 .13.05.13.15s-.08.3-.22.26a2.83 2.83 0 0 1-2.05-2.7A1.63 1.63 0 0 1 46.84 20h.08c2.48 0 5 2.13 5 4.17 0 .84-.45 1.16-1.05 1.16-1.03-.03-2.01-1.33-2.66-3.98zm3.1 2.65c0-.75-.94-1.85-2.62-2.46.5 1.77 1.32 2.87 2.2 2.87a.38.38 0 0 0 .45-.41zm.57 8.23a1.07 1.07 0 0 1-.88 1.19h-.2a6.09 6.09 0 0 1-2.41-.62 7.14 7.14 0 0 0-2.14-.67.22.22 0 0 0-.24.23c0 .4.58.94 1.46 1.27a.12.12 0 0 1 .07.11c0 .09-.08.28-.22.24-.94-.27-2-1.15-2-2.1 0-.54.22-.79.81-.79a8 8 0 0 1 2.52.7 6.26 6.26 0 0 0 2.2.59c.35 0 .5-.15.5-.49 0-.71-1.13-1.87-2.35-2.35-.66-.26-3-1-3.41-1.08-.08 0-.16-.16-.16-.38s.09-.65.23-.65a2.31 2.31 0 0 1 .59.12l2.21.67a16.68 16.68 0 0 0 2.48.67c.28 0 .36-.09.36-.23 0-.41-.58-.94-1.46-1.27a.12.12 0 0 1-.07-.11c0-.09.08-.28.22-.24a2.49 2.49 0 0 1 1.94 2.12c0 .49-.38.66-.86.66a4.32 4.32 0 0 1-1-.18 3.29 3.29 0 0 1 1.81 2.59zm-1.67 8.6c0-.32.19-.53.57-.59s.51-.16.51-.46c0-.82-2.35-2.51-4.49-2.51-.78 0-1 .4-1 .81 0 .73.53 1.34 1.62 1.9.07 0 .12.08.12.16s-.12.3-.27.24a2.77 2.77 0 0 1-2.09-2.54 1.61 1.61 0 0 1 1.48-1.73h.23c2.68 0 5 2.2 5 3.86 0 1.08-.45 1.42-1 1.42a.59.59 0 0 1-.68-.56zm-2 3.61a5.47 5.47 0 0 0-1.38-.23c-.7 0-1 .3-1 .86A2.41 2.41 0 0 0 47.35 47c.11 0 .13.05.13.15s-.08.3-.22.26a2.83 2.83 0 0 1-2.05-2.7 1.63 1.63 0 0 1 1.63-1.63h.08c2.48 0 5 2.13 5 4.17 0 .84-.45 1.16-1.05 1.16-1.03-.02-2.01-1.35-2.66-3.97zm3.1 2.62c0-.75-.94-1.85-2.62-2.46.5 1.77 1.32 2.87 2.2 2.87a.38.38 0 0 0 .45-.41zm-6.09 9.52c0-.71.27-1.9 2.06-1.9s4.6 1.65 4.6 3.72c0 .92-.53 1.89-2.16 1.89s-4.5-1.47-4.5-3.71zm6.16 1.83c0-1.36-2.85-2.68-4.69-2.68-.74 0-1 .24-1 .8 0 1.33 2.74 2.67 4.55 2.67.87 0 1.1-.23 1.1-.79zm-5.65 5.07c-3-.89-4-1.81-4-3.44 0-1.19.51-1.63 1.09-1.63a.6.6 0 0 1 .65.55.49.49 0 0 1-.48.5h-.06a.55.55 0 0 0-.62.59c0 .69.51 1.55 3.24 2.31L51 63.92v-.73c0-.11 0-.09.15-.09s.35 0 .35.13V64l1.56.46c1.87.55 2.27 1.63 2.27 2.55 0 1.13-.47 1.58-1.07 1.58a.57.57 0 0 1-.58-.53.48.48 0 0 1 .47-.49h.06c.34 0 .53-.15.53-.63s-.7-1.08-3.24-1.81v1.17c0 .25 0 .15-.2.15s-.3-.07-.3-.15V65zm-3.61 13.95c0-1.39.62-2 1.29-2a.64.64 0 0 1 .7.69c0 1-1.32.5-1.32 1.54s.61 1.46 2.46 1.46h8.34c.7 0 1.05-.31 1.05-1.35 0-.07.08-.09.23-.09s.27 0 .27.12c0 .34-.07 1-.07 2.08s.07 1.71.07 2.06c0 .09-.11.11-.26.11s-.24 0-.24-.11c0-1-.47-1.31-1.11-1.31-.92 0-5.29-.08-8.08-.08a3.15 3.15 0 0 1-3.32-3q-.01-.04-.01-.12zm3.66 8.95c-.16 0-.27 0-.27-.13 0-.34.05-.63.05-1.39s-.05-1.13-.05-1.33.08-.09.24-.09.26 0 .26.12c0 .49.36.78 1 1.15.42.23 7.63 3.39 8 3.45.2.05.28.13.28.32s-.07.23-.24.3c-.93.32-7.65 3.08-8.4 3.59a1.16 1.16 0 0 0-.65 1.09c0 .08-.11.11-.23.11s-.27 0-.27-.13c0-.34.05-.89.05-2s-.05-1.75-.05-2.08c0-.08.08-.09.24-.09s.26 0 .26.09c0 1 .2 1.21.7 1.21a1 1 0 0 0 .38-.08l2.06-.84V88a17.27 17.27 0 0 1 .05-1.74c-.57-.23-1-.45-1.44-.59a2.83 2.83 0 0 0-1-.27c-.51 0-.69.32-.69.84-.06.11-.16.14-.28.14zm3.93.11v2.92L53.15 88c-.47-.23-2-.93-3.45-1.52zM55.12 100c0 2.2-1.05 3.59-2.63 3.59-1.29 0-2.51-.71-2.51-3.83v-1h-2.9c-.71 0-1.11.34-1.11 1.38 0 .08-.11.11-.23.11s-.27 0-.27-.13V96c0-.08.08-.09.24-.09s.26 0 .26.09c0 1 .27 1.32 1.07 1.32h6.5c.7 0 1.05-.31 1.05-1.35 0-.07.08-.09.23-.09s.27 0 .27.12c0 .34-.07 1-.07 2.08a15.78 15.78 0 0 1 .1 1.92zm-4.64-.36c0 1.67.62 2.27 2 2.27 1.63 0 2.13-.62 2.13-2.44a3.82 3.82 0 0 0 0-.63c-1.4-.05-3.17-.08-4.09-.08a4.41 4.41 0 0 0-.04.84zm-4.7 7.36c-.16 0-.27 0-.27-.13 0-.34.05-.63.05-1.39s-.05-1.13-.05-1.33.08-.09.24-.09.26 0 .26.12c0 .49.36.78 1 1.15.42.23 7.63 3.38 8 3.45.2.05.28.13.28.32s-.07.23-.24.3c-.93.32-7.65 3.08-8.4 3.59a1.16 1.16 0 0 0-.65 1.11c0 .08-.11.11-.23.11s-.27 0-.27-.13c0-.34.05-.89.05-2s-.05-1.75-.05-2.08c0-.08.08-.09.24-.09s.26 0 .26.09c0 1 .2 1.21.7 1.21a1 1 0 0 0 .38-.08l2.06-.84v-1.63a17.27 17.27 0 0 1 .05-1.74c-.57-.23-1-.45-1.44-.59a2.81 2.81 0 0 0-1-.27c-.51 0-.69.32-.69.84-.06.1-.16.1-.28.1zm3.93.11V110l3.44-1.4c-.47-.22-2-.93-3.45-1.52zm3.54 11.49h-6c-.89 0-1.21.55-1.21 1.52 0 .05-.09.09-.24.09s-.26 0-.26-.09v-3.56a.55.55 0 0 1 .24-.07c.12 0 .26 0 .26.09 0 .89.32 1.29 1.21 1.31l6.12.05c.61 0 1.28-.38 1.28-1.61 0-.05 0-.09.24-.09s.26.07.26.12c0 .24-.07 1-.07 1.78v.67a.26.26 0 0 1-.08.19c-.76.59-2.25 1.89-3.72 3.13a40.29 40.29 0 0 1-3.28 2.59h5.31c.78 0 1.28-.17 1.28-1.43 0-.07.09-.11.26-.11s.24 0 .24.13c0 .39-.07.86-.07 1.66 0 1 .07 1.51.07 1.73 0 .05-.07.09-.24.09s-.26 0-.26-.11c0-.8-.24-1.28-1.34-1.31s-4 0-5.49 0h-2.24c-.07 0-.09-.15-.09-.38a.26.26 0 0 1 .13-.21c.97-.64 6.23-4.78 7.69-6.18zm-7.73 10.95c0-.08.08-.09.24-.09s.26 0 .26.09c0 1 .27 1.32 1.07 1.32h6.5c.7 0 1.05-.31 1.05-1.35 0-.07.08-.09.23-.09s.27 0 .27.12c0 .34-.07 1-.07 2.08 0 1.24.07 4.64.07 4.84s-.07.23-.26.23c-.84 0-1.59.09-2 .09-.09 0-.13-.12-.13-.28s0-.24.11-.26c1.16-.21 1.73-.79 1.73-2.23a12.9 12.9 0 0 0-.09-1.62c-1 0-2.9-.05-3.6-.11 0 1.93.54 2.08 1.36 2.08.16 0 .19 0 .19.28s0 .27-.2.27a14.81 14.81 0 0 0-1.6-.07c-1 0-1.43.07-1.61.07s-.19-.05-.19-.27.05-.28.19-.28c.92 0 1.38-.26 1.38-2.08H47c-.63 0-1 .2-1 1.54 0 2.27.69 2.82 2.13 3 .13 0 .19.09.19.26s0 .3-.15.3c-.47 0-1.29-.07-2.54-.07-.15 0-.18-.05-.18-.2 0-.9.07-4.4.07-5.44v-2.13zm.19 12.37c.32-.51.49-.61.49-.78s-.2-.19-.43-.19c-.07 0-.12-.07-.12-.19s.07-.35.16-.35h2.91c.16 0 .19.07.19.26s0 .3-.14.3a2.83 2.83 0 0 0-3 2.65v.1a1.84 1.84 0 0 0 1.74 1.94h.14c1.38 0 1.81-1.19 2.29-2.4s1.07-2.52 2.85-2.52a2.62 2.62 0 0 1 2.58 2.66v.06a2.74 2.74 0 0 1-.3 1.38c-.22.43-.3.53-.3.63a.27.27 0 0 0 .28.27c.21 0 .08.05.08.11s0 .28-.09.28h-2.52c-.12 0-.18-.05-.18-.28s0-.27.19-.27a2.09 2.09 0 0 0 2.29-2.13 1.48 1.48 0 0 0-1.33-1.61h-.19c-1.15 0-1.51 1-2 2.1-.51 1.35-1.09 2.86-3.16 2.86a2.89 2.89 0 0 1-3-3.1 3 3 0 0 1 .57-1.78zm-.19 7.51c0-.08.08-.09.24-.09s.26 0 .26.09c0 1 .27 1.32 1.07 1.32h6.5c.7 0 1.05-.31 1.05-1.35 0-.07.08-.09.23-.09s.27 0 .27.12c0 .34-.07 1-.07 2.08 0 1.24.07 4.64.07 4.84s-.07.23-.26.23c-.84 0-1.59.09-2 .09-.09 0-.13-.12-.13-.28s0-.24.11-.26c1.16-.21 1.73-.79 1.73-2.23a12.9 12.9 0 0 0-.09-1.62c-1 0-2.9-.05-3.6-.11 0 1.93.54 2.08 1.36 2.08.16 0 .19 0 .19.28s0 .27-.2.27a14.81 14.81 0 0 0-1.6-.07c-1 0-1.43.07-1.61.07s-.19-.05-.19-.27.05-.28.19-.28c.92 0 1.38-.26 1.38-2.08H47c-.63 0-1 .2-1 1.54 0 2.27.69 2.82 2.13 3 .13 0 .19.09.19.26s0 .3-.15.3c-.47 0-1.29-.07-2.54-.07-.15 0-.18-.05-.18-.2 0-.9.07-4.4.07-5.44v-2.13z"/></svg>