<svg id="design" xmlns="http://www.w3.org/2000/svg" viewBox="0 0 259.54 166.43"><defs><style>.cls-1{fill:#040000}</style></defs><title>txt_top_c2</title><path class="cls-1" d="M65.76 16.16A28.59 28.59 0 0 0 67.88 26a24.49 24.49 0 0 0 2.52-4.52 15.32 15.32 0 0 0 .64-2.4c0-.16 0-.28.12-.28.36 0 3.68 1.92 3.68 2.52 0 .24-.32.48-1.12.6-.56.08-.68.08-1 .72a25.32 25.32 0 0 1-3.72 5.6c2.6 4 5.76 4.48 5.92 4.48 1.4 0 2.08-1.84 3.48-5 .12-.24.4-.84.4-.08 0 1.08-.44 4-.44 5.28 0 .36 0 .6.08.68a2 2 0 0 1 .48 1.2c0 .76-.68 1.36-1.88 1.36-2 0-6.64-2-9.44-6.44a24.91 24.91 0 0 1-17.32 6.72c-.48 0-.76-.08-.76-.16s.24-.2.8-.24a24.94 24.94 0 0 0 16.2-8.28 39 39 0 0 1-3-11.56H51.28a3.53 3.53 0 0 1-.4.24c-.56.28-.56.2-.56 1.56 0 3.36-.12 8-2.24 12 2.8-2.48 4.4-5.6 4.48-6.6 0-.16 0-.28.12-.28s2.84.92 2.84 1.6c0 .24-.28.52-.88.52-.44 0-.4.12-.64.4A18.46 18.46 0 0 1 47.48 31c-2.12 3.28-5.56 5-6.12 5a.09.09 0 0 1-.08-.08c0-.08.24-.36.84-.8 4.68-3.6 5.64-9.28 5.64-14.32a29.73 29.73 0 0 0-.68-6.8.71.71 0 0 1 0-.24s0-.08.08-.08 3.84 1 4.36 1.56H63.4a15.2 15.2 0 0 0-.76-3.36.84.84 0 0 1-.08-.24c0-.12.08-.16.24-.16s4.2.2 4.2 1.04c0 .2-.24.44-.64.64-.6.24-.68.32-.68.88v1.16h4.92a.83.83 0 0 0 .68-.36c1.24-2 1.52-2.2 1.88-2.2 1 0 3.36 2.44 3.36 3.08 0 .24-.2.44-.88.44zM57 10.36c-2.24 0-7.76.08-11.32.44-.72 0-1.84-1.52-1.84-2 2.2.28 5.2.44 7.88.52V6.36a23.12 23.12 0 0 0-.44-4.28.43.43 0 0 1 0-.2.11.11 0 0 1 .12-.12c1 0 4.24.48 4.24 1.28 0 .36-.48.72-1 1S54 4.52 54 9.36h5.48v-4.8A22.15 22.15 0 0 0 59 .36a.51.51 0 0 1 0-.24C59 0 59 0 59.16 0c1 0 4.12.68 4.12 1.36 0 .36-.44.72-1 1-.2.08-.44 0-.52 1.4v1.16h5.04a.83.83 0 0 0 .68-.36c.16-.28 1.36-2.12 2-2.12a.51.51 0 0 1 .24 0c1.48.52 3.4 2.36 3.4 3 0 .24-.2.44-.88.44H61.68V9.4h9.72a.83.83 0 0 0 .68-.4c.36-.56 1.56-2.24 2.16-2.24a.51.51 0 0 1 .24 0C75.63 7.24 78 9 78 9.92c0 .24-.2.44-.88.44zm2.32 10.52a.29.29 0 0 1 .16.24c0 .2-.2.4-.72.52-.32.08-.36 1.4-.36 2.12v3.12c0 .6.12 1.36.12 2 0 2.6-3.24 3.08-3.48 3.08s-.4-.16-.56-.44c-.52-1.12-3.28-2-3.28-2.2s0 0 .08 0 .32 0 .6.08a15.26 15.26 0 0 0 2.72.28c2 0 2-.44 2-3.48a48.57 48.57 0 0 0-.2-5.24 21.14 21.14 0 0 0-3.88.36C52 21.24 51 19.84 51 19.4a37.67 37.67 0 0 0 6.2.6h1.64a.77.77 0 0 0 .48-.32c.92-1.64 1.28-1.72 1.48-1.72a.3.3 0 0 1 .2 0c.92.44 2.52 1.76 2.52 2.44 0 .24-.16.48-.76.48zm2.56 6A9.18 9.18 0 0 0 59.36 24c-.16-.16-.24-.24-.24-.28s0 0 .36 0c1.4.08 4.76.68 4.76 3A1.16 1.16 0 0 1 63.16 28a1.5 1.5 0 0 1-1.28-1.08zm7-12.88a7.65 7.65 0 0 0-2.16-2.24c-.16-.08-.2-.16-.2-.2s1.08-.16 1.16-.16c.24 0 3.4 0 3.4 2a1.28 1.28 0 0 1-1.16 1.32 1.24 1.24 0 0 1-1.08-.72zM53 69.64h-5v4a1.46 1.46 0 0 1-1.52 1.32 1 1 0 0 1-1.08-1.08v-.12c.24-3.8.32-9.44.32-13.88V53.2a37.92 37.92 0 0 0-.44-5.2.78.78 0 0 1 0-.28v-.08A23.78 23.78 0 0 1 49 49.32h3.2a.69.69 0 0 0 .56-.32c.64-1 1-1.12 1.16-1.12.6 0 3.08 1.4 3.08 2.32 0 .4-.48.68-.88.92-.76.48-.68.8-.72 1.64s0 2.2 0 3.88c0 4 .08 10 .28 14.76v.08A1.5 1.5 0 0 1 54.12 73 1 1 0 0 1 53 71.8zm.08-11c0-3.6 0-6.64-.08-7.72a.43.43 0 0 0-.44-.44h-3.64a2.22 2.22 0 0 1-.32.24c-.56.32-.6 1-.6 7.92zm0 10v-9H48v9zm12.48-9.76c-2 0-4.08 0-7.84.36C57 59.2 56 57.72 56 57.28c4.68.44 7.16.56 9.16.56v-5.4a46.1 46.1 0 0 0-5.84.36c-.68 0-1.64-1.44-1.64-1.88a56.4 56.4 0 0 0 7.52.56V49.6a22.4 22.4 0 0 0-.52-5 1.73 1.73 0 0 0 0-.2c0-.12.08-.12.2-.12s4.28.32 4.28 1.32c0 .32-.32.64-.92.92a.93.93 0 0 0-.56.88c-.08.84-.08 2.4-.12 4.12h3.32a.82.82 0 0 0 .56-.32c1.16-1.92 1.4-2.2 1.8-2.2h.28c.6.2 2.88 2 2.88 2.88 0 .24-.2.48-.84.48h-8v5.4H73a.82.82 0 0 0 .56-.32 14.54 14.54 0 0 1 1.6-2.12.56.56 0 0 1 .36-.12c.8 0 3.4 2.24 3.4 3 0 .28-.24.52-1 .52zm6.36 6.88v6.08c0 .68.16 3.12.16 3.92a4.62 4.62 0 0 1-4.84 4.56c-.4 0-.48-.24-.72-.56-.56-.72-5-2.44-5-2.72h.12a2.15 2.15 0 0 1 .44 0 24 24 0 0 0 4.16.48c2.36 0 3.28-.76 3.32-2 0-1.76.08-3.44.08-5 0-1.84 0-3.44-.08-4.76h-3.88c-2 0-4.2 0-8 .36C57 66.08 56 64.6 56 64.16c5.08.48 7.68.56 9.76.56h3.76v-.48a23.35 23.35 0 0 0-.44-4.2.44.44 0 0 1 0-.2c0-.12 0-.12.2-.12s4.12.28 4.12 1.2c0 .24-.2.44-.48.6-.68.32-.84.28-.92 1.88v1.32h1.52a.82.82 0 0 0 .48-.32 13.5 13.5 0 0 1 1.52-2 .56.56 0 0 1 .36-.12c.8 0 3.36 2.2 3.36 3 0 .28-.24.52-1 .52zm-9 6.56a15.29 15.29 0 0 0-3.44-3.36c-.32-.24-.48-.36-.48-.4s.12 0 .6 0c3.32.08 6.2 1.44 6.2 3.4a1.44 1.44 0 0 1-1.32 1.52 2 2 0 0 1-1.56-1.2zM50.68 97.4a46.29 46.29 0 0 0-6.12.36c-.48 0-1.64-1.48-1.64-1.92a59.75 59.75 0 0 0 7.88.56h4a.69.69 0 0 0 .48-.32C55.56 95.6 56.56 94 57 94h.24c1.2.48 3 2.32 3 3 0 .24-.16.4-.76.4zm.4-5.48a23.88 23.88 0 0 0-4 .36c-.56 0-1.52-1.32-1.52-1.92a31.3 31.3 0 0 0 5.6.56h1.52a.71.71 0 0 0 .44-.32c0-.08 1-1.92 1.6-1.92a1.74 1.74 0 0 1 .2 0c1.24.56 2.6 2 2.6 2.68 0 .28-.16.52-.72.52zm0 10.44a20 20 0 0 0-4 .36c-.48 0-1.52-1.24-1.52-1.92a31.31 31.31 0 0 0 5.6.56h1.64a.71.71 0 0 0 .44-.32c0-.08 1-1.8 1.56-1.8a1.73 1.73 0 0 1 .2 0c.88.4 2.52 1.8 2.52 2.56 0 .24-.16.52-.72.52zm0 5.24a19.92 19.92 0 0 0-4 .36c-.48 0-1.52-1.32-1.52-1.92a31.31 31.31 0 0 0 5.6.56h1.64a.71.71 0 0 0 .44-.32c.56-1.08 1.28-1.8 1.56-1.8a1.73 1.73 0 0 1 .2 0c1 .48 2.52 1.8 2.52 2.56 0 .28-.16.52-.72.52zM54.4 122v-.92h-6.08v1.88c0 .72-.8 1.2-1.52 1.2a.9.9 0 0 1-1-.92v-.16a74.72 74.72 0 0 0 .32-7.52 36.73 36.73 0 0 0-.48-5.08v-.24c0-.08 0-.08.08-.08a22.09 22.09 0 0 1 3.52 1.6h4.28a.62.62 0 0 0 .52-.32c.16-.24.72-1.08 1.12-1.08s3 1.28 3 2.2c0 .44-.48.68-.84.92-.6.36-.72.52-.72 2.2 0 1.48.12 3.6.28 6a1.39 1.39 0 0 1-1.44 1.36 1 1 0 0 1-1.08-1zm0-2v-3.68c0-1.04 0-2-.08-3 0-.12-.08-.44-.32-.44h-4.84a1.7 1.7 0 0 1-.28.2c-.52.36-.48.28-.52 1.28s-.08 2.2-.08 3.28v2.4zm10.76-16.2c-.08 0-.16.12-.24.16-.52.32-.6.28-.68 1.24-.12 1.64-.24 8-.24 11.36 0 3 0 3.76 5.64 3.76a24.31 24.31 0 0 0 4-.32c2-.36 2.6-3.56 3.16-6.72 0-.2 0-.28.08-.28.2 0 .28 5.44 1.2 5.92a1.25 1.25 0 0 1 .76 1c0 .84-1.12 2.64-9.24 2.64-3.4 0-8 0-8-4.32v-.12c.08-4.64.16-7.6.2-11.16a55.91 55.91 0 0 0-.28-5.64v-.28c0-.08 0-.2.16-.2s3.44 1.28 3.84 1.88h6.64V99c0-2.76 0-5.28-.08-5.76 0-.28-.12-.52-.56-.52h-2.28c-1.2 0-4.44.16-6.84.36-.56 0-1.64-1.44-1.64-2a78.22 78.22 0 0 0 8.6.56h1.84a.88.88 0 0 0 .6-.36c.52-.68 1-1.24 1.36-1.24.68 0 3.28 1.64 3.28 2.48 0 .36-.32.64-.84.92-1.12.64-1.12.64-1.12 2.24s.08 5.88.24 8.84a1.43 1.43 0 0 1-1.56 1.4 1 1 0 0 1-1-1.08v-1.08zm-3.28 40.96c0 8.76-7 17.68-10.44 17.68-2 0-2.68-2.68-4.32-5a6.22 6.22 0 0 1-1-3.64c0-6.08 5.32-15.72 16.12-15.72 9.08 0 13.76 6.28 13.76 12.8 0 12.16-13.92 15.6-17.2 15.6-.36 0-.56-.08-.56-.16s.64-.52 1.8-.84c10.52-2.84 13.36-9.8 13.36-14.76 0-5.92-4.08-11.32-11.68-11.32-.48 0-1 0-1.44.08 1.04.68 1.6 2.72 1.6 5.28zm-1.4-1.44c0-2.88-.68-3.56-1.56-3.56a1.5 1.5 0 0 0-.4 0 1 1 0 0 1-.32 0 14.13 14.13 0 0 0-10 13c0 3.52 1.76 6.2 3.68 6.2 2.64.04 8.6-8.28 8.6-15.64zM12.36 24.16v.2c0 2.12-.84 3.08-1.64 3.08a1.49 1.49 0 0 1-1.24-.88 5.34 5.34 0 0 0-3.24-2A9.81 9.81 0 0 1 4 25.63a6.06 6.06 0 0 1-1.68.28c-1 0-1.36-.4-1.36-1s1-2.2 1.6-2.2c.12 0 .2.08.32.12s.2.2.44.2 1.6-.36 7.44-4.08v-2.8c0-1.68 0-3.32-.12-4.88a11.19 11.19 0 0 1-4.92 1.36C3 12.64 2.28 11 2.28 10.12c0-.16 0-.24.16-.24A2 2 0 0 1 3 10a10.06 10.06 0 0 0 3 .44 8.79 8.79 0 0 0 4.52-1.24c-.28-4.64-.52-6.08-2.44-6.08-.52 0-.72-.12-.72-.32a1.59 1.59 0 0 1 1.72-1.2c1.32 0 3.2 1 3.2 2.68a9.41 9.41 0 0 1 0 1 13.86 13.86 0 0 0 2.6.52A1.11 1.11 0 0 1 16 7c0 1.44-1.68 2.4-3.88 3.56 0 2.44.08 5 .12 7.48 3.12-2 6.36-3.56 10-3.56 4.28 0 6.52 2 6.52 4.72 0 4.2-4.92 7-8.32 7-2.48 0-4.16-1.4-4.16-4 0-2.4 1.48-5 1.72-5 .08 0 .12.08.12.28a5.26 5.26 0 0 1-.2 1.08 8.22 8.22 0 0 0-.32 2.08c0 1.88 1 3.16 3 3.16 3 0 6-2.28 6-5 0-2.44-2.72-3.32-5-3.32-3.44 0-6.48 2-9.32 4.32.04 1.56.04 3.04.08 4.36zm-5.44 0a20 20 0 0 0 2.44.24c1.08 0 1.12-.32 1.16-.88.08-.76.08-1.56.12-2.32-1.28 1.04-2.52 2.08-3.72 2.92zm5.24-15.8a12.21 12.21 0 0 0 1.2-.8.92.92 0 0 0 .28-.56c0-.32-.36-.64-1.44-1.2v1.32zM29 10.08a8.09 8.09 0 0 0-2.08.92 1.66 1.66 0 0 1-.56.24c-.08 0-.12 0-.12-.08a1.05 1.05 0 0 1 .32-.48 4.31 4.31 0 0 0 1.24-2.4c0-.28-.16-1.28-2-1.28A4.93 4.93 0 0 0 23 8a2 2 0 0 1-.88.4c-.08 0-.12 0-.12-.08a6.36 6.36 0 0 1 5.36-2.88c2.48 0 4.76 1.44 4.76 3.08 0 .52-.36.84-.88 1.08-.81.32-.81.04-2.24.48zM11.8 52.12a7 7 0 0 1 2.4-.52c2.2 0 4.08 1.4 4.08 6.68 0 8.32-4.4 12.64-8.48 12.64a4.26 4.26 0 0 1-1.48-.24c-1.76-.56-1-2-1.48-3.52a6.49 6.49 0 0 1-.32-1.36c0-.12 0-.16.08-.16s.52.36 1 1.08a3.57 3.57 0 0 0 2.84 1.6c3.4 0 5.8-5.64 5.8-10.84 0-2.72-.64-4.6-2.32-4.6a5.71 5.71 0 0 0-3 1.36C9 58.8 5.84 65.2 3.6 69.35a3.7 3.7 0 0 1-2.72 2.2.81.81 0 0 1-.88-.92A5.14 5.14 0 0 1 1.24 68a79.85 79.85 0 0 0 8-13.16 17.3 17.3 0 0 1-5 1.72 2.94 2.94 0 0 1-3.16-2.96c0-1.32.24-1.44.32-1.44s.48.36.76.76a2.94 2.94 0 0 0 2.48.88 15.78 15.78 0 0 0 5.36-1 17.74 17.74 0 0 0 .76-4.4c0-1.28-.32-2.2-1.28-2.36-.48-.08-.88-.28-.88-.56 0-.56 1.68-1.36 2.52-1.36.56 0 2.08.2 2.08 2.52a19.89 19.89 0 0 1-1.28 5.2zm16.52 10.4a3 3 0 0 0-1.44-.2h-2.2c-.88 0-1.24-.08-1.24-.2s.48-.28 1.16-.4c2.8-.56 4.44-1.24 4.44-3.4 0-3.08-3.2-4.08-5.28-4.92-.88-.32-1.32-.52-1.32-.64s.2-.08.52-.08c5.32 0 8.84 2.84 8.84 6.28 0 2-1.24 3.72-2.68 3.72a1.69 1.69 0 0 1-.8-.16zM12 102.6c-2.72 0-4.68-.88-5.68-3.8a1.79 1.79 0 0 1-.16-.68c0-.12 0-.2.16-.2a1.38 1.38 0 0 1 .68.4 8.72 8.72 0 0 0 5.88 2.24 18.87 18.87 0 0 0 5.68-1c-.6-1.4-1.2-2.84-1.88-4.24a9.37 9.37 0 0 1-2.6.4c-4.2 0-6.2-2.92-6.2-4 0-.12 0-.16.12-.16s.52.24.8.36c1.28.68 3.12 1.92 5.28 1.92a6.25 6.25 0 0 0 1.68-.28 26.35 26.35 0 0 0-4.44-6.08 3.6 3.6 0 0 0-2.52-1.32c-.32 0-.48-.2-.48-.4s.64-1.16 2-1.16c2.12 0 3.16 1.28 6.56 8.56a4.31 4.31 0 0 0 1-.52 4.23 4.23 0 0 1 2-1 .88.88 0 0 1 .88.92c0 .76-.88 1.56-3 2.36.64 1.44 1.28 2.8 1.92 4.16 1.44-.56 2-1 2-1.4s-.24-.84-1.16-1.52c-.48-.36-.72-.56-.72-.68s0-.08.12-.08a5.05 5.05 0 0 1 1.24.44 11.78 11.78 0 0 0 2.72.92c.84 0 1.36.4 1.36 1 0 1.08-2.64 2.4-4.76 3.16a50.72 50.72 0 0 0 2.56 4.6 4.71 4.71 0 0 1 .84 2.56 2.63 2.63 0 0 1-2.4 2.84c-.64 0-.72-.4-1-.72-.48-.68-4.08-1.68-7-1.68-3.88 0-5 2.28-5 3.28s1.2 3.68 5.72 3.68a10.84 10.84 0 0 0 2.88-.4 2 2 0 0 1 .68-.12 1.49 1.49 0 0 1 1.6 1.32c0 1-1.4 1.72-4.4 1.72-6.12 0-8.16-3.68-8.16-5.72 0-.84.32-4.72 8.2-4.72 2.24 0 4.44.24 5.4.28h.08a.88.88 0 0 0 1-.92 2.41 2.41 0 0 0-.28-1.08c-.68-1.4-1.32-2.92-2-4.48a28.37 28.37 0 0 1-7.2 1.24zm93.71-80.39c.32-.51.49-.61.49-.78s-.2-.19-.43-.19c-.07 0-.12-.07-.12-.19s.07-.35.16-.35h2.91c.16 0 .19.07.19.26s0 .3-.14.3a2.83 2.83 0 0 0-3 2.75 1.84 1.84 0 0 0 1.88 1.94c1.38 0 1.81-1.19 2.29-2.4S111 21 112.82 21a2.62 2.62 0 0 1 2.58 2.72 2.74 2.74 0 0 1-.3 1.38c-.22.43-.3.53-.3.63s.07.26.28.27.08.05.08.11 0 .28-.09.28h-2.52c-.12 0-.18-.05-.18-.28s0-.27.19-.27a2.09 2.09 0 0 0 2.29-2.13 1.48 1.48 0 0 0-1.52-1.62c-1.15 0-1.51 1-2 2.1-.51 1.35-1.09 2.86-3.16 2.86a2.89 2.89 0 0 1-3-3.1 3 3 0 0 1 .54-1.74zm-.18 7.5c0-.08.08-.09.24-.09s.26 0 .26.09c0 1 .27 1.32 1.07 1.32h6.5c.7 0 1.05-.31 1.05-1.35 0-.07.08-.09.23-.09s.27 0 .27.12c0 .34-.07 1-.07 2.08 0 1.24.07 4.64.07 4.84s-.07.23-.26.23c-.84 0-1.59.09-2 .09-.09 0-.13-.12-.13-.28s0-.24.11-.26c1.16-.22 1.73-.8 1.73-2.23a12.9 12.9 0 0 0-.09-1.62c-1 0-2.9-.05-3.6-.11 0 1.93.54 2.08 1.36 2.08.16 0 .19 0 .19.28s0 .27-.2.27a14.81 14.81 0 0 0-1.6-.07c-1 0-1.43.07-1.61.07s-.19-.05-.19-.27.05-.28.19-.28c.92 0 1.38-.26 1.38-2.08h-3.38c-.63 0-1 .2-1 1.54 0 2.27.69 2.82 2.13 3 .13 0 .19.09.19.26s0 .3-.15.3c-.47 0-1.29-.07-2.54-.07-.15 0-.18-.05-.18-.2 0-.9.07-4.4.07-5.44s-.04-1.84-.04-2.13zm.25 12.99c-.16 0-.27 0-.27-.13 0-.34.05-.63.05-1.39s-.05-1.13-.05-1.34.08-.09.24-.09.26 0 .26.12c0 .49.36.78 1 1.15.42.23 7.63 3.39 8 3.45.2.05.28.13.28.32s-.07.23-.24.3c-.93.32-7.65 3.08-8.4 3.59a1.16 1.16 0 0 0-.69 1.09c0 .08-.11.11-.23.11s-.27 0-.27-.14c0-.34.05-.89.05-2s-.05-1.75-.05-2.08c0-.08.08-.09.24-.09s.26 0 .26.09c0 1 .2 1.21.7 1.21a1 1 0 0 0 .38-.08l2.06-.84v-1.63c0-.7 0-1.31.05-1.74-.57-.23-1-.44-1.44-.59a2.82 2.82 0 0 0-1-.27c-.51 0-.69.32-.69.84-.02.11-.12.14-.24.14zm3.93.11v2.92l3.44-1.4c-.46-.23-2.03-.93-3.44-1.52zm-4 10.96c.32-.51.49-.61.49-.78s-.2-.19-.43-.19c-.07 0-.12-.07-.12-.19s.07-.35.16-.35h2.91c.16 0 .19.07.19.26s0 .3-.14.3a2.83 2.83 0 0 0-3 2.75 1.84 1.84 0 0 0 1.88 1.94c1.38 0 1.81-1.19 2.29-2.4s1.07-2.52 2.85-2.52a2.62 2.62 0 0 1 2.58 2.73 2.74 2.74 0 0 1-.3 1.38c-.22.43-.3.53-.3.63s.07.26.28.27.08.05.08.11 0 .28-.09.28h-2.52c-.12 0-.18-.05-.18-.28s0-.27.19-.27a2.09 2.09 0 0 0 2.29-2.13 1.48 1.48 0 0 0-1.52-1.62c-1.15 0-1.51 1-2 2.1-.51 1.35-1.09 2.86-3.16 2.86a2.89 2.89 0 0 1-3-3.1 3 3 0 0 1 .57-1.78zm4.62 7.56a5.32 5.32 0 0 1 0 10.63 5 5 0 0 1-5-5.33 5 5 0 0 1 5-5.3zm-.06 1.67c-2.72 0-4.38 1.28-4.38 3.62s1.86 3.64 4.38 3.64c2.72 0 4.56-1.48 4.56-3.64S113.07 63 110.27 63zm2.98 13.41h-6c-.89 0-1.21.55-1.21 1.52 0 .05-.09.09-.24.09s-.26 0-.26-.09v-3.56s.12-.07.24-.07.26 0 .26.09c0 .89.32 1.29 1.21 1.31l6.12.05c.61 0 1.28-.38 1.28-1.6 0-.05 0-.09.24-.09s.26.07.26.12c0 .24-.07 1-.07 1.78v.67a.26.26 0 0 1-.12.23c-.76.59-2.25 1.89-3.72 3.13a40.47 40.47 0 0 1-3.24 2.55h5.33c.78 0 1.28-.18 1.28-1.43 0-.07.09-.11.26-.11s.24 0 .24.13c0 .39-.07.86-.07 1.66 0 1 .07 1.51.07 1.73 0 .05-.07.09-.24.09s-.26 0-.26-.11c0-.8-.24-1.28-1.34-1.31s-4 0-5.49 0h-2.27c-.07 0-.09-.15-.09-.38a.26.26 0 0 1 .13-.22c.99-.59 6.25-4.81 7.7-6.18zm-7.47 12.54c-.16 0-.27 0-.27-.13 0-.34.05-.63.05-1.39s-.05-1.13-.05-1.34.08-.09.24-.09.26 0 .26.12c0 .49.36.78 1 1.15.42.23 7.63 3.39 8 3.45.2.05.28.13.28.32s-.07.23-.24.3c-.93.32-7.65 3.08-8.4 3.59A1.16 1.16 0 0 0 106 96c0 .08-.11.11-.23.11s-.27 0-.27-.13c0-.34.05-.89.05-2s-.05-1.75-.05-2.08c0-.08.08-.09.24-.09s.26 0 .26.09c0 1 .2 1.21.7 1.21a1 1 0 0 0 .38-.08l2.06-.84v-1.63c0-.7 0-1.31.05-1.74-.57-.23-1-.45-1.44-.59a2.82 2.82 0 0 0-1-.27c-.51 0-.69.32-.69.84-.06.12-.16.15-.28.15zm3.93.11v2.92l3.44-1.4c-.46-.23-2.03-.93-3.44-1.53zm-4.18 9.45c0-.08.08-.09.24-.09s.26 0 .26.09c0 1 .27 1.32 1.07 1.32h6.5c.7 0 1.05-.31 1.05-1.35 0-.07.08-.09.23-.09s.27 0 .27.12c0 .34-.07 1-.07 2.08s.07 1.71.07 2.06c0 .09-.11.11-.26.11s-.24 0-.24-.11c0-1-.47-1.31-1.11-1.31-1.27 0-4.52-.09-5.71-.09-1.38 0-1.66.69-1.66 1.78 0 1.74.81 2.66 2.06 2.82.16 0 .19.09.19.26s-.05.28-.15.28c-.47 0-1.65-.09-2.52-.09-.22 0-.26-.09-.26-.28 0-.65.07-4 .07-5.42.01-1.07-.03-1.77-.03-2.09zm2.81 16.97a7.92 7.92 0 0 0-2.14-.73.22.22 0 0 0-.24.23c0 .4.58.94 1.46 1.27a.12.12 0 0 1 .07.11c0 .09-.08.28-.22.24-.94-.27-2-1.15-2-2.1 0-.54.22-.8.81-.8a8.52 8.52 0 0 1 2.52.76 8.41 8.41 0 0 0 2.29.74c.28 0 .36-.09.36-.23 0-.4-.58-.94-1.46-1.27a.12.12 0 0 1-.07-.11c0-.09.08-.28.22-.24a2.49 2.49 0 0 1 1.94 2.12c0 .57-.34.78-.86.78a7.35 7.35 0 0 1-2.68-.77zm6.16-.16a.75.75 0 1 1-.76.76.75.75 0 0 1 .76-.76zm-7.93 4.53a.94.94 0 0 0-.24 0 .22.22 0 0 0-.24.23c0 .4.58.94 1.46 1.27a.12.12 0 0 1 .07.11c0 .08-.07.24-.22.24-.94-.27-2.13-1.08-2.13-2.12 0-.49.31-.77.88-.77a3.34 3.34 0 0 1 1 .16l4 1.23v-.73c0-.11 0-.09.15-.09.27 0 .35 0 .35.13v.82l1.75.55c.14 0 .22.4.22.71s-.05.45-.19.45c-.55-.2-1.16-.4-1.78-.61v1.16c0 .24 0 .15-.2.15s-.3-.07-.3-.15v-1.31c-1.84-.59-3.61-1.14-4.58-1.43zm1.65 5.51a5.48 5.48 0 0 0-1.38-.23c-.7 0-1 .3-1 .86a2.41 2.41 0 0 0 1.52 1.92c.11 0 .13.05.13.15s-.08.3-.22.26a2.84 2.84 0 0 1-2.05-2.7 1.63 1.63 0 0 1 1.71-1.63c2.48 0 5 2.13 5 4.17 0 .84-.45 1.16-1.05 1.16-1.03-.01-2.02-1.32-2.66-3.96zm3.1 2.62c0-.76-.94-1.85-2.62-2.46.5 1.77 1.32 2.87 2.2 2.87a.38.38 0 0 0 .42-.39zM110 137a3.07 3.07 0 0 1 1.88 2.4 1 1 0 0 1-1.13 1.17 6.07 6.07 0 0 1-2.41-.62 7.15 7.15 0 0 0-2.14-.67.22.22 0 0 0-.24.23c0 .4.58.94 1.46 1.27a.12.12 0 0 1 .07.11c0 .09-.08.28-.22.24-.94-.27-2-1.15-2-2.1 0-.54.22-.77.81-.77a7.75 7.75 0 0 1 2.52.67 6.25 6.25 0 0 0 2.2.59c.35 0 .5-.12.5-.46 0-.71-1.13-1.71-2.35-2.19-.66-.26-3-1-3.41-1.08-.08 0-.16-.16-.16-.38s.09-.65.23-.65a2.27 2.27 0 0 1 .59.12l2.21.67a13.85 13.85 0 0 0 2.39.61c.35 0 .5-.12.5-.46 0-.71-1.13-1.71-2.35-2.19-.66-.26-3-1-3.41-1.08-.08 0-.16-.16-.16-.38s.09-.65.23-.65a2.27 2.27 0 0 1 .59.12l2.21.67a16.66 16.66 0 0 0 2.48.67c.28 0 .36-.09.36-.23 0-.4-.58-.94-1.46-1.27a.12.12 0 0 1-.07-.11c0-.09.08-.28.22-.24a2.49 2.49 0 0 1 1.94 2.12c0 .49-.38.66-.86.66a4.3 4.3 0 0 1-1-.18 3.06 3.06 0 0 1 1.88 2.48c0 .69-.35 1-.94 1a3.63 3.63 0 0 1-.96-.09zm100.59-78.45l-.17.12-.17.12c-35.47 24.8-28.19 39.48-20.08 39.09-3.07 1.29-5.43-.48-7-2.23-6.27-6.8 3.73-27.05 23.78-41.54l.17-.12.17-.13c20.2-14.29 42.6-17.18 47-9.06 1.13 2.1 2 4.9-.17 7.39 2.95-7.54-8.59-19.19-43.53 6.36z"/><path class="cls-1" d="M217.8 58.55l.17.12.17.12c35.47 24.8 28.19 39.48 20.08 39.09 3.07 1.29 5.43-.48 7-2.23 6.27-6.8-3.73-27.05-23.78-41.54l-.17-.12-.17-.13c-20.2-14.29-42.6-17.18-47-9.06-1.13 2.1-2 4.9.17 7.39-2.95-7.54 8.59-19.19 43.53 6.36z"/><path class="cls-1" d="M205.25 67.53l.06.2.06.2c12.22 41.51 28.46 39.29 30.67 31.48.24 3.33-2.18 5-4.36 6-8.44 3.78-24.46-12.14-31.81-35.77l-.06-.2-.06-.2c-7.12-23.7-2.74-45.85 6.37-47.44 2.35-.41 5.29-.38 6.95 2.51-6.2-5.31-20.9 1.97-7.82 43.22z"/><path class="cls-1" d="M259.48 60.52c-.31-2.36-1.22-5.16-4.48-5.88 6.86 4.35 4.36 20.54-38.91 20.43h-3.78C169 75.19 166.53 59 173.38 54.65c-3.26.71-4.17 3.51-4.48 5.88-1.22 9.16 18.61 20 43.35 20.3h3.88c24.75-.32 44.57-11.15 43.35-20.31z"/><path class="cls-1" d="M223.52 67.53l-.06.2-.06.2c-12.22 41.51-28.46 39.29-30.67 31.48-.24 3.33 2.18 5 4.36 6 8.44 3.78 24.46-12.14 31.81-35.77l.06-.2.06-.2c7.12-23.7 2.74-45.85-6.37-47.44-2.35-.41-5.29-.38-6.95 2.51 6.2-5.31 20.9 1.97 7.82 43.22z"/></svg>