<svg id="design" xmlns="http://www.w3.org/2000/svg" viewBox="0 0 228.39 206.88"><defs><style>.cls-1{fill:#040000}</style></defs><title>txt_top_c5</title><path class="cls-1" d="M171.39 22.82V23c0 2.15-.85 3.12-1.66 3.12a1.51 1.51 0 0 1-1.25-.89 5.41 5.41 0 0 0-3.28-2 9.91 9.91 0 0 1-2.31 1.09 6.11 6.11 0 0 1-1.7.28c-1 0-1.38-.4-1.38-1s1-2.23 1.62-2.23c.12 0 .2.08.32.12s.2.2.45.2 1.62-.36 7.53-4.13v-2.83c0-1.7 0-3.36-.12-4.94a11.31 11.31 0 0 1-5 1.38c-2.79 0-3.48-1.66-3.48-2.55 0-.16 0-.24.16-.24a2.06 2.06 0 0 1 .57.16A10.17 10.17 0 0 0 165 9a8.9 8.9 0 0 0 4.57-1.29c-.28-4.69-.49-6.15-2.47-6.15-.53 0-.73-.12-.73-.32a1.6 1.6 0 0 1 1.7-1.24c1.34 0 3.24 1 3.24 2.71a9.52 9.52 0 0 1 0 1 14 14 0 0 0 2.63.53 1.12 1.12 0 0 1 1.17 1.17c0 1.46-1.7 2.43-3.93 3.6 0 2.47.08 5.06.12 7.57 3.16-2 6.43-3.6 10.12-3.6 4.33 0 6.6 2.06 6.6 4.78 0 4.25-5 7.12-8.42 7.12-2.51 0-4.21-1.42-4.21-4 0-2.43 1.5-5.06 1.74-5.06.08 0 .12.08.12.28a5.31 5.31 0 0 1-.2 1.09 8.35 8.35 0 0 0-.32 2.1c0 1.9 1 3.2 3 3.2 3 0 6.07-2.31 6.07-5.1 0-2.47-2.75-3.36-5.06-3.36-3.48 0-6.56 2.06-9.43 4.37.04 1.6.04 3.09.08 4.42zm-5.5 0a20.09 20.09 0 0 0 2.47.24c1.09 0 1.13-.32 1.17-.89.08-.77.08-1.58.12-2.35-1.3 1.06-2.55 2.11-3.77 2.96zm5.3-15.94A12.34 12.34 0 0 0 172.4 6a.94.94 0 0 0 .28-.57c0-.32-.36-.65-1.46-1.21v1.34zm17 1.74a8.21 8.21 0 0 0-2.1.93 1.68 1.68 0 0 1-.57.24c-.08 0-.12 0-.12-.08a1.06 1.06 0 0 1 .32-.49A4.37 4.37 0 0 0 187 6.76c0-.32-.16-1.25-2-1.25a5 5 0 0 0-2.83 1 2 2 0 0 1-.89.41c-.08 0-.12 0-.12-.08a6.43 6.43 0 0 1 5.42-2.91c2.51 0 4.82 1.46 4.82 3.12 0 .53-.36.85-.89 1.09-.83.28-.83-.01-2.29.44zm-32.79 45.6a2.39 2.39 0 0 1 .77-1.58c1.66-1.7 1.82-4.17 2-5.95 0-.32.08-.45.16-.45.28 0 1.21 2.06 1.21 4.57 0 3.36-1.7 4.61-2.87 4.61a1.21 1.21 0 0 1-1.27-1.2zM164.22 72a1.65 1.65 0 0 1-1.7 1.5 1.15 1.15 0 0 1-1.21-1.29v-.08c.24-5.67.4-15.26.4-22.05 0-8.13-.24-10.68-.4-11.41a.91.91 0 0 1 0-.28c0-.08 0-.08.08-.08s4.45.49 4.45 1.5c0 .28-.2.57-.69.81-.65.32-.93.24-1 1.5-.12 2-.16 6.07-.16 10.8 0 6.31.08 13.76.28 19.06zm2.1-23.67a15.77 15.77 0 0 0-1.82-3.48.72.72 0 0 1-.16-.32.09.09 0 0 1 .08-.08c.73 0 4.45 1.5 4.45 3.6a1.41 1.41 0 0 1-1.25 1.5c-.48.02-1.01-.35-1.29-1.2zm19 18.45c-1.29 6.84-5.87 6.88-6 6.88a.47.47 0 0 1-.49-.32c-.36-1.25-3.44-3-3.44-3.32 0 0 0-.08.16-.08a1.44 1.44 0 0 0 .24 0 24.77 24.77 0 0 0 3.52.61c1.46 0 2.71-.77 3.52-3.8h-11c-.12.77-.28 1.54-.4 2.23a1.9 1.9 0 0 1-1.82 1.25.75.75 0 0 1-.85-.77 1.13 1.13 0 0 1 0-.36 80.81 80.81 0 0 0 2.23-11.21c-1.46 0-3 .12-4.37.28-.61 0-1.7-1.38-1.7-1.86 1.82.24 4.21.36 6.27.44.45-3.44.65-7.45.65-8.46v-.24c0-.4.08-.4.12-.4a1.61 1.61 0 0 1 .28.08c.57.2 2 1 2.87 1.33.08 0 .16 0 .2.08h8.09a.68.68 0 0 0 .65-.32c.85-.93.93-.93 1-.93.53 0 2.75 1.46 2.75 2.06 0 .36-.36.69-1.05 1.05-.49.24-.53.41-.53 1.09 0 1.54-.08 3.16-.16 4.73h1.05a.69.69 0 0 0 .49-.28c1-1.62 1.42-2.14 1.78-2.14h.24c1.13.49 2.83 2.1 2.83 2.83 0 .28-.16.53-.77.53h-5.67c-.12 2.91-.28 5.71-.57 7.77v.24h1.25a.85.85 0 0 0 .53-.32c1.21-1.9 1.42-2.14 1.74-2.14a1.43 1.43 0 0 1 .24 0c.69.28 2.87 2.06 2.87 2.91 0 .2-.2.44-.77.44zm-11.59-22.19c-2.87 5.46-6.19 8.9-6.8 8.9a.11.11 0 0 1-.12-.12 1 1 0 0 1 .24-.45c3-4.17 6.31-11.9 6.31-14.77 0-.41.08-.41.08-.41.53 0 4 1.09 4 1.86 0 .28-.32.53-1.05.73-.57.16-.77.24-1 .73-.36.85-.77 1.66-1.17 2.47H184a.83.83 0 0 0 .57-.32c1.17-1.66 1.54-2.14 2-2.14 1 0 3.56 2.23 3.56 3 0 .28-.2.53-.89.53zm2.71 21.29c.32-1.94.73-5.06 1-8h-4.25c-.32 2.51-.69 5.38-1.13 8zm1.13-9c.16-1.38.36-4.94.36-6.07v-.61h-2.79s-.12 0-.2.08c-.85.32-.81.24-1 1.82-.12 1.09-.32 2.79-.57 4.77zm5.54 9a55.1 55.1 0 0 0 .77-8h-4.37c-.24 2.67-.53 5.34-.89 8zm.81-9c.12-2.35.16-4.57.2-6v-.08c0-.49-.32-.57-.61-.57H181a.41.41 0 0 1 .2.32c0 .12-.08.28-.4.44-.73.36-.65.24-.77 1.58s-.28 2.87-.4 4.33zm-14.27 42.74c4.09 6.35 7.65 11.94 7.65 15.5 0 1.62-.81 2.47-1.62 2.47s-1.46-.73-1.46-2.35c0-3.12-.89-6.76-5.79-14.93-.2-.32-.36-.65-.61-1-.57.44-1.05.85-1.54 1.25a8.68 8.68 0 0 1-5.26 2.31 3.7 3.7 0 0 1-3.64-2.51c0-.2.12-.32.4-.32a2 2 0 0 1 .57.12 5.64 5.64 0 0 0 1.78.28c1.94 0 3.32-.81 6.47-2.91a23.15 23.15 0 0 0-2.55-3.2 3.1 3.1 0 0 1-1.29-2.27 3.2 3.2 0 0 1 1.05-2.1c.81-.85 1.82-1.05 3.88-1.05 1.21 0 2.67.08 3.84.08 1.78 0 2.59-.16 2.59-1.09a3.29 3.29 0 0 0-.36-1.42c-.08-.16-.28-.36-.28-.49s.08-.12.24-.12c.89 0 3.44 1.5 3.44 3.36a2 2 0 0 1-2.06 2.14 7.49 7.49 0 0 1-2.19-.45 20.17 20.17 0 0 0-5.3-1.17c-2.27 0-2.67 1.62-2.67 2.06 0 .69.49 1.74 2.75 5 4.25-2.83 9.31-6 14.53-6s8 2.75 8 5.83c0 3.48-3.36 6.39-8.09 6.39a10.45 10.45 0 0 1-9.35-6.31c0-.08 0-.12.08-.12.2 0 .57.32 1.09.89a9.62 9.62 0 0 0 7.32 3.16c5.46 0 6.52-3.4 6.52-4.57 0-2.51-2.47-4-5.5-4-4.57 0-9.67 3.44-13.44 6.39.31.38.55.78.8 1.15zm-1.78 61.46c-.16 0-.24 0-.24-.08s.61-.45 1.82-.81a21.67 21.67 0 0 0 12.18-10 30.51 30.51 0 0 0-12.71-2.67h-.32c-1.21 2-2.23 3.8-3.2 5.34-1.66 2.63-3.36 3.6-4.69 3.6a3.35 3.35 0 0 1-3.08-3.56c0-3.92 5.58-6 9.87-6.35 2.51-3.6 5.14-7.89 7.69-11.94a1.76 1.76 0 0 0 .28-.81c0-.53-.57-.57-.77-.57-1.7 0-2.71 2.79-4.86 2.79a2.27 2.27 0 0 1-1.9-2.19c0-.32.12-1.5.57-1.5.16 0 .36.16.61.36a2.9 2.9 0 0 0 1.7.65c1.58 0 2.67-2.31 5.18-2.31 1.34 0 3 .89 3 2 0 .89-.93 1.7-1.5 2.31a65.42 65.42 0 0 0-8.26 11.09h.36a40 40 0 0 1 12.75 2.06 7.15 7.15 0 0 0 .49-2.39 2.53 2.53 0 0 0-2.55-2.79c-.16 0-.44-.08-.44-.32 0-.61 1.05-1.17 2.19-1.17 2.06 0 3.2 1.62 3.2 3.92a10 10 0 0 1-.73 3.56 23.32 23.32 0 0 1 6.6 4 3.51 3.51 0 0 1 1.21 2.47c0 .77-.36 1.34-1 1.34-.49 0-1.13-.36-1.9-1.25a21.55 21.55 0 0 0-5.79-4.73c-4.76 8.54-15.04 9.95-15.76 9.95zm-8-8.94c0 .77.4 1.46 1.17 1.46 1.21 0 2.71-1.66 5.71-5.91-4.23.52-6.9 2.75-6.9 4.45zM185.14 194c.08 1.82.24 4.29.28 5.34a1.47 1.47 0 0 1-1.58 1.38 1 1 0 0 1-1.09-1v-1.21h-7.57v.28c0 .77.16 2.71.16 3.56 0 3.24-2.79 4.57-5.38 4.57a1 1 0 0 1-.81-.53c-.65-.93-4.94-2.71-4.94-3.08h.16a2.35 2.35 0 0 1 .49 0 35.82 35.82 0 0 0 5.14.65c1.82 0 2.71-.57 2.79-2.14v-3.32H172c-3.68 0-5.46.08-9.71.36-.73 0-2-1.46-2-1.94a99.18 99.18 0 0 0 11.69.57h1v-3.48h-1.78c-3.64 0-9 .12-13.43.4-.73 0-1.9-1.54-1.9-2 5.18.49 11.69.57 15.34.57h1.82v-3.12H172c-1.29 0-6.15 0-9.55.32h-.08c-.73 0-1.82-1.33-1.82-1.82 3.88.44 10 .49 11.41.49h1v-3.4h-7.41v.45a1.44 1.44 0 0 1-1.5 1.29 1 1 0 0 1-1.09-1V186c.16-1.09.24-3.76.24-4.41a14.85 14.85 0 0 0-.28-3.12.71.71 0 0 1 0-.24c0-.08 0-.08.08-.08a17.28 17.28 0 0 1 3.48 1.58h6.47v-3.16h-3c-2.27 0-7.45.08-11 .45-.73 0-1.9-1.5-1.9-2.06 4.17.49 10.8.65 13.15.65h2.79a20.34 20.34 0 0 0-.4-4.29 2 2 0 0 1-.08-.36c0-.08 0-.08.12-.08.24 0 4.37.49 4.37 1.29 0 .28-.32.61-.81.73-.65.16-.69.57-.73 1.94v.77h8.38a.84.84 0 0 0 .69-.36c1.54-2.19 1.82-2.47 2.27-2.47a.51.51 0 0 1 .24 0c1.38.49 3.6 2.67 3.6 3.32 0 .24-.2.49-.89.49h-14.52v3.16h6.31a.66.66 0 0 0 .57-.24c.69-1 1-1 1.13-1 .61 0 3 1.46 3 2.19 0 .36-.49.57-.85.81-.69.36-.69.36-.69 1.05 0 .49.16 2.39.2 3.12 0 .12 0 1.13-1.5 1.13-.53 0-1-.24-1-.77v-.61h-7.24v3.4h6.76a.59.59 0 0 0 .53-.24c.73-1 .93-1.09 1.17-1.09s3.08 1.54 3.08 2.31c0 .45-.49.73-.93 1-.73.4-.57.4-.65 1.38v.81h1.13a.83.83 0 0 0 .57-.32c.49-.89 1.54-2.47 2.06-2.47.73 0 3.44 2.55 3.44 3.32 0 .24-.2.53-1 .53zm-12.26-13.19h-6.72l-.12.08c-.49.32-.57.45-.61 1.29v2.23h7.45zm2.31 9v3.12h7.65v-2.67a.48.48 0 0 0-.49-.45zm0 4.17v3.48h7.57v-3.48zm0-13.19v3.6h7.24v-3.2a.43.43 0 0 0-.4-.41zm43.59-161.28c-3-.89-4-1.81-4-3.44 0-1.19.51-1.63 1.09-1.63a.6.6 0 0 1 .65.59.49.49 0 0 1-.54.5.55.55 0 0 0-.62.59c0 .69.51 1.55 3.24 2.31l5.51 1.57v-.73c0-.11 0-.09.15-.09.27 0 .35 0 .35.14v.81l1.56.46c1.87.55 2.27 1.63 2.27 2.55 0 1.13-.47 1.58-1.07 1.58a.57.57 0 0 1-.58-.53.48.48 0 0 1 .53-.49c.34 0 .53-.15.53-.63s-.7-1.08-3.24-1.81v1.17c0 .25 0 .15-.2.15s-.3-.07-.3-.15v-1.31zm-.51 5.75c0-.71.27-1.9 2.06-1.9s4.6 1.65 4.6 3.72c0 .92-.53 1.89-2.16 1.89s-4.5-1.47-4.5-3.71zm6.16 1.83c0-1.36-2.85-2.68-4.69-2.68-.74 0-1 .24-1 .8 0 1.33 2.74 2.67 4.55 2.67.88 0 1.15-.23 1.15-.79zm.5 8.81c0 .47-.35.69-.89.69s-.8-.28-.8-.62a.34.34 0 0 1 .36-.38c.23 0 .39-.11.39-.27 0-.32-.49-1.05-2.52-1.87a24.09 24.09 0 0 0-2.9-.89c-.08 0-.16-.16-.16-.38s.09-.65.23-.65a2.3 2.3 0 0 1 .59.12l2.21.67a16.68 16.68 0 0 0 2.48.67c.28 0 .36-.09.36-.23 0-.4-.58-.94-1.46-1.27a.12.12 0 0 1-.07-.11c0-.09.08-.28.22-.24a2.49 2.49 0 0 1 1.94 2.12c0 .49-.4.66-.89.66a4.88 4.88 0 0 1-1.05-.19c1.17.68 1.96 1.34 1.96 2.17zm-5.86 11.95c0 .08-.11.11-.23.11s-.27 0-.27-.13v-4.28c0-.08.08-.09.24-.09s.26 0 .26.09c0 1 .27 1.32 1.07 1.32h6.5c.7 0 1.05-.31 1.05-1.35 0-.07.08-.09.23-.09s.27 0 .27.12c0 .34-.07 1-.07 2.08 0 1.24.07 4.64.07 4.84s-.07.23-.26.23c-.84 0-1.78.09-2.19.09-.09 0-.14-.12-.14-.28s0-.24.11-.26a2 2 0 0 0 1.93-2.25 13 13 0 0 0-.09-1.62c-1 0-3.12-.05-3.79-.11 0 1.93.54 2.08 1.36 2.08.16 0 .19 0 .19.28s0 .27-.2.27a14.83 14.83 0 0 0-1.61-.07c-1 0-1.43.07-1.6.07s-.19-.05-.19-.27.05-.28.19-.28c.92 0 1.38-.26 1.38-2.08h-3.09c-.87.03-1.12.49-1.12 1.58zm2.43 14.57c-1.59 0-3.13-1.08-3.13-4.13a3.29 3.29 0 0 1 3.48-3.58h4.72c.7 0 1.12-.3 1.12-1.32 0-.09.08-.12.23-.12s.27 0 .27.15c0 .28-.07.9-.07 2s.07 1.94.07 2.06-.08.12-.24.12-.26 0-.26-.12c0-1-.27-1.28-1.08-1.31s-2.94-.07-4.9-.07c-1.58 0-2.48 1.08-2.48 2.81 0 1.89.93 2.78 2.47 2.78 1.12 0 4.28-.07 4.71-.07.9 0 1.28-.28 1.28-1.31 0-.08.09-.11.22-.11s.28 0 .28.13c0 .35-.07 1-.07 1.7s.07 1.4.07 1.7c0 .07-.08.11-.23.11s-.27-.05-.27-.11c0-.93-.46-1.33-1.38-1.33zm4.8 6.4h-6c-.89 0-1.21.55-1.21 1.52 0 .05-.09.09-.24.09s-.26 0-.26-.09v-3.56s.12-.07.24-.07.26 0 .26.09c0 .89.32 1.29 1.21 1.31l6.12.05c.61 0 1.28-.38 1.28-1.61 0-.05 0-.09.24-.09s.26.07.26.12c0 .24-.07 1-.07 1.78v.67a.27.27 0 0 1-.12.23c-.76.59-2.25 1.89-3.72 3.13a40.25 40.25 0 0 1-3.21 2.61h5.33c.78 0 1.28-.17 1.28-1.43 0-.07.09-.11.26-.11s.24 0 .24.13c0 .39-.07.86-.07 1.66 0 1 .07 1.51.07 1.73 0 .05-.07.09-.24.09s-.26 0-.26-.11c0-.8-.24-1.28-1.34-1.31s-4 0-5.49 0h-2.27c-.07 0-.09-.15-.09-.38a.26.26 0 0 1 .13-.22c.96-.68 6.22-4.85 7.67-6.23zm-7.72 10.96c0-.08.08-.09.24-.09s.26 0 .26.09c0 1 .27 1.32 1.07 1.32h6.5c.7 0 1.05-.31 1.05-1.35 0-.07.08-.09.23-.09s.27 0 .27.12c0 .34-.07 1-.07 2.08 0 1.24.07 4.64.07 4.84s-.07.23-.26.23c-.84 0-1.59.09-2 .09-.09 0-.13-.12-.13-.28s0-.24.11-.26c1.16-.22 1.73-.8 1.73-2.23a13 13 0 0 0-.09-1.62c-1 0-2.9-.05-3.6-.11 0 1.93.54 2.08 1.36 2.08.16 0 .19 0 .19.28s0 .27-.2.27a14.81 14.81 0 0 0-1.6-.07c-1 0-1.43.07-1.6.07s-.19-.05-.19-.27.05-.28.19-.28c.92 0 1.38-.26 1.38-2.08h-3.38c-.63 0-1 .2-1 1.54 0 2.27.69 2.82 2.13 3 .13 0 .19.09.19.26s0 .3-.15.3c-.47 0-1.29-.07-2.54-.07-.15 0-.18-.05-.18-.2 0-.9.07-4.4.07-5.44s-.05-1.81-.05-2.13zm.49 14.73c0 .08-.11.11-.23.11s-.27 0-.27-.14V90.4c0-.08.08-.09.24-.09s.26 0 .26.09c0 1 .28 1.32 1.08 1.32h6.49c.7 0 1.05-.3 1.05-1.33 0-.07.08-.11.23-.11s.27 0 .27.12c0 .34-.07 1-.07 2.08v2.1c0 2.25-1.17 3.32-2.48 3.32-1.05 0-2.1-.82-2.36-2.55a22.29 22.29 0 0 1-2 1.9c-1.74 1.52-2.21 2.09-2.21 2.86 0 .13-.07.17-.26.17s-.28 0-.28-.15v-1.9c0-.66.66-1.29 2-2.36l1.78-1.38a2.59 2.59 0 0 0 .66-.63v-.71h-2.89c-.6.04-1.01.33-1.01 1.36zm8.55-1.23c-.92 0-2.75-.08-4.07-.08v.86c0 1.62.82 2.19 2 2.19a1.86 1.86 0 0 0 2.12-2 6.86 6.86 0 0 0-.04-.96zM218.83 105c-.16 0-.27 0-.27-.13 0-.34.05-.63.05-1.39s-.05-1.13-.05-1.33.08-.09.24-.09.26 0 .26.12c0 .49.36.78 1 1.15.42.23 7.63 3.38 8 3.45.2.05.28.13.28.32s-.07.23-.24.3c-.93.32-7.65 3.08-8.4 3.59a1.16 1.16 0 0 0-.69 1.09c0 .08-.11.11-.23.11s-.27 0-.27-.13c0-.34.05-.89.05-2s-.05-1.75-.05-2.08c0-.08.08-.09.24-.09s.26 0 .26.09c0 1 .2 1.21.7 1.21a1 1 0 0 0 .38-.08l2.06-.84v-1.63c0-.7 0-1.31.05-1.74-.57-.23-1-.45-1.44-.59a2.81 2.81 0 0 0-1-.27c-.51 0-.69.32-.69.84-.01.05-.07.12-.24.12zm3.93.11v2.92l3.44-1.4c-.46-.27-2.03-.97-3.44-1.57zm-4.18 9.41c0-.08.08-.09.24-.09s.26 0 .26.09c0 1 .27 1.32 1.07 1.32h6.5c.7 0 1.05-.31 1.05-1.35 0-.07.08-.09.23-.09s.27 0 .27.12c0 .34-.07 1-.07 2.08s.07 1.71.07 2.06c0 .09-.11.11-.26.11s-.24 0-.24-.11c0-1-.47-1.31-1.11-1.31-1.27 0-4.52-.09-5.71-.09-1.38 0-1.66.69-1.66 1.78 0 1.74.81 2.66 2.06 2.82.16 0 .19.09.19.26s-.05.28-.15.28c-.47 0-1.65-.09-2.52-.09-.22 0-.26-.09-.26-.28 0-.65.07-4 .07-5.42.01-1.07-.03-1.77-.03-2.09zM7.46 93.31c7.43-3.51 20.1 3.78 28.7 2.3 7.92-1.36 15.47-6.9 18-15.11-14.48 21-50.52-6.21-54.16 24.08 0 0 2.13-8.76 7.46-11.27z"/><path class="cls-1" d="M107 50.17S63.51 45 53.92 80.8c0 0 13.21-25.08 53.08-30.63zm0 0S89.7 90.39 53.92 80.8c0 0 28.33 1.1 53.08-30.63z"/><path class="cls-1" d="M84.55 27.75S44.33 45 53.92 80.8c0 0-1.1-28.33 30.63-53.05z"/><path class="cls-1" d="M84.55 27.75s5.16 43.46-30.63 53c0 .05 25.08-13.16 30.63-53zm-30.63-8.21s-26.2 35.06 0 61.26c0 0-15.12-23.98 0-61.26z"/><path class="cls-1" d="M53.92 19.54s26.2 35.06 0 61.26c0 0 15.08-23.98 0-61.26zm-30.63 8.21s-5.16 43.46 30.63 53c0 .05-25.08-13.16-30.63-53z"/><path class="cls-1" d="M23.29 27.75S63.51 45 53.92 80.8c0 0 1.08-28.33-30.63-53.05z"/><path class="cls-1" d="M.87 50.17s17.26 40.22 53 30.63c.05 0-28.28 1.1-53-30.63zm0 0S44.33 45 53.92 80.8c0 0-13.21-25.08-53.05-30.63z"/></svg>