<svg id="design" xmlns="http://www.w3.org/2000/svg" viewBox="0 0 1210 698"><defs><style>.cls-1{fill:#fff}</style></defs><title>txt_waselect_header</title><path class="cls-1" d="M969.6 94.61v-.7h-5v.67a.6.6 0 0 1-.63.53.39.39 0 0 1-.42-.43c.1-1.58.13-3.49.13-5.29 0-4.1-.11-4.93-.22-5.41a.35.35 0 0 1 0-.1 5.74 5.74 0 0 1 1.5.66h4.32a.31.31 0 0 0 .22-.13c.15-.2.43-.46.53-.46s1.25.63 1.25.94-.18.28-.43.41-.29.17-.29 2.09.07 5.38.13 7.12a.59.59 0 0 1-.69.49.4.4 0 0 1-.43-.42zm-4.66-9.72l-.11.08c-.24.15-.25.22-.25.6v3.25h5.09v-3.74a.19.19 0 0 0-.18-.2zm-.38 4.31v4.33h5V89.2zm2.93 18.11c0 1 0 2 .06 2.9 0 .42-.42.53-.63.53a.38.38 0 0 1-.42-.42v-.06c.06-.81.1-1.85.13-3-.59 0-1.65 0-2.12.1-.29 0-.53-.46-.53-.6a19.59 19.59 0 0 0 2.65.15v-4.12a13 13 0 0 1-6.36 6s.08-.11.27-.24a19.1 19.1 0 0 0 5.63-6.71h-.48c-.78 0-2.65 0-3.89.15-.25 0-.63-.55-.63-.73 1.44.17 3.78.22 4.59.22h.88a16.3 16.3 0 0 0-.17-3.31.28.28 0 0 1 0-.1c.31 0 1.67.24 1.67.53 0 .1-.11.21-.29.32s-.28.15-.32.59-.07 1.08-.08 2h3a.29.29 0 0 0 .24-.13c.13-.2.59-.9.81-.9h.08c.42.15 1.26.92 1.26 1.19 0 .08-.07.17-.31.17h-4.85c1.11 2.09 3.42 4.82 6 5.66.08 0 .13.06.13.07s-1.3.18-1.7.52a.29.29 0 0 1-.17.07c-.37 0-3.32-2.84-4.5-6.29v5.06h.42a.32.32 0 0 0 .27-.15c.43-.66.56-.7.6-.7.21 0 1.16.74 1.16 1 0 .08-.07.18-.28.18zm-.02 10.61c0 3.07-2.45 6.19-3.66 6.19-.69 0-.94-.94-1.51-1.76a2.19 2.19 0 0 1-.34-1.27 5.71 5.71 0 0 1 5.65-5.5 4.46 4.46 0 0 1 4.82 4.48c0 4.26-4.87 5.46-6 5.46-.13 0-.2 0-.2-.06s.22-.18.63-.29c3.68-1 4.68-3.43 4.68-5.17a3.86 3.86 0 0 0-4.09-4h-.5a2.43 2.43 0 0 1 .52 1.92zm-.49-.5c0-1-.24-1.25-.55-1.25h-.25a5 5 0 0 0-3.52 4.55c0 1.23.62 2.17 1.29 2.17.95.03 3.05-2.89 3.05-5.48zm-3.6 22.02h-.18c-.11 0-.15 0-.28.17a7.33 7.33 0 0 1-2.69 1.93s.06-.08.18-.2a6.87 6.87 0 0 0 2-2.79c0-.06 0-.08.07-.08s1.15.66 1.15.87-.09.1-.25.1zm.91-1.82h-1.74v.22a.54.54 0 0 1-.52.52c-.18 0-.35-.11-.35-.42.07-1.3.08-3 .08-4.43a26.48 26.48 0 0 0-.15-4.08.5.5 0 0 0 0-.08 5.24 5.24 0 0 1 1.22.62H964a.24.24 0 0 0 .18-.13c.07-.13.27-.39.38-.39s1 .49 1 .76-.17.25-.27.32-.22.11-.24.46 0 1.11 0 1.9c0 1.65 0 3.75.08 4.86a.56.56 0 0 1-.52.56c-.18 0-.34-.13-.34-.45zm0-5.31v-1.86c0-.07 0-.17-.11-.17h-1.37l-.07.06c-.21.14-.22.17-.22 2zm0 2.2v-1.82h-1.81v1.82zm0 2.73v-2.35h-1.79v2.35zm.62 3.14a6 6 0 0 0-1.26-1.75s-.06-.07-.06-.1c.22 0 2.19.74 2.19 1.78a.53.53 0 0 1-.43.57c-.13-.03-.35-.17-.44-.5zm6.95-4.8v-.1H967v.21a.47.47 0 0 1-.49.41.32.32 0 0 1-.35-.32v-.06c.07-.84.1-2.19.1-2.75a12.66 12.66 0 0 0-.14-1.64v-.06a4.2 4.2 0 0 1 1.13.49h2.34a9.09 9.09 0 0 0 1-2.51v-.15s1.37.63 1.37.9c0 .1-.12.18-.42.2s-.22.06-.35.2c-.29.31-.84.9-1.36 1.37h1.64a.18.18 0 0 0 .17-.08c.24-.28.32-.34.42-.34s1 .36 1 .71c0 .14-.15.25-.29.34s-.25.25-.25.53v.15c0 .64.07 1.88.1 2.41a.46.46 0 0 1-.49.48.33.33 0 0 1-.35-.36zm-.8 5.35v-.5h-3.26v.57a.46.46 0 0 1-.5.45.35.35 0 0 1-.38-.36c.08-1.23.1-1.83.1-2.31a13.41 13.41 0 0 0-.17-2.44.25.25 0 0 1 0-.08 6.9 6.9 0 0 1 1.26.6h2.61a.24.24 0 0 0 .2-.11s.25-.39.43-.39 1.08.48 1.08.8c0 .15-.18.25-.32.34s-.28.17-.28 1.06c0 .63 0 1.36.11 2.4 0 .38-.36.52-.52.52a.37.37 0 0 1-.39-.41zm-3.21-10.14a4 4 0 0 0-.87-1.18c-.07-.07-.11-.11-.11-.14s0 0 .07 0c.42 0 1.95.35 1.95 1.2a.56.56 0 0 1-.52.59c-.2-.03-.37-.15-.52-.48zm1.19 2.41v-1.08h-1.72l-.08.07c-.17.11-.2.11-.21.55v.66H969zm-2.06.56v1.36h2v-1.36zm1.16 3.36l-.1.07c-.21.15-.22.11-.24.53v.63h3.29v-1.06a.17.17 0 0 0-.2-.17zm-.35 1.6v1.34h3.26v-1.34zm2.35-6.6a.09.09 0 0 1 0 .06c0 .07-.07.14-.18.18s-.18.1-.18.29v.74h2.1v-1.12a.15.15 0 0 0-.14-.15zm-.37 1.64v1.36h2.07v-1.36zm-3.98 14.61s0-.07.1-.24c.38-1.2 1.08-1.78 1.76-1.78 1.44 0 2.16 2.16 2.16 4 0 4.54-3.94 6.75-4.5 6.75s.14-.17.46-.38a7.62 7.62 0 0 0 3.15-6.26c0-1.75-.6-3.46-1.53-3.46-.77 0-1.55 1.16-1.55 2.63a3.86 3.86 0 0 0 .42 1.74.93.93 0 0 1 .08.38c0 .36-.2.69-.43.69-.41 0-.94-1.2-.94-2.17a8.81 8.81 0 0 1 .28-1.92 12.63 12.63 0 0 0 .39-2.41c0-.38-.07-.67-.25-.76s-.2-.11-.2-.21.27-.25.38-.25.76.22.76 1.12a9.64 9.64 0 0 1-.49 2.34c-.03.08-.05.15-.05.19zm5.21 14.8a.08.08 0 0 1 0 .07c0 .07-.11.14-.24.2s-.18.17-.22.55c-.9 7.09-5.63 7.91-5.74 7.91h-.06s.15-.17.32-.24c3.89-1.68 4.65-6.93 4.65-8.47h-.66a.11.11 0 0 1 0 .06c0 .07-.11.14-.24.2s-.14.1-.24.46c-1.12 4.2-3.79 5.39-3.92 5.39a.88.88 0 0 1 .35-.3 10.09 10.09 0 0 0 3-5.8h-1.09a8.75 8.75 0 0 1-2 2.7.46.46 0 0 1 .1-.18 11.2 11.2 0 0 0 1-1.77h-1.6v2.65c.64-.22 1.26-.48 1.78-.69a1.41 1.41 0 0 1 .32-.1 9.77 9.77 0 0 1-2.14 1.29c0 1.82 0 3.6.07 4.64a.57.57 0 0 1-.57.53.39.39 0 0 1-.41-.43c.07-1.12.11-2.69.14-4.29-.55.28-1.12.56-1.71.84-.12.06-.17.2-.25.2s-.84-1-.84-1.08 0 0 .1 0a8.28 8.28 0 0 0 2.7-.62v-2.91h-1.18a7 7 0 0 1-1.21 2.68.72.72 0 0 1 0-.2 19.49 19.49 0 0 0 .71-4.51 4 4 0 0 0 0-.43v-.13c.15 0 1.5.34 1.5.67 0 .1-.13.21-.36.28s-.24.13-.28.31c-.08.36-.18.71-.28 1.05h1.08a30.27 30.27 0 0 0-.17-3.6.28.28 0 0 1 0-.1s1.57.17 1.57.52c0 .08-.08.18-.22.28-.29.2-.32.07-.35.67s0 1.32-.06 2.24h.07a.29.29 0 0 0 .2-.11c.42-.66.45-.69.55-.69s.67.45.88.84A13.27 13.27 0 0 0 967 160v-.15c.18 0 1.44.31 1.44.64 0 .13-.13.24-.39.31a.39.39 0 0 0-.34.29c-.24.57-.49 1.13-.76 1.67h4.3a.24.24 0 0 0 .24-.11c.31-.38.38-.38.39-.38s1.08.56 1.08.85c0 .11-.1.22-.32.34s-.34.21-.34.59a43.33 43.33 0 0 1-.21 4.58c-.32 2.45-1.49 3.25-2.72 3.35a.16.16 0 0 1-.18-.11c-.13-.39-1.72-1.06-1.72-1.18h.14a8.73 8.73 0 0 0 1.68.25c1 0 1.6-.5 1.9-2.4a50.36 50.36 0 0 0 .24-5.21c0-.2-.11-.21-.21-.21zM962.63 184a18.79 18.79 0 0 1 .78-4 4.86 4.86 0 0 0 .1-1 3 3 0 0 0-.31-1.44c-.06-.11-.17-.21-.17-.27s.1-.08.28-.08c.45 0 1.08.71 1.08 1.65a3.89 3.89 0 0 1-.38 1.44 8.28 8.28 0 0 0-.78 2.94c0 .55.13 1 .22 1s.11-.06.18-.22a10.92 10.92 0 0 1 1.39-2.58v.06a.87.87 0 0 1-.07.25 12.8 12.8 0 0 0-1 3.7 3.2 3.2 0 0 0 .1.8 1.44 1.44 0 0 1 0 .22.4.4 0 0 1-.38.45c-.76-.05-1.04-2.16-1.04-2.92zm7.12 2.33c-2.66 0-3.1-1.5-3.1-1.81 0-.08 0-.13.07-.13s.17.08.28.25a3.1 3.1 0 0 0 2.3.71 5 5 0 0 0 .79-.06 6.24 6.24 0 0 1 1-.25h.08c.46 0 .71.21.71.45.04.64-1.35.81-2.14.81zm-.81-6.42c-1.92 0-2.1-1.13-2.1-1.23v-.06a.65.65 0 0 1 .24.11 2.8 2.8 0 0 0 1.4.34 6.74 6.74 0 0 0 1.16-.13c.2 0 .35-.14.53-.18a1 1 0 0 1 .29 0c.39 0 .63.2.63.42.04.6-1.7.7-2.16.7zm-6.4 19.74a16.68 16.68 0 0 1 .73-3.92 6.71 6.71 0 0 0 .24-1.46 3.11 3.11 0 0 0-.69-1.88c-.07-.1-.15-.18-.15-.22s.17-.07.18-.07c.49 0 1.55 1.26 1.55 2.26a5.09 5.09 0 0 1-.54 1.67 8.3 8.3 0 0 0-.76 2.87c0 .43.1.88.2.88s.1-.07.17-.24a12.44 12.44 0 0 1 1.47-2.72s.06 0 .06.07a.65.65 0 0 1-.08.25 11.73 11.73 0 0 0-1.15 4 1.67 1.67 0 0 0 .11.66 1 1 0 0 1 .08.38c0 .28-.15.45-.35.45-.61.02-1.07-1.56-1.07-2.98zm7.31-5.56c0-1.39-.08-1.4-.43-1.5s-.32-.1-.32-.2a.71.71 0 0 1 .59-.43 1.34 1.34 0 0 1 1 1 2 2 0 0 1 0 .27c.25.1.79.32 1 .38.53.14.73.24.73.55 0 .74-1.44 1.16-1.89 1.29v.62c0 1.08 0 2 .08 2.68v1c1 .31 2.19 1.13 2.19 1.74 0 .28-.17.53-.39.53s-.31-.11-.48-.38a3.48 3.48 0 0 0-1.36-1.25 2.33 2.33 0 0 1-2.21 2 1.8 1.8 0 0 1-1.88-1.47c0-.83 1.15-1.43 2.54-1.43a5.12 5.12 0 0 1 .91.08v-4.01a3.12 3.12 0 0 1-.69.07 2.27 2.27 0 0 1-2.28-1.3h.06a1.18 1.18 0 0 1 .32.08c.27.1.74.32 1 .41a3.42 3.42 0 0 0 1 .14 5 5 0 0 0 .6-.06zM968.6 200c-1 0-1.71.48-1.71.94s.73.73 1.2.73a1.74 1.74 0 0 0 1.74-1.48 4.88 4.88 0 0 0-1.23-.19zm1.89-5.24c1-.27 1-.57 1-.69s-.24-.36-.85-.73a11.93 11.93 0 0 0-.15 1.44zm1.8 13.24a5.27 5.27 0 0 0-1.7-1.77c-.14-.11-.28-.2-.28-.24s0 0 .1 0c.57 0 3 .56 3 1.78a.64.64 0 0 1-.59.67.66.66 0 0 1-.53-.44zm-7.58 11.6c-.21 0-.28 0-.41.29a8.54 8.54 0 0 1-3.63 3.81s.06-.11.13-.18a10.68 10.68 0 0 0 2.87-4.92v-.1s1.46.53 1.46.84c.02.09-.13.2-.42.26zm1.21 7c-.14 0-.17-.08-.25-.2s-1.88-.88-1.88-1h.21a10.62 10.62 0 0 0 1.7.18c.92 0 1.12-.29 1.13-.73v-8.09a8.84 8.84 0 0 0-.17-1.62.16.16 0 0 1 0-.07s0-.06.06-.06 1.65.17 1.65.52c0 .1-.08.21-.24.31s-.32.06-.36.7-.06 2-.06 3.46v3.36c0 .41.06 1.36.06 1.64.01 1.07-1.15 1.58-1.85 1.58zm6.18-4.5a12 12 0 0 0-2.58-3.29c-.07-.06-.1-.1-.1-.13.29 0 3.87 1.79 3.87 3.53 0 .42-.21.7-.48.7s-.47-.27-.71-.83zm-6.8 12.9c-1.27 0-2.21-.87-2.21-1.51 0-.11 0-.35.11-.35s.15.07.28.22a2.92 2.92 0 0 0 1.95.83 5.41 5.41 0 0 0 1.72-.42c-.57-.46-1.11-.85-1.46-1.12a.82.82 0 0 1-.35-.66.67.67 0 0 1 .66-.69.73.73 0 0 1 .29.06 1.51 1.51 0 0 1 .43.31 3.71 3.71 0 0 0 2 .71 2.3 2.3 0 0 0 .36 0 .44.44 0 0 1 .43.45c0 .53-1 1.09-1.33 1.27 1.21 1 2.83 2.55 2.83 4.1a.85.85 0 0 1-.77 1c-.24 0-.42-.18-.66-.36a6.18 6.18 0 0 0-2.9-.63c-1.51 0-2.09.66-2.09 1.26s.74 1.37 2.27 1.37a3.73 3.73 0 0 0 1.09-.15 1 1 0 0 1 .27 0c.38 0 .66.22.66.46s-.22.62-1.69.62c-3 0-3.25-1.77-3.25-2.07 0-1 1.06-1.88 3.38-1.88a11.37 11.37 0 0 1 2.12.21h.24c.28 0 .35-.13.35-.31 0-.42-.34-1.65-2.27-3.36a6.1 6.1 0 0 1-2.46.64zm3.11-2.07c0-.11-.07-.24-.32-.36a8.87 8.87 0 0 0-1.61-.5c-.18 0-.27.08-.27.18s.45.56 1.39 1.33c.6-.34.81-.51.81-.69zm-4.14 20.45a1.1 1.1 0 0 1-.88.7.28.28 0 0 1-.31-.32 1.26 1.26 0 0 1 .28-.7 23.87 23.87 0 0 0 2.48-4.29c0-.06.06-.11.07-.17a3.6 3.6 0 0 1-.9.13 1.62 1.62 0 0 1-1.74-1.29c0-.06 0-.07.06-.07a.77.77 0 0 1 .27.13 2.71 2.71 0 0 0 1.4.5 4.27 4.27 0 0 0 1-.15 5.44 5.44 0 0 0 0-.64c0-.9-.22-.91-.35-.91s-.35 0-.35-.14a.58.58 0 0 1 .56-.42.88.88 0 0 1 .87 1c1.05.2 1.18.24 1.18.5s-.69 1-1.55 1.27c-.03.31-.2.73-2.09 4.87zm2.49 4a1.78 1.78 0 0 1-1.83-1.51c0-.83 1-1.32 2.45-1.32a5 5 0 0 1 1 .1c0-.59-.07-1.23-.07-1.75a2.6 2.6 0 0 1 1.33-2.56c.46-.31.85-.63.85-1 0-.15 0-.18-.39-.57-.11-.11-.2-.2-.2-.24s.06-.06.18-.06c.86 0 1.72.73 1.72 1.36 0 .21-.14.76-.56.76a2 2 0 0 1-.38-.06.62.62 0 0 0-.18 0c-.44 0-1.92.14-1.92 1.51 0 .22 0 .49.06.8 0 .57.18 1.33.21 2 1.16.41 2.07 1.11 2.07 1.74a.48.48 0 0 1-.41.53c-.15 0-.32-.11-.48-.39a3.13 3.13 0 0 0-1.22-1.15 2.36 2.36 0 0 1-2.23 1.79zM967 255c-1 0-1.65.41-1.65.81s.71.74 1.27.74a1.69 1.69 0 0 0 1.75-1.3A4.17 4.17 0 0 0 967 255zm-.25-7.41a1.73 1.73 0 0 0 .39-.25.27.27 0 0 0 .1-.21c0-.18-.22-.28-.38-.34a3.5 3.5 0 0 1-.13.78zm-5.54 25.63h-.07s.11-.11.37-.22a11.42 11.42 0 0 0 3.85-3.1 17.92 17.92 0 0 0-2.24-1.44c-.11-.07-.17-.11-.17-.14s0 0 .07 0a12.16 12.16 0 0 1 2.79 1.06 9.29 9.29 0 0 0 1.27-2.17c0-.11 0-.15.07-.15s1.39.64 1.39 1.09c0 .14-.14.21-.41.21h-.22a.42.42 0 0 0-.41.2 13.08 13.08 0 0 1-1 1.23c.83.5 1.54 1 1.54 1.67a.44.44 0 0 1-.42.49 1.19 1.19 0 0 1-.84-.59 6 6 0 0 0-.87-.94 9.53 9.53 0 0 1-4.7 2.8zm3.33-10.38c-2 2.89-3.19 3.33-3.22 3.33s.07-.14.24-.31a12.25 12.25 0 0 0 2.89-5.21v-.15s1.54.63 1.54 1c0 .13-.15.24-.48.27a.41.41 0 0 0-.39.24c-.1.15-.2.34-.32.52h4.89a.29.29 0 0 0 .22-.13c.55-.74.66-.83.77-.83s1.23.77 1.23 1.13c0 .1-.06.18-.28.18zm2.46 3.56c-.7 0-2.77 0-3.89.14-.24 0-.62-.53-.62-.71 1.28.17 3.84.21 4.57.21h2.26a.23.23 0 0 0 .22-.13c.1-.14.34-.35.43-.35s1.11.57 1.11.81-.14.25-.32.35-.31.06-.35.59a7.21 7.21 0 0 0 0 .76c0 2.73 1.47 3.5 1.67 3.5s.64-.48 1.19-2.14a.56.56 0 0 1 .1-.22v.14c0 .46-.18 1.86-.18 2.46a.85.85 0 0 0 0 .25.89.89 0 0 1 .13.42c0 .31-.24.49-.59.49-.52 0-3.17-.7-3.17-5.65v-.67c0-.22-.07-.25-.22-.25zm.42-1.82a22.83 22.83 0 0 0-2.69.14c-.24 0-.62-.52-.62-.69a28.33 28.33 0 0 0 3.39.21h.63a.28.28 0 0 0 .21-.13c.43-.56.59-.74.74-.74s1.18.73 1.18 1c0 .08-.06.17-.27.17zm-1.6 22.42h-3.33v.91a.54.54 0 0 1-.53.52c-.18 0-.35-.11-.35-.42.07-1.3.08-3.17.08-4.78a26 26 0 0 0-.15-4.2.51.51 0 0 0 0-.08 5.42 5.42 0 0 1 1.2.62h.37a15.79 15.79 0 0 0-.07-2.09l-1.6.11c-.14 0-.55-.53-.55-.66 1 .11 2.35.2 2.82.2h1.74a.24.24 0 0 0 .15-.08s.45-.7.6-.7 1.08.71 1.08 1c0 .07-.06.15-.24.15h-1.74v.07c0 .07-.07.11-.18.15s-.11.1-.11.36v1.51h.49a.23.23 0 0 0 .18-.13c.17-.28.29-.39.35-.39s1 .48 1 .76-.18.25-.28.32-.2.13-.21.46 0 .85 0 1.46c0 1.77 0 4.34.1 5.55a.54.54 0 0 1-.5.56c-.18 0-.34-.13-.34-.45zm0-2.34v-2.14c-.11.25-.41.35-.8.35s-.66-.17-.66-.7v-2.34h-.63c-.07 1.92-.45 3-1.3 3.88v.94zm-3.05-4.82l-.1.08c-.18.13-.2.18-.21.67v2.89a7.86 7.86 0 0 0 .69-3.64zm3.05 5.2h-3.36v1.58h3.33zm-1.43-6.7v-1H964a.1.1 0 0 1 0 .08.17.17 0 0 1-.1.13c-.17.08-.18.06-.18.32v1.57h.63zm.58 1.5v1.34c0 1 0 1 .14 1s.29-.13.36-.87v-.15s.08.66.17.71a.47.47 0 0 1 .18.24v-2.13c0-.07 0-.17-.11-.17zm4.15 1.55l-.08.06c-.18.11-.21.1-.24.43 0 .57-.08 2.82-.08 4s0 1.32 1.86 1.32 1.92-.28 2.3-2.4a.42.42 0 0 1 0-.1c.08 0 .17 1.85.42 2a.48.48 0 0 1 .25.38c0 .52-1 .91-3 .91-1.3 0-2.65-.08-2.65-1.5v-.06c0-1.62.06-2.66.07-3.91a19.25 19.25 0 0 0-.1-2v-.1c0-.03 0-.07.06-.07a6.37 6.37 0 0 1 1.18.55.52.52 0 0 1 .13.1h2.24v-3.3c0-.15 0-.18-.2-.18h-1c-.42 0-1.41.06-2.25.13-.2 0-.57-.5-.57-.71a25.42 25.42 0 0 0 2.87.2h.84a.31.31 0 0 0 .21-.13c.18-.24.35-.43.48-.43s1.15.57 1.15.87c0 .13-.11.22-.29.32-.39.22-.39.22-.39.78s0 2.06.08 3.1a.5.5 0 0 1-.55.49.34.34 0 0 1-.36-.38v-.34zm-3.33 13.98s0-.07.1-.24c.38-1.2 1.08-1.78 1.76-1.78 1.44 0 2.16 2.16 2.16 4 0 4.54-3.94 6.75-4.5 6.75s.14-.17.46-.38a7.62 7.62 0 0 0 3.15-6.26c0-1.75-.6-3.46-1.53-3.46-.77 0-1.55 1.16-1.55 2.63a3.86 3.86 0 0 0 .42 1.74.93.93 0 0 1 .08.38c0 .36-.2.69-.43.69-.41 0-.94-1.2-.94-2.17a8.81 8.81 0 0 1 .28-1.92 12.63 12.63 0 0 0 .39-2.41c0-.38-.07-.67-.25-.76s-.2-.11-.2-.21.27-.25.38-.25.76.22.76 1.12a9.64 9.64 0 0 1-.49 2.34c-.03.08-.05.15-.05.19zm.21 16.08a2.45 2.45 0 0 1 .84-.18c.77 0 1.43.49 1.43 2.34 0 2.91-1.54 4.43-3 4.43a1.5 1.5 0 0 1-.52-.08c-.62-.2-.35-.71-.52-1.23a2.24 2.24 0 0 1-.11-.48v-.06s.18.13.36.38a1.25 1.25 0 0 0 1 .56c1.19 0 2-2 2-3.8 0-1-.22-1.61-.81-1.61a2 2 0 0 0-1.05.48c-.67 1.6-1.79 3.84-2.58 5.29a1.29 1.29 0 0 1-1 .77.28.28 0 0 1-.31-.32 1.8 1.8 0 0 1 .43-.94 28 28 0 0 0 2.79-4.61 6 6 0 0 1-1.75.6 1 1 0 0 1-1.09-1c0-.46.08-.5.11-.5s.17.13.27.27a1 1 0 0 0 .87.31 5.53 5.53 0 0 0 1.88-.36 6.27 6.27 0 0 0 .27-1.54c0-.45-.11-.77-.45-.83-.17 0-.31-.1-.31-.2s.59-.48.88-.48.73.07.73.88a6.94 6.94 0 0 1-.45 1.82zm5.79 3.64a1.06 1.06 0 0 0-.5-.07h-.77c-.31 0-.43 0-.43-.07s.17-.1.41-.14c1-.2 1.55-.43 1.55-1.19 0-1.08-1.12-1.43-1.85-1.72-.31-.11-.46-.18-.46-.22s.07 0 .18 0c1.86 0 3.1 1 3.1 2.2 0 .71-.43 1.3-.94 1.3a.59.59 0 0 1-.25-.08zm-.18-4a4.53 4.53 0 0 0-1.29-.87c-.11 0-.22-.08-.22-.13s.38-.14.76-.14c1.18 0 1.5.53 1.5.87a.41.41 0 0 1-.38.43.51.51 0 0 1-.33-.19zm.74-1.92c.86 0 1.4.36 1.4.83a.42.42 0 0 1-.39.45.51.51 0 0 1-.35-.15 4.71 4.71 0 0 0-1.32-.84c-.11 0-.22-.07-.22-.11a1.9 1.9 0 0 1 .92-.21zm-3.64 15.39a9 9 0 0 0 .74 3.08 7.23 7.23 0 0 0 1.22-2.12c0-.06 0-.1.06-.1s1.15.71 1.15 1c0 .1-.11.18-.32.18h-.17a.28.28 0 0 0-.28.15 11.89 11.89 0 0 1-1.23 1.61 3.4 3.4 0 0 0 1.81 1.4c.39 0 .83-.63 1.33-1.67.13-.25.13-.13.13-.11 0 .22-.22 1.16-.22 1.72a.57.57 0 0 0 .08.36.6.6 0 0 1 .18.42c0 .24-.18.43-.57.43a4.36 4.36 0 0 1-3.19-2.09 8.94 8.94 0 0 1-5.29 2.24h-.13s.2-.11.5-.18a8.08 8.08 0 0 0 4.54-2.69 11.86 11.86 0 0 1-1.08-3.61h-4.24l-.1.06c-.17.08-.2.1-.2.38v.83c0 2.23-.29 4.8-2.62 6.23a1.32 1.32 0 0 1-.49.22s.07-.14.28-.31c1.61-1.34 2-3.38 2-5.36a14.46 14.46 0 0 0-.25-2.91.25.25 0 0 1 0-.08 6 6 0 0 1 1.46.62.28.28 0 0 1 .08.06h4.09a17.25 17.25 0 0 0-.35-1.95.29.29 0 0 1 0-.11h.08c.32 0 1.51.15 1.51.45 0 .08-.08.17-.22.24s-.24.11-.24.39v1h1.92a.29.29 0 0 0 .24-.13c.28-.39.59-.81.77-.81h.08a2.29 2.29 0 0 1 1.19 1.11c0 .08-.07.17-.31.17zm-7.48 9.29c0-.27.21-.56.67-.71a3.18 3.18 0 0 0 1.61-1.47c0-.07.07-.1.08-.1s0 .06 0 .14c0 1.34-.94 2.61-1.88 2.61a.47.47 0 0 1-.48-.48zm4.6-7.77a7.52 7.52 0 0 0-1.44.13c-.15 0-.55-.5-.55-.66a11.49 11.49 0 0 0 2 .2h.27a.27.27 0 0 0 .17-.11c.13-.25.42-.57.52-.57a.11.11 0 0 1 .07 0c.76.35.87.71.87.81s-.06.2-.27.2zm-.8 3v.52c0 .16-.2.39-.46.39a.3.3 0 0 1-.32-.31c0-.45.07-.94.07-1.58a6.2 6.2 0 0 0-.11-1.13v-.08a4.85 4.85 0 0 1 1.06.41h1a.18.18 0 0 0 .17-.08 1.19 1.19 0 0 1 .24-.28h.11c.04 0 .94.41.94.69 0 .13-.14.21-.25.28s-.22.14-.22.45.06.35.08.73a.45.45 0 0 1-.46.42.31.31 0 0 1-.34-.32zm3.52 5.44c-.49 0-1 .06-1.4.06-2.1 0-2.37-.55-2.37-1v-.06c0-.35.06-.71.06-1a6.56 6.56 0 0 0-.07-1 .3.3 0 0 1 0-.1h.06c.06 0 1.39.11 1.39.42 0 .07-.1.17-.27.25s-.25.14-.28.46a4.08 4.08 0 0 0 0 .71c0 .35.07.55 1.82.55 1.6 0 1.95-.24 2.23-1.75 0-.11 0-.15.05-.15s.18 1.09.45 1.26a.53.53 0 0 1 .31.43c-.07.4-.73.83-1.99.92zm-3.28-6.93l-.07.06c-.15.1-.15.1-.17.35v.76h1.51v-.59a3.78 3.78 0 0 0 0-.43.16.16 0 0 0-.15-.14zm2.28 4.78a4.37 4.37 0 0 0-1-1.16c-.1-.08-.15-.13-.15-.14s0 0 .06 0c.21 0 2.09.13 2.09 1.15a.52.52 0 0 1-.46.56.6.6 0 0 1-.55-.42zm2.54-9a4.29 4.29 0 0 0-1-1c-.08-.07-.14-.11-.14-.13s.07 0 .2 0c.32 0 1.79.14 1.79 1a.49.49 0 0 1-.43.52.51.51 0 0 1-.43-.39zm1.85 10.16a5.45 5.45 0 0 0-1.64-1.78c-.06 0-.08-.07-.08-.1s0 0 .07 0c.27 0 2.76.63 2.76 1.79a.56.56 0 0 1-.49.6c-.21-.04-.43-.17-.63-.52zm-4.37 16.06c-1.23 0-3.05-.59-3.05-4.15 0-1.54.32-3.11.32-4.64a2.5 2.5 0 0 0-.39-1.67c-.13-.14-.18-.22-.18-.28s.05-.08.15-.08a1.43 1.43 0 0 1 1.47 1.48 2.8 2.8 0 0 1 0 .46 33.72 33.72 0 0 0-.67 5c0 .81.07 3 2.55 3a6.69 6.69 0 0 0 4.15-1.81.58.58 0 0 1 .25-.15c-.02.25-2.08 2.84-4.6 2.84zm.32-8.84c.84 0 1.78.34 1.78 1a.45.45 0 0 1-.41.49.53.53 0 0 1-.41-.22 4.79 4.79 0 0 0-1.25-1.02c-.11-.06-.21-.1-.21-.14a1 1 0 0 1 .5-.1zm2.68.66a4.74 4.74 0 0 0-1.25-1.06c-.11-.06-.22-.1-.22-.14s.34-.08.5-.08c1.12 0 1.78.5 1.78 1a.45.45 0 0 1-.42.49.53.53 0 0 1-.39-.21zm-5.88 16.19a2.64 2.64 0 0 0 0-.34 1.71 1.71 0 0 1 0-.27c0-1.11 1-1.54 1.79-2 .11-.07.35-.22.35-.41v-.06c-.08-.31-.29-.46-.34-.62a2.13 2.13 0 0 1-.1-.25h.06c.06 0 1.9.78 1.9 1.68a.59.59 0 0 1-.52.62 2 2 0 0 1-.52-.13 3.16 3.16 0 0 0-1-.14.93.93 0 0 0-1.05 1 1.15 1.15 0 0 0 .06.39 2.09 2.09 0 0 1 .11.66 7.34 7.34 0 0 1-.22 1.25 10 10 0 0 0-.2 1.72c0 1 .31 1.19.49 1.19a1 1 0 0 0 .48-.21c.34-.22.73-.63 1.39-1.06a2.81 2.81 0 0 1 1.5-.46 2.2 2.2 0 0 1 2.26 2c0 2.17-2.91 3.47-5.2 3.47h-.15s.18-.1.6-.2c2.62-.63 3.84-2.14 3.84-3.24a1.61 1.61 0 0 0-2.59-1.18 7.16 7.16 0 0 0-1.46 1.71c-.22.29-.41.42-.6.42-.38 0-1.19-.52-1.19-2.09a21.32 21.32 0 0 1 .25-2.48 5.5 5.5 0 0 0 .06-.97zm.73 15.1c.38 0 .5.18.5.36a1.07 1.07 0 0 1-.18.48c1.83-1.83 3-2 3.47-2 .9 0 1.47.62 1.47 1.75a5.42 5.42 0 0 1-.05.62c-.15 1-.59 2-.63 2.94v.1c0 .91.48 1.36 1.15 1.36a3.5 3.5 0 0 0 2.26-1.19c.32-.32.48-.43.53-.43 0 .22-1.37 2.45-3.21 2.45-.92 0-1.62-.64-1.62-2a3.9 3.9 0 0 1 0-.41 27.05 27.05 0 0 1 .77-2.86 4.31 4.31 0 0 0 .1-.78c0-.74-.34-1.15-.92-1.15-.92 0-2.59 1-4 2.84a16.32 16.32 0 0 0-.14 2.09 8.11 8.11 0 0 0 .31 2.35 1.86 1.86 0 0 1 .11.62c0 .38-.17.57-.38.57s-.63-.38-.64-1.16a10.75 10.75 0 0 0-.63-2 7.41 7.41 0 0 0-.38 1.15c-.15.66-.6 1.08-.88 1.08s-.24-.1-.24-.34a7.61 7.61 0 0 1 1.21-2.66c-.81-1.81-.91-2-.91-2.3 0-.57.5-.92 2.38-1.4a1.49 1.49 0 0 0 0-.21c0-.45.08-.92.08-1.36s0-1.37-.77-1.51c-.22-.06-.34-.14-.34-.24s.42-.28.52-.28a1.71 1.71 0 0 1 1.32 1.55 5.39 5.39 0 0 1-.14 1c-.07.36-.15.71-.18 1zm-.67.91a.37.37 0 0 0-.14 0c-.07 0-1.7.15-1.7.84a5.69 5.69 0 0 0 .62 1.81 12 12 0 0 0 1.16-2.21zm-.92 3.25c0 .07.43.87.56.87s0 0 0-.17v-.28c0-.49 0-1.12.1-1.75a8.2 8.2 0 0 0-.67 1.33zm3.92 18.07a2.65 2.65 0 0 0 2.4-2.52 2.17 2.17 0 0 0-2.28-2.14 3.46 3.46 0 0 0-3.08 2c-.13.22-.35.73-.45.87a.78.78 0 0 1-.6.39.39.39 0 0 1-.39-.42c0-.22.13-.52 1.15-1.72.56-.66 3.14-4.2 3.38-4.58a.82.82 0 0 0 .14-.35c0-.07 0-.25-.36-.25-.67 0-1 1.29-1.95 1.29a.8.8 0 0 1-.88-.8c0-.11 0-.22.11-.22a.93.93 0 0 1 .27.08 1.1 1.1 0 0 0 .36.06.89.89 0 0 0 .57-.2 3.39 3.39 0 0 1 1.92-.85c.66 0 1.22.52 1.22.83s-.25.49-.55.71a19 19 0 0 0-2.9 3.36h.07a4.25 4.25 0 0 1 2.23-.64 2.7 2.7 0 0 1 2.9 2.61c0 1.58-1.47 3.15-3.87 3.15-1 0-2.2-.53-2.2-1.42a1.2 1.2 0 0 1 1.32-1 1.47 1.47 0 0 1 1.5 1.41 1.27 1.27 0 0 1-.08.45zm-.73-.43a.94.94 0 0 0-.91-1c-.59 0-.66.41-.66.56 0 .52.77.83 1.46.88a1 1 0 0 0 .09-.45zM941.6 94.61v-.7h-5v.67a.6.6 0 0 1-.63.53.39.39 0 0 1-.42-.43c.1-1.58.13-3.49.13-5.29 0-4.1-.11-4.93-.22-5.41a.35.35 0 0 1 0-.1 5.74 5.74 0 0 1 1.5.66h4.32a.31.31 0 0 0 .22-.13c.15-.2.43-.46.53-.46s1.25.63 1.25.94-.18.28-.43.41-.29.17-.29 2.09.07 5.38.13 7.12a.59.59 0 0 1-.69.49.4.4 0 0 1-.43-.42zm-4.66-9.72l-.11.08c-.24.15-.25.22-.25.6v3.25h5.09v-3.74a.19.19 0 0 0-.18-.2zm-.38 4.31v4.33h5V89.2zm2.93 18.11c0 1 0 2 .06 2.9 0 .42-.42.53-.63.53a.38.38 0 0 1-.42-.42v-.06c.06-.81.1-1.85.13-3-.59 0-1.65 0-2.12.1-.29 0-.53-.46-.53-.6a19.59 19.59 0 0 0 2.65.15v-4.12a13 13 0 0 1-6.36 6s.08-.11.27-.24a19.1 19.1 0 0 0 5.63-6.71h-.48c-.78 0-2.65 0-3.89.15-.25 0-.63-.55-.63-.73 1.44.17 3.78.22 4.59.22h.88a16.3 16.3 0 0 0-.17-3.31.28.28 0 0 1 0-.1c.31 0 1.67.24 1.67.53 0 .1-.11.21-.29.32s-.28.15-.32.59-.07 1.08-.08 2h3a.29.29 0 0 0 .24-.13c.13-.2.59-.9.81-.9h.08c.42.15 1.26.92 1.26 1.19 0 .08-.07.17-.31.17h-4.85c1.11 2.09 3.42 4.82 6 5.66.08 0 .13.06.13.07s-1.3.18-1.7.52a.29.29 0 0 1-.17.07c-.37 0-3.32-2.84-4.5-6.29v5.06h.42a.32.32 0 0 0 .27-.15c.43-.66.56-.7.6-.7.21 0 1.16.74 1.16 1 0 .08-.07.18-.28.18zm-.36 8.69c-.11 7.94-5.77 9.9-6 9.9s.14-.18.32-.28c3.29-1.82 4.78-6.12 4.78-9.65v-.06a9.76 9.76 0 0 0-.13-1.6.16.16 0 0 1 0-.07c.17 0 1.81.25 1.81.64 0 .08-.07.17-.21.25v.28c0 3.66 2.07 8.42 6 9.62.08 0 .11 0 .11.07s-1.36.14-1.74.53a.22.22 0 0 1-.15.07c-.32 0-4.44-3.05-4.44-9.61v-.85c-.29.09-.34.1-.35.76zm.34 17.32c0 3.07-2.45 6.19-3.66 6.19-.69 0-.94-.94-1.51-1.76a2.19 2.19 0 0 1-.34-1.27 5.71 5.71 0 0 1 5.65-5.5 4.46 4.46 0 0 1 4.82 4.48c0 4.26-4.87 5.46-6 5.46-.13 0-.2 0-.2-.06s.22-.18.63-.29c3.68-1 4.68-3.43 4.68-5.17a3.86 3.86 0 0 0-4.09-4h-.5a2.43 2.43 0 0 1 .52 1.92zm-.49-.5c0-1-.24-1.25-.55-1.25h-.25a5 5 0 0 0-3.52 4.55c0 1.23.62 2.17 1.29 2.17.95.03 3.05-2.9 3.05-5.48zm.55 20.63c1 1.34 3.19 2.47 6 2.47h.24s-1.19.53-1.53.81a.39.39 0 0 1-.27.1 6.29 6.29 0 0 1-4.73-3.42h-.06c-.91 2.76-4.87 3.54-6.33 3.54-.21 0-.28 0-.28-.06s.14-.11.31-.14c2.75-.32 4.82-1.79 5.39-3.35h-.83c-.76 0-2.72 0-3.94.15-.25 0-.67-.55-.67-.73 1.39.18 3.91.22 4.69.22h.87v-.25a6.61 6.61 0 0 0 0-.7 3.39 3.39 0 0 0 0-.38c.5 0 1.47.17 1.47.38s-.08.15-.28.21-.25 0-.36.64v.17h4.1a.26.26 0 0 0 .21-.13c.53-.71.6-.81.7-.81a2.55 2.55 0 0 1 1.19 1.11c0 .1-.06.18-.27.18zm-.21-4.26v.59h.1c.78.08 2.27.25 2.27 1.12a.42.42 0 0 1-.39.45.7.7 0 0 1-.52-.34 4.5 4.5 0 0 0-1.4-1.12h-.06v1.27a.43.43 0 0 1-.43.42.32.32 0 0 1-.32-.35c0-.41 0-.8.06-1.15a7.09 7.09 0 0 1-2.93 1.82v.36c0 .24-.28.39-.53.39a.33.33 0 0 1-.37-.32c.08-1.39.1-4.33.1-5.21a13.7 13.7 0 0 0-.1-1.55v-.08a4.42 4.42 0 0 1 1.18.56h1.74a6.17 6.17 0 0 0 .25-1.37v-.62s1.61.36 1.61.74c0 .11-.15.21-.48.24-.17 0-.21.1-.28.2a9 9 0 0 1-.69.84h4a.2.2 0 0 0 .18-.1 2.07 2.07 0 0 1 .27-.31.34.34 0 0 1 .13 0c.14 0 1 .45 1 .74a.42.42 0 0 1-.25.32c-.25.15-.27.13-.28.38v.55c0 1.06 0 3.35.08 4.65a.48.48 0 0 1-.5.42.33.33 0 0 1-.37-.35v-5.8a.17.17 0 0 0-.17-.14H936l-.1.07c-.15.1-.2.08-.21.34s0 .48 0 1v4a10 10 0 0 0 2.79-2.44c-.56 0-1.2 0-1.95.11-.21 0-.59-.48-.59-.62 1 .11 2 .17 2.72.18a9 9 0 0 0-.14-2.1.16.16 0 0 1 0-.07h.05c.05 0 1.23.22 1.23.45 0 .07-.07.15-.18.21s-.29 0-.31.45 0 .7 0 1.09h.14l.08-.13a6.15 6.15 0 0 0 1-1.83v-.11s.94.53.94.76c0 .07-.07.14-.27.14h-.11a.32.32 0 0 0-.24.11 10.16 10.16 0 0 1-1.23 1l-.08.06h1.08a.2.2 0 0 0 .14-.11 1.69 1.69 0 0 1 .48-.5h.06c.32.15.83.56.83.78 0 .07-.06.14-.22.14zm-2-1a2.9 2.9 0 0 0-.73-.85c-.08-.06-.11-.1-.11-.11s.07 0 .18 0c.62 0 1.49.29 1.49.87a.44.44 0 0 1-.42.45.47.47 0 0 1-.43-.39zm.19 24.15c0-.06.18-.24.58-.52a5.29 5.29 0 0 0 1.53-1.81c-1.92-1-1.93-4.06-1.93-4.54v-.81a6.1 6.1 0 0 0-1.22 3.66 2.23 2.23 0 0 0 .14 1 .74.74 0 0 1 .14.38c0 .32-.36.34-.43.34s-2.23-.32-2.23-3.21v-.59c0-.35.06-.73.06-1.08 0-.59-.07-1.09-.27-1.23s-.29-.14-.29-.24.41-.29.5-.29a1 1 0 0 1 .9 1.12 17.9 17.9 0 0 1-.25 1.78 6.32 6.32 0 0 0-.1 1 1.45 1.45 0 0 0 .9 1.48c.15 0 .24-.15.25-.42a7.05 7.05 0 0 1 1.93-4.29c.29-2.28 1.15-2.55 1.58-2.55a2.1 2.1 0 0 1 1.51 1.08h.08a3.68 3.68 0 0 1 3.84 3.59 4.19 4.19 0 0 1-4 4.13 2.55 2.55 0 0 1-.64-.07 5.14 5.14 0 0 1-2.58 2.09zm.49-8.1a8.68 8.68 0 0 0-.06.88c0 .64.06 3.45 1.95 4.22a10.39 10.39 0 0 0 .73-3.88 6.48 6.48 0 0 0-.41-2.51 4.05 4.05 0 0 0-2.21 1.29zm1.21-2.21c-.69 0-1.05 1.37-1.11 1.65a4.54 4.54 0 0 1 1.95-1c-.3-.44-.58-.68-.84-.68zm2.23 3.45a9.08 9.08 0 0 1-.9 4h.25c1.77 0 3.11-1.79 3.11-3.6a3 3 0 0 0-2.88-3 7.28 7.28 0 0 1 .42 2.6zM938 179.85a2.47 2.47 0 0 1 .84-.18c.77 0 1.43.49 1.43 2.34 0 2.91-1.54 4.43-3 4.43a1.49 1.49 0 0 1-.52-.08c-.62-.2-.35-.71-.52-1.23a2.24 2.24 0 0 1-.11-.48v-.06s.18.13.36.38a1.25 1.25 0 0 0 1 .56c1.19 0 2-2 2-3.8 0-1-.22-1.61-.81-1.61a2 2 0 0 0-1.05.48c-.67 1.6-1.79 3.84-2.58 5.29a1.29 1.29 0 0 1-1 .77.28.28 0 0 1-.31-.32 1.8 1.8 0 0 1 .43-.94 28 28 0 0 0 2.79-4.61 6 6 0 0 1-1.75.6 1 1 0 0 1-1.09-1c0-.46.08-.5.11-.5s.17.13.27.27a1 1 0 0 0 .87.31 5.53 5.53 0 0 0 1.88-.36 6.27 6.27 0 0 0 .27-1.54c0-.45-.11-.77-.45-.83-.17 0-.31-.1-.31-.2s.59-.48.88-.48.73.07.73.88a6.94 6.94 0 0 1-.45 1.82zm5.79 3.64a1.06 1.06 0 0 0-.5-.07h-.77c-.31 0-.43 0-.43-.07s.17-.1.41-.14c1-.2 1.55-.43 1.55-1.19 0-1.08-1.12-1.43-1.85-1.72-.31-.11-.46-.18-.46-.22s.07 0 .18 0c1.86 0 3.1 1 3.1 2.2 0 .71-.43 1.3-.94 1.3a.59.59 0 0 1-.25-.08zm-4.22 19.1c-1.23 0-3.05-.59-3.05-4.15 0-1.54.32-3.11.32-4.64a2.5 2.5 0 0 0-.39-1.67c-.13-.14-.18-.22-.18-.28s.05-.08.15-.08a1.43 1.43 0 0 1 1.47 1.48 2.8 2.8 0 0 1 0 .46 33.72 33.72 0 0 0-.67 5c0 .81.07 3 2.55 3a6.69 6.69 0 0 0 4.15-1.81.58.58 0 0 1 .25-.15c-.02.25-2.08 2.84-4.6 2.84zm-2.27 8.57c-1.27 0-2.21-.87-2.21-1.51 0-.11 0-.35.11-.35s.15.07.28.22a2.92 2.92 0 0 0 1.95.83 5.41 5.41 0 0 0 1.72-.42c-.57-.46-1.11-.85-1.46-1.12a.82.82 0 0 1-.35-.66.67.67 0 0 1 .66-.69.73.73 0 0 1 .29.06 1.51 1.51 0 0 1 .43.31 3.71 3.71 0 0 0 2 .71 2.3 2.3 0 0 0 .36 0 .44.44 0 0 1 .43.45c0 .53-1 1.09-1.33 1.27 1.21 1 2.83 2.55 2.83 4.1a.85.85 0 0 1-.77 1c-.24 0-.42-.18-.66-.36a6.18 6.18 0 0 0-2.9-.63c-1.51 0-2.09.66-2.09 1.26s.74 1.37 2.27 1.37a3.73 3.73 0 0 0 1.09-.15 1 1 0 0 1 .27 0c.38 0 .66.22.66.46s-.22.62-1.69.62c-3 0-3.25-1.77-3.25-2.07 0-1 1.06-1.88 3.38-1.88a11.37 11.37 0 0 1 2.12.21h.24c.28 0 .35-.13.35-.31 0-.42-.34-1.65-2.27-3.36a6.1 6.1 0 0 1-2.46.64zm3.11-2.07c0-.11-.07-.24-.32-.36a8.87 8.87 0 0 0-1.61-.5c-.18 0-.27.08-.27.18s.45.56 1.39 1.33c.6-.3.81-.47.81-.65zm-2.77 18.35c1.42 2.2 2.65 4.13 2.65 5.36 0 .56-.28.85-.56.85s-.5-.25-.5-.81c0-1.08-.31-2.34-2-5.17-.07-.11-.12-.22-.21-.35l-.53.43a3 3 0 0 1-1.82.8 1.28 1.28 0 0 1-1.26-.87c0-.07 0-.11.14-.11a.69.69 0 0 1 .2 0 2 2 0 0 0 .62.1c.67 0 1.15-.28 2.24-1a8.13 8.13 0 0 0-.88-1.11 1.08 1.08 0 0 1-.45-.78 1.1 1.1 0 0 1 .37-.73c.28-.29.63-.36 1.34-.36h1.33c.62 0 .9-.06.9-.38a1.15 1.15 0 0 0-.13-.49c0-.06-.1-.13-.1-.17s0 0 .08 0c.31 0 1.19.52 1.19 1.16a.69.69 0 0 1-.71.74 2.6 2.6 0 0 1-.76-.15 7 7 0 0 0-1.83-.41c-.79 0-.92.56-.92.71s.17.6 1 1.72c1.47-1 3.22-2.07 5-2.07s2.77 1 2.77 2-1.16 2.21-2.8 2.21a3.61 3.61 0 0 1-3.24-2.19s.2.11.38.31a3.33 3.33 0 0 0 2.54 1.09c1.89 0 2.26-1.18 2.26-1.58 0-.87-.86-1.39-1.91-1.39-1.58 0-3.35 1.19-4.65 2.21.08.17.17.31.25.43zm6.65 11.41a5.27 5.27 0 0 0-1.7-1.77c-.14-.11-.28-.2-.28-.24s0 0 .1 0c.57 0 3 .56 3 1.78a.64.64 0 0 1-.59.67.66.66 0 0 1-.53-.44zm-1.57 13.72v1.89a1.3 1.3 0 0 1-1.27 1.29.24.24 0 0 1-.22-.13c-.21-.28-1.22-.78-1.22-.87h.14a5.42 5.42 0 0 0 1.11.17c.62 0 .67-.18.67-1.51v-.84a11.51 11.51 0 0 0-1.5.11c-.17 0-.54-.48-.54-.63a15.87 15.87 0 0 0 2 .17v-.49a3.72 3.72 0 0 0-.1-.92.11.11 0 0 1 0-.06 4.92 4.92 0 0 1 .73.11 4.68 4.68 0 0 0 .54-1c0-.06 0-.07-.08-.07h-.59c-.2 0-.69 0-1.51.08-.11 0-.34-.31-.41-.48a4 4 0 0 1-.36.45c.21.17.25.24.25.29s-.11.18-.32.28-.17.13-.18.32a27.69 27.69 0 0 1-.25 2.76c-.22 1.5-1 2.17-1.93 2.17-.07 0-.14 0-.17-.1-.1-.34-.81-.77-.91-.92a4.49 4.49 0 0 1-1 .9 2.83 2.83 0 0 0 2.27 1.05h1.15a27.92 27.92 0 0 0 6.51-.73h.18s-1 .73-1.16 1.15a.36.36 0 0 1-.27.22c-.11 0-2.37.22-4.38.22a14.11 14.11 0 0 1-2.18-.13 3.07 3.07 0 0 1-2.66-2.2c-.31.46-1.08 1.37-1.64 2 0 .06-.07.32-.2.32a3.61 3.61 0 0 1-1-1s0-.06.1-.07a6.22 6.22 0 0 0 2-1.29.53.53 0 0 0 .17-.38c.06-.71.1-2.28.1-2.93v-.18a.14.14 0 0 0-.15-.15h-.28c-.22 0-1 .14-1.22.15-.22 0-.62-.55-.62-.74.49.07 1.63.2 1.86.2h.25a.28.28 0 0 0 .2-.13c.06-.07.27-.35.36-.35s1.05.45 1.05.81c0 .15-.18.27-.32.32s-.29.06-.32.38c-.06.66-.08 1.92-.1 2.63a1.19 1.19 0 0 0 .06.42.63.63 0 0 0 .07.14c1.78-1.72 1.9-5.94 1.9-6.39a5.84 5.84 0 0 0-.06-.71l-.88.08c-.24 0-.53-.46-.53-.62a15.82 15.82 0 0 0 1.79.17v-.66a10 10 0 0 0-.11-1.65.29.29 0 0 1 0-.08s1.42.15 1.42.49c0 .1-.08.2-.24.28-.31.2-.28 0-.31.5v1.15h.32a.27.27 0 0 0 .17-.11c.14-.27.41-.62.52-.62h.08c.39.18.91.62.91.85 0 .08-.06.17-.25.17h-1.68c.07 0 .1.08.1.13s-.08.15-.22.2-.21.13-.22.42 0 .57-.07.88h.84c.13 0 .17 0 .46-.34h.07a1.16 1.16 0 0 1 .43.22 12.18 12.18 0 0 0 1.4-4.22v-.14s1.27.38 1.27.59-.1.17-.34.22-.17.11-.24.27c-.15.34-.39.83-.66 1.36h1.77a.25.25 0 0 0 .15-.11 3.06 3.06 0 0 1 .46-.63.19.19 0 0 1 .11 0h.05c.37.17 1 .7 1 1 0 .07-.06.14-.24.14h-3.45a11.42 11.42 0 0 1-.73 1.19 15.68 15.68 0 0 0 1.91.13h.55a.4.4 0 0 0 .21-.08 1.7 1.7 0 0 1 .22-.22.16.16 0 0 1 .11 0c.14 0 .9.48.9.8 0 .14-.13.28-.43.29s-.8.46-1.18.77h.29c.15 0 .22.11.22.2s-.07.17-.21.22-.22.1-.24.5v.36h.63a.2.2 0 0 0 .14-.1c.08-.15.41-.64.59-.64s1 .55 1 .91c0 .07 0 .17-.21.17zm-7.87-4.92a5.13 5.13 0 0 0-1.46-1.42.11.11 0 0 1-.07-.08h.1c.6 0 2.46.41 2.46 1.4a.52.52 0 0 1-.46.57c-.18-.03-.42-.12-.57-.46zm3.35 2.49a8.85 8.85 0 0 1-1.47 4.43h.08a5.49 5.49 0 0 0 1 .22c1.15 0 1.29-1.72 1.43-4.51a.14.14 0 0 0-.14-.15zm3.67 14.4v-.1.69c0 2.8-.24 4.48-1.26 5.65a4.36 4.36 0 0 1-3.07 1.57c-1.78 0-2.62-1.78-2.62-3.39a7.94 7.94 0 0 1 .81-3.11c.42-1 1-1.78 1.13-2.14a.08.08 0 0 0 0-.06.12.12 0 0 0-.08 0 1.45 1.45 0 0 1-.76.25.74.74 0 0 1-.76-.76c0-.13 0-.39.11-.39s.13.07.21.17a1 1 0 0 0 .63.17 2.48 2.48 0 0 0 1.3-.38 1.83 1.83 0 0 1 1-.34c.46 0 .74.22.74.45s-.13.28-.39.32a3.13 3.13 0 0 0-.52.14c-1 .38-2.68 3.31-2.68 5.49 0 1.36.64 2.62 2 2.62a3.92 3.92 0 0 0 2.49-1.13 4 4 0 0 0 1.11-2.27 34.78 34.78 0 0 0 .29-3.57c0-.69-.29-1.44-.29-2.1 0-.2 0-.88.46-.88.15 0 .42.31.42.64v.92a4.49 4.49 0 0 0 2.28 3.89.78.78 0 0 1 .45.66.43.43 0 0 1-.43.46c-.97-.01-2.28-2.01-2.57-3.47zm1.95-1.06a4.66 4.66 0 0 0-1.16-1.05c-.1-.06-.21-.11-.21-.14s.41-.07.43-.07c.83 0 1.72.39 1.72 1a.44.44 0 0 1-.41.48.5.5 0 0 1-.37-.22zm1.36-.85a4.8 4.8 0 0 0-1.23-1c-.11-.06-.22-.1-.22-.13s.59-.11.62-.11c.77 0 1.61.32 1.61.92a.43.43 0 0 1-.41.45.53.53 0 0 1-.37-.14zm-12.57 22.69a.91.91 0 0 1 .48-.71 4.53 4.53 0 0 0 1.79-2.69c0-.11.07-.15.1-.15a1.82 1.82 0 0 1 .13.84c0 1.71-1 3.22-1.92 3.22a.53.53 0 0 1-.58-.51zm8.07 2.87c-.5 0-1.06.06-1.53.06-1.57 0-2.49-.31-2.49-1.69v-.1c0-1.33.07-3.61.07-4.45a14.3 14.3 0 0 0-.11-2.63.75.75 0 0 1 0-.13h.07c.07 0 1.61.27 1.61.6 0 .1-.1.2-.29.31s-.28.24-.32.71c-.08 1.05-.1 3.63-.1 5.44 0 1 .36 1.12 1.86 1.12 1.81 0 1.95-.24 2.4-2.66 0-.11 0-.17.06-.17s.17 2 .46 2.14a.59.59 0 0 1 .32.48c-.04.4-.69.89-2.01.97zm-1.12-9.74a6.25 6.25 0 0 0-2.06-1.62c-.07 0-.1-.07-.1-.1s0-.06.13-.06c.74 0 3.24.5 3.24 1.67a.52.52 0 0 1-.49.56 1 1 0 0 1-.72-.44zm4.48 5.7a6.18 6.18 0 0 0-2.33-2.54c-.11-.07-.17-.11-.17-.14.76 0 3.77 1.32 3.77 2.75 0 .38-.22.66-.52.66s-.51-.21-.79-.72zm-6.04 11.9a2.47 2.47 0 0 1 .84-.18c.77 0 1.43.49 1.43 2.34 0 2.91-1.54 4.43-3 4.43a1.49 1.49 0 0 1-.52-.08c-.62-.2-.35-.71-.52-1.23a2.24 2.24 0 0 1-.11-.48v-.06s.18.13.36.38a1.25 1.25 0 0 0 1 .56c1.19 0 2-2 2-3.8 0-1-.22-1.61-.81-1.61a2 2 0 0 0-1.05.48c-.67 1.6-1.79 3.84-2.58 5.29a1.29 1.29 0 0 1-1 .77.28.28 0 0 1-.31-.32 1.8 1.8 0 0 1 .43-.94 28 28 0 0 0 2.79-4.61 6 6 0 0 1-1.75.6 1 1 0 0 1-1.09-1c0-.46.08-.5.11-.5s.17.13.27.27a1 1 0 0 0 .87.31 5.53 5.53 0 0 0 1.88-.36 6.27 6.27 0 0 0 .27-1.54c0-.45-.11-.77-.45-.83-.17 0-.31-.1-.31-.2s.59-.48.88-.48.73.07.73.88a6.94 6.94 0 0 1-.45 1.82zm5.79 3.64a1.06 1.06 0 0 0-.5-.07h-.77c-.31 0-.43 0-.43-.07s.17-.1.41-.14c1-.2 1.55-.43 1.55-1.19 0-1.08-1.12-1.43-1.85-1.72-.31-.11-.46-.18-.46-.22s.07 0 .18 0c1.86 0 3.1 1 3.1 2.2 0 .71-.43 1.3-.94 1.3a.59.59 0 0 1-.25-.08zm-.18-4a4.54 4.54 0 0 0-1.29-.87c-.11 0-.22-.08-.22-.13s.38-.14.76-.14c1.18 0 1.5.53 1.5.87a.41.41 0 0 1-.38.43.51.51 0 0 1-.33-.19zm.74-1.92c.86 0 1.4.36 1.4.83a.42.42 0 0 1-.39.45.51.51 0 0 1-.35-.15 4.71 4.71 0 0 0-1.32-.84c-.11 0-.22-.07-.22-.11a1.9 1.9 0 0 1 .92-.21zm-5.84 21.63c.06.24.13.49.21.74a.71.71 0 0 1 0 .22.52.52 0 0 1-.43.56c-.17 0-.36-.17-.46-.59v-.18a4.67 4.67 0 0 1-2.61 1.55.89.89 0 0 1-.9-1c0-1.61 2.37-3.78 3.52-4.55.07-.64.14-1.26.2-1.79a6.24 6.24 0 0 1-1 .13c-1.61 0-1.64-1.29-1.64-1.33s0-.08.05-.08a.48.48 0 0 1 .18.07 3.15 3.15 0 0 0 1.71.64 3.1 3.1 0 0 0 .8-.11c0-.28.06-.5.06-.7v-.5c0-.49-.07-.71-.46-.76-.13 0-.25-.06-.25-.15a.53.53 0 0 1 .52-.34c.1 0 1 .17 1 .94a6.41 6.41 0 0 1-.13.81c0 .17 0 .34-.07.5A12.13 12.13 0 0 0 940 309c.21-.11.42-.29.6-.36a.85.85 0 0 1 .31-.06c.27 0 .48.14.48.34s-.1.28-.32.41a11.9 11.9 0 0 1-2.44 1c-.1.53-.2 1.08-.27 1.65a5.7 5.7 0 0 1 1.81-.63.56.56 0 0 0-.2-.48c-.11-.08-.15-.15-.15-.2s0-.06.1-.06a.8.8 0 0 1 .76.69h.14a3.26 3.26 0 0 1 3.4 3.21c0 3.45-4.85 4.86-6.32 4.86h-.15s.25-.18.8-.34c2.1-.6 4.75-2.14 4.75-4.52a2.66 2.66 0 0 0-2.63-2.7 10.37 10.37 0 0 1-2.16 3.59zm-.8-.84c0-.62 0-1.26.1-1.9-1.69 1.2-2.7 2.94-2.7 3.74a.41.41 0 0 0 .44.45c.73 0 2.14-1.41 2.2-1.47-.03-.27-.04-.54-.04-.82zm.66-2.21c0 .38-.06.76-.06 1.13a11.27 11.27 0 0 0 .07 1.18 9 9 0 0 0 1.76-3 4.84 4.84 0 0 0-1.77.69zm1.78 17.49a2.7 2.7 0 0 1 .81 1.78 1.84 1.84 0 0 1-1.88 1.78 1.81 1.81 0 0 1-1.06-.34 10.2 10.2 0 0 0-1.9-.83c-1.16 1-1.44 1.06-1.79 1.06a.83.83 0 0 1-.88-.78c0-.24.14-.59.31-.59a.24.24 0 0 1 .15.08.49.49 0 0 0 .36.17 1.37 1.37 0 0 0 .55-.17c.85-.39 1.72-1 2.65-1.58a8.6 8.6 0 0 1 1.74-.78 3.86 3.86 0 0 1-1-1.91c0-.69.57-1.26 1.13-1.82a.7.7 0 0 0 .25-.46.37.37 0 0 0 0-.17 2.85 2.85 0 0 1-.66-1.37v-.1c0-.21 0-.34.11-.34s.14.08.21.31c.18.56 1.13 1.05 1.55 1.57a1.17 1.17 0 0 1 .31.71.43.43 0 0 1-.45.46 1.31 1.31 0 0 1-.48-.1.82.82 0 0 0-.27 0 1.57 1.57 0 0 0-1.37 1.23c0 .53.34.92 1.27 1.86a5.16 5.16 0 0 1 .92-.08c2.23 0 4 1.64 4 2.73 0 .41-.24.71-.5.71s-.36-.14-.5-.5c-.07-.18-.1-.41-.15-.57a2.91 2.91 0 0 0-2.91-2 3.78 3.78 0 0 0-.57 0zm-3.84 2.23a15.23 15.23 0 0 0 2.41.48c.76 0 1.34-.36 1.34-1.08a2.8 2.8 0 0 0-.66-1.53c-.98.32-1.52.78-3.09 2.13zm1.11 9.83c.38 0 .5.18.5.36a1.07 1.07 0 0 1-.18.48c1.83-1.83 3-2 3.47-2 .9 0 1.47.62 1.47 1.75a5.42 5.42 0 0 1-.05.62c-.15 1-.59 2-.63 2.94v.1c0 .91.48 1.36 1.15 1.36a3.5 3.5 0 0 0 2.26-1.19c.32-.32.48-.43.53-.43 0 .22-1.37 2.45-3.21 2.45-.92 0-1.62-.64-1.62-2a3.9 3.9 0 0 1 0-.41 27.05 27.05 0 0 1 .77-2.86 4.31 4.31 0 0 0 .1-.78c0-.74-.34-1.15-.92-1.15-.92 0-2.59 1-4 2.84a16.32 16.32 0 0 0-.14 2.09 8.11 8.11 0 0 0 .31 2.35 1.86 1.86 0 0 1 .11.62c0 .38-.17.57-.38.57s-.63-.38-.64-1.16a10.75 10.75 0 0 0-.63-2 7.43 7.43 0 0 0-.38 1.15c-.15.66-.6 1.08-.88 1.08s-.24-.1-.24-.34a7.61 7.61 0 0 1 1.21-2.66c-.81-1.81-.91-2-.91-2.3 0-.57.5-.92 2.38-1.4a1.49 1.49 0 0 0 0-.21c0-.45.08-.92.08-1.36s0-1.37-.77-1.51c-.22-.06-.34-.14-.34-.24s.42-.28.52-.28a1.71 1.71 0 0 1 1.32 1.55 5.39 5.39 0 0 1-.14 1c-.07.36-.15.71-.18 1zm-.67.91a.37.37 0 0 0-.14 0c-.07 0-1.7.15-1.7.84a5.69 5.69 0 0 0 .62 1.81 12 12 0 0 0 1.16-2.21zm-.92 3.25c0 .07.43.87.56.87s0 0 0-.17v-.28c0-.49 0-1.12.1-1.75a8.2 8.2 0 0 0-.67 1.33zm5.05 18.81c-.66 0-2.94-.24-2.94-3.54a7.56 7.56 0 0 1 1.34-4.5c.1-.1.17-.17.17-.2a23.1 23.1 0 0 0-3.12 1.39 2.07 2.07 0 0 1-.92.21c-.63 0-1.21-.27-1.21-.74 0-.06 0-.14.11-.14a2.63 2.63 0 0 1 .29.06 5 5 0 0 0 .69.07 2.54 2.54 0 0 0 .81-.14 43.38 43.38 0 0 1 5.24-2.1 4.2 4.2 0 0 1 1.13-.28h.07c1.29 0 1.5.45 1.5.67s-.21.43-.67.43h-.32a4.38 4.38 0 0 0-.76-.06 4.87 4.87 0 0 0-2 .39c-1 .55-1.75 2.72-1.75 4.52 0 2.86 1.82 3 2.24 3a2.62 2.62 0 0 0 .83-.14 1.15 1.15 0 0 1 .36-.06c.38 0 .63.21.63.46-.03.5-1.16.7-1.72.7zm-5.06 8a5.29 5.29 0 0 1-.14 1 6.14 6.14 0 0 0-.13 1.23c0 2.37 1.41 2.8 1.64 2.8a.51.51 0 0 0 .45-.27c.28-.48.62-1.3.87-1.83.15-.31.24-.42.27-.42s0 0 0 .06a2.52 2.52 0 0 1-.08.48 9.36 9.36 0 0 0-.27 2v.65c0 .42-.31.6-.7.6a2.24 2.24 0 0 1-1.33-.52 4.89 4.89 0 0 1-1.64-4.17v-1.63a4.85 4.85 0 0 0-.1-1.05 1.05 1.05 0 0 1 0-.17c0-.08 0-.13.1-.13a1.37 1.37 0 0 1 1.06 1.37zm7.56 2.87a3.09 3.09 0 0 0-2.2-2.75c-.41-.1-.6-.2-.6-.25s.1-.06.28-.06c1.93 0 3.56 1.48 3.56 2.87 0 .5-.28.76-.56.76s-.45-.17-.48-.57zm-3.22 11.48a1.61 1.61 0 0 1 .76-.29c.15 0 .36 0 .36.32 0 .48-1.09.81-1.37.88 0 .49-.05 1-.05 1.48v.46c.8-.27 1.16-.52 1.16-.71s-.34-.45-.6-.66a.08.08 0 0 1 0-.07h.06a.17.17 0 0 1 .1 0 4.28 4.28 0 0 0 1.21.38c.31 0 .49.15.49.36 0 .66-1.81 1.3-2.34 1.46 0 .5.08 1 .13 1.48s.13.87.14 1.3c1.43.48 2.09 1.4 2.09 1.81a.45.45 0 0 1-.42.49.66.66 0 0 1-.53-.36 3.68 3.68 0 0 0-1.18-1.09 2.71 2.71 0 0 1-2.51 1.76 1.63 1.63 0 0 1-1.77-1.43c0-1.06 1.74-1.43 2.82-1.43a3.67 3.67 0 0 1 .69.06V391a7.38 7.38 0 0 1-1.65.2c-1.79 0-2.23-.92-2.23-1s0-.07.1-.07a1.18 1.18 0 0 1 .34.08 5 5 0 0 0 1.67.28 7.65 7.65 0 0 0 1.78-.22c0-.69 0-1.37.07-2H939c-1.72 0-2.12-1.08-2.12-1.37 0-.06 0-.07.06-.07a.86.86 0 0 1 .27.13 3.53 3.53 0 0 0 1.77.6h.42c0-.22 0-.43.07-.64a14.75 14.75 0 0 0 .13-1.47c0-.52-.12-.56-.36-.64s-.32-.13-.32-.21a.79.79 0 0 1 .59-.38 1.3 1.3 0 0 1 1 1 3.78 3.78 0 0 1-.15.73 7.36 7.36 0 0 0-.28 1.4zm-2 6.7c-.36 0-1.85.07-1.85.81 0 .32.41.71 1.13.71a1.91 1.91 0 0 0 1.85-1.34 3.84 3.84 0 0 0-1.12-.18zm.84 14.61h-.18a.8.8 0 0 1-.67-.36 2.9 2.9 0 0 1-.57-1.67 1.23 1.23 0 0 1 1.27-1.33 1.73 1.73 0 0 1 .73.17v-2.19a12.9 12.9 0 0 0-3.6.87 2.51 2.51 0 0 1-1 .2c-.76 0-1.55-.48-1.55-1.09 0-.14.06-.2.14-.2a.5.5 0 0 1 .29.17 1.44 1.44 0 0 0 .85.17 5.67 5.67 0 0 0 .69 0c1.42-.18 2.76-.39 4.13-.53v-1.4a1 1 0 0 0-.55-1c-.08-.06-.11-.08-.11-.14s.15-.29.56-.29a1 1 0 0 1 1 1.05 3.24 3.24 0 0 1-.06.49c-.08.43-.14.85-.18 1.25.57 0 1.15-.08 1.75-.1.15 0 .22 0 .22-.08s0 0-.06-.06a9.15 9.15 0 0 1-1.15-.9 1 1 0 0 1 .39.14 7.15 7.15 0 0 0 1.88.7c1.47.21 1.58.73 1.58.9s-.17.36-.46.36a1.22 1.22 0 0 1-.37-.06 11 11 0 0 0-3.18-.43h-.7v2.65a1.9 1.9 0 0 1 .52 1.46c0 2.65-2.87 4.4-3.85 4.4h-.1s.11-.14.36-.24a5.31 5.31 0 0 0 2.62-3.28 1.32 1.32 0 0 1-.64.37zm-.35-3a.67.67 0 0 0-.66.76c0 .21.15 1.36 1 1.36.56 0 .66-.62.66-1a2.19 2.19 0 0 0 0-.42 1.06 1.06 0 0 0-.97-.69zm5.18 12.18a1.63 1.63 0 1 1 1.63-1.62 1.64 1.64 0 0 1-1.63 1.62zm0-2.77a1.15 1.15 0 1 0 1.15 1.15 1.15 1.15 0 0 0-1.15-1.15zM911.32 83.91c1 1.57 3.91 4.23 6.49 4.72.08 0 .13 0 .13.06s-1.25.39-1.58.71a.17.17 0 0 1-.13.06c-.48 0-3.46-2.34-5.06-5.31-2.79 4.41-5.94 6-6.37 6s.07-.1.22-.21a17.65 17.65 0 0 0 5.2-6.15 4.4 4.4 0 0 0 .29-1c0-.07 0-.13.05-.13s1.53.63 1.53.92c0 .11-.14.21-.46.28a.78.78 0 0 0-.22.06zm-.69 6.81c-1 0-2.07 0-3.07.13-.22 0-.63-.53-.63-.73 1.39.17 3.21.22 3.73.22h2a.31.31 0 0 0 .21-.13c.07-.07.32-.35.42-.35s1.15.43 1.15.8c0 .15-.21.27-.35.32s-.29 0-.38.38c-.2.73-.6 2.51-.8 3.42a.69.69 0 0 1-.69.5c-.22 0-.42-.1-.42-.32a.6.6 0 0 1 0-.15 25.21 25.21 0 0 0 1-4c0-.06 0-.1-.1-.1zm.46-2.28a14.76 14.76 0 0 0-2.09.13c-.14 0-.53-.52-.53-.67a18.63 18.63 0 0 0 2.66.2h.35a.27.27 0 0 0 .17-.11c.14-.27.53-.84.64-.84h.07c.34.15 1.13.84 1.13 1.09 0 .1-.06.2-.27.2zm-2.82 17.94a1.1 1.1 0 0 1-.88.7.28.28 0 0 1-.31-.32 1.26 1.26 0 0 1 .28-.7 23.87 23.87 0 0 0 2.48-4.29c0-.06.06-.11.07-.17a3.6 3.6 0 0 1-.9.13 1.62 1.62 0 0 1-1.74-1.29c0-.06 0-.07.06-.07a.77.77 0 0 1 .27.13 2.71 2.71 0 0 0 1.4.5 4.27 4.27 0 0 0 1-.15 5.44 5.44 0 0 0 0-.64c0-.9-.22-.91-.35-.91s-.35 0-.35-.14a.58.58 0 0 1 .56-.42.88.88 0 0 1 .87 1c1.05.2 1.18.24 1.18.5s-.69 1-1.55 1.27c-.03.31-.2.73-2.09 4.87zm2.49 4a1.78 1.78 0 0 1-1.83-1.51c0-.83 1-1.32 2.45-1.32a5 5 0 0 1 1 .1c0-.59-.07-1.23-.07-1.75a2.6 2.6 0 0 1 1.33-2.56c.46-.31.85-.63.85-1 0-.15 0-.18-.39-.57-.11-.11-.2-.2-.2-.24s.06-.06.18-.06c.86 0 1.72.73 1.72 1.36 0 .21-.14.76-.56.76a2 2 0 0 1-.38-.06.62.62 0 0 0-.18 0c-.44 0-1.92.14-1.92 1.51 0 .22 0 .49.06.8 0 .57.18 1.33.21 2 1.16.41 2.07 1.11 2.07 1.74a.48.48 0 0 1-.41.53c-.15 0-.32-.11-.48-.39a3.13 3.13 0 0 0-1.22-1.15 2.36 2.36 0 0 1-2.23 1.79zM911 108c-1 0-1.65.41-1.65.81s.71.74 1.27.74a1.69 1.69 0 0 0 1.75-1.3A4.17 4.17 0 0 0 911 108zm-.25-7.41a1.73 1.73 0 0 0 .39-.25.27.27 0 0 0 .1-.21c0-.18-.22-.28-.38-.34a3.5 3.5 0 0 1-.13.78zm-.51 23.28v.07c0 .74-.29 1.08-.57 1.08a.52.52 0 0 1-.43-.31 1.87 1.87 0 0 0-1.13-.7 3.44 3.44 0 0 1-.8.38 2.14 2.14 0 0 1-.59.1c-.34 0-.48-.14-.48-.35s.34-.77.56-.77h.11c.04 0 .07.07.15.07s.56-.13 2.61-1.43v-2.71a3.92 3.92 0 0 1-1.72.48c-1 0-1.2-.57-1.2-.88 0-.06 0-.08.06-.08a.7.7 0 0 1 .2.06 3.53 3.53 0 0 0 1 .15 3.08 3.08 0 0 0 1.58-.45c-.1-1.62-.17-2.13-.85-2.13-.18 0-.25 0-.25-.11a.55.55 0 0 1 .6-.42c.46 0 1.12.35 1.12.94a3.15 3.15 0 0 1 0 .35 4.88 4.88 0 0 0 .91.18.39.39 0 0 1 .41.41c0 .5-.59.84-1.36 1.25v2.62a6.65 6.65 0 0 1 3.5-1.25c1.5 0 2.28.71 2.28 1.65 0 1.47-1.72 2.47-2.91 2.47a1.31 1.31 0 0 1-1.46-1.39 3 3 0 0 1 .6-1.75v.1a1.92 1.92 0 0 1-.07.38 2.87 2.87 0 0 0-.11.73 1 1 0 0 0 1 1.11 2 2 0 0 0 2.1-1.77c0-.85-1-1.16-1.75-1.16a5.46 5.46 0 0 0-3.26 1.51c.14.59.14 1.11.15 1.57zm-1.91 0a7.06 7.06 0 0 0 .85.08c.38 0 .39-.11.41-.31s0-.55 0-.81c-.4.37-.83.73-1.25 1.03zm1.83-5.52a4.3 4.3 0 0 0 .42-.28.32.32 0 0 0 .1-.2c0-.11-.12-.22-.5-.42v.46zm5.9.6a2.86 2.86 0 0 0-.73.32.59.59 0 0 1-.2.08.37.37 0 0 1 .11-.17 1.51 1.51 0 0 0 .43-.84c0-.11-.06-.43-.7-.43a1.72 1.72 0 0 0-1 .34.7.7 0 0 1-.31.14 2.23 2.23 0 0 1 1.88-1c.87 0 1.67.5 1.67 1.08 0 .18-.13.29-.31.38s-.33-.06-.83.09zm-7.44 17.79v.83c1.75.13 2.07.78 2.07 1.12a.4.4 0 0 1-.39.43.62.62 0 0 1-.5-.32 4.67 4.67 0 0 0-1.2-1.12c0 1.08 0 2.34.06 3.35a.48.48 0 0 1-.52.48.35.35 0 0 1-.36-.39c.05-1 .1-2.17.11-3.21a7.28 7.28 0 0 1-3.45 2.58h-.06s.07-.1.22-.2a9.86 9.86 0 0 0 3.14-3.47c-.62 0-1.26 0-2.14.11-.22 0-.57-.5-.57-.66a26.89 26.89 0 0 0 2.88.2v-.27a6.07 6.07 0 0 0-.11-1.25.54.54 0 0 1 0-.08h.06c.27 0 1.44.21 1.44.46 0 .08-.08.18-.22.25-.31.15-.35.06-.38.52a3.62 3.62 0 0 0 0 .39h.94a.32.32 0 0 0 .2-.13c.43-.59.46-.6.53-.6h.08c.39.15 1 .67 1 .9s-.08.17-.31.17zm-.56-2.2a25.4 25.4 0 0 0-2.63.13c-.24 0-.59-.52-.59-.67a24.44 24.44 0 0 0 3.28.2h.08a7.84 7.84 0 0 0 .88-2.55v-.14s1.29.52 1.29.73-.13.17-.39.2-.2.07-.29.21c-.27.36-.69 1-1.16 1.55h1.16a.24.24 0 0 0 .17-.11c.07-.13.42-.7.59-.7s1.08.63 1.08 1c0 .1-.06.18-.27.18zm.29-3.28a22.31 22.31 0 0 0-2.47.13c-.24 0-.55-.52-.55-.67a21 21 0 0 0 2.49.2v-.21a9.84 9.84 0 0 0-.11-1.64v-.1c.34 0 1.56.21 1.56.5 0 .1-.1.2-.25.28-.34.2-.29.14-.34.62v.57h.77a.27.27 0 0 0 .17-.11s.36-.67.55-.67h.08a1.81 1.81 0 0 1 1 .92c0 .1-.07.2-.28.2zm-1.43 2a4.48 4.48 0 0 0-.74-1.26c-.07-.08-.11-.13-.11-.15.56 0 1.79.63 1.79 1.34a.51.51 0 0 1-.46.55c-.17-.04-.4-.18-.48-.52zm8.69.7a.17.17 0 0 1 .08.13c0 .07-.1.14-.22.18s-.21.06-.21 2.14c0 1.51 0 3.57.07 4.64 0 .21-.28.41-.59.41s-.41-.1-.41-.34c.07-.91.11-3.7.11-5.21a9.2 9.2 0 0 0-.1-1.92h-1.48v.69c0 5.91-3.68 6.78-3.77 6.78s.08-.1.29-.24c2.28-1.51 2.68-4.45 2.68-6.46v-.11a17.87 17.87 0 0 0-.21-4.33.16.16 0 0 1 0-.07 7.56 7.56 0 0 1 1.39.5h.06a6.17 6.17 0 0 0 2.1-1.46s0-.06.06-.06 1.06.92 1.06 1.18c0 .08-.07.14-.2.14a1.4 1.4 0 0 1-.28-.06.56.56 0 0 0-.21 0h-.15c-.27.07-1.58.48-2.48.63-.27.13-.27.14-.27.9v1.64h2.94c.08 0 .14-.07.2-.14.49-.66.55-.73.63-.73.29 0 1 .85 1 1s-.06.17-.27.17zm-4.04 22.43c-1.23 0-3.05-.59-3.05-4.15 0-1.54.32-3.11.32-4.64a2.5 2.5 0 0 0-.39-1.67c-.13-.14-.18-.22-.18-.28s.05-.08.15-.08a1.43 1.43 0 0 1 1.47 1.48 2.8 2.8 0 0 1 0 .46 33.72 33.72 0 0 0-.67 5c0 .81.07 3 2.55 3a6.69 6.69 0 0 0 4.15-1.81.58.58 0 0 1 .25-.15c-.02.24-2.08 2.84-4.6 2.84zm.14 15.07a9.77 9.77 0 0 0-2.26-4.76 1.38 1.38 0 0 1-.39-1 2.08 2.08 0 0 1 .29-1c.38-.69 1.51-2.07 2-2.73a1.83 1.83 0 0 0 .39-.92.57.57 0 0 0-.13-.36.46.46 0 0 1-.12-.25c0-.08.06-.13.15-.13a1.37 1.37 0 0 1 1.08 1.12 1.43 1.43 0 0 1-.41.88 22.79 22.79 0 0 0-2.49 2.72 1.27 1.27 0 0 0-.18.6 1 1 0 0 0 .29.66c.42.45 2.83 3 2.83 4.87 0 .5-.32.84-.6.84s-.42-.12-.45-.54zm4.58 5.79a5.27 5.27 0 0 0-1.7-1.77c-.14-.11-.28-.2-.28-.24s0 0 .1 0c.57 0 3 .56 3 1.78a.64.64 0 0 1-.59.67.66.66 0 0 1-.53-.44zm-8.14 18.33a.57.57 0 0 1-.57.53.41.41 0 0 1-.41-.46c.06-1.27.1-3.15.13-5a7 7 0 0 1-3 3.14s.07-.13.21-.25a12.92 12.92 0 0 0 2.83-4.66 14 14 0 0 0-1.85.13c-.17 0-.57-.52-.57-.67a19.87 19.87 0 0 0 2.46.2 28.93 28.93 0 0 0-.14-4.61.3.3 0 0 1 0-.1s1.47.2 1.47.5c0 .08-.07.17-.24.25s-.32.08-.35.53 0 1.51 0 2.68a9.16 9.16 0 0 0 1.12-2.25v-.14s1.12.66 1.12.85-.08.14-.29.14h-.14c-.14 0-.17.06-.27.15a18.69 18.69 0 0 1-1.54 1.44v.55h.64a.26.26 0 0 0 .18-.11c.35-.55.49-.69.62-.69.31 0 1 .78 1 1s-.05.17-.28.17H908v1.06c1.22.07 1.93.64 1.93 1.19a.45.45 0 0 1-.42.49c-.17 0-.35-.11-.52-.38a4.13 4.13 0 0 0-1-1.16c0 1.92 0 4 .1 5.51zm-2.21-8.49a3.49 3.49 0 0 0-.7-1.19.86.86 0 0 1-.11-.14c.46 0 1.74.48 1.74 1.23a.54.54 0 0 1-.49.56c-.16-.01-.38-.14-.44-.46zm7.62 5.48v.52c0 .85 0 1.79.07 2.69 0 .25-.29.41-.53.41s-.39-.1-.39-.35c0-.77.06-2.13.06-3.25h-.21a22 22 0 0 0-2.65.14c-.24 0-.63-.53-.63-.7a27.69 27.69 0 0 0 3.35.21h.15v-.5a9.72 9.72 0 0 0-.14-1.57.16.16 0 0 1 0-.07h.07c.07 0 1.54.21 1.54.5 0 .08-.1.18-.24.25-.31.15-.34.06-.36.52v.91H915a.26.26 0 0 0 .21-.13s.56-.8.76-.8h.03a2.49 2.49 0 0 1 1.18 1.09c0 .08-.07.17-.29.17zm-.39-6.43c-.66 3.71-3.43 4.12-3.61 4.12a.79.79 0 0 1 .29-.2 4.89 4.89 0 0 0 2.51-3.89l-1.26.11c-.13 0-.66-.53-.66-.63.73.07 1.53.11 2 .13a9.23 9.23 0 0 0 .06-1 5.44 5.44 0 0 0-.07-1h.07c.07 0 1.4.15 1.4.45 0 .08-.14.17-.31.24s-.21 0-.22.42a8.63 8.63 0 0 1-.07.87h1c.08 0 .15-.1.18-.13.2-.2.28-.2.29-.2s.9.39.9.69c0 .08-.07.17-.2.22s-.29.1-.34.27a8.67 8.67 0 0 0-.25 1.89c0 .39 0 .63.85.63s.78-.1 1.16-1.75v-.07s.13 1.4.32 1.48a.42.42 0 0 1 .27.36c0 .32-.48.69-1.88.69-.77 0-1.55-.07-1.55-1.12 0-.17 0-.5.31-2.45a.11.11 0 0 0-.11-.1zm-4.9 21.04a1.1 1.1 0 0 1-.88.7.28.28 0 0 1-.31-.32 1.26 1.26 0 0 1 .28-.7 23.88 23.88 0 0 0 2.48-4.29c0-.06.06-.11.07-.17a3.6 3.6 0 0 1-.9.13 1.62 1.62 0 0 1-1.74-1.29c0-.06 0-.07.06-.07a.77.77 0 0 1 .27.13 2.71 2.71 0 0 0 1.44.46 4.27 4.27 0 0 0 1-.15 5.44 5.44 0 0 0 0-.64c0-.9-.22-.91-.35-.91s-.35 0-.35-.14a.58.58 0 0 1 .56-.42.88.88 0 0 1 .87 1c1.05.2 1.18.24 1.18.5s-.69 1-1.55 1.27c-.07.35-.24.73-2.13 4.91zm2.49 4a1.78 1.78 0 0 1-1.83-1.51c0-.83 1-1.32 2.45-1.32a5 5 0 0 1 1 .1c0-.59-.07-1.23-.07-1.75a2.6 2.6 0 0 1 1.33-2.56c.46-.31.85-.63.85-1 0-.15 0-.18-.39-.57-.11-.11-.2-.2-.2-.24s.06-.06.18-.06c.86 0 1.72.73 1.72 1.36 0 .21-.14.76-.56.76a2.08 2.08 0 0 1-.38-.06.62.62 0 0 0-.18 0c-.44 0-1.92.14-1.92 1.51 0 .22 0 .49.06.8 0 .57.18 1.33.21 2 1.16.41 2.07 1.11 2.07 1.74a.48.48 0 0 1-.41.53c-.15 0-.32-.11-.48-.39a3.13 3.13 0 0 0-1.22-1.15 2.36 2.36 0 0 1-2.23 1.79zm.22-2.38c-1 0-1.65.41-1.65.81s.71.74 1.27.74a1.69 1.69 0 0 0 1.75-1.3 4.17 4.17 0 0 0-1.35-.27zm-.25-7.41a1.73 1.73 0 0 0 .39-.25.27.27 0 0 0 .1-.21c0-.18-.22-.28-.38-.34a3.5 3.5 0 0 1-.11.78zm-6.12 22.33a.91.91 0 0 1 .48-.71 4.53 4.53 0 0 0 1.79-2.69c0-.11.07-.15.1-.15a1.82 1.82 0 0 1 .13.84c0 1.71-1 3.22-1.92 3.22a.53.53 0 0 1-.58-.51zm8.07 2.87c-.5 0-1.06.06-1.53.06-1.57 0-2.49-.31-2.49-1.69v-.1c0-1.33.07-3.61.07-4.45a14.31 14.31 0 0 0-.11-2.63.74.74 0 0 1 0-.13h.07c.07 0 1.61.27 1.61.6 0 .1-.1.2-.29.31s-.28.24-.32.71c-.08 1.05-.1 3.63-.1 5.44 0 1 .36 1.12 1.86 1.12 1.81 0 1.95-.24 2.4-2.66 0-.11 0-.17.06-.17s.17 2 .46 2.14a.59.59 0 0 1 .32.48c-.04.38-.69.89-2.01.97zm-1.12-9.74a6.25 6.25 0 0 0-2.06-1.62c-.07 0-.1-.07-.1-.1s0-.06.13-.06c.74 0 3.24.5 3.24 1.67a.52.52 0 0 1-.49.56 1 1 0 0 1-.72-.44zm4.48 5.7a6.18 6.18 0 0 0-2.33-2.54c-.11-.07-.17-.11-.17-.14.76 0 3.77 1.32 3.77 2.75 0 .38-.22.66-.52.66s-.51-.21-.79-.72zm-7.13 18.05c-.5 0-.69 0-.69-.07s.29-.13.63-.18c4.89-.78 6.68-2.91 6.68-4.43a2.35 2.35 0 0 0-2.59-2.14 6.5 6.5 0 0 0-4.31 2 2.55 2.55 0 0 1-1.72.83 1.28 1.28 0 0 1-1.21-.71c0-.08.11-.11.29-.13a7.66 7.66 0 0 0 2.73-1.22 8.18 8.18 0 0 1 4-1.37c2 0 3.61 1.44 3.61 3 .06 1.99-2.33 4.42-7.42 4.42zm6.65-7.27a4.4 4.4 0 0 0-1.2-1c-.11-.06-.21-.1-.21-.14a1.2 1.2 0 0 1 .55-.08c.76 0 1.65.32 1.65 1a.43.43 0 0 1-.41.46.55.55 0 0 1-.38-.24zm1.47-.67a4.78 4.78 0 0 0-1.23-1c-.11-.06-.22-.1-.22-.13s.59-.11.62-.11c.77 0 1.61.32 1.61.92a.43.43 0 0 1-.41.45.53.53 0 0 1-.4-.13zM910 249.85a2.47 2.47 0 0 1 .84-.18c.77 0 1.43.49 1.43 2.34 0 2.91-1.54 4.43-3 4.43a1.49 1.49 0 0 1-.52-.08c-.62-.2-.35-.71-.52-1.23a2.24 2.24 0 0 1-.11-.48v-.06s.18.13.36.38a1.25 1.25 0 0 0 1 .56c1.19 0 2-2 2-3.8 0-1-.22-1.61-.81-1.61a2 2 0 0 0-1.05.48c-.67 1.6-1.79 3.84-2.58 5.29a1.29 1.29 0 0 1-1 .77.28.28 0 0 1-.31-.32 1.8 1.8 0 0 1 .43-.94 28 28 0 0 0 2.79-4.61 6 6 0 0 1-1.75.6 1 1 0 0 1-1.09-1c0-.46.08-.5.11-.5s.17.13.27.27a1 1 0 0 0 .87.31 5.53 5.53 0 0 0 1.88-.36 6.27 6.27 0 0 0 .27-1.54c0-.45-.11-.77-.45-.83-.17 0-.31-.1-.31-.2s.59-.48.88-.48.73.07.73.88a6.94 6.94 0 0 1-.45 1.82zm5.79 3.64a1.06 1.06 0 0 0-.5-.07h-.77c-.31 0-.43 0-.43-.07s.17-.1.41-.14c1-.2 1.55-.43 1.55-1.19 0-1.08-1.12-1.43-1.85-1.72-.31-.11-.46-.18-.46-.22s.07 0 .18 0c1.86 0 3.1 1 3.1 2.2 0 .71-.43 1.3-.94 1.3a.59.59 0 0 1-.25-.08zm-7.97 11.58a5.29 5.29 0 0 1-.14 1 6.14 6.14 0 0 0-.13 1.23c0 2.37 1.41 2.8 1.64 2.8a.51.51 0 0 0 .45-.27c.28-.48.62-1.3.87-1.83.15-.31.24-.42.27-.42s0 0 0 .06a2.52 2.52 0 0 1-.08.48 9.36 9.36 0 0 0-.27 2v.65c0 .42-.31.6-.7.6a2.24 2.24 0 0 1-1.33-.52 4.89 4.89 0 0 1-1.64-4.17v-1.63a4.85 4.85 0 0 0-.1-1.05 1.05 1.05 0 0 1 0-.17c0-.08 0-.13.1-.13a1.37 1.37 0 0 1 1.06 1.37zm7.56 2.87a3.09 3.09 0 0 0-2.2-2.75c-.41-.1-.6-.2-.6-.25s.1-.06.28-.06c1.93 0 3.56 1.48 3.56 2.87 0 .5-.28.76-.56.76s-.45-.17-.48-.57zm-4.58 16.2c-1.21.73-1.7 1.46-1.7 2s.45 1.25 1.81 1.25a3.63 3.63 0 0 0 1.65-.39.86.86 0 0 1 .42-.11.45.45 0 0 1 .5.41c0 .53-1.12.92-2.19.92-1.61 0-2.7-1-2.7-1.93s.91-1.9 2.2-2.66c0-.67-.07-2.09-.94-2.09-.38 0-.87.31-1.43 1.11-.1.17-.2.38-.31.59-.21.39-.6 1.06-1 1.06a.41.41 0 0 1-.36-.46 1.48 1.48 0 0 1 .55-1 8.58 8.58 0 0 0 2.34-3.35c0-.06 0-.11.07-.17h-.1a2.67 2.67 0 0 1-.76.11c-1.43 0-1.72-1-1.72-1.23v-.06a1.16 1.16 0 0 1 .32.18 2 2 0 0 0 1.22.39 4.18 4.18 0 0 0 1.23-.21 1.84 1.84 0 0 0 0-.45c0-.49-.14-.77-.56-.87-.08 0-.2-.06-.2-.13s.38-.28.59-.28a.76.76 0 0 1 .8.7h.48a1.63 1.63 0 0 0 .41 0 .42.42 0 0 1 .17 0 .31.31 0 0 1 .29.35c0 .55-.77 1-1.68 1.33l-.06.11a22.47 22.47 0 0 1-1.13 2.2 1.67 1.67 0 0 1 .83-.24c.71 0 1.25.62 1.43 1.46.6-1.51 1.75-3 3.12-3 .74 0 1.71.56 1.71 1.22s-.63 1.09-1.54 1.46-2.2.87-3.15 1.34a8.42 8.42 0 0 1 0 .85v.64c0 .48-.38.84-.63.84s-.32-.15-.32-.55v-.18a6.68 6.68 0 0 0 .2-1zm-.14-6.49v.11a2.62 2.62 0 0 1-.07.57c.31-.13.53-.31.53-.43s-.32-.21-.34-.21zm.8 5.65c.83-.43 2-1 2.8-1.42.6-.32 1-.66 1-1a.84.84 0 0 0-.88-.74c-1.33 0-2.55 2.07-2.9 3.14zM879.38 93.24h-.18c-.11 0-.15 0-.28.17a7.33 7.33 0 0 1-2.69 1.93s.06-.08.18-.2a6.87 6.87 0 0 0 2-2.79c0-.06 0-.08.07-.08s1.15.66 1.15.87-.09.1-.25.1zm.91-1.82h-1.74v.22a.54.54 0 0 1-.52.52c-.18 0-.35-.11-.35-.42.07-1.3.08-3 .08-4.43a26.48 26.48 0 0 0-.15-4.08.5.5 0 0 0 0-.08 5.24 5.24 0 0 1 1.22.62H880a.24.24 0 0 0 .18-.13c.07-.13.27-.39.38-.39s1 .49 1 .76-.17.25-.27.32-.22.11-.24.46 0 1.11 0 1.9c0 1.65 0 3.75.08 4.86a.56.56 0 0 1-.52.56c-.18 0-.34-.13-.34-.45zm0-5.31v-1.86c0-.07 0-.17-.11-.17h-1.37l-.07.06c-.21.14-.22.17-.22 2zm0 2.2v-1.82h-1.81v1.82zm0 2.73v-2.35h-1.79v2.35zm.62 3.14a6 6 0 0 0-1.26-1.75s-.06-.07-.06-.1c.22 0 2.19.74 2.19 1.78a.53.53 0 0 1-.43.57c-.13-.03-.35-.17-.44-.5zm6.95-4.8v-.1H883v.21a.47.47 0 0 1-.49.41.32.32 0 0 1-.35-.32v-.06c.07-.84.1-2.19.1-2.75a12.66 12.66 0 0 0-.14-1.64v-.06a4.2 4.2 0 0 1 1.13.49h2.34a9.09 9.09 0 0 0 1-2.51v-.15s1.37.63 1.37.9c0 .1-.12.18-.42.2s-.22.06-.35.2c-.29.31-.84.9-1.36 1.37h1.64a.18.18 0 0 0 .17-.08c.24-.28.32-.34.42-.34s1 .36 1 .71c0 .14-.15.25-.29.34s-.25.25-.25.53v.15c0 .64.07 1.88.1 2.41a.46.46 0 0 1-.49.48.33.33 0 0 1-.35-.36zm-.8 5.35v-.5h-3.26v.53a.46.46 0 0 1-.5.45.35.35 0 0 1-.38-.36c.08-1.23.1-1.83.1-2.31a13.41 13.41 0 0 0-.17-2.44.25.25 0 0 1 0-.08 6.9 6.9 0 0 1 1.26.6h2.61a.24.24 0 0 0 .2-.11s.25-.39.43-.39 1.08.48 1.08.8c0 .15-.18.25-.32.34s-.28.17-.28 1.06c0 .63 0 1.36.11 2.4 0 .38-.36.52-.52.52a.37.37 0 0 1-.39-.41zm-3.21-10.14a4 4 0 0 0-.87-1.18c-.07-.07-.11-.11-.11-.14s0 0 .07 0c.42 0 1.95.35 1.95 1.2a.56.56 0 0 1-.52.59c-.2-.06-.37-.15-.52-.48zM885 87v-1.08h-1.72l-.08.07c-.17.11-.2.11-.21.55v.66H885zm-2.06.56v1.36h2v-1.36zm1.16 3.36l-.1.08c-.21.15-.22.11-.24.53v.63h3.29V91.1a.17.17 0 0 0-.2-.17zm-.35 1.6v1.34h3.26v-1.34zm2.35-6.6a.09.09 0 0 1 0 .06c0 .07-.07.14-.18.18s-.18.1-.18.29v.74h2.1v-1.12a.15.15 0 0 0-.14-.15zm-.37 1.64v1.36h2.07v-1.36zm-3.94 14.61s0-.07.1-.24c.38-1.2 1.08-1.78 1.76-1.78 1.44 0 2.16 2.16 2.16 4 0 4.54-3.94 6.75-4.5 6.75s.14-.17.46-.38a7.62 7.62 0 0 0 3.15-6.26c0-1.75-.6-3.46-1.53-3.46-.77 0-1.55 1.16-1.55 2.63a3.86 3.86 0 0 0 .42 1.74.93.93 0 0 1 .08.38c0 .36-.2.69-.43.69-.41 0-.94-1.2-.94-2.17a8.81 8.81 0 0 1 .28-1.92 12.63 12.63 0 0 0 .39-2.41c0-.38-.07-.67-.25-.76s-.2-.11-.2-.21.27-.25.38-.25.76.22.76 1.12a9.64 9.64 0 0 1-.49 2.34c-.03.08-.05.15-.05.19zM887 117a.08.08 0 0 1 0 .07c0 .07-.11.14-.24.2s-.18.17-.22.55c-.9 7.09-5.63 7.91-5.74 7.91h-.06s.15-.17.32-.24c3.89-1.68 4.65-6.93 4.65-8.47h-.66a.11.11 0 0 1 0 .06c0 .07-.11.14-.24.2s-.14.1-.24.46c-1.12 4.2-3.79 5.39-3.92 5.39a.88.88 0 0 1 .25-.29 10.09 10.09 0 0 0 3-5.8h-1.09a8.75 8.75 0 0 1-2 2.7.46.46 0 0 1 .1-.18 11.2 11.2 0 0 0 1-1.77h-1.6v2.65c.64-.22 1.26-.48 1.78-.69a1.41 1.41 0 0 1 .32-.1 9.77 9.77 0 0 1-2.14 1.29c0 1.82 0 3.6.07 4.64a.57.57 0 0 1-.57.53.39.39 0 0 1-.41-.43c.07-1.12.11-2.69.14-4.29-.55.28-1.12.56-1.71.84-.12.06-.17.2-.25.2s-.84-1-.84-1.08 0 0 .1 0a8.28 8.28 0 0 0 2.7-.62v-2.91h-1.18a7 7 0 0 1-1.21 2.68.72.72 0 0 1 0-.2 19.49 19.49 0 0 0 .71-4.51 4 4 0 0 0 0-.43v-.13c.15 0 1.5.34 1.5.67 0 .1-.13.21-.36.28s-.24.13-.28.31c-.08.36-.18.71-.28 1.05h1.08a30.27 30.27 0 0 0-.17-3.6.28.28 0 0 1 0-.1s1.57.17 1.57.52c0 .08-.08.18-.22.28-.29.2-.32.07-.35.67s0 1.32-.06 2.24h.07a.29.29 0 0 0 .2-.11c.42-.66.45-.69.55-.69s.67.45.88.84a13.27 13.27 0 0 0 1.05-3.6v-.15c.18 0 1.44.31 1.44.64 0 .13-.13.24-.39.31a.39.39 0 0 0-.34.29c-.24.57-.49 1.13-.76 1.67h4.3a.24.24 0 0 0 .24-.11c.31-.38.38-.38.39-.38s1.08.56 1.08.85c0 .11-.1.22-.32.34s-.34.21-.34.59a43.33 43.33 0 0 1-.21 4.58c-.32 2.45-1.49 3.25-2.72 3.35a.16.16 0 0 1-.18-.11c-.13-.39-1.72-1.06-1.72-1.18h.14a8.73 8.73 0 0 0 1.68.25c1 0 1.6-.5 1.9-2.4a50.36 50.36 0 0 0 .24-5.21c0-.2-.11-.21-.21-.21zm-8.37 20.77a18.79 18.79 0 0 1 .78-4 4.86 4.86 0 0 0 .1-1 3 3 0 0 0-.31-1.44c-.06-.11-.17-.21-.17-.27s.1-.08.28-.08c.45 0 1.08.71 1.08 1.65a3.89 3.89 0 0 1-.38 1.44 8.28 8.28 0 0 0-.78 2.94c0 .55.13 1 .22 1s.11-.06.18-.22a10.92 10.92 0 0 1 1.37-2.59v.06a.88.88 0 0 1-.07.25 12.8 12.8 0 0 0-1 3.7 3.2 3.2 0 0 0 .1.8 1.44 1.44 0 0 1 0 .22.4.4 0 0 1-.38.45c-.74-.01-1.02-2.12-1.02-2.91zm7.12 2.33c-2.66 0-3.1-1.5-3.1-1.81 0-.08 0-.13.07-.13s.17.08.28.25a3.1 3.1 0 0 0 2.3.71 5 5 0 0 0 .79-.06 6.24 6.24 0 0 1 1-.25h.08c.46 0 .71.21.71.45.04.67-1.35.84-2.14.84zm-.81-6.42c-1.92 0-2.1-1.13-2.1-1.23v-.06a.65.65 0 0 1 .24.11 2.8 2.8 0 0 0 1.4.34 6.74 6.74 0 0 0 1.16-.13c.2 0 .35-.14.53-.18a1 1 0 0 1 .29 0c.39 0 .63.2.63.42.04.63-1.7.73-2.16.73zm-6.89 15.65a4.37 4.37 0 0 0-1.19-1c-.11-.07-.17-.1-.17-.13s.56-.07.59-.07c.77 0 1.75.21 1.75.91a.53.53 0 0 1-.49.56.63.63 0 0 1-.49-.27zm7.28-1a7.4 7.4 0 0 0 4.38 3.29c.11 0 .17.06.17.07s-1.05.18-1.4.55c-.06.06-.1.08-.14.08a8.62 8.62 0 0 1-3.26-4h-1c-1.36 3.05-4 4.48-4.45 4.48h-.07s.06-.08.15-.14a9.82 9.82 0 0 0 3.5-4.31c-.59 0-1.26 0-2.14.13-.14 0-.32-.21-.45-.41-1.49 3.88-1.67 4.54-1.67 5.76a4.35 4.35 0 0 0 .21 1.39c.32.94-.08 1.48-.46 1.48s-.56-.31-.56-1v-.17c0-.41.13-.84.13-1.25a1.28 1.28 0 0 0-1.13-1.36c-.24-.06-.34-.11-.34-.15s.13-.08.34-.08a1 1 0 0 0 1.16-.66c.38-.76 1.51-3.19 2.27-4.43.15-.25.24-.35.28-.35a1.34 1.34 0 0 1-.11.39l-.06.14c1 .11 2 .15 2.66.17a5.49 5.49 0 0 0 .38-1.65 25.87 25.87 0 0 1-2.88.27c-.18 0-.49 0-.49-.07s.11-.07.36-.1a26.77 26.77 0 0 0 5-1.32 1.74 1.74 0 0 0 .53-.35c.06 0 .06-.08.1-.08a2.94 2.94 0 0 1 1 1c0 .1-.1.17-.27.17a.7.7 0 0 1-.22 0h-.2a.79.79 0 0 0-.25 0 18.13 18.13 0 0 1-2.06.41c.2.06.77.22.77.39s-.13.2-.41.27a.31.31 0 0 0-.25.25c-.08.28-.17.56-.28.84h3a.26.26 0 0 0 .18-.11c.15-.27.5-.69.63-.69h.08a2.21 2.21 0 0 1 1.06 1c0 .08-.06.15-.28.15zm-6.21-2a4.14 4.14 0 0 0-1.08-1.15c-.11-.08-.17-.13-.17-.15s.07 0 .22 0c.83 0 2.09.38 2.09 1.16a.55.55 0 0 1-.52.57.66.66 0 0 1-.53-.35zm1.16 8.5a.87.87 0 0 1 .5-.71 2.55 2.55 0 0 0 1.25-1.86c0-.08 0-.13.07-.13s.13 0 .13.63c0 1.26-.73 2.52-1.5 2.52a.43.43 0 0 1-.44-.37zm1 .9h.14a6.17 6.17 0 0 0 1.23.17c.69 0 .94-.25 1-.67v-1.51a23.18 23.18 0 0 0-.18-3.29.18.18 0 0 1 0-.08h.06c.06 0 1.36.11 1.36.41a.22.22 0 0 1-.15.2c-.32.14-.34.18-.34 2v1.08c0 .35.05 1 .05 1.3a1.52 1.52 0 0 1-1.5 1.5c-.11 0-.13-.07-.2-.18s-1.49-.83-1.49-.92zm4.58-1.25a6.45 6.45 0 0 0-1-1.72.65.65 0 0 1-.13-.18c.29 0 2.07 1 2.07 1.88 0 .35-.21.59-.45.59s-.35-.05-.44-.49zm2.2 0a5.72 5.72 0 0 0-1.48-2s-.07-.07-.07-.1 0 0 .07 0c.32 0 2.55 1 2.55 2a.57.57 0 0 1-.49.63c-.15.11-.36-.01-.53-.44zm-6.67 13.8c2-2 2.84-2.93 2.84-3.36 0-.08 0-.28-.43-.28-.55 0-1.11.91-1.58 1.15a1.27 1.27 0 0 1-.64.17 1.43 1.43 0 0 1-1.33-1.29v-.08s.18.08.41.17a2 2 0 0 0 .81.22 2.12 2.12 0 0 0 .46-.06c.85-.18 1.27-.85 2.24-.85.64 0 1.16.41 1.16.83s-.69.92-1.06 1.26c-.92.84-2.07 1.82-2.37 2.14 0 0-.07.07-.07.1h.1a2.2 2.2 0 0 1 .76-.14c.5 0 1 .21 1 .87a1.31 1.31 0 0 1 0 .22 5.44 5.44 0 0 0-.1.71c0 .71.64.94 1.26.94a5 5 0 0 0 1.77-.41 1.31 1.31 0 0 1 .43-.08c.36 0 .62.2.62.42 0 .63-1.71.85-2.45.85-.41 0-2.16 0-2.16-1.56a4.63 4.63 0 0 1 .13-.84 2.23 2.23 0 0 0 0-.28c0-.41-.22-.55-.5-.55s-1.3 0-2.07 1.88a1.19 1.19 0 0 1-1 .8c-.25 0-.45-.13-.45-.36s.42-.85 1.55-1.93zm2.6-5.5h-.6a7.25 7.25 0 0 0-1.4.18 1.55 1.55 0 0 1-.27.06s0-.07.17-.15c.32-.21.81-.42 1-.5s.27-.13.27-.25 0-.1-.12-.17a1.69 1.69 0 0 1-.8-1.09c0-.06 0-.07.06-.07s.13 0 .27.18c.63.63 1.95.49 2 1.43-.11.3-.31.37-.57.37zm.89 24.29c-.66 0-2.94-.24-2.94-3.54a7.56 7.56 0 0 1 1.34-4.5c.1-.1.17-.17.17-.2a23.1 23.1 0 0 0-3.12 1.39 2.07 2.07 0 0 1-.92.21c-.63 0-1.21-.27-1.21-.74 0-.06 0-.14.11-.14a2.63 2.63 0 0 1 .29.06 5 5 0 0 0 .69.07 2.54 2.54 0 0 0 .81-.14 43.38 43.38 0 0 1 5.24-2.1 4.2 4.2 0 0 1 1.13-.28h.07c1.29 0 1.5.45 1.5.67s-.21.43-.67.43h-.32a4.38 4.38 0 0 0-.76-.06 4.87 4.87 0 0 0-2 .39c-1 .55-1.75 2.72-1.75 4.52 0 2.86 1.82 3 2.24 3a2.62 2.62 0 0 0 .83-.14 1.15 1.15 0 0 1 .36-.06c.38 0 .63.21.63.46-.03.5-1.16.7-1.72.7zM881 202.51h-.08s.21-.15.63-.28a7.5 7.5 0 0 0 4.21-3.45 10.56 10.56 0 0 0-4.4-.92h-.11c-.42.69-.77 1.32-1.11 1.85-.57.91-1.16 1.25-1.62 1.25a1.16 1.16 0 0 1-1.06-1.23c0-1.36 1.93-2.07 3.42-2.2.87-1.25 1.78-2.73 2.66-4.13a.61.61 0 0 0 .1-.28c0-.18-.2-.2-.27-.2-.59 0-.94 1-1.68 1a.79.79 0 0 1-.66-.76c0-.11 0-.52.2-.52s.13.06.21.13a1 1 0 0 0 .59.22c.55 0 .92-.8 1.79-.8.46 0 1 .31 1 .7s-.32.59-.52.8a22.62 22.62 0 0 0-2.86 3.84h.13a13.84 13.84 0 0 1 4.41.71 2.47 2.47 0 0 0 .17-.83.87.87 0 0 0-.88-1c-.06 0-.15 0-.15-.11s.36-.41.76-.41c.71 0 1.11.56 1.11 1.36a3.44 3.44 0 0 1-.25 1.23 8.07 8.07 0 0 1 2.28 1.4 1.21 1.21 0 0 1 .42.85c0 .27-.13.46-.35.46s-.39-.13-.66-.43a7.45 7.45 0 0 0-2-1.64 7.52 7.52 0 0 1-5.43 3.39zm-2.77-3.1c0 .27.14.5.41.5.42 0 .94-.57 2-2-1.47.15-2.39.92-2.39 1.5zm6.65 18.46c-.66 0-2.94-.24-2.94-3.54a7.56 7.56 0 0 1 1.34-4.5c.1-.1.17-.17.17-.2a23.1 23.1 0 0 0-3.12 1.39 2.07 2.07 0 0 1-.92.21c-.63 0-1.21-.27-1.21-.74 0-.06 0-.14.11-.14a2.63 2.63 0 0 1 .29.06 5 5 0 0 0 .69.07 2.54 2.54 0 0 0 .81-.14 43.38 43.38 0 0 1 5.24-2.1 4.2 4.2 0 0 1 1.13-.28h.07c1.29 0 1.5.45 1.5.67s-.21.43-.67.43h-.32a4.38 4.38 0 0 0-.76-.06 4.87 4.87 0 0 0-2 .39c-1 .55-1.75 2.72-1.75 4.52 0 2.86 1.82 3 2.24 3a2.62 2.62 0 0 0 .83-.14 1.15 1.15 0 0 1 .36-.06c.38 0 .63.21.63.46-.03.5-1.16.7-1.72.7zm-6.34 12.58a16.68 16.68 0 0 1 .73-3.92 6.71 6.71 0 0 0 .24-1.46 3.11 3.11 0 0 0-.69-1.88c-.07-.1-.15-.18-.15-.22s.17-.07.18-.07c.49 0 1.55 1.26 1.55 2.26a5.09 5.09 0 0 1-.54 1.67 8.3 8.3 0 0 0-.76 2.87c0 .43.1.88.2.88s.1-.07.17-.24a12.44 12.44 0 0 1 1.47-2.72s.06 0 .06.07a.65.65 0 0 1-.08.25 11.73 11.73 0 0 0-1.15 4 1.67 1.67 0 0 0 .11.66 1 1 0 0 1 .08.38c0 .28-.15.45-.35.45-.61.02-1.07-1.56-1.07-2.98zm7.31-5.56c0-1.39-.08-1.4-.43-1.5s-.32-.1-.32-.2a.71.71 0 0 1 .59-.43 1.34 1.34 0 0 1 1 1 2 2 0 0 1 0 .27c.25.1.79.32 1 .38.53.14.73.24.73.55 0 .74-1.44 1.16-1.89 1.29v.62c0 1.08 0 2 .08 2.68v1c1 .31 2.19 1.13 2.19 1.74 0 .28-.17.53-.39.53s-.31-.11-.48-.38a3.48 3.48 0 0 0-1.36-1.25 2.33 2.33 0 0 1-2.21 2 1.8 1.8 0 0 1-1.88-1.47c0-.83 1.15-1.43 2.54-1.43a5.17 5.17 0 0 1 .91.08v-4.01a3.12 3.12 0 0 1-.69.07 2.27 2.27 0 0 1-2.28-1.3h.06a1.18 1.18 0 0 1 .32.08c.27.1.74.32 1 .41a3.42 3.42 0 0 0 1 .14 5 5 0 0 0 .6-.06zm-1.26 5.93c-1 0-1.71.48-1.71.94s.73.73 1.2.73a1.74 1.74 0 0 0 1.74-1.48 4.87 4.87 0 0 0-1.22-.19zm1.89-5.24c1-.27 1-.57 1-.69s-.24-.36-.85-.73a11.93 11.93 0 0 0-.14 1.42zm-6.66 15.69a5.29 5.29 0 0 1-.14 1 6.14 6.14 0 0 0-.13 1.23c0 2.37 1.41 2.8 1.64 2.8a.51.51 0 0 0 .45-.27c.28-.48.62-1.3.87-1.83.15-.31.24-.42.27-.42s0 0 0 .06a2.52 2.52 0 0 1-.08.48 9.36 9.36 0 0 0-.27 2v.68c0 .42-.31.6-.7.6a2.24 2.24 0 0 1-1.33-.52 4.89 4.89 0 0 1-1.64-4.17v-1.63a4.85 4.85 0 0 0-.1-1.05 1.05 1.05 0 0 1 0-.17c0-.08 0-.13.1-.13a1.37 1.37 0 0 1 1.06 1.34zm7.56 2.87a3.09 3.09 0 0 0-2.2-2.75c-.41-.1-.6-.2-.6-.25s.1-.06.28-.06c1.93 0 3.56 1.48 3.56 2.87 0 .5-.28.76-.56.76s-.45-.17-.48-.57zM882 256.85a2.47 2.47 0 0 1 .84-.18c.77 0 1.43.49 1.43 2.34 0 2.91-1.54 4.43-3 4.43a1.49 1.49 0 0 1-.52-.08c-.62-.2-.35-.71-.52-1.23a2.24 2.24 0 0 1-.11-.48v-.06s.18.13.36.38a1.25 1.25 0 0 0 1 .56c1.19 0 2-2 2-3.8 0-1-.22-1.61-.81-1.61a2 2 0 0 0-1.05.48c-.67 1.6-1.79 3.84-2.58 5.29a1.29 1.29 0 0 1-1 .77.28.28 0 0 1-.31-.32 1.8 1.8 0 0 1 .43-.94 28 28 0 0 0 2.79-4.61 6 6 0 0 1-1.75.6 1 1 0 0 1-1.09-1c0-.46.08-.5.11-.5s.17.13.27.27a1 1 0 0 0 .87.31 5.53 5.53 0 0 0 1.88-.36 6.27 6.27 0 0 0 .27-1.54c0-.45-.11-.77-.45-.83-.17 0-.31-.1-.31-.2s.59-.48.88-.48.73.07.73.88a6.94 6.94 0 0 1-.45 1.82zm5.79 3.64a1.06 1.06 0 0 0-.5-.07h-.77c-.31 0-.43 0-.43-.07s.17-.1.41-.14c1-.2 1.55-.43 1.55-1.19 0-1.08-1.12-1.43-1.85-1.72-.31-.11-.46-.18-.46-.22s.07 0 .18 0c1.86 0 3.1 1 3.1 2.2 0 .71-.43 1.3-.94 1.3a.59.59 0 0 1-.25-.08zM882 272.25a2.45 2.45 0 0 1 .84-.18c.77 0 1.43.49 1.43 2.34 0 2.91-1.54 4.43-3 4.43a1.5 1.5 0 0 1-.52-.08c-.62-.2-.35-.71-.52-1.23a2.24 2.24 0 0 1-.11-.48v-.06s.18.13.36.38a1.25 1.25 0 0 0 1 .56c1.19 0 2-2 2-3.8 0-1-.22-1.61-.81-1.61a2 2 0 0 0-1.05.48c-.67 1.6-1.79 3.84-2.58 5.29a1.29 1.29 0 0 1-1 .77.28.28 0 0 1-.31-.32 1.8 1.8 0 0 1 .43-.94 28 28 0 0 0 2.79-4.61 6 6 0 0 1-1.75.6 1 1 0 0 1-1.09-1c0-.46.08-.5.11-.5s.17.13.27.27a1 1 0 0 0 .87.31 5.53 5.53 0 0 0 1.88-.36 6.27 6.27 0 0 0 .27-1.54c0-.45-.11-.77-.45-.83-.17 0-.31-.1-.31-.2s.59-.48.88-.48.73.07.73.88a6.94 6.94 0 0 1-.45 1.82zm5.79 3.64a1.06 1.06 0 0 0-.5-.07h-.77c-.31 0-.43 0-.43-.07s.17-.1.41-.14c1-.2 1.55-.43 1.55-1.19 0-1.08-1.12-1.43-1.85-1.72-.31-.11-.46-.18-.46-.22s.07 0 .18 0c1.86 0 3.1 1 3.1 2.2 0 .71-.43 1.3-.94 1.3a.59.59 0 0 1-.25-.08zm-.18-4a4.53 4.53 0 0 0-1.29-.87c-.11 0-.22-.08-.22-.13s.38-.14.76-.14c1.18 0 1.5.53 1.5.87a.41.41 0 0 1-.38.43.51.51 0 0 1-.33-.19zm.74-1.92c.86 0 1.4.36 1.4.83a.42.42 0 0 1-.39.45.51.51 0 0 1-.35-.15 4.71 4.71 0 0 0-1.32-.84c-.11 0-.22-.07-.22-.11a1.9 1.9 0 0 1 .92-.21zm-3.47 24.9c-.66 0-2.94-.24-2.94-3.54a7.56 7.56 0 0 1 1.34-4.5c.1-.1.17-.17.17-.2a23.1 23.1 0 0 0-3.12 1.39 2.07 2.07 0 0 1-.92.21c-.63 0-1.21-.27-1.21-.74 0-.06 0-.14.11-.14a2.63 2.63 0 0 1 .29.06 5 5 0 0 0 .69.07 2.54 2.54 0 0 0 .81-.14 43.38 43.38 0 0 1 5.24-2.1 4.2 4.2 0 0 1 1.13-.28h.07c1.29 0 1.5.45 1.5.67s-.21.43-.67.43h-.32a4.38 4.38 0 0 0-.76-.06 4.87 4.87 0 0 0-2 .39c-1 .55-1.75 2.72-1.75 4.52 0 2.86 1.82 3 2.24 3a2.62 2.62 0 0 0 .83-.14 1.15 1.15 0 0 1 .36-.06c.38 0 .63.21.63.46-.03.5-1.16.7-1.72.7zm1.88-6.18a4.47 4.47 0 0 0-1.2-1c-.11-.06-.21-.1-.21-.14a1.2 1.2 0 0 1 .55-.08c1.12 0 1.65.5 1.65 1a.44.44 0 0 1-.41.48.53.53 0 0 1-.39-.26zm1.5-.69a4.75 4.75 0 0 0-1.25-.94c-.11-.06-.22-.1-.22-.14a1.14 1.14 0 0 1 .62-.11c.7 0 1.61.25 1.61.92a.42.42 0 0 1-.39.45.53.53 0 0 1-.38-.18zm-4.69 22.39c-1.23 0-3.05-.59-3.05-4.15 0-1.54.32-3.11.32-4.64a2.5 2.5 0 0 0-.39-1.67c-.13-.14-.18-.22-.18-.28s.05-.08.15-.08a1.43 1.43 0 0 1 1.47 1.48 2.8 2.8 0 0 1 0 .46 33.72 33.72 0 0 0-.67 5c0 .81.07 3 2.55 3a6.69 6.69 0 0 0 4.15-1.81.58.58 0 0 1 .25-.15c-.02.24-2.08 2.84-4.6 2.84zm.18 13.79c-.78 0-1.5-.59-1.5-1.15s.73-1 1.81-1a4.48 4.48 0 0 1 1 .1 13.79 13.79 0 0 0-.27-1.83 8.33 8.33 0 0 1-.07-1.18v-1.33c0-.53-.13-.69-.25-.69s-.32 0-.32-.14a.55.55 0 0 1 .53-.46c.25 0 .85.35.85.8a2.55 2.55 0 0 1-.13.6c0 .15-.08.32-.11.48a.67.67 0 0 0 .25 0 1.28 1.28 0 0 0 .71-.21.61.61 0 0 1 .15-.11.83.83 0 0 1 .29-.06c.11 0 .55.06.55.35 0 .52-1.05.55-1.29.55a1.42 1.42 0 0 1-.74-.17 4.5 4.5 0 0 0 0 .62 5.67 5.67 0 0 0 .07.83c.05.31.21.69.31 1.09a4 4 0 0 1 .14 1c.53.18 1.74.71 1.74 1.34a.37.37 0 0 1-.36.39.63.63 0 0 1-.48-.29 3.25 3.25 0 0 0-1-.81 2 2 0 0 1-1.88 1.28zm.11-1.74c-.63 0-1.12.27-1.12.56 0 .14.22.46 1 .46a1.35 1.35 0 0 0 1.16-.81 3.35 3.35 0 0 0-1.03-.2zm-3.3 19.56s.17-.17.45-.32c1.67-.9 4-3.43 4-6 0-1.5-.74-2.27-1.32-2.27a2 2 0 0 0-1.18.6 1.41 1.41 0 0 1-.92.45 1.12 1.12 0 0 1-1.12-1c0-.27.15-.49.24-.49s.1.08.13.17a.53.53 0 0 0 .53.29 2.8 2.8 0 0 0 .94-.22 4.28 4.28 0 0 1 1.5-.38c1.4 0 2.12 1.58 2.12 2.91a5.33 5.33 0 0 1-.41 2 7.54 7.54 0 0 1-4.96 4.26zm3.44-10.92a5.36 5.36 0 0 0-1.92.56.69.69 0 0 1-.24.1 7.54 7.54 0 0 1 .92-.83.27.27 0 0 0 .1-.17s0-.07-.07-.11-.94-.2-1.33-.76a.54.54 0 0 1-.12-.24 1.35 1.35 0 0 1 .37.13 4.29 4.29 0 0 0 1.74.25h.34a.88.88 0 0 1 1 .7c-.03.22-.33.29-.79.37zm-2 18.17a2.45 2.45 0 0 1 .84-.18c.77 0 1.43.49 1.43 2.34 0 2.91-1.54 4.43-3 4.43a1.5 1.5 0 0 1-.52-.08c-.62-.2-.35-.71-.52-1.23a2.24 2.24 0 0 1-.11-.48v-.06s.18.13.36.38a1.25 1.25 0 0 0 1 .56c1.19 0 2-2 2-3.8 0-1-.22-1.61-.81-1.61a2 2 0 0 0-1.05.48c-.67 1.6-1.79 3.84-2.58 5.29a1.29 1.29 0 0 1-1 .77.28.28 0 0 1-.31-.32 1.8 1.8 0 0 1 .43-.94 28 28 0 0 0 2.79-4.61 6 6 0 0 1-1.75.6 1 1 0 0 1-1.09-1c0-.46.08-.5.11-.5s.17.13.27.27a1 1 0 0 0 .87.31 5.53 5.53 0 0 0 1.88-.36 6.27 6.27 0 0 0 .27-1.54c0-.45-.11-.77-.45-.83-.17 0-.31-.1-.31-.2s.59-.48.88-.48.73.07.73.88a6.94 6.94 0 0 1-.45 1.82zm5.79 3.64a1.06 1.06 0 0 0-.5-.07h-.77c-.31 0-.43 0-.43-.07s.17-.1.41-.14c1-.2 1.55-.43 1.55-1.19 0-1.08-1.12-1.43-1.85-1.72-.31-.11-.46-.18-.46-.22s.07 0 .18 0c1.86 0 3.1 1 3.1 2.2 0 .71-.43 1.3-.94 1.3a.59.59 0 0 1-.25-.08zm.04 10.22a1.63 1.63 0 1 1 1.63-1.62 1.64 1.64 0 0 1-1.63 1.62zm0-2.77a1.15 1.15 0 1 0 1.15 1.15 1.15 1.15 0 0 0-1.15-1.15zm173.99-246.29a1.75 1.75 0 0 1-1.77 1.6 1.22 1.22 0 0 1-1.25-1.38v-.09c.22-4.88.39-11.32.47-16.93-3.46 6.13-9.68 9.89-10.71 9.89-.09 0-.13 0-.13-.09s.21-.39.69-.73c3-2.25 9.33-10.37 10.15-14.64v-.18a56.47 56.47 0 0 0-6.82.39c-.52 0-1.73-1.6-1.73-2.07a70.94 70.94 0 0 0 8.6.6v-2.33c0-.91 0-3.5-.17-5.18a51 51 0 0 1-6 .39c-1 0-1.64 0-1.64-.22s.3-.22.91-.26c3.2-.35 10.32-2.16 12-4 .13-.13.13-.26.21-.26s3.07 2.07 3.07 2.85c0 .26-.26.43-.69.43a1.58 1.58 0 0 1-.61-.09 3.16 3.16 0 0 0-.52-.09 1.73 1.73 0 0 0-.65.13 16 16 0 0 1-2.55.6c.22.13.35.26.35.39s-.22.39-.65.65c-.65.35-.73.56-.73 7h1.81a.74.74 0 0 0 .52-.35c.39-.65 1.43-2.38 1.9-2.38.73 0 3.41 2.33 3.41 3.33 0 .26-.22.48-.82.48h-6.83V96h.26c3.28 0 6.61 1.47 6.61 3.71a1.34 1.34 0 0 1-1.25 1.47 2.35 2.35 0 0 1-1.81-1.21 12.65 12.65 0 0 0-3.8-3.63c0 5.7.13 12.31.3 17.63zm20.69-1.73v-2.68h-9.42v3.37a1.63 1.63 0 0 1-1.73 1.47 1.11 1.11 0 0 1-1.21-1.21v-.13c.3-4.32.39-13.52.39-19.48v-4.84a38.37 38.37 0 0 0-.48-5.44.76.76 0 0 1 0-.26c0-.09 0-.13.09-.13a20 20 0 0 1 4.06 1.9h7.26a.89.89 0 0 0 .65-.35c.56-.91.91-1.3 1.38-1.3s3.5 1.76 3.5 2.6c0 .48-.56.78-1 1-.87.48-.87.6-.87 4.54 0 5.31.13 15.68.35 20.61a1.65 1.65 0 0 1-1.73 1.6 1.18 1.18 0 0 1-1.25-1.25zm.09-3.8v-10.8c0-5.18 0-9.85-.13-11.1a.59.59 0 0 0-.65-.52h-7.69c-.09 0-.13.13-.22.17-.69.48-.69.22-.78 1.68 0 1.17-.09 4.49-.09 8.42v12.14zm-12.18 29.55c0 9.46-7.56 19.09-11.27 19.09-2.12 0-2.89-2.89-4.67-5.44a6.72 6.72 0 0 1-1-3.93c0-6.57 5.75-17 17.41-17 9.81 0 14.86 6.78 14.86 13.82 0 13.13-15 16.85-18.58 16.85-.39 0-.6-.09-.6-.17s.69-.56 1.94-.91c11.36-3.07 14.43-10.58 14.43-15.94 0-6.39-4.41-12.23-12.61-12.23-.52 0-1 0-1.55.09 1.03.8 1.64 3.01 1.64 5.77zm-1.51-1.56c0-3.11-.73-3.84-1.68-3.84a1.63 1.63 0 0 0-.43 0 1.08 1.08 0 0 1-.35 0 15.26 15.26 0 0 0-10.84 14c0 3.8 1.9 6.7 4 6.7 2.86.12 9.29-8.91 9.29-16.85zm-7.52 59.71c-1.64 1-2.51 1.38-3.63 1.38s-4.84-.73-4.84-2.51c0-.39.26-.52.6-.52a3.41 3.41 0 0 1 .86.17 3.82 3.82 0 0 0 1.12.13c2.29 0 5.49-1.17 9-2.64v-1.81c0-5.27-.73-7.47-2.76-7.6-1.17 0-1.6-.35-1.6-.65a2.44 2.44 0 0 1 2.33-1.17c1.77 0 5.14 2 5.14 4.58 0 1.12-.43 2.42-.61 3.93 0 .56-.13 1.12-.17 1.73 2.72-1.12 5.44-2.2 7.52-2.94s1.94-1.73 3.28-1.73 5.05 1.34 5.05 2.55c0 .91-1.86 1.55-2.68 2.42-3 3.2-7.3 6.65-8.12 6.65a.11.11 0 0 1-.13-.13 1.12 1.12 0 0 1 .39-.6c1.6-1.77 5-6.44 5-7.65 0-.39-.26-.52-.65-.52-.65 0-4.19 1.21-9.76 4.06-.17 2.55-.3 5-.3 6.44 0 1.86.26 4 5.75 4a25.23 25.23 0 0 0 2.55-.17c2-.22 3.07-1.43 4.79-1.64a3.29 3.29 0 0 1 .65 0c.17 0 3.15 0 3.15 1.51 0 2.68-10.5 2.68-11.06 2.68-2.89 0-8.17-.26-8.17-5.66a4.62 4.62 0 0 1 0-.78c.17-2.07.3-3.71.34-5.18zm25.87 34.65c0 .56-4.19 10.8-20.22 20.43-.65.39-1.55 1.77-2.59 1.77s-3.28-2.33-3.28-3.59c0-.48.35-1 .48-2.29a66.83 66.83 0 0 0 .6-8.25c0-4.28-.78-6.13-2.2-6.61-.82-.26-1.12-.52-1.12-.73 0-.48 1.25-.82 2.07-.82 2.12 0 4.1 2.63 4.1 4.45a4 4 0 0 1-.17 1.17c-.56 1.94-1 11-1 12.05 0 .09 0 .73.65.73.82 0 12.14-5.7 21.6-17.32.61-.73 1-1.08 1.08-1.08s0 0 0 .09zm-31.53 60a2.86 2.86 0 0 1-1 .3h-.13s.22-.39.78-.78c6.31-4.62 12.61-13.56 12.61-14.9 0-.65-.56-1.08-1.43-1.3-.39-.09-.56-.26-.56-.48 0-.48 1-1.08 1.73-1.08 1.47 0 3.8 1.38 3.8 3a2.91 2.91 0 0 1-.73 1.73c1.38-.17 4-.6 5.36-.82a2.9 2.9 0 0 0 1.25-.65 1.73 1.73 0 0 1 .91-.39c.91 0 3.63 1.77 3.63 2.68q0 .65-1.17 1c-.91.3-1.51 1.25-2.33 2.46-7.08 10.41-13.91 17.58-25.1 20.91a5 5 0 0 1-1.38.3q-.26 0-.26-.13c0-.13.47-.48 1.34-.82 9.59-3.93 16.72-12.05 23.37-22.55a2.31 2.31 0 0 0 .39-.91c0-.3-.22-.52-1-.52a19.11 19.11 0 0 0-4.84 1 4 4 0 0 1-1.08.22 2.51 2.51 0 0 1-.56-.09c-4.92 5.86-8.72 9.7-13.6 11.82zm12.44 45.01c0 5.36.13 10.8.17 11.45.09 2.85-.65 4.28-1.51 4.28s-1.9-1.47-1.9-3.84a11.22 11.22 0 0 1 .22-2 22.55 22.55 0 0 0 .52-2.68c.26-2.07.39-7.47.39-12.05 0-8.64-.52-10.28-2-10.37-.6 0-.86-.22-.86-.52a1.31 1.31 0 0 1 1.34-1c1.38 0 4.58 1.77 4.58 3.89 0 .91-.43 1.9-.61 3.54-.17 1.38-.26 3.46-.3 5.75h2.61c6.39 0 7.91 2.29 7.91 3.63a1.49 1.49 0 0 1-1.51 1.56 2.86 2.86 0 0 1-1.69-.69 20.47 20.47 0 0 0-7.34-4zm49.74-225.99a.91.91 0 0 0-.24 0 .22.22 0 0 0-.24.23c0 .4.58.94 1.46 1.27a.12.12 0 0 1 .07.11c0 .08-.07.24-.22.24-.93-.3-2-1.08-2-2.12 0-.49.35-.62.92-.62a3.64 3.64 0 0 1 .54 0 2.61 2.61 0 0 1-1.5-2.08 1.53 1.53 0 0 1 1.7-1.63c2.32 0 5 2.13 5 4a1 1 0 0 1-.58 1l.42.13c.12 0 .16.2.16.39s-.13.65-.39.65c-1.89-.61-4.01-1.27-5.1-1.57zm4.91-.55c0-1.2-2.77-2.87-4.72-2.87-.46 0-.82.16-.82.66 0 .88.92 1.58 2.27 2.14a8.62 8.62 0 0 0 2.56.73c.43 0 .71-.11.71-.66zm-.82 12.94c0-.65.85-.28.85-1a.69.69 0 0 0-.78-.71 4.45 4.45 0 0 0-1.65.58 4.12 4.12 0 0 1-1.87.59 1.83 1.83 0 0 1-1.81-2c0-.88.41-1.66 1.12-1.66a.51.51 0 0 1 .57.53.38.38 0 0 1-.43.43c-.54 0-.7.36-.7.77a.81.81 0 0 0 .89.89 3.71 3.71 0 0 0 1.58-.55 3.91 3.91 0 0 1 1.79-.54 1.79 1.79 0 0 1 1.85 1.86c0 .82-.34 1.31-.86 1.31a.49.49 0 0 1-.55-.5zm-2.31 3.39a5.49 5.49 0 0 0-1.38-.23c-.7 0-1 .3-1 .86a2.41 2.41 0 0 0 1.53 1.92c.11 0 .13.05.13.15s-.08.3-.22.26a2.84 2.84 0 0 1-2-2.7 1.63 1.63 0 0 1 1.71-1.63c2.48 0 5 2.13 5 4.17 0 .84-.45 1.16-1.05 1.16-1.09 0-2.07-1.34-2.72-3.96zm3.1 2.62c0-.76-.94-1.85-2.62-2.46.5 1.77 1.32 2.87 2.2 2.87a.38.38 0 0 0 .42-.41zm.57 8.26a1.07 1.07 0 0 1-1.13 1.2 6.07 6.07 0 0 1-2.41-.62 7.15 7.15 0 0 0-2.14-.67.22.22 0 0 0-.24.23c0 .4.58.94 1.46 1.27a.12.12 0 0 1 .07.11c0 .09-.08.28-.22.24-.94-.27-2-1.15-2-2.1 0-.54.22-.8.81-.8a8 8 0 0 1 2.52.7 6.24 6.24 0 0 0 2.2.59c.35 0 .5-.15.5-.49 0-.72-1.13-1.87-2.35-2.35-.66-.26-3-1-3.41-1.08-.08 0-.16-.16-.16-.38s.09-.65.23-.65a2.27 2.27 0 0 1 .59.12l2.21.67a16.7 16.7 0 0 0 2.48.67c.28 0 .36-.09.36-.23 0-.4-.58-.94-1.46-1.27a.12.12 0 0 1-.07-.11c0-.09.08-.28.22-.24a2.49 2.49 0 0 1 1.94 2.12c0 .49-.38.66-.86.66a4.32 4.32 0 0 1-1-.18 3.29 3.29 0 0 1 1.86 2.59zm-1.36 7.73c0-.65.85-.28.85-1a.69.69 0 0 0-.78-.71 4.45 4.45 0 0 0-1.65.58 4.12 4.12 0 0 1-1.87.59 1.83 1.83 0 0 1-1.81-2c0-.88.41-1.66 1.12-1.66a.51.51 0 0 1 .57.53.38.38 0 0 1-.43.43c-.54 0-.7.36-.7.77a.81.81 0 0 0 .89.89 3.71 3.71 0 0 0 1.58-.55 3.91 3.91 0 0 1 1.79-.54 1.79 1.79 0 0 1 1.85 1.86c0 .82-.34 1.31-.86 1.31a.49.49 0 0 1-.55-.5zm-2.31 3.39a5.49 5.49 0 0 0-1.38-.23c-.7 0-1 .3-1 .86a2.41 2.41 0 0 0 1.53 1.92c.11 0 .13.05.13.15s-.08.3-.22.26a2.84 2.84 0 0 1-2-2.7 1.63 1.63 0 0 1 1.71-1.63c2.48 0 5 2.13 5 4.17 0 .84-.45 1.16-1.05 1.16-1.09-.01-2.07-1.35-2.72-3.96zm3.1 2.62c0-.76-.94-1.85-2.62-2.46.5 1.77 1.32 2.87 2.2 2.87a.38.38 0 0 0 .42-.42zm-6.09 9.52c0-.71.27-1.9 2.06-1.9s4.6 1.65 4.6 3.72c0 .92-.53 1.89-2.16 1.89s-4.5-1.52-4.5-3.71zm6.16 1.83c0-1.36-2.85-2.68-4.69-2.68-.74 0-1 .24-1 .8 0 1.34 2.74 2.67 4.55 2.67.87-.01 1.14-.24 1.14-.79zm-5.65 5.07c-3-.89-4-1.81-4-3.44 0-1.19.51-1.63 1.09-1.63a.6.6 0 0 1 .65.59.49.49 0 0 1-.54.5.55.55 0 0 0-.62.59c0 .69.51 1.55 3.24 2.31l5.48 1.52v-.73c0-.11 0-.09.15-.09.27 0 .35 0 .35.13v.81l1.56.46c1.88.55 2.27 1.63 2.27 2.55 0 1.13-.47 1.58-1.06 1.58a.57.57 0 0 1-.58-.53.48.48 0 0 1 .53-.49c.34 0 .53-.15.53-.63s-.7-1.08-3.24-1.81v1.17c0 .25 0 .15-.2.15s-.3-.07-.3-.15v-1.31zm-3.61 9.51c0-1.39.62-2 1.29-2a.64.64 0 0 1 .7.69c0 1-1.32.5-1.32 1.54s.61 1.46 2.46 1.46h8.34c.7 0 1.05-.31 1.05-1.35 0-.07.08-.09.23-.09s.27 0 .27.12c0 .34-.07 1-.07 2.08s.07 1.71.07 2.06c0 .09-.11.11-.26.11s-.24 0-.24-.11c0-1-.47-1.31-1.11-1.31-.92 0-5.29-.08-8.08-.08a3.15 3.15 0 0 1-3.33-3.12zm3.66 8.95c-.16 0-.27 0-.27-.13 0-.34.05-.63.05-1.39s-.05-1.13-.05-1.34.08-.09.24-.09.26 0 .26.12c0 .49.36.78 1 1.15.42.23 7.63 3.39 8 3.45.2.05.28.13.28.32s-.07.23-.24.3c-.93.32-7.65 3.08-8.4 3.59a1.16 1.16 0 0 0-.69 1.09c0 .08-.11.11-.23.11s-.27 0-.27-.13c0-.34.05-.89.05-2s-.05-1.75-.05-2.08c0-.08.08-.09.24-.09s.26 0 .26.09c0 1 .2 1.21.7 1.21a1 1 0 0 0 .38-.08l2.06-.84v-1.63c0-.7 0-1.31.05-1.74-.57-.23-1-.45-1.44-.59a2.81 2.81 0 0 0-1-.27c-.51 0-.69.32-.69.84-.01.1-.12.13-.24.13zm3.93.11v2.92l3.44-1.4c-.47-.23-2.03-.93-3.45-1.52zm5.41 13.47c0 2.2-1.05 3.59-2.63 3.59-1.29 0-2.51-.71-2.51-3.83v-1h-2.9c-.71 0-1.11.34-1.11 1.38 0 .08-.11.11-.23.11s-.27 0-.27-.14v-4.08c0-.08.08-.09.24-.09s.26 0 .26.09c0 1 .27 1.32 1.07 1.32h6.5c.7 0 1.05-.31 1.05-1.35 0-.07.08-.09.23-.09s.27 0 .27.12c0 .34-.07 1-.07 2.08.05.31.1 1.19.1 1.89zm-4.64-.36c0 1.67.62 2.27 2 2.27 1.63 0 2.13-.62 2.13-2.44a3.79 3.79 0 0 0 0-.63c-1.4-.05-3.17-.08-4.09-.08v.88zm-4.7 7.43c-.16 0-.27 0-.27-.13 0-.34.05-.63.05-1.39s-.05-1.13-.05-1.34.08-.09.24-.09.26 0 .26.12c0 .49.36.78 1 1.15.42.23 7.63 3.39 8 3.45.2.05.28.13.28.32s-.07.23-.24.3c-.93.32-7.65 3.08-8.4 3.59a1.16 1.16 0 0 0-.69 1.09c0 .08-.11.11-.23.11s-.27 0-.27-.14c0-.34.05-.89.05-2s-.05-1.75-.05-2.08c0-.08.08-.09.24-.09s.26 0 .26.09c0 1 .2 1.21.7 1.21a1 1 0 0 0 .38-.08l2.06-.84v-1.63c0-.7 0-1.31.05-1.74-.57-.23-1-.44-1.44-.59a2.82 2.82 0 0 0-1-.27c-.51 0-.69.32-.69.84-.01.11-.12.14-.24.14zm3.93.11v2.92l3.44-1.4c-.47-.23-2.03-.93-3.45-1.53zm3.54 11.46h-6c-.89 0-1.21.55-1.21 1.52 0 .05-.09.09-.24.09s-.26 0-.26-.09v-3.56s.12-.07.24-.07.26 0 .26.09c0 .89.32 1.29 1.21 1.31l6.12.05c.61 0 1.28-.38 1.28-1.6 0-.05 0-.09.24-.09s.26.07.26.12c0 .24-.07 1-.07 1.78v.67a.26.26 0 0 1-.12.23c-.75.59-2.25 1.89-3.72 3.13a40.63 40.63 0 0 1-3.21 2.55h5.33c.78 0 1.28-.18 1.28-1.43 0-.07.09-.11.26-.11s.24 0 .24.13c0 .39-.07.86-.07 1.66 0 1 .07 1.51.07 1.73 0 .05-.07.09-.24.09s-.26 0-.26-.11c0-.8-.24-1.28-1.33-1.31s-4 0-5.49 0h-2.27c-.07 0-.1-.15-.1-.38a.26.26 0 0 1 .13-.22c.94-.63 6.21-4.8 7.67-6.18zM1018.62 197v-1c-2 0-3-1-3-5v-79h-1v89h1.44a4.88 4.88 0 0 1 2.56-4z"/><path class="cls-1" d="M1011.62 116v1c2 0 3 1 3 5v79h1v-89h-.56c0 1-1.44 2.84-3.44 4z"/></svg>