<svg id="design" xmlns="http://www.w3.org/2000/svg" viewBox="0 0 55.25 117.08" preserveAspectRatio="xMidYMin"><defs><style>.cls-1{fill:#fff}</style></defs><title>txt_top_nutrition</title><path class="cls-1" d="M14.7 13.32c2.55 3.44 7.11 7.11 11.4 8 .17 0 .22.08.22.11 0 .2-2.46.42-3.14 1.15a.34.34 0 0 1-.25.11c-.81 0-5.71-3.89-8.57-9.1v1.79c0 2.1 0 4.87.11 8.46a1.15 1.15 0 0 1-1.2 1.06.74.74 0 0 1-.78-.84V24c.22-3.39.31-6.38.34-8.6-4.65 5.82-11 8-11.87 8a.12.12 0 0 1-.08 0c0-.06.17-.17.53-.34 2.8-1.26 7.39-4.76 10.84-9.69h-1.19c-1.51 0-5.07.06-7.5.31-.5 0-1.29-1.09-1.29-1.46 2.83.34 7.36.45 8.93.45h1.6v-.06a28 28 0 0 0-.34-4.26.5.5 0 0 1 0-.17c0-.06 0-.06.06-.06.28 0 3.14.42 3.14 1.06 0 .2-.22.42-.56.64-.62.36-.56.31-.62 1.18 0 .45-.06 1-.08 1.65H20a.62.62 0 0 0 .48-.25 6.67 6.67 0 0 1 1.43-1.76c.11 0 .25.11.34.14.7.25 2.46 1.62 2.46 2.24 0 .17-.14.34-.62.34zM5.85 6.79c-.22 2.35-1.88 3.89-3 3.89a.94.94 0 0 1-1-.92 1.87 1.87 0 0 1 .78-1.32C4.2 7.16 5 6.32 5.29 4.58c0-.2.11-.34.2-.34s.39 1.15.39 1.85h10.19c.7-1.15 2.21-3.84 2.38-5.6 0-.2 0-.25.08-.25s2.91 1.15 2.91 1.85c0 .28-.34.42-.87.45a.77.77 0 0 0-.76.34c-.59.67-2.24 2.38-3.19 3.22h4.62a.83.83 0 0 0 .48-.22c.17-.2.59-.64.9-.64s2.49 1.2 2.49 2.07c0 .34-.31.62-1.12.67-.99.02-3.24 1.75-4.5 2.42a.45.45 0 0 1-.22.08.06.06 0 0 1-.06-.06s0-.08.11-.2c.53-.67 2-2.74 2-3.3 0-.08-.06-.14-.17-.14zm2-2.94A9.59 9.59 0 0 0 6 1.39c-.14-.14-.22-.22-.22-.28s.06-.06.2-.06c1.12 0 3.95.87 3.95 2.6A1 1 0 0 1 9 4.78c-.38 0-.8-.26-1.1-.93zm4.7-.56A9.5 9.5 0 0 0 11.14.58.67.67 0 0 1 11 .27s0-.06.08-.06c.87 0 3.61 1.37 3.61 2.94a1.14 1.14 0 0 1-1 1.23c-.45 0-.89-.3-1.09-1.09zm3.91 46.37h-3.22A6.89 6.89 0 0 0 15.9 52c3.1-1.47 3.84-2.26 4.1-2.9 0-.08.06-.11.11-.11s1.76 1.48 1.76 2c0 .17-.14.25-.36.25a1.85 1.85 0 0 1-.5-.08 2.9 2.9 0 0 0-.48-.08.61.61 0 0 0-.22 0c-.56.2-2.44.78-3.89 1.18a16.83 16.83 0 0 0 7.17 1.4q.92 0 1.93-.08h.11c.11 0 .17 0 .17.06s-2.25 1.12-2.8 1.76a.74.74 0 0 1-.56.22 16.91 16.91 0 0 1-7.25-3c-.78.59-6.69 2-10.44 2.91-.22.06-.36.28-.53.28a5.21 5.21 0 0 1-1.34-2.21v-.06H3a6.21 6.21 0 0 0 1.43.14c.53 0 2-.11 4.37-.36.08-1.71.08-3.84.08-5.43 0-2.07 0-3.14-.11-4.09-3.06 2.89-7.23 4.57-8.46 4.57-.11 0-.17 0-.17-.06s.14-.17.48-.31C4.9 46.3 8.4 42.32 9 40.7c-1.79 0-4.06.11-5.68.28-.5 0-1.32-1-1.32-1.4 2.77.34 7.78.45 9.32.45h1.23c.06-1.09.06-.62.06-2.16H12a58.76 58.76 0 0 0-6.16.28c-.48 0-1.26-1-1.26-1.34a68.46 68.46 0 0 0 7.59.39h.45c0-.64 0-1.57-.08-2.13h-1.68c-1.46 0-4.09.06-6.41.31-.48 0-1.23-1.06-1.23-1.43a74.73 74.73 0 0 0 7.78.45h3.47a15 15 0 0 0 1.9-4.2c0-.2.06-.25.11-.25S19 31.24 19 31.8c0 .22-.2.39-.64.39h-.28a.94.94 0 0 0-.67.31c-.56.48-1.48 1.29-2.3 1.9H19a.57.57 0 0 0 .45-.25c.36-.5 1.15-1.37 1.46-1.37s2.49 1.12 2.49 2c0 .17-.14.34-.59.34h-7.89a.23.23 0 0 1 .14.22c0 .17-.14.34-.48.48s-.39.28-.39 1.43h3.19a.57.57 0 0 0 .42-.25c.42-.53 1.15-1.18 1.4-1.18s2.38 1.12 2.38 1.74c0 .2-.11.36-.56.36H14.2v2.16h6.5a.62.62 0 0 0 .48-.25c.28-.42 1.2-1.54 1.54-1.54.67 0 2.6 1.57 2.6 2.13 0 .17-.11.31-.59.31h-7.79c1.71 2.13 5.88 4.45 10.14 4.7.17 0 .25 0 .25.08s-2.35.84-2.94 1.43a.34.34 0 0 1-.25.11c-1.26 0-6-2.86-7.7-6.33h-4.82c.06.06.08.08.08.14s-.17.28-.5.39a.86.86 0 0 0-.59.42 15.18 15.18 0 0 1-1 1.32 7.45 7.45 0 0 1 1.34.7h1.79a10.49 10.49 0 0 0-.28-2.3.31.31 0 0 1 0-.14h.06c.31 0 2.77.39 2.77.81 0 .14-.14.28-.36.42-.56.34-.64.14-.7.87a3.47 3.47 0 0 1-.06.36h1.79a.44.44 0 0 0 .36-.2 4.11 4.11 0 0 1 .48-.5c.08 0 .14-.08.22-.08.45 0 1.85 1 1.85 1.4 0 .2-.25.36-.48.5s-.45.36-.45 1v.36c0 1.09.08 2.49.14 3.42a.92.92 0 0 1-1 1 .61.61 0 0 1-.64-.67v-.22zM9.83 33.2a9.36 9.36 0 0 0-1.76-2.38c-.14-.14-.22-.22-.22-.28s.06-.06.17-.06c1.15 0 3.86.92 3.86 2.49a1.07 1.07 0 0 1-1 1.12c-.38 0-.77-.25-1.05-.89zm.48 13.72v2.07h6.22v-2.07zm0 2.74v3.47c1.48-.2 3-.42 4.37-.7a1 1 0 0 1 .28 0 7.23 7.23 0 0 1-2.21-2.74zm.56-5.29a.58.58 0 0 0-.17.11c-.25.17-.31.45-.34.84v.92h6.22c0-.56 0-1.12-.06-1.6a.27.27 0 0 0-.28-.28zm4.81 23.43a31 31 0 0 0 1.9 9.6A15.67 15.67 0 0 0 20 70.1c0-.14 0-.2.11-.2s2.94 1 2.94 1.65c0 .2-.22.42-.84.59-.45.14-.53.14-.73.7a24.15 24.15 0 0 1-3.16 6.24c1.85 3.36 4 4.09 4.42 4.09.87 0 1.48-1.37 2.58-4.37a2.36 2.36 0 0 1 .22-.5c.06-.06.08.06.08.28 0 .7-.25 2.63-.25 3.92a2.51 2.51 0 0 0 .2 1.23 2.07 2.07 0 0 1 .45 1.15c0 .62-.56 1-1.37 1-.22 0-4.37-.17-7.36-5.46a18.67 18.67 0 0 1-12.42 6.26c-.22 0-.36 0-.36-.08s.2-.17.64-.28a19.19 19.19 0 0 0 11.42-7.36 35.16 35.16 0 0 1-2.49-11.16H7a2.88 2.88 0 0 1-.31.17c-.39.2-.39.25-.39 1.51v2.66h3.11a.92.92 0 0 0 .64-.22c.42-.48.56-.62.7-.62s2.25.9 2.25 1.46c0 .25-.28.48-.78.73-.34.17-.36.28-.36.56a19.37 19.37 0 0 1-.2 3.84c-.56 2.91-2.55 3.33-3.25 3.33a.3.3 0 0 1-.31-.2c-.34-.73-2.1-1.74-2.1-1.93h.08a.49.49 0 0 1 .17 0 8.66 8.66 0 0 0 1.62.22c1.9 0 2.38-1.15 2.38-4.06 0-.87 0-1.68-.06-2.07a.32.32 0 0 0-.34-.31H6.27C6 77.6 5.12 82.34 1 85.47a2.61 2.61 0 0 1-1 .56.06.06 0 0 1 0-.03c0-.11.17-.34.56-.76 3.19-3.3 3.92-7.7 3.92-12.68A36.31 36.31 0 0 0 4 65.93a.74.74 0 0 1 0-.2v-.08A13.66 13.66 0 0 1 7 67a.77.77 0 0 1 .17.14H14a26.54 26.54 0 0 0-.67-5.6c0-.11-.06-.17-.06-.2s0 0 .06 0c.48 0 3.3.36 3.3 1 0 .2-.2.39-.5.59-.53.34-.53.45-.53 2.27v1.93h5a.58.58 0 0 0 .48-.25c1.06-1.51 1.26-1.71 1.57-1.71a.35.35 0 0 1 .17 0c1 .34 2.49 1.85 2.49 2.3 0 .17-.14.34-.62.34zm3.61-2.3a7.76 7.76 0 0 0-2.38-2.07c-.17-.08-.25-.14-.25-.17s1-.14 1.06-.14c2.72 0 3.53 1.2 3.53 2a1 1 0 0 1-.92 1 1.28 1.28 0 0 1-1.04-.61zm-5.23 38.65c.08.06.14.11.14.2s-.25.34-.59.48-.42 0-.62 1C11.7 112.6 7.64 116.1 1.65 117a5.22 5.22 0 0 1-.73.08c-.17 0-.25 0-.25-.08s.34-.22.76-.34c5.21-1.48 8.51-4.73 9.66-10.72a11.41 11.41 0 0 0 .2-1.71c-1.12.06-2.38.14-3.67.25-.28 0-.67-.34-1-.67-2.88 2.88-5.24 3.53-5.32 3.53a.1.1 0 0 1-.06 0c0-.08.14-.2.42-.42a22.81 22.81 0 0 0 6.8-8.4A7 7 0 0 0 9 96.67c0-.14 0-.22.11-.22.36 0 2.83 1.23 2.83 1.71 0 .22-.25.39-.87.5-.45.08-.53.14-.84.62a28.59 28.59 0 0 1-3.05 4c2 .17 4.23.22 5.71.22h.76l3.92-.06a.52.52 0 0 0 .48-.22c.53-.59.62-.67.73-.67s2.13 1.09 2.13 1.68c0 .17-.14.34-.53.53s-.36.31-.39 1c-.06 2.86-.28 6-1.26 7.92a5 5 0 0 1-4.56 2.88h-.25a.52.52 0 0 1-.45-.34c-.28-.64-3.36-2.32-3.36-2.52h.06a1.86 1.86 0 0 1 .36.08 12.61 12.61 0 0 0 3.75.81c2.49 0 4-1.9 4-8.71v-1.2c0-.39 0-.48-.42-.48zm.25-9.15a38.53 38.53 0 0 0-4.12.28c-.42 0-1.26-1.09-1.26-1.43a43.88 43.88 0 0 0 5.35.42h1.32A.67.67 0 0 0 16 94c.17-.22.76-.84 1-.84s2 1.18 2 1.65c0 .31-.39.53-.84.64-.76.2-1.2.2-1.2.5 0 .73 3.64 6.83 9.88 8.29.17 0 .25.08.25.14 0 .25-2.49.64-3.14 1.29a.39.39 0 0 1-.28.14c-.9 0-5.8-4.59-7.7-10.39-.11-.36-.28-.45-.56-.45zM53.36 2.35h-6c-.89 0-1.21.55-1.21 1.52 0 .05-.09.09-.24.09s-.26 0-.26-.09V.31s.12-.07.24-.07.26 0 .26.09c0 .89.32 1.29 1.21 1.31l6.12.05c.61 0 1.28-.38 1.28-1.61 0-.05 0-.09.24-.09s.26.07.26.12c0 .24-.07 1-.07 1.78v.67a.26.26 0 0 1-.12.23c-.76.59-2.25 1.89-3.72 3.13a40.29 40.29 0 0 1-3.21 2.55h5.33c.78 0 1.28-.17 1.28-1.43 0-.07.09-.11.26-.11s.24 0 .24.13c0 .39-.07.86-.07 1.66 0 1 .07 1.51.07 1.73 0 .05-.07.09-.24.09s-.26 0-.26-.11c0-.8-.24-1.28-1.34-1.31s-4 0-5.49 0h-2.27c-.07 0-.09-.15-.09-.38a.26.26 0 0 1 .13-.22c.95-.63 6.21-4.8 7.67-6.17zm-4.8 19.9c-1.59 0-3.13-1.08-3.13-4.13a3.29 3.29 0 0 1 3.48-3.58h4.72c.7 0 1.12-.3 1.12-1.32 0-.09.08-.12.23-.12s.27 0 .27.15c0 .28-.07.9-.07 2s.07 1.94.07 2.06-.08.12-.24.12-.26 0-.26-.12c0-1-.27-1.28-1.08-1.31s-2.94 0-4.9 0c-1.58 0-2.48 1.08-2.48 2.8 0 1.89.93 2.78 2.47 2.78 1.12 0 4.28-.07 4.71-.07.9 0 1.28-.28 1.28-1.31 0-.08.09-.11.22-.11s.28 0 .28.14c0 .35-.07 1-.07 1.7s.07 1.4.07 1.7c0 .07-.08.11-.23.11s-.27-.05-.27-.11c0-.93-.46-1.33-1.38-1.33zm-1.31 9.26c-.71 0-1.12.28-1.12 1.32 0 .08-.11.11-.23.11s-.27 0-.27-.14v-4.08c0-.08.08-.09.24-.09s.26 0 .26.09c0 1 .28 1.32 1.08 1.32h7.38c0-.45.05-.82.05-1.13 0-1.69-.54-2.19-1.9-2.52-.09 0-.09-.07-.09-.12s0-.34.09-.34c.39 0 1.86.09 2.25.09a.23.23 0 0 1 .26.24c0 .22-.07 3.25-.07 4.45s.07 4.21.07 4.42-.11.27-.26.27c-.39 0-1.86.08-2.25.08-.05 0-.11-.14-.11-.31s0-.11.11-.13c1.29-.31 1.9-.85 1.9-2.51v-1c-.87.02-4.64-.02-7.39-.02zM46.13 42.1c0 .08-.11.11-.23.11s-.27 0-.27-.14v-4.08c0-.08.08-.09.24-.09s.26 0 .26.09c0 1 .28 1.32 1.08 1.32h6.49c.7 0 1.05-.3 1.05-1.33 0-.07.08-.11.23-.11s.27 0 .27.12c0 .34-.07 1-.07 2.08v2.1c0 2.25-1.17 3.32-2.48 3.32-1.05 0-2.1-.82-2.36-2.55a22.32 22.32 0 0 1-2 1.9c-1.74 1.52-2.21 2.09-2.21 2.86 0 .13-.07.17-.26.17s-.28 0-.28-.15v-1.9c0-.66.66-1.29 2-2.36l1.78-1.38a2.62 2.62 0 0 0 .66-.63v-.72h-2.78c-.71.05-1.12.33-1.12 1.37zm8.55-1.23c-.92 0-2.75-.08-4.07-.08v.86c0 1.62.82 2.19 2 2.19a1.86 1.86 0 0 0 2.12-2 6.89 6.89 0 0 0-.05-.97zm-8.55 13.42c0 .08-.12.11-.24.11s-.26 0-.26-.14v-4.08c0-.08.08-.09.24-.09s.26 0 .26.09c0 1 .27 1.32 1.07 1.32h6.5c.7 0 1.05-.31 1.05-1.35 0-.07.08-.09.23-.09s.27 0 .27.12c0 .34-.07 1-.07 2.08s.07 1.71.07 2.06c0 .09-.11.11-.26.11s-.24 0-.24-.11c0-1-.47-1.31-1.11-1.31C52.73 53 50 53 47.24 53c-.72 0-1.11.25-1.11 1.29zm-.5 3.08c0-.08.08-.09.24-.09s.26 0 .26.09c0 1 .27 1.32 1.07 1.32h6.5c.7 0 1.05-.31 1.05-1.35 0-.07.08-.09.23-.09s.27 0 .27.12c0 .34-.07 1-.07 2.08 0 1.24.07 4.64.07 4.84s-.07.23-.26.23c-.84 0-1.59.09-2 .09-.09 0-.13-.12-.13-.28s0-.24.11-.26c1.16-.21 1.73-.79 1.73-2.23a12.9 12.9 0 0 0-.09-1.62c-1 0-2.9-.05-3.6-.11 0 1.93.54 2.08 1.36 2.08.16 0 .19 0 .19.28s0 .27-.2.27a14.81 14.81 0 0 0-1.6-.07c-1 0-1.43.07-1.61.07s-.19-.05-.19-.27.05-.28.19-.28c.92 0 1.38-.26 1.38-2.08h-3.4c-.63 0-1 .2-1 1.54 0 2.27.69 2.82 2.13 3 .13 0 .19.09.19.26s0 .3-.15.3c-.47 0-1.29-.07-2.54-.07-.15 0-.18-.05-.18-.2 0-.9.07-4.4.07-5.44s-.02-1.8-.02-2.13zm7.73 12.69h-6c-.89 0-1.21.55-1.21 1.52 0 .05-.09.09-.24.09s-.26 0-.26-.09v-3.56s.12-.07.24-.07.26 0 .26.09c0 .89.32 1.29 1.21 1.31l6.12.05c.61 0 1.28-.38 1.28-1.61 0-.05 0-.09.24-.09s.26.07.26.12c0 .24-.07 1-.07 1.78v.67a.26.26 0 0 1-.12.23c-.76.59-2.25 1.89-3.72 3.13a40.29 40.29 0 0 1-3.21 2.55h5.33c.78 0 1.28-.17 1.28-1.43 0-.07.09-.11.26-.11s.24 0 .24.13c0 .39-.07.86-.07 1.66 0 1 .07 1.51.07 1.73 0 .05-.07.09-.24.09s-.26 0-.26-.11c0-.8-.24-1.28-1.34-1.31s-4 0-5.49 0h-2.27c-.07 0-.09-.15-.09-.38a.26.26 0 0 1 .13-.22c.95-.63 6.21-4.8 7.67-6.17zM47.25 86c-.71 0-1.12.28-1.12 1.32 0 .08-.11.11-.23.11s-.27 0-.27-.14v-4.08c0-.08.08-.09.24-.09s.26 0 .26.09c0 1 .28 1.32 1.08 1.32h7.38c0-.45.05-.82.05-1.13 0-1.69-.54-2.19-1.9-2.52-.09 0-.09-.07-.09-.12s0-.34.09-.34c.39 0 1.86.09 2.25.09a.23.23 0 0 1 .26.24c0 .22-.07 3.25-.07 4.45s.07 4.21.07 4.42-.11.27-.26.27c-.39 0-1.86.08-2.25.08-.05 0-.11-.14-.11-.31s0-.11.11-.13c1.29-.31 1.9-.85 1.9-2.51v-1C53.77 86 50 86 47.25 86z"/></svg>