<svg id="レイヤー_1" data-name="レイヤー 1" xmlns="http://www.w3.org/2000/svg" viewBox="0 0 90.24 14.81"><defs><style>.cls-1{fill:#b81c22}.cls-2{fill:none;stroke:#000;stroke-miterlimit:10}</style></defs><title>txt_okaki_memo</title><path class="cls-1" d="M32 7.92A3.07 3.07 0 0 1 34.38 6a1 1 0 0 1 1.17 1.13 6.08 6.08 0 0 1-.62 2.41 7.16 7.16 0 0 0-.67 2.14.22.22 0 0 0 .23.24c.4 0 .94-.58 1.27-1.46a.12.12 0 0 1 .11-.07c.09 0 .28.08.24.22-.27.94-1.15 2-2.1 2-.54 0-.77-.22-.77-.81a7.74 7.74 0 0 1 .67-2.52 6.25 6.25 0 0 0 .59-2.2c0-.35-.12-.5-.46-.5-.71 0-1.71 1.13-2.19 2.35-.26.66-1 3-1.08 3.41 0 .08-.16.16-.38.16s-.65-.09-.65-.23a2.28 2.28 0 0 1 .12-.59l.67-2.21a13.87 13.87 0 0 0 .61-2.39c0-.35-.12-.5-.46-.5C30 6.64 29 7.78 28.51 9c-.26.66-1 3-1.08 3.41 0 .08-.16.16-.38.16s-.65-.09-.65-.23a2.26 2.26 0 0 1 .12-.59l.67-2.21A16.66 16.66 0 0 0 27.87 7c0-.28-.09-.36-.23-.36-.41 0-.94.58-1.27 1.46a.12.12 0 0 1-.11.07c-.09 0-.28-.08-.24-.22A2.49 2.49 0 0 1 28.15 6c.49 0 .66.38.66.86a4.33 4.33 0 0 1-.17 1A3.06 3.06 0 0 1 31.11 6c.69 0 1 .35 1 .94a3.61 3.61 0 0 1-.11.98z"/><path d="M39.62 9.72a5.48 5.48 0 0 0-.23 1.38c0 .7.3 1 .86 1a2.41 2.41 0 0 0 1.92-1.52c0-.11.05-.13.15-.13s.3.08.26.22a2.84 2.84 0 0 1-2.7 2.05A1.63 1.63 0 0 1 38.25 11c0-2.48 2.13-5 4.17-5 .84 0 1.16.45 1.16 1.05 0 1.04-1.34 2.02-3.96 2.67zm2.62-3.1c-.75 0-1.85.94-2.46 2.62 1.77-.5 2.87-1.32 2.87-2.2a.38.38 0 0 0-.41-.42zm9.04 1.3A3.07 3.07 0 0 1 53.68 6a1 1 0 0 1 1.17 1.13 6.07 6.07 0 0 1-.62 2.41 7.14 7.14 0 0 0-.67 2.14.22.22 0 0 0 .23.24c.4 0 .94-.58 1.27-1.46a.12.12 0 0 1 .11-.07c.09 0 .28.08.24.22-.27.94-1.15 2-2.1 2-.54 0-.77-.22-.77-.81a7.74 7.74 0 0 1 .67-2.52 6.24 6.24 0 0 0 .59-2.2c0-.35-.12-.5-.46-.5-.71 0-1.71 1.13-2.18 2.35-.26.66-1 3-1.08 3.41 0 .08-.16.16-.38.16s-.65-.09-.65-.23a2.26 2.26 0 0 1 .12-.59l.67-2.21a13.84 13.84 0 0 0 .61-2.39c0-.35-.12-.5-.46-.5-.71 0-1.71 1.13-2.19 2.35-.26.66-1 3-1.08 3.41 0 .08-.16.16-.38.16s-.65-.09-.65-.23a2.28 2.28 0 0 1 .12-.59l.67-2.21a16.69 16.69 0 0 0 .7-2.47c0-.28-.09-.36-.23-.36-.4 0-.94.58-1.27 1.46a.12.12 0 0 1-.11.07c-.09 0-.28-.08-.24-.22A2.49 2.49 0 0 1 47.45 6c.49 0 .66.38.66.86a4.27 4.27 0 0 1-.18 1A3.06 3.06 0 0 1 50.42 6c.69 0 1 .35 1 .94a3.65 3.65 0 0 1-.14.98zm8.18 4.79c-.71 0-1.9-.27-1.9-2.06S59.2 6 61.28 6c.92 0 1.89.53 1.89 2.16s-1.47 4.55-3.71 4.55zm1.83-6.16c-1.36 0-2.68 2.85-2.68 4.69 0 .74.24 1 .8 1 1.33 0 2.67-2.74 2.67-4.55-.01-.87-.24-1.14-.79-1.14z"/><path class="cls-2" d="M89.85 14.5L78.56.5h-67L.39 14.5"/></svg>