<svg id="レイヤー_1" data-name="レイヤー 1" xmlns="http://www.w3.org/2000/svg" viewBox="0 0 202.99 221.64"><defs><style>.cls-1{fill:#040000}.cls-2,.cls-3{fill:none;stroke:#000;stroke-miterlimit:10}.cls-2{stroke-linecap:square}.cls-3{stroke-width:2px}</style></defs><title>txt_kodawari_1</title><path class="cls-1" d="M87.64 97.87v6.35c1.74-.73 3.4-1.5 5.06-2.31a1.52 1.52 0 0 1 .57-.16c.08 0 .12 0 .12.08 0 .32-2.51 1.94-5.75 3.93 0 2.79 0 5.46.08 7.77 0 .77.16 4 .16 4.9a4.14 4.14 0 0 1-4.25 4.17c-.32 0-.4-.08-.61-.45-.57-1-3.32-2.67-3.32-3h.16a1.39 1.39 0 0 1 .36 0 14.62 14.62 0 0 0 3.16.49c1.46 0 1.94-.57 2-1.74.08-2.75.08-6.68.08-10.76-1.21.73-2.51 1.42-3.93 2.19-.32.16-.4.61-.69.61-.45 0-2.51-2.51-2.51-2.87h.24a24.48 24.48 0 0 0 6.88-1.9v-7.2c-1.38 0-3 .12-5 .36-.49 0-1.66-1.5-1.66-1.94a54.31 54.31 0 0 0 6.68.57c-.16-6.56-.2-7.77-.53-9.27a.79.79 0 0 1 0-.28s0-.08.08-.08c.36 0 4.61.65 4.61 1.5 0 .32-.36.69-.77.89-.85.45-.85.08-.93 2.06-.08 1.5-.12 3.24-.16 5.18h.77a.69.69 0 0 0 .49-.32c1.21-1.66 1.38-1.86 1.7-1.86.85 0 2.91 2.19 2.91 2.79 0 .24-.16.4-.77.4zM103.7 96v6.68h2.47a1.11 1.11 0 0 0 .73-.32 3.2 3.2 0 0 1 .69-.61.58.58 0 0 1 .28-.08 1.25 1.25 0 0 1 .32.08c.24.08 2.91 1.42 2.91 2.19 0 .28-.24.57-.81.85s-.81.16-1.09.85a31.46 31.46 0 0 1-5.14 8.94 19 19 0 0 0 11.94 5.71c.28 0 .4.08.4.12 0 .32-3.24 1-4.37 2.1a.37.37 0 0 1-.32.12c-.49 0-5-1.46-8.9-6.52a23.22 23.22 0 0 1-14.69 7.28c-.16 0-.28 0-.28-.08s.53-.32 1.42-.61a24.54 24.54 0 0 0 12.34-8.34 25.35 25.35 0 0 1-3.84-10.48c-.89 0-1.7.12-2.35.16-.61 0-1.82-1.46-1.82-1.94 2.87.32 5.79.53 7.85.57 0-2.35.08-4.69.08-6.68a63.84 63.84 0 0 0-7.12.36c-.65 0-1.62-1.5-1.62-1.94a72.5 72.5 0 0 0 8.78.57v-2.06a33.83 33.83 0 0 0-.36-5.75.91.91 0 0 1 0-.28.11.11 0 0 1 .12-.12c.28 0 4.53.65 4.53 1.54 0 .28-.36.65-1 .93-.93.45-.93.61-.93 5.75h4.9a.91.91 0 0 0 .57-.36c.2-.32 1.42-2.15 1.9-2.15h.28c.89.32 3.28 2.23 3.28 3 0 .24-.2.44-.89.44zm-1.09 7.69c-1.09 0-2.75.08-4.29.16a25 25 0 0 0 4.33 9.06 25.81 25.81 0 0 0 4-8.94c0-.2-.12-.28-.45-.28zm28.14-16.37c.32-.51.49-.61.49-.78s-.2-.19-.43-.19c-.07 0-.12-.07-.12-.19s.07-.35.16-.35h2.91c.16 0 .19.07.19.26s0 .3-.14.3a2.83 2.83 0 0 0-3 2.75 1.84 1.84 0 0 0 1.91 1.88c1.38 0 1.81-1.19 2.29-2.4s1.07-2.52 2.85-2.52a2.62 2.62 0 0 1 2.58 2.72 2.74 2.74 0 0 1-.3 1.38c-.22.43-.3.53-.3.63s.07.26.28.27.08.05.08.11 0 .28-.09.28h-2.52c-.12 0-.18-.05-.18-.28s0-.27.19-.27a2.09 2.09 0 0 0 2.29-2.13 1.48 1.48 0 0 0-1.52-1.62c-1.15 0-1.51 1-2 2.1-.51 1.35-1.09 2.86-3.16 2.86a2.89 2.89 0 0 1-3-3.1 3 3 0 0 1 .54-1.71zm4.37 11.01l-.54-.73h-2.41c-.71 0-1.11.08-1.11 1.12 0 .08-.11.11-.23.11s-.27 0-.27-.13v-3.85c0-.08.08-.09.24-.09s.26 0 .26.09c0 1 .27 1.32 1.07 1.32h6.5c.7 0 1.05-.31 1.05-1.35 0-.07.08-.09.23-.09s.27 0 .27.12c0 .34-.07 1-.07 2.08s.07 1.47.07 1.82c0 .09-.11.11-.26.11s-.24 0-.24-.11c0-1-.35-1.09-1.11-1.09h-3.39a19.13 19.13 0 0 0 3.6 3.43 1.11 1.11 0 0 0 .57.23c.24 0 .32-.22.32-.63 0-.08.11-.11.28-.11s.22 0 .22.11c0 .34-.07 1-.07 1.62 0 .86.07 1.42.07 1.69 0 .09-.07.12-.23.12s-.27 0-.27-.12a2.28 2.28 0 0 0-.86-1.82c-.55-.51-2.12-2.06-2.81-2.83-3 2.63-4.49 4.32-4.82 5.11a2.41 2.41 0 0 0-.12.71c0 .05-.11.08-.23.08s-.28 0-.28-.11v-3.94c0-.07.05-.09.27-.09s.23 0 .23.12c0 .47.09.61.23.61s.28-.15.46-.34c.57-.69 1.96-1.97 3.38-3.17zm-4.06 13.5c0 .08-.12.11-.24.11s-.26 0-.26-.13v-4.08c0-.08.08-.09.24-.09s.26 0 .26.09c0 1 .27 1.32 1.07 1.32h6.5c.7 0 1.05-.31 1.05-1.35 0-.07.08-.09.23-.09s.27 0 .27.12c0 .34-.07 1-.07 2.08s.07 1.71.07 2.06c0 .09-.11.11-.26.11s-.24 0-.24-.11c0-1-.47-1.31-1.11-1.31-.92 0-3.61-.08-6.41-.08-.71.02-1.1.31-1.1 1.35zm-.5 3.08c0-.08.08-.09.24-.09s.26 0 .26.09c0 1 .27 1.32 1.07 1.32h6.5c.7 0 1.05-.31 1.05-1.35 0-.07.08-.09.23-.09s.27 0 .27.12c0 .34-.07 1-.07 2.08s.07 1.71.07 2.06c0 .09-.11.11-.26.11s-.24 0-.24-.11c0-1-.47-1.31-1.11-1.31-1.27 0-4.52-.09-5.71-.09-1.38 0-1.66.69-1.66 1.78 0 1.74.81 2.66 2.06 2.82.16 0 .19.09.19.26s-.05.28-.15.28c-.47 0-1.65-.09-2.52-.09-.22 0-.26-.09-.26-.28 0-.65.07-4 .07-5.42.01-1.06-.03-1.77-.03-2.09zm0 10.41c0-.08.08-.09.24-.09s.26 0 .26.09c0 1 .27 1.32 1.07 1.32h6.5c.7 0 1.05-.31 1.05-1.35 0-.07.08-.09.23-.09s.27 0 .27.12c0 .34-.07 1-.07 2.08s.07 1.71.07 2.06c0 .09-.11.11-.26.11s-.24 0-.24-.11c0-1-.47-1.31-1.11-1.31-1.27 0-4.52-.09-5.71-.09-1.38 0-1.66.69-1.66 1.78 0 1.74.81 2.66 2.06 2.82.16 0 .19.09.19.26s-.05.28-.15.28c-.47 0-1.65-.09-2.52-.09-.22 0-.26-.09-.26-.28 0-.65.07-4 .07-5.42.01-1.06-.03-1.76-.03-2.09z"/><path class="cls-2" d="M9.2 25.72h184.59L177.27 9.2v203.24l16.52-16.52H9.2l16.52 16.52V9.2L9.2 25.72z"/><path class="cls-3" d="M184.99 0v221.64M0 18h202.99M18 221.64V0m184.99 203.64H0"/></svg>