<svg id="design" xmlns="http://www.w3.org/2000/svg" viewBox="0 0 248.99 210.63"><defs><style>.cls-1{fill:#040000}</style></defs><title>txt_top_c3</title><path class="cls-1" d="M189.79 18.56c-2.24 0-7.4.08-11 .44-.72 0-1.88-1.56-1.88-2.08 4.12.48 10.64.64 13 .64h.28V12.2c0-.8 0-3.52-.16-4.64-2.16 0-5.84.12-9 .44-.68 0-1.76-1.52-1.76-2a110 110 0 0 0 11.32.64h5.16s0-.08.08-.12a22 22 0 0 0 2.8-6.12c0-.28.08-.36.16-.36s3.6 1.84 3.6 2.64c0 .32-.28.56-.92.56h-.4a1.34 1.34 0 0 0-1 .44c-.88.76-2.32 2-3.56 3h6.16a.81.81 0 0 0 .64-.36c.52-.72 1.64-2 2.08-2S209 5.88 209 7.08c0 .24-.2.48-.84.48h-8.8a.41.41 0 0 1 .28.36c0 .2-.24.44-.68.64s-.56.8-.56 6v3h7.2a.81.81 0 0 0 .64-.36c.44-.76 1.64-2.16 2.12-2.16a.51.51 0 0 1 .24 0c1.36.52 3.4 2.32 3.4 3 0 .24-.16.48-.84.48zM185 14.4a11.87 11.87 0 0 0-2.52-3.68c-.28-.24-.4-.4-.4-.44s0-.08.12-.08c1.76 0 5.76 1.48 5.76 3.92a1.58 1.58 0 0 1-1.44 1.68c-.52 0-1.13-.4-1.52-1.4zm15.88 19.12h-12.8V35a1.45 1.45 0 0 1-1.52 1.28 1 1 0 0 1-1.12-1.12V35c.2-3.6.32-6.16.32-9a36.74 36.74 0 0 0-.52-4.92v-.24a.11.11 0 0 1 .12-.12A18.68 18.68 0 0 1 189 22.4h11.08a.59.59 0 0 0 .52-.24c.88-1 1-1 1.28-1 .56 0 3 1.44 3 2.28 0 .4-.52.68-1 .92-.6.32-.68.56-.68 1.6v1.36c0 2.8.16 5 .28 7.36v.08a1.57 1.57 0 0 1-1.56 1.48 1 1 0 0 1-1-1.12zM189.31 4.64a13.37 13.37 0 0 0-2.52-3.4c-.2-.2-.32-.32-.32-.4s.08-.08.24-.08c1.64 0 5.52 1.32 5.52 3.56a1.52 1.52 0 0 1-1.4 1.6c-.56 0-1.12-.36-1.52-1.28zm-.24 18.8a2.24 2.24 0 0 1-.32.24c-.68.44-.76.8-.76 3.56h13c0-1.16 0-2.28-.08-3.4a.37.37 0 0 0-.32-.4zM188 28.28c0 1.24 0 2.64.08 4.2h12.88v-4.2zm8.2-10.72V12.2c0-.8 0-3.52-.16-4.64h-2.76a.41.41 0 0 1 .28.36c0 .2-.24.44-.68.64s-.56.8-.56 6v3zm10.4-5.64a1.79 1.79 0 0 1-.44 0h-.28c-.36 0-.44.2-.76.48-5.2 4.48-5.36 4.6-5.72 4.6a.09.09 0 0 1-.08-.08c0-.08.12-.24.32-.52A37.41 37.41 0 0 0 203 11a9.89 9.89 0 0 0 .76-2c.08-.28.08-.4.16-.4.32 0 3.44 2.2 3.44 2.88.03.28-.21.44-.77.44zm-24.05 51.4c0 2-.08 4.16-.08 6.28 3.64-.88 7.88-2 10.44-2.88a4.06 4.06 0 0 1 .88-.2c.08 0 .16 0 .16.08 0 .72-9.72 4.48-11.48 5.16v7.16a1.58 1.58 0 0 1-1.64 1.44 1 1 0 0 1-1.08-1.12v-.16c.12-1.84.2-4 .28-6.36l-1.4.52c-.36.16-.48.52-.76.52-.6 0-2.2-3.12-2.2-3.24h1.08a14.6 14.6 0 0 0 3.36-.36c.12-3.92.16-8.08.16-11.64v-4.76a43.85 43.85 0 0 0-.44-6.08.9.9 0 0 1 0-.28c0-.08 0-.08.08-.08a27.56 27.56 0 0 1 3.72 1.68c4-1.8 5.24-2.72 5.76-3.64.08-.12.12-.2.2-.2s2.68 2.2 2.68 3.08c0 .24-.24.4-.68.4a3.52 3.52 0 0 1-.84-.12 1.57 1.57 0 0 0-.52-.12 1 1 0 0 0-.32 0c-.84.28-3.8 1-6.2 1.6-1 .68-1 .72-1 2l-.08 3.52h3.08a.76.76 0 0 0 .56-.28 17.56 17.56 0 0 1 1.44-2.08.45.45 0 0 1 .32-.12h.28c1.24.52 3 2.32 3 2.88 0 .24-.16.52-.84.52h-7.8c0 1.68 0 3.68-.08 5.84h3.16a.76.76 0 0 0 .56-.28 17.56 17.56 0 0 1 1.4-2 .45.45 0 0 1 .32-.12h.28c1.24.52 3 2.32 3 2.88 0 .24-.16.52-.84.52zm20.68-1.24a.65.65 0 0 0 .56-.28 4.21 4.21 0 0 1 .76-.72.57.57 0 0 1 .24-.08c.48 0 3.08 1.6 3.08 2.32 0 .28-.28.6-1 .84s-.8.12-1.12.92a24.22 24.22 0 0 1-4.72 7.44 20.46 20.46 0 0 0 11.76 4.92c.28 0 .4.08.4.12 0 .32-3.2 1-4.32 2a.36.36 0 0 1-.32.12c-.8 0-5.4-1.92-8.84-5.92-5.8 5.28-14.24 6.72-15.12 6.72-.2 0-.28 0-.28-.08s.44-.32 1.2-.56a29.06 29.06 0 0 0 12.88-7.8 21.51 21.51 0 0 1-3.48-8.8c-.52 0-1 .12-1.64.16-.64 0-1.84-1.52-1.84-2a87 87 0 0 0 9.28.64zm-5.36-13.72c-.88.56-.88.6-.88 1.44-.08 9.48-6.6 10.92-6.64 10.92 0-.08.2-.28.52-.56 3.48-3.08 3.72-7 3.8-10.48a27.44 27.44 0 0 0-.32-3.64v-.2a25.27 25.27 0 0 1 3.28 1.36c.08 0 .16.12.24.16h3.6c.2 0 .4-.32.48-.4s.48-.6.56-.68a.29.29 0 0 1 .24-.08c.08 0 2.72 1.2 2.72 2.08a.71.71 0 0 1-.48.64c-.52.28-.92.28-1 .76 0 1.2-.12 2.56-.12 3.8 0 2.6.08 3 2.16 3a13.76 13.76 0 0 0 2.44-.16c.92-.2 1.12-1.76 1.68-4.88 0-.12 0-.2.08-.2.2 0 .44 4 .92 4.24a1.38 1.38 0 0 1 .68 1.16c0 1.8-3.16 1.88-6.08 1.88-2.48 0-4.08-.24-4.08-3.24 0-1.64.12-3.8.12-6.48a.47.47 0 0 0-.4-.4zm2.68 14.72c-1.48 0-3 0-5 .16a19 19 0 0 0 3.88 7.64 23.11 23.11 0 0 0 4-7.64c0-.12-.08-.16-.28-.16zm-18.12 36.76c-3.92 5.56-7.08 8-7.48 8 0 0-.08 0-.08-.08s.12-.24.32-.48c3-3.36 9-12.56 9.56-17.6 0-.2 0-.28.12-.28.28 0 3.92 1.32 3.92 2.12 0 .28-.32.52-1.12.76-.56.16-.64.24-1 1-.92 1.64-2 3.36-3.08 5 2.36.52 2.92.64 2.92 1 0 .24-.32.48-.84.72-.84.4-.88.4-.92 1.68-.12 3.28-.2 7.72-.2 12.2 0 3 0 6.12.12 8.88a1.69 1.69 0 0 1-1.76 1.68c-.64 0-1.2-.4-1.2-1.36v-.2c.48-5.6.76-13.32.76-18.4v-4.64zm23.57 9.84v-.84h-5.76a17.57 17.57 0 0 1-2.36 8 18.55 18.55 0 0 0 12 3.92 21.8 21.8 0 0 0 3.2-.2h.36c.08 0 .24 0 .24.12 0 .36-2.56 1.72-3.4 2.56-.28.28-.28.56-.88.56-1.32 0-8-.8-12.4-5.6-3.72 4.68-10.88 5.92-11.8 5.92-.16 0-.24 0-.24-.08s.48-.4 1.08-.6c5-1.6 8-3.64 9.84-6.64a12.57 12.57 0 0 1-1.88-4s-.08-.24-.12-.48a29.55 29.55 0 0 0-1.88 3.28c-.12.32 0 1-.44 1a5.49 5.49 0 0 1-2.2-1.48c0-.08.08-.12.24-.24a8.58 8.58 0 0 0 3.6-3.92 1.06 1.06 0 0 1 1.08-.8c1 0 1.12.4 1.12.6s-.16.36-.56.56a.15.15 0 0 0-.12 0c-.08.12-.08.16-.08.44a8.29 8.29 0 0 0 1.88 3.68 18.66 18.66 0 0 0 1.48-6.6h-5.56v.8c0 .84-.88 1.16-1.44 1.16a.92.92 0 0 1-1-1v-.12c.2-2.4.28-3.88.28-5.48a29.44 29.44 0 0 0-.4-4.6.78.78 0 0 1 0-.28.09.09 0 0 1 .08-.08 12.29 12.29 0 0 1 3.4 1.4H198v-4.36c-2.2 0-5.68.08-9 .4-.76 0-2-1.52-2-2a110.2 110.2 0 0 0 11.08.6v-1.4a19.37 19.37 0 0 0-.4-4.4.44.44 0 0 1 0-.2c0-.12.08-.16.24-.16.44 0 4 .44 4 1.24 0 .4-.56.8-.8.92-.8.28-.64.48-.72 2.6v1.4h5a.89.89 0 0 0 .68-.36c1.64-2.36 2-2.36 2.16-2.36.72 0 3.64 2.28 3.64 3.2 0 .28-.2.52-.84.52h-10.6v4.44h4.88a.52.52 0 0 0 .48-.24c.76-.92.92-1 1.24-1 .48 0 2.92 1.4 2.92 2.28 0 .4-.44.68-.88.92s-.72.6-.72 1.64v.4c0 1.56.2 3.2.28 4.72a1.37 1.37 0 0 1-1.44 1.36 1 1 0 0 1-1-1zm-8-7.92h-4.76a1.71 1.71 0 0 1-.28.2c-.6.4-.64.44-.64 3.48v2.36H198v-2.32zm8 6v-2.88c0-.88 0-1.8-.08-2.72a.46.46 0 0 0-.44-.44h-5.28v6.04zm-21 37.64a15.07 15.07 0 0 1-.4 2.8 17.54 17.54 0 0 0-.36 3.52c0 6.76 4 8 4.68 8a1.44 1.44 0 0 0 1.28-.76c.8-1.36 1.76-3.72 2.48-5.24.44-.88.68-1.2.76-1.2s.08.08.08.16a7 7 0 0 1-.24 1.36 26.69 26.69 0 0 0-.76 5.72c0 .68 0 1.16.08 1.64v.24c0 1.2-.88 1.72-2 1.72a6.41 6.41 0 0 1-3.8-1.48c-3.48-2.88-4.68-6.6-4.68-11.92 0-.84 0-1.72.08-2.64 0-.68.08-1.4.08-2a13.9 13.9 0 0 0-.28-3 2.93 2.93 0 0 1-.08-.48c0-.24.12-.36.28-.36a3.92 3.92 0 0 1 2.8 3.92zm21.6 8.2a8.81 8.81 0 0 0-6.28-7.84c-1.16-.28-1.72-.56-1.72-.72s.28-.16.8-.16c5.52 0 10.16 4.24 10.16 8.2 0 1.44-.8 2.16-1.6 2.16-.61 0-1.25-.52-1.33-1.64zM195.47 189c0 8.76-7 17.68-10.44 17.68-2 0-2.68-2.68-4.32-5a6.22 6.22 0 0 1-1-3.64c0-6.08 5.32-15.72 16.12-15.72 9.08 0 13.76 6.28 13.76 12.8 0 12.16-13.92 15.6-17.2 15.6-.36 0-.56-.08-.56-.16s.64-.52 1.8-.84c10.52-2.84 13.36-9.8 13.36-14.76 0-5.92-4.08-11.32-11.68-11.32-.48 0-1 0-1.44.08 1.04.64 1.6 2.68 1.6 5.28zm-1.4-1.44c0-2.88-.68-3.56-1.56-3.56a1.5 1.5 0 0 0-.4 0 1 1 0 0 1-.32 0 14.13 14.13 0 0 0-10 13c0 3.52 1.76 6.2 3.68 6.2 2.64.04 8.6-8.32 8.6-15.68zM146 24.36v.2c0 2.12-.84 3.08-1.64 3.08a1.49 1.49 0 0 1-1.24-.88 5.34 5.34 0 0 0-3.24-2 9.84 9.84 0 0 1-2.28 1.08 6.09 6.09 0 0 1-1.68.28c-1 0-1.36-.4-1.36-1s1-2.2 1.6-2.2c.12 0 .2.08.32.12s.2.2.44.2 1.6-.36 7.44-4.08v-2.8c0-1.68 0-3.32-.12-4.88a11.19 11.19 0 0 1-4.92 1.36c-2.76 0-3.44-1.64-3.44-2.52 0-.16 0-.24.16-.24a2 2 0 0 1 .56.16 10.05 10.05 0 0 0 3 .44 8.79 8.79 0 0 0 4.52-1.28c-.28-4.64-.48-6.08-2.44-6.08-.52 0-.72-.12-.72-.32a1.59 1.59 0 0 1 1.72-1.2c1.32 0 3.2 1 3.2 2.68a9.4 9.4 0 0 1 0 1 13.83 13.83 0 0 0 2.6.52 1.11 1.11 0 0 1 1.16 1.16c0 1.44-1.68 2.4-3.88 3.56 0 2.44.08 5 .12 7.48 3.12-2 6.36-3.56 10-3.56 4.28 0 6.52 2 6.52 4.72 0 4.2-4.92 7-8.32 7-2.48 0-4.16-1.4-4.16-4 0-2.4 1.48-5 1.72-5 .08 0 .12.08.12.28a5.26 5.26 0 0 1-.2 1.08 8.22 8.22 0 0 0-.32 2.08c0 1.88 1 3.16 3 3.16 3 0 6-2.28 6-5 0-2.44-2.72-3.32-5-3.32-3.44 0-6.48 2-9.32 4.32-.01 1.6-.01 3.04.08 4.4zm-5.44 0a19.91 19.91 0 0 0 2.44.24c1.08 0 1.12-.32 1.16-.88.08-.76.08-1.56.12-2.32-1.28 1.04-2.57 2.08-3.77 2.92zM145.8 8.6a12.45 12.45 0 0 0 1.2-.8.93.93 0 0 0 .28-.56c0-.32-.36-.64-1.44-1.2v1.32zm16.84 1.72a8.09 8.09 0 0 0-2.08.92 1.65 1.65 0 0 1-.56.24c-.08 0-.12 0-.12-.08a1.05 1.05 0 0 1 .32-.48 4.31 4.31 0 0 0 1.24-2.4c0-.32-.16-1.24-2-1.24a4.93 4.93 0 0 0-2.8 1 2 2 0 0 1-.88.4c-.08 0-.12 0-.12-.08A6.36 6.36 0 0 1 161 5.72c2.48 0 4.76 1.44 4.76 3.08 0 .52-.36.84-.88 1.08-.88.24-.88-.04-2.29.4zm-17.25 42a7 7 0 0 1 2.4-.52c2.2 0 4.08 1.4 4.08 6.68 0 8.32-4.4 12.64-8.48 12.64a4.25 4.25 0 0 1-1.48-.24c-1.76-.56-1-2-1.48-3.52a6.47 6.47 0 0 1-.32-1.36c0-.12 0-.16.08-.16s.52.36 1 1.08a3.57 3.57 0 0 0 2.84 1.6c3.4 0 5.8-5.64 5.8-10.84 0-2.72-.64-4.6-2.32-4.6a5.71 5.71 0 0 0-3 1.36c-1.92 4.56-5.12 11-7.36 15.12a3.7 3.7 0 0 1-2.72 2.2.81.81 0 0 1-.88-.92 5.15 5.15 0 0 1 1.24-2.68 79.79 79.79 0 0 0 8-13.16 17.29 17.29 0 0 1-5 1.72 2.94 2.94 0 0 1-3.12-2.92c0-1.32.24-1.44.32-1.44s.48.36.76.76a2.94 2.94 0 0 0 2.48.88 15.76 15.76 0 0 0 5.36-1 17.75 17.75 0 0 0 .76-4.4c0-1.28-.32-2.2-1.28-2.36-.48-.08-.88-.28-.88-.56 0-.56 1.68-1.36 2.52-1.36.56 0 2.08.2 2.08 2.52a19.86 19.86 0 0 1-1.28 5.2zm16.52 10.4a3 3 0 0 0-1.44-.2h-2.2c-.88 0-1.24-.08-1.24-.2s.48-.28 1.16-.4c2.8-.56 4.44-1.24 4.44-3.4 0-3.08-3.2-4.08-5.28-4.92-.88-.32-1.32-.52-1.32-.64s.2-.08.52-.08c5.32 0 8.84 2.84 8.84 6.28 0 2-1.24 3.72-2.68 3.72a1.69 1.69 0 0 1-.8-.16zm-16.36 40.08c-2.72 0-4.68-.88-5.68-3.8a1.8 1.8 0 0 1-.16-.68c0-.12 0-.2.16-.2a1.39 1.39 0 0 1 .68.4 8.71 8.71 0 0 0 5.88 2.24 18.86 18.86 0 0 0 5.68-1c-.6-1.4-1.2-2.84-1.88-4.24a9.35 9.35 0 0 1-2.6.4c-4.2 0-6.2-2.92-6.2-4 0-.12 0-.16.12-.16s.52.24.8.36c1.28.68 3.12 1.92 5.28 1.92a6.25 6.25 0 0 0 1.68-.28 26.37 26.37 0 0 0-4.44-6.08 3.61 3.61 0 0 0-2.52-1.32c-.32 0-.48-.2-.48-.4s.64-1.16 2-1.16c2.12 0 3.16 1.28 6.56 8.56a4.29 4.29 0 0 0 1-.52 4.24 4.24 0 0 1 2-1 .88.88 0 0 1 .88.92c0 .76-.88 1.56-3 2.36.64 1.44 1.28 2.8 1.92 4.16 1.44-.56 2-1 2-1.4s-.24-.84-1.16-1.52c-.48-.36-.72-.56-.72-.68s0-.08.12-.08a5.08 5.08 0 0 1 1.24.44 11.73 11.73 0 0 0 2.72.92c.84 0 1.36.4 1.36 1 0 1.08-2.64 2.4-4.76 3.16a50.41 50.41 0 0 0 2.56 4.6 4.71 4.71 0 0 1 .84 2.56 2.63 2.63 0 0 1-2.4 2.84c-.64 0-.72-.4-1-.72-.48-.68-4.08-1.68-7-1.68-3.88 0-5 2.28-5 3.28s1.2 3.68 5.72 3.68a10.82 10.82 0 0 0 2.88-.4 2 2 0 0 1 .68-.12 1.49 1.49 0 0 1 1.6 1.32c0 1-1.4 1.72-4.4 1.72-6.12 0-8.16-3.68-8.16-5.72 0-.84.32-4.72 8.2-4.72 2.24 0 4.44.24 5.4.28h.08a.88.88 0 0 0 1-.92 2.4 2.4 0 0 0-.28-1.08c-.68-1.4-1.32-2.92-2-4.48a28.37 28.37 0 0 1-7.2 1.24zm93.78-81.39c-3-.89-4-1.81-4-3.44 0-1.19.51-1.63 1.09-1.63a.6.6 0 0 1 .65.59.49.49 0 0 1-.54.5.55.55 0 0 0-.62.59c0 .69.51 1.55 3.24 2.31l5.48 1.52v-.73c0-.11 0-.09.15-.09.27 0 .35 0 .35.14v.81l1.56.46c1.88.55 2.27 1.63 2.27 2.55 0 1.13-.47 1.58-1.07 1.58a.57.57 0 0 1-.58-.53.48.48 0 0 1 .53-.49c.34 0 .53-.15.53-.63s-.7-1.08-3.24-1.81v1.17c0 .25 0 .15-.2.15s-.3-.07-.3-.15v-1.31zm-.52 5.75c0-.71.27-1.9 2.06-1.9s4.6 1.65 4.6 3.72c0 .92-.53 1.89-2.16 1.89s-4.5-1.48-4.5-3.71zM245 29c0-1.36-2.85-2.68-4.69-2.68-.74 0-1 .24-1 .8 0 1.33 2.74 2.67 4.55 2.67.85-.02 1.14-.25 1.14-.79zm.48 8.8c0 .47-.35.69-.89.69s-.8-.28-.8-.62a.34.34 0 0 1 .36-.38c.23 0 .39-.11.39-.27 0-.32-.49-1.05-2.52-1.87a24.09 24.09 0 0 0-2.9-.89c-.08 0-.16-.16-.16-.38s.09-.65.23-.65a2.31 2.31 0 0 1 .59.12l2.21.67a16.68 16.68 0 0 0 2.48.67c.28 0 .36-.09.36-.23 0-.4-.58-.94-1.46-1.27a.12.12 0 0 1-.07-.11c0-.09.08-.28.22-.24a2.49 2.49 0 0 1 1.94 2.12c0 .49-.4.66-.89.66a4.88 4.88 0 0 1-1.05-.19c1.16.67 1.96 1.37 1.96 2.17zm-.06 15.97a3.26 3.26 0 0 0 3-3.55c0-1.92-1.44-3.47-4.5-3.47-2.74 0-4.33 1.5-4.33 3.52a3.46 3.46 0 0 0 3 3.47c.13 0 .15.05.15.26s-.05.24-.15.24-1.15-.12-1.94-.12h-.86c-.08 0-.15-.08-.15-.26s0-.26.15-.26.35-.05.35-.2a.75.75 0 0 0-.19-.39 4.67 4.67 0 0 1-1-3 5 5 0 0 1 10.08.15 4.41 4.41 0 0 1-1 3 .42.42 0 0 0-.15.27c0 .2.27.39.42.39s.16.05.16.24 0 .24-.16.24-.8-.07-1.46-.07-1.29.07-1.42.07-.15-.07-.15-.24.01-.29.15-.29zm-6.05 5.57c-.16 0-.27 0-.27-.13 0-.34.05-.63.05-1.39s-.05-1.13-.05-1.33.08-.09.24-.09.26 0 .26.12c0 .49.36.78 1 1.15.42.23 7.63 3.39 8 3.45.2.05.28.13.28.32s-.07.23-.24.3c-.93.32-7.65 3.08-8.4 3.59a1.16 1.16 0 0 0-.69 1.09c0 .08-.11.11-.23.11s-.27 0-.27-.13c0-.34.05-.89.05-2s-.05-1.75-.05-2.08c0-.08.08-.09.24-.09s.26 0 .26.09c0 1 .2 1.21.7 1.21a1 1 0 0 0 .38-.08l2.06-.84v-1.63c0-.7 0-1.31.05-1.74-.57-.23-1-.45-1.44-.59a2.83 2.83 0 0 0-1-.27c-.51 0-.69.32-.69.84-.01.09-.11.12-.24.12zm3.92.11v2.92l3.44-1.4c-.45-.23-2.01-.97-3.43-1.52zm-3.98 10.96c.32-.51.49-.61.49-.78s-.2-.19-.43-.19c-.07 0-.12-.07-.12-.19s.07-.35.16-.35h2.91c.16 0 .19.07.19.26s0 .3-.14.3a2.83 2.83 0 0 0-3 2.75 1.84 1.84 0 0 0 1.88 1.94c1.38 0 1.81-1.19 2.29-2.4s1.07-2.52 2.85-2.52a2.62 2.62 0 0 1 2.61 2.69 2.74 2.74 0 0 1-.3 1.38c-.22.43-.3.53-.3.63s.07.26.28.27.08.05.08.11 0 .28-.09.28h-2.52c-.12 0-.18-.05-.18-.28s0-.27.19-.27a2.09 2.09 0 0 0 2.29-2.13 1.48 1.48 0 0 0-1.52-1.62c-1.15 0-1.51 1-2 2.1-.51 1.35-1.09 2.86-3.16 2.86a2.89 2.89 0 0 1-3-3.1 3 3 0 0 1 .54-1.74zM242 86.83c-1.59 0-3.13-1.08-3.13-4.13a3.29 3.29 0 0 1 3.48-3.58h4.72c.7 0 1.12-.3 1.12-1.32 0-.09.08-.12.23-.12s.27 0 .27.15c0 .28-.07.9-.07 2s.07 1.94.07 2.06-.08.12-.24.12-.26 0-.26-.12c0-1-.27-1.28-1.08-1.31s-2.94-.07-4.9-.07c-1.58 0-2.48 1.08-2.48 2.8 0 1.89.93 2.78 2.47 2.78 1.12 0 4.28-.07 4.71-.07.9 0 1.28-.28 1.28-1.31 0-.08.09-.11.22-.11s.28 0 .28.14c0 .35-.07 1-.07 1.7s.07 1.4.07 1.7c0 .07-.08.11-.23.11s-.27-.05-.27-.11c0-.93-.46-1.33-1.38-1.33zm-2.63 5.34c-.16 0-.27 0-.27-.13 0-.34.05-.63.05-1.39s-.05-1.13-.05-1.33.08-.09.24-.09.26 0 .26.12c0 .49.36.78 1 1.15.42.23 7.63 3.38 8 3.45.2.05.28.13.28.32s-.07.23-.24.3c-.93.32-7.65 3.08-8.4 3.59a1.16 1.16 0 0 0-.69 1.09c0 .08-.11.11-.23.11s-.27 0-.27-.13c0-.34.05-.89.05-2s-.05-1.75-.05-2.08c0-.08.08-.09.24-.09s.26 0 .26.09c0 1 .2 1.21.7 1.21a1 1 0 0 0 .38-.08l2.06-.84v-1.63c0-.7 0-1.31.05-1.74-.57-.23-1-.45-1.44-.59a2.81 2.81 0 0 0-1-.27c-.51 0-.69.32-.69.84-.01.09-.11.12-.24.12zm3.92.11v2.92l3.44-1.4c-.45-.23-2.01-.93-3.43-1.52zm-4.17 9.45c0-.08.08-.09.24-.09s.26 0 .26.09c0 1 .27 1.32 1.07 1.32h6.5c.7 0 1.05-.31 1.05-1.35 0-.07.08-.09.23-.09s.27 0 .27.12c0 .34-.07 1-.07 2.08s.07 1.71.07 2.06c0 .09-.11.11-.26.11s-.24 0-.24-.11c0-1-.47-1.31-1.11-1.31-1.27 0-4.52-.09-5.71-.09-1.38 0-1.66.69-1.66 1.78 0 1.74.81 2.66 2.06 2.82.16 0 .19.09.19.26s-.05.28-.15.28c-.47 0-1.65-.09-2.52-.09-.22 0-.26-.09-.26-.28 0-.65.07-4 .07-5.42.01-1.06-.03-1.76-.03-2.09z"/><path d="M86 28.54c-20.8 0-27.17 36.38-39.48 35.16a16 16 0 0 1-3.41-5.89 16 16 0 0 1-3.36 5.82C27.16 65.72 21 28.4 0 28.36 18.63 34.2 23.79 65.54 35.37 68.1c-8.48 9-8.5 13.86-8.5 13.86a11.44 11.44 0 0 0 .57 3.69c1.19-3.21 4.78-9.58 15.68-18.75 6.77 5.78 13.73 12.73 15.62 18.16a10.35 10.35 0 0 0 .53-3.43c0-3.75-3.62-8.71-8.37-13.6 11.3-3.19 16.69-33.8 35.1-39.49zm-44.17 65.6s-11.66-.35-14.39-8.49a7.87 7.87 0 0 0-.58 2.35c0 11.75 15 12.18 15 12.18 18.14.07 17.4-12.48 17.4-12.48a8.13 8.13 0 0 0-.51-2.64c-1.18 3.71-4.96 9.11-16.92 9.08z"/></svg>