<svg id="design" xmlns="http://www.w3.org/2000/svg" viewBox="0 0 249.28 162.38"><defs><style>.cls-1{fill:#040000}</style></defs><title>txt_top_c4</title><path class="cls-1" d="M17.2 22.82V23c0 2.15-.85 3.12-1.66 3.12a1.51 1.51 0 0 1-1.25-.89 5.4 5.4 0 0 0-3.28-2 9.9 9.9 0 0 1-2.31 1.09 6.11 6.11 0 0 1-1.7.28c-1 0-1.38-.4-1.38-1s1-2.23 1.62-2.23c.12 0 .2.08.32.12s.2.2.45.2 1.62-.36 7.53-4.13v-2.83c0-1.7 0-3.36-.12-4.94a11.31 11.31 0 0 1-5 1.38C7.69 11.17 7 9.51 7 8.62c0-.16 0-.24.16-.24a2.05 2.05 0 0 1 .57.16 10.2 10.2 0 0 0 3 .45A8.9 8.9 0 0 0 15.3 7.7c-.28-4.69-.49-6.15-2.47-6.15-.53 0-.73-.12-.73-.32A1.6 1.6 0 0 1 13.88 0c1.34 0 3.24 1 3.24 2.71a9.58 9.58 0 0 1 0 1 14 14 0 0 0 2.63.53 1.12 1.12 0 0 1 1.17 1.17c0 1.46-1.7 2.43-3.93 3.6 0 2.47.08 5.06.12 7.57 3.16-2 6.43-3.6 10.12-3.6 4.33 0 6.6 2.06 6.6 4.77 0 4.25-5 7.12-8.42 7.12-2.51 0-4.21-1.42-4.21-4 0-2.43 1.5-5.06 1.74-5.06.08 0 .12.08.12.28a5.33 5.33 0 0 1-.2 1.09 8.34 8.34 0 0 0-.32 2.1c0 1.9 1 3.2 3 3.2 3 0 6.07-2.31 6.07-5.1 0-2.47-2.75-3.36-5.06-3.36-3.48 0-6.56 2.06-9.43 4.37.04 1.61.04 3.1.08 4.43zm-5.5 0a20.29 20.29 0 0 0 2.47.24c1.09 0 1.13-.32 1.17-.89.08-.77.08-1.58.12-2.35-1.3 1.06-2.55 2.11-3.77 2.96zM17 6.84A12.33 12.33 0 0 0 18.21 6a.94.94 0 0 0 .28-.57c0-.32-.36-.65-1.46-1.21v1.34zm17 1.74a8.21 8.21 0 0 0-2.1.93 1.68 1.68 0 0 1-.57.24c-.08 0-.12 0-.12-.08a1.06 1.06 0 0 1 .32-.49 4.37 4.37 0 0 0 1.25-2.43c0-.32-.16-1.25-2-1.25a5 5 0 0 0-2.83 1 2 2 0 0 1-.89.41c-.08 0-.12 0-.12-.08a6.43 6.43 0 0 1 5.42-2.91c2.51 0 4.82 1.46 4.82 3.12 0 .53-.36.85-.89 1.09-.8.29-.8 0-2.29.45zM8.34 56.45C3.64 60.94.2 61.5.12 61.5s-.12 0-.12-.08.36-.4 1.09-.85C8.54 56 12.63 47.1 12.63 46.33c0-.16-.16-.28-.4-.28h-1.5c-1.42 0-4.33.12-6.31.4-.49 0-1.58-1.46-1.58-1.9a50.46 50.46 0 0 0 5.62.45v-1.42A28.52 28.52 0 0 0 8 38a.79.79 0 0 1 0-.28s4.61.57 4.61 1.5c0 .28-.24.53-.65.81-.93.61-1.05.2-1.17 2.1 0 .65-.08 2-.08 3h1.67c.2 0 .36-.16.53-.36.61-.69.81-.85 1-.85s2.96 1.28 2.96 2.08c0 .45-.61.69-1 .85s-.65.32-1.17 1.17a42 42 0 0 1-3.64 5.34c.49.12 1 .24 1 .57s-.32.4-.61.57c-.73.36-.85.2-.89 1.58 0 2-.08 4.73-.08 7.61s0 5.83.16 8.42a1.45 1.45 0 0 1-1.54 1.41A1 1 0 0 1 8 72.39v-.12c.32-5.71.36-11.94.36-15.09zm3.2 17.16c-.2 0-.28 0-.28-.12s.36-.36.93-.57c4.61-1.7 10.24-5.75 10.24-16.55 0-.81 0-1.66-.08-2v-.16c0-.12 0-.12.12-.12.4 0 3.48.44 3.48 1.21a.81.81 0 0 1-.53.65c-.49.24-.53.2-.65 1.94-.61 9.11-5.18 13.73-12.27 15.55a3.88 3.88 0 0 1-.97.16zm.2-18.94c.85 0 5.95.73 5.95 3.48a1.46 1.46 0 0 1-1.29 1.58 1.72 1.72 0 0 1-1.46-1.17 11.8 11.8 0 0 0-2.87-3.4c-.28-.24-.45-.36-.45-.45a.18.18 0 0 1 .12-.04zM31 54.1v-1h-1.18c.28.08.4.2.4.36s-.24.32-.49.49c-.4.2-.53.41-.53 12.26 0 3.44 0 3.8 2.71 3.8 3.28 0 3.64-.77 4.37-5.95 0-.2 0-.28.08-.28.2 0 .4 4.45 1 4.86a1.6 1.6 0 0 1 .73 1.25c0 .77-.73 2.43-6.07 2.43-1.62 0-5.1 0-5.1-3.24v-.16c0-1 .12-11.74.12-12.42v-1.78c0-.57 0-1.17-.08-1.62h-5.67v1.4a1.44 1.44 0 0 1-1.5 1.29 1 1 0 0 1-1.09-1.05v-.12c.24-3.52.28-5.91.28-7.69a40.33 40.33 0 0 0-.49-7.32 1.41 1.41 0 0 0 0-.24c0-.08 0-.12.08-.12A17.39 17.39 0 0 1 22.18 41h8.01a.63.63 0 0 0 .53-.32c.65-1 1-1.13 1.17-1.13.57 0 3.12 1.66 3.12 2.39 0 .45-.49.69-.85.93-.77.49-.77.81-.77 3.48 0 2 .12 4.65.28 7.45a1.51 1.51 0 0 1-1.5 1.46A1.06 1.06 0 0 1 31 54.14zm0-2.06v-5c0-1.78 0-3.28-.08-4.45a.46.46 0 0 0-.53-.49h-8.21c-.08.08-.16.12-.24.2-.61.41-.65.36-.69 1.54v8.21zM10.2 95.09a15.28 15.28 0 0 1-.4 2.83 17.71 17.71 0 0 0-.36 3.56c0 6.84 4.09 8.09 4.73 8.09a1.46 1.46 0 0 0 1.29-.77c.81-1.38 1.78-3.76 2.51-5.3.45-.89.69-1.21.77-1.21s.08.08.08.16a7.09 7.09 0 0 1-.24 1.38 27 27 0 0 0-.77 5.79c0 .69 0 1.17.08 1.66v.24c0 1.21-.89 1.74-2 1.74a6.48 6.48 0 0 1-3.84-1.5c-3.52-2.91-4.73-6.68-4.73-12.06 0-.85 0-1.74.08-2.67 0-.69.08-1.42.08-2.06a14.07 14.07 0 0 0-.28-3 3 3 0 0 1-.08-.49c0-.24.12-.36.28-.36a4 4 0 0 1 2.8 3.97zm21.8 8.29a8.91 8.91 0 0 0-6.35-7.93c-1.17-.28-1.74-.57-1.74-.73s.28-.16.81-.16c5.58 0 10.28 4.29 10.28 8.3 0 1.46-.81 2.19-1.62 2.19-.6-.05-1.25-.53-1.38-1.67zm-1 46.09c.08 1.82.24 4.29.28 5.34a1.47 1.47 0 0 1-1.58 1.38 1 1 0 0 1-1.09-1v-1.21H21v.28c0 .77.16 2.71.16 3.56 0 3.24-2.79 4.57-5.38 4.57a.94.94 0 0 1-.81-.53c-.65-.93-4.94-2.71-4.94-3.08h.16a2.35 2.35 0 0 1 .49 0 35.82 35.82 0 0 0 5.14.65c1.82 0 2.71-.57 2.79-2.14v-3.32h-.93c-3.68 0-5.46.08-9.71.36H8c-.73 0-2-1.46-2-1.94a99.18 99.18 0 0 0 11.69.57h1v-3.48H17c-3.64 0-9 .12-13.44.4-.73 0-1.9-1.54-1.9-2 5.18.49 11.69.57 15.34.57h1.82v-3.12h-.93c-1.29 0-6.15 0-9.55.32h-.21c-.73 0-1.82-1.33-1.82-1.82 3.88.44 10 .49 11.41.49h1v-3.4h-7.43v.45a1.44 1.44 0 0 1-1.5 1.29 1 1 0 0 1-1.09-1v-.2c.16-1.09.24-3.76.24-4.41a14.85 14.85 0 0 0-.28-3.12.71.71 0 0 1 0-.24c0-.08 0-.08.08-.08a17.27 17.27 0 0 1 3.48 1.58h6.48v-3.16h-3c-2.27 0-7.45.08-11 .44-.73 0-1.9-1.5-1.9-2.06 4.17.49 10.8.65 13.15.65h2.79a20.32 20.32 0 0 0-.4-4.29 2 2 0 0 1-.08-.36c0-.08 0-.08.12-.08.24 0 4.37.49 4.37 1.29 0 .28-.32.61-.81.73-.65.16-.69.57-.73 1.94v.77h8.38a.84.84 0 0 0 .69-.36c1.54-2.19 1.82-2.47 2.27-2.47a.51.51 0 0 1 .24 0c1.38.49 3.6 2.67 3.6 3.32 0 .24-.2.49-.89.49H21v3.16h6.31a.66.66 0 0 0 .57-.24c.69-1 1-1 1.13-1 .61 0 3 1.46 3 2.19 0 .36-.49.57-.85.81-.69.36-.69.36-.69 1.05 0 .49.16 2.39.2 3.12 0 .12 0 1.13-1.5 1.13-.53 0-1-.24-1-.77v-.61H21v3.4h6.76a.59.59 0 0 0 .53-.24c.73-1 .93-1.09 1.17-1.09s3.08 1.54 3.08 2.31c0 .45-.49.73-.93 1-.73.4-.57.4-.65 1.38v.81h1.13a.83.83 0 0 0 .57-.32c.49-.89 1.54-2.47 2.06-2.47.73 0 3.44 2.55 3.44 3.32 0 .24-.2.53-1 .53zm-12.3-13.19H12l-.12.08c-.49.32-.57.45-.61 1.29v2.23h7.43zm2.31 9v3.12h7.65v-2.67a.48.48 0 0 0-.49-.45zm0 4.17v3.48h7.57v-3.48zm0-13.19v3.6h7.24v-3.2a.43.43 0 0 0-.4-.41zM64.6 19.51c-3-.89-4-1.81-4-3.44 0-1.19.51-1.63 1.09-1.63a.6.6 0 0 1 .65.59.49.49 0 0 1-.54.5.55.55 0 0 0-.62.59c0 .69.51 1.55 3.24 2.31L69.93 20v-.73c0-.11 0-.09.15-.09.27 0 .35 0 .35.14v.81l1.56.46c1.87.55 2.27 1.63 2.27 2.55 0 1.13-.47 1.58-1.07 1.58a.57.57 0 0 1-.58-.53.48.48 0 0 1 .53-.49c.34 0 .53-.15.53-.63s-.7-1.08-3.24-1.81v1.17c0 .25 0 .15-.2.15s-.3-.07-.3-.15v-1.31zm-.52 5.75c0-.71.27-1.9 2.06-1.9s4.6 1.65 4.6 3.72c0 .92-.53 1.89-2.16 1.89s-4.5-1.47-4.5-3.71zm6.16 1.83c0-1.36-2.85-2.68-4.69-2.68-.74 0-1 .24-1 .8 0 1.33 2.74 2.67 4.55 2.67.9 0 1.15-.23 1.15-.79zm.51 8.81c0 .47-.35.69-.89.69s-.8-.28-.8-.62a.34.34 0 0 1 .36-.38c.23 0 .39-.11.39-.27 0-.32-.49-1.05-2.52-1.87a24.09 24.09 0 0 0-2.9-.89c-.08 0-.16-.16-.16-.38s.09-.65.23-.65a2.31 2.31 0 0 1 .59.12l2.21.67a16.68 16.68 0 0 0 2.48.67c.28 0 .36-.09.36-.23 0-.4-.58-.94-1.46-1.27a.12.12 0 0 1-.07-.11c0-.09.08-.28.22-.24a2.49 2.49 0 0 1 1.94 2.12c0 .49-.4.66-.89.66a4.88 4.88 0 0 1-1.05-.19c1.21.68 1.96 1.34 1.96 2.17zm-6.42 16.62c-.16 0-.2-.26-.2-.38s.05-.34.2-.36c.57-.16 4-1.28 6.41-2.12-1.86-.62-3.66-1.23-5-1.71-.46-.18-1.13-.41-1.44-.49s-.2-.2-.2-.35.05-.34.2-.38c.86-.19 8-2.82 8.47-3.06a1.16 1.16 0 0 0 .7-1.09c0-.05.07-.08.27-.08s.23.05.23.12c0 .32-.07.77-.07 1.78s.07 1.56.07 2c0 .05-.05.11-.19.11s-.31 0-.31-.09c0-.54-.09-1-.55-1a2.11 2.11 0 0 0-.65.15c-.43.16-1.86.62-3.25 1.07-1.19.38-2.33.78-2.72.93 1.08.4 2.59.89 4 1.36a26.16 26.16 0 0 0 3 .9c.18 0 .22.15.22.35s-.09.35-.22.36c-.8.11-6.06 1.78-7 2.09a50.57 50.57 0 0 0 6.34 1.82c.5 0 .84-.39.84-1.12 0-.05.09-.11.24-.11s.26 0 .26.13c0 .31-.07.9-.07 1.61 0 1 .07 1.54.07 1.66s-.09.11-.26.11-.24 0-.24-.15a1.44 1.44 0 0 0-1.16-1.39c-.9-.27-5.06-1.65-6.83-2.24-.62-.27-1.06-.42-1.16-.43zm.06 6.63c0-.08.08-.09.24-.09s.26 0 .26.09c0 1 .27 1.32 1.07 1.32h6.5c.7 0 1.05-.31 1.05-1.35 0-.07.08-.09.23-.09s.27 0 .27.12c0 .34-.07 1-.07 2.08 0 1.24.07 4.64.07 4.84s-.07.23-.26.23c-.84 0-1.59.09-2 .09-.09 0-.13-.12-.13-.28s0-.24.11-.26c1.16-.22 1.73-.8 1.73-2.23a12.9 12.9 0 0 0-.1-1.62c-1 0-2.9-.05-3.6-.11 0 1.93.54 2.08 1.36 2.08.16 0 .19 0 .19.28s0 .27-.2.27a14.81 14.81 0 0 0-1.6-.07c-1 0-1.43.07-1.61.07s-.19-.05-.19-.27.05-.28.19-.28c.92 0 1.38-.26 1.38-2.08h-3.39c-.63 0-1 .2-1 1.54 0 2.27.69 2.82 2.13 3 .13 0 .19.09.19.26s0 .3-.15.3c-.47 0-1.29-.07-2.54-.07-.15 0-.18-.05-.18-.2 0-.9.07-4.4.07-5.44s-.02-1.8-.02-2.13zm0 10.67c0-.08.08-.09.24-.09s.26 0 .26.09c0 1 .27 1.32 1.07 1.32h6.5c.7 0 1.05-.31 1.05-1.35 0-.07.08-.09.23-.09s.27 0 .27.12c0 .34-.07 1-.07 2.08 0 .57.08 1.2.08 2.29 0 3.55-2.36 5.22-4.79 5.22-3.24 0-4.88-1.87-4.88-4.92 0-1.15.08-2.08.08-2.59 0-1.06-.04-1.76-.04-2.08zm8.94 2.81l-7-.07c-1.2 0-1.54.62-1.54 1.9 0 2 1.12 3.26 4.29 3.26 2.21 0 4.34-1.11 4.34-3.9a4.88 4.88 0 0 0-.09-1.19zm-8.94 9.14c0-.08.08-.09.24-.09s.26 0 .26.09c0 1 .27 1.32 1.07 1.32h6.5c.7 0 1.05-.31 1.05-1.35 0-.07.08-.09.23-.09s.27 0 .27.12c0 .34-.07 1-.07 2.08 0 .57.08 1.2.08 2.29 0 3.55-2.36 5.22-4.79 5.22-3.24 0-4.88-1.87-4.88-4.92 0-1.15.08-2.08.08-2.59 0-1.06-.04-1.76-.04-2.08zm8.94 2.81l-7-.07c-1.2 0-1.54.62-1.54 1.9 0 2 1.12 3.26 4.29 3.26 2.21 0 4.34-1.11 4.34-3.9a4.88 4.88 0 0 0-.09-1.19zm-8.44 13.21c0 .08-.12.11-.24.11s-.26 0-.26-.14v-4.08c0-.08.08-.09.24-.09s.26 0 .26.09c0 1 .27 1.32 1.07 1.32h6.5c.7 0 1.05-.31 1.05-1.35 0-.07.08-.09.23-.09s.27 0 .27.12c0 .34-.07 1-.07 2.08s.07 1.71.07 2.06c0 .09-.11.11-.26.11s-.24 0-.24-.11c0-1-.47-1.31-1.11-1.31-.92 0-3.61-.08-6.41-.08-.71.04-1.1.32-1.1 1.36zm7.23 5.21h-6c-.89 0-1.21.55-1.21 1.52 0 .05-.09.09-.24.09s-.26 0-.26-.09v-3.56s.12-.07.24-.07.26 0 .26.09c0 .89.32 1.29 1.21 1.31l6.12.05c.61 0 1.28-.38 1.28-1.61 0-.05 0-.09.24-.09s.26.07.26.12c0 .24-.07 1-.07 1.78v.67a.26.26 0 0 1-.12.23c-.76.59-2.25 1.89-3.72 3.13a40.29 40.29 0 0 1-3.21 2.55h5.33c.78 0 1.28-.17 1.28-1.43 0-.07.09-.11.26-.11s.24 0 .24.13c0 .39-.07.86-.07 1.66 0 1 .07 1.51.07 1.73 0 .05-.07.09-.24.09s-.26 0-.26-.11c0-.8-.24-1.28-1.34-1.31s-4 0-5.49 0h-2.27c-.07 0-.09-.15-.09-.38a.26.26 0 0 1 .13-.22c.95-.62 6.21-4.79 7.67-6.17zm-5.33 19.6h-1.44a.22.22 0 0 1-.2-.23.2.2 0 0 1 0-.13.78.78 0 0 0 .2-.5.68.68 0 0 0-.11-.36 4.73 4.73 0 0 1-1.09-3.16 5 5 0 0 1 10.08 0 4.93 4.93 0 0 1-.92 3 .38.38 0 0 0-.11.26c0 .28.12.38.4.38.12 0 .15.05.15.24s0 .24-.15.24-.82-.07-1.51-.07-1.25.07-1.36.07-.19-.08-.19-.24.07-.24.19-.24c1.69-.17 2.87-1.33 2.87-3.55 0-1.87-1.35-3.45-4.52-3.45-2.66 0-4.32 1.39-4.32 3.52 0 1.67.77 2.75 2 2.75 1 0 1.36-.24 1.36-1.54 0-.08.07-.09.23-.09s.27 0 .27.12c0 .66-.08 1.52-.08 2.27s.08 1.25.08 1.78c0 .08-.12.11-.27.11s-.23 0-.23-.11c.07-.88-.12-1.07-1.33-1.07zM215.22 63c-.82.05-8.33.69-10.66 2.48-.5.39-.3 1 .46 1.19 2.57.54 7.2 4.83 6.85 6.27-1.26 5.17-11.53 4.29-24.34 4.48-12.8-.19-23.08.7-24.34-4.48-.35-1.44 4.28-5.73 6.85-6.27.76-.16 1-.81.46-1.19-2.33-1.79-9.84-2.43-10.66-2.48 8.41 3.12 2.7 8.71 2.7 10.17 0 .28.07 1.57.07 1.6 0 5.92 10.26 6.64 24.92 6.64s24.92-.72 24.92-6.64c0 0 .07-1.32.07-1.6.01-1.47-5.71-7.07 2.7-10.17zm10.84-18.92c-12 4.84-12.73 16.8-38.53 16.8S161 48.92 149 44.08c-6.19-2.5-17-1.78-23.21 4.31 13.61-6.14 20.69 1.36 37.39 10.11 6.09 3.19 15.63 3.66 24.35 3.64s18.26-.44 24.35-3.64c16.7-8.75 23.79-16.25 37.39-10.11-6.16-6.09-17.02-6.81-23.21-4.31z"/></svg>