<svg id="design" xmlns="http://www.w3.org/2000/svg" viewBox="0 0 54.97 116.98" preserveAspectRatio="xMidYMin"><defs><style>.cls-1{fill:#fff}</style></defs><title>txt_top_recruit</title><path class="cls-1" d="M6.36 7.31v4.84c1.29-.5 2.44-1 3.33-1.46a1.06 1.06 0 0 1 .39-.11c.06 0 .08 0 .08.06 0 .28-3.67 2.55-3.81 2.63 0 1.74 0 3.42.06 4.87 0 .53.11 2.77.11 3.39a2.86 2.86 0 0 1-2.94 2.88c-.22 0-.28-.06-.42-.31-.39-.7-2.3-1.85-2.3-2.1h.11a1 1 0 0 1 .25 0 10.09 10.09 0 0 0 2.18.34c1 0 1.34-.39 1.37-1.2 0-1.82.06-4.34.06-6.94-.76.45-1.54.9-2.41 1.34-.22.11-.28.42-.48.42-.48 0-1.74-2-1.74-2h.17a16.74 16.74 0 0 0 4.45-1.2v-5.4a28.29 28.29 0 0 0-3.08.25c-.34 0-1.15-1-1.15-1.34a36.83 36.83 0 0 0 4.26.36c-.17-4.33-.2-5.12-.43-6.15a.55.55 0 0 1 0-.2s0-.06.06-.06c.25 0 3.19.45 3.19 1 0 .22-.25.48-.53.62-.59.31-.59.06-.64 1.43 0 1-.06 2.1-.08 3.3h.45a.48.48 0 0 0 .34-.22C8 5.24 8.12 5.1 8.34 5.1c.59 0 2 1.51 2 1.93 0 .17-.11.28-.53.28zm10.89 6.47c1.65 2.6 5.24 6.27 9.3 7.25.14 0 .17.06.17.11 0 .22-2 .59-2.77 1.15a.4.4 0 0 1-.28.11c-.73 0-4.51-3.39-6.58-8.09v1.12c0 2.58.08 5.77.17 8.51a1 1 0 0 1-1 1 .74.74 0 0 1-.76-.81V24c.11-2.58.2-5.52.22-7.92-3.78 5.6-8.76 7.08-9.21 7.08H6.4s.2-.22.56-.42c2.83-1.51 6.08-4.82 8.34-9a48.83 48.83 0 0 0-5.32.28c-.45 0-1.23-1.06-1.23-1.4a57.89 57.89 0 0 0 7 .42v-.42a19.2 19.2 0 0 0-.28-3.14.36.36 0 0 1 0-.17c0-.06 0-.06.11-.06.25 0 2.8.45 2.8 1 2.44-3.78 3.08-5 3.19-6.33 0-.2.06-.28.11-.28.31 0 2.8 1.12 2.8 1.68 0 .25-.34.45-.92.48s-.5.14-.73.42c-2 2.3-4.26 4.56-4.65 4.56v-.06a.21.21 0 0 1 0-.11.6.6 0 0 1-.22.14c-.56.31-.62.11-.67 1 0 .34-.06.76-.06 1.23h4a.43.43 0 0 0 .36-.25c.25-.36 1.12-1.6 1.43-1.6s2.38 1.43 2.38 2.18c0 .2-.11.36-.56.36zm4.67-11.46a1.38 1.38 0 0 1-.45-.06 1.93 1.93 0 0 0-.39-.06 1.59 1.59 0 0 0-.5.08 56.27 56.27 0 0 1-10.3 1.46c-.08 0-.9 0-.9-.14s.2-.14.64-.17a47.07 47.07 0 0 0 9.1-2.56 3.51 3.51 0 0 0 1.06-.7c.11-.08.11-.17.2-.17a5.88 5.88 0 0 1 2.07 2c.01.18-.19.32-.53.32zM12 8.29a7.05 7.05 0 0 0-1.7-2.55c-.08-.08-.11-.14-.11-.17s.06-.08.14-.08 3.59.61 3.59 2.51a1.11 1.11 0 0 1-1 1.2c-.32.04-.71-.2-.92-.91zm3.89-1.15a6.87 6.87 0 0 0-1.23-2.69.37.37 0 0 1-.08-.2.06.06 0 0 1 .06-.06c.2 0 3.16 1.06 3.16 2.8a1.15 1.15 0 0 1-1 1.2c-.39.01-.8-.29-.92-1.05zm-1.95 46.68a1.14 1.14 0 0 1-1.18 1A.79.79 0 0 1 12 54v-.1c.11-2.21.17-5.38.22-8.46H5.8C4.68 53.31.36 55.8.08 55.8c-.06 0-.08 0-.08-.06s.17-.34.53-.76c3.11-3.53 3.84-9 3.84-14.42a48.21 48.21 0 0 0-.7-8.93.73.73 0 0 1 0-.2v-.08a12.71 12.71 0 0 1 3 1.32l.17.11h13c.14 0 .22-.11.34-.25s.7-.9 1-.9 2.41 1.26 2.41 1.85c0 .31-.36.53-.87.78s-.53.28-.53 3.95c0 3.05.08 7.53.11 10.28 0 1.62.11 2.16.11 3.3a3.82 3.82 0 0 1-3.7 3.58c-.2 0-.25-.08-.42-.31-.39-.56-3.78-2-3.78-2.21h.08a1 1 0 0 1 .25 0 18.4 18.4 0 0 0 3.36.42c1.65 0 2.27-.56 2.3-1.76v-6.08h-6.67c0 3.19 0 6.36.11 8.34zm-7.81-14.4a47 47 0 0 1-.25 5.26h6.3c0-1.9.06-3.75.06-5.26zm6.1-2.86c0-1 0-2.24-.08-3H6.64c-.06.06-.14.08-.2.14-.31.22-.39.25-.39 1.12 0 .08 0 .11.08 3.86h6.1zm1.62 2.86v5.26h6.75v-5.26zm.81-5.88v.11c0 .05-.25.36-.45.48s-.34.2-.36 1.37v3.16h6.69c0-1.9-.06-3.56-.11-4.73a.4.4 0 0 0-.36-.39zM.39 72.69a1.71 1.71 0 0 1 .53-1.09c1.15-1.2 1.26-2.88 1.4-4.14 0-.22.06-.31.11-.31a5.12 5.12 0 0 1 .84 3.19c0 2.46-1.29 3.22-2 3.22a.85.85 0 0 1-.88-.87zm6 12.66a1.17 1.17 0 0 1-1.2 1.06.82.82 0 0 1-.84-.92v-.06c.17-3.95.28-10.84.28-15.68a80.4 80.4 0 0 0-.28-8 .63.63 0 0 1 0-.2c0-.06 0-.06.06-.06s3.11.34 3.11 1c0 .2-.14.39-.48.56s-.64.17-.7 1.06c-.08 1.4-.11 4.31-.11 7.67 0 4.51.06 9.83.2 13.52zM8.48 69a11.56 11.56 0 0 0-1.54-2.32.41.41 0 0 1-.14-.22c0-.06 0-.08.11-.08.5 0 3.36.81 3.36 2.38a1 1 0 0 1-.87 1c-.33-.01-.66-.21-.92-.76zm6.33 2.46a46.2 46.2 0 0 0-5.29.31c-.48 0-1.32-1.09-1.32-1.46a52.6 52.6 0 0 0 6.78.45h1.32c0-.67.06-1.57.06-2.46h-.53a24.68 24.68 0 0 0-3.56.25c-.48 0-1.29-1-1.29-1.34a32.19 32.19 0 0 0 5 .39h.42v-2.36h-1.34a35.47 35.47 0 0 0-4.37.25c-.48 0-1.26-1-1.26-1.34a42.11 42.11 0 0 0 5.77.39h1.1a14.62 14.62 0 0 0-.3-3.33.63.63 0 0 1 0-.2s3.08.34 3.08 1c0 .17-.17.34-.45.48-.62.34-.7.11-.76 1.43v.64h3.3a.52.52 0 0 0 .42-.25c.45-.67 1.06-1.37 1.32-1.37s2.21 1.23 2.21 2c0 .2-.14.36-.56.36h-6.72v2.35h2a.48.48 0 0 0 .39-.25c.2-.25.92-1.15 1.2-1.15s2.16 1.12 2.16 1.74c0 .17-.11.36-.53.36h-5.22v2.46h3.86a.57.57 0 0 0 .45-.25C22.46 70 23.24 69 23.52 69c.53 0 2.35 1.37 2.35 2.07 0 .17-.11.34-.56.34zm-1.12 9.32c0 1.71 0 3.5.06 4.87a1 1 0 0 1-1 1 .67.67 0 0 1-.76-.67v-.06c.14-2.41.2-4.82.2-6.83 0-1.06 0-2-.06-2.77a23.65 23.65 0 0 0-.34-3.44.5.5 0 0 1 0-.17 17.18 17.18 0 0 1 2.35 1h6.13a.48.48 0 0 0 .36-.22c.17-.25.53-.73.73-.73.45 0 2.13 1.15 2.13 1.62 0 .25-.25.42-.5.56s-.56.17-.59.73-.06 1.62-.06 2.6v2.66c0 .48.08 1.88.08 2.38a3.1 3.1 0 0 1-3.19 3.19c-.22 0-.28-.08-.45-.34-.36-.53-3-1.71-3-1.93 0 0 0-.06.11-.06a.62.62 0 0 1 .2 0 18.43 18.43 0 0 0 2.91.34c1.32 0 1.74-.42 1.76-1.37v-2.32zm.48-6.36l-.08.06c-.36.28-.36.25-.39 1v1.4h7.1v-2.16a.29.29 0 0 0-.34-.31zm6.64 3.22h-7.15V80h7.14zM6.66 100.32a43.52 43.52 0 0 0-4.9.25c-.48 0-1.12-1-1.12-1.34a46.83 46.83 0 0 0 5.88.39v-3.28c-1 0-1.88.08-3.64.25-.45 0-1.15-1-1.15-1.32a48.16 48.16 0 0 0 4.82.39 15.94 15.94 0 0 0-.34-3.42 1.21 1.21 0 0 0 0-.14c0-.08.06-.08.14-.08s2.8.25 2.8.92c0 .22-.25.45-.62.64-.2.08-.31.25-.34.62s0 .92-.06 1.46h.77a.52.52 0 0 0 .36-.22c.34-.56 1-1.34 1.2-1.34h.17c.78.31 2.13 1.37 2.13 1.9 0 .17-.14.31-.56.31H8.06v3.28h1.9a.53.53 0 0 0 .36-.22c0-.06.78-1.2 1.18-1.2h.2c.73.28 1.9 1.29 1.9 1.74 0 .2-.14.36-.59.36zm1.54 15.8a1 1 0 0 1-1 .84.7.7 0 0 1-.76-.76c.06-2.32.11-4.12.11-5.49-1.2 0-2.58.08-4.37.25-.45 0-1.15-1-1.15-1.32 2.1.25 4.09.36 5.54.39v-1.46c0-.31 0-1.6-.06-2.41a40.45 40.45 0 0 0-4.7.25c-.48 0-1.12-1-1.12-1.34a52 52 0 0 0 6.1.39h.71a18.59 18.59 0 0 0 1.6-4.56c0-.2 0-.28.08-.28.25 0 2.41 1.06 2.41 1.46 0 .17-.22.31-.73.34s-.39.11-.59.36c-.5.64-1.26 1.68-2.18 2.69h2a.53.53 0 0 0 .36-.22c0-.06.78-1.2 1.18-1.2h.2c.73.28 1.9 1.29 1.9 1.74 0 .2-.14.36-.59.36h-4.6a.2.2 0 0 1 .08.17c0 .08 0 .14-.17.22s-.39.14-.39.78V110H9.3a.48.48 0 0 0 .34-.22c.25-.45 1-1.34 1.23-1.34h.17c.56.22 2.1 1.32 2.1 1.9 0 .17-.11.31-.56.31H8.06c0 1.6.06 3.3.14 5.4zm-3.61-12.4a6.78 6.78 0 0 0-1.4-2.32c-.14-.14-.22-.22-.22-.28a.1.1 0 0 1 .06 0c.78 0 3.47.9 3.47 2.41a1.08 1.08 0 0 1-1 1.09c-.35-.04-.71-.29-.91-.91zm17-1.2a.35.35 0 0 0 .31-.17 2 2 0 0 1 .56-.53.4.4 0 0 1 .2-.06c.31 0 2 .84 2 1.43 0 .17-.11.34-.48.53s-.53.17-.67.67a29.92 29.92 0 0 1-2.52 6.3 12 12 0 0 0 5.52 4.54c.14.06.2.08.2.14 0 .22-2 .34-2.58.81a.52.52 0 0 1-.28.14c-.2 0-2-1.18-3.7-4.28a13.54 13.54 0 0 1-4.2 4.17 1 1 0 0 1-1 .78.72.72 0 0 1-.78-.78v-.08c.2-2.8.25-10.72.25-15.65v-3.81a24.84 24.84 0 0 0-.42-3.54.5.5 0 0 1 0-.13c0-.06 0-.08.06-.08A10.43 10.43 0 0 1 16.6 94h4.34a.45.45 0 0 0 .39-.22c.36-.45.5-.56.64-.56s2 .76 2 1.18c0 .14-.14.28-.42.45s-.39.28-.39.56a22 22 0 0 1-.16 2.65 3 3 0 0 1-2.8 2.46c-.25 0-.34-.08-.45-.31-.28-.64-2.13-1.46-2.13-1.62s0 0 .08 0 .22 0 .42.06a8.24 8.24 0 0 0 1.51.17c1.62 0 1.88-.87 1.88-3.28 0-.7-.2-.73-.39-.73H16.6l-.17.14c-.45.31-.45.14-.5 1.09 0 .73-.06 3.36-.06 6.5zm-5.71.7c0 4.62 0 10.11.06 12.52a15.84 15.84 0 0 0 3.53-5 24.42 24.42 0 0 1-2.27-7.56zm1.79 0a21.52 21.52 0 0 0 2.44 6.16 24.46 24.46 0 0 0 1.68-5.94c0-.14-.06-.22-.22-.22zM45.6 6.1c0 .08-.11.11-.23.11s-.27 0-.27-.14V1.99c0-.08.08-.09.24-.09s.26 0 .26.09c0 1 .28 1.32 1.08 1.32h6.49c.7 0 1.05-.3 1.05-1.33 0-.07.08-.11.23-.11s.27 0 .27.12c0 .34-.07 1-.07 2.08v2.1c0 2.25-1.17 3.32-2.48 3.32-1.05 0-2.1-.82-2.36-2.55a22.32 22.32 0 0 1-2 1.9c-1.74 1.52-2.21 2.09-2.21 2.86 0 .13-.07.17-.26.17s-.28 0-.28-.15v-1.9c0-.66.66-1.29 2-2.36l1.78-1.38a2.62 2.62 0 0 0 .66-.63v-.72h-2.78c-.72.05-1.12.33-1.12 1.37zm8.55-1.23c-.92 0-2.75-.08-4.07-.08v.86c0 1.62.82 2.19 2 2.19a1.86 1.86 0 0 0 2.12-2 6.89 6.89 0 0 0-.05-.96zm-9.05 9.35c0-.08.08-.09.24-.09s.26 0 .26.09c0 1 .27 1.32 1.07 1.32h6.5c.7 0 1.05-.31 1.05-1.35 0-.07.08-.09.23-.09s.27 0 .27.12c0 .34-.07 1-.07 2.08 0 1.24.07 4.64.07 4.84s-.07.23-.26.23c-.84 0-1.59.09-2 .09-.09 0-.13-.12-.13-.28s0-.24.11-.26c1.16-.21 1.73-.79 1.73-2.23a12.9 12.9 0 0 0-.09-1.62c-1 0-2.9-.05-3.6-.11 0 1.93.54 2.08 1.36 2.08.16 0 .19 0 .19.28s0 .27-.2.27a14.81 14.81 0 0 0-1.6-.07c-1 0-1.43.07-1.61.07s-.19-.05-.19-.27.05-.28.19-.28C49.52 19 50 18.79 50 17h-3.4c-.63 0-1 .2-1 1.54 0 2.27.69 2.82 2.13 3 .13 0 .19.09.19.26s0 .3-.15.3c-.47 0-1.29-.07-2.54-.07-.15 0-.18-.05-.18-.2 0-.9.07-4.4.07-5.44s-.02-1.85-.02-2.17zm6.3 19.01a3.26 3.26 0 0 0 3-3.55c0-1.92-1.44-3.47-4.51-3.47-2.74 0-4.33 1.5-4.33 3.52a3.46 3.46 0 0 0 3 3.47c.14 0 .15.05.15.26s-.05.24-.15.24-1.15-.12-1.94-.12h-.86c-.08 0-.15-.08-.15-.26s0-.26.15-.26.35-.05.35-.2a.75.75 0 0 0-.19-.39 4.67 4.67 0 0 1-1-3 5 5 0 0 1 10.08.14 4.41 4.41 0 0 1-1 3 .42.42 0 0 0-.15.27c0 .2.27.39.42.39s.16.05.16.24 0 .24-.16.24-.8-.07-1.46-.07-1.29.07-1.42.07-.15-.07-.15-.24.02-.28.16-.28zm-5.8 7.4c0 .08-.11.11-.23.11s-.27 0-.27-.14v-4.08c0-.08.08-.09.24-.09s.26 0 .26.09c0 1 .28 1.32 1.08 1.32h6.49c.7 0 1.05-.3 1.05-1.33 0-.07.08-.11.23-.11s.27 0 .27.12c0 .34-.07 1-.07 2.08v2.1c0 2.25-1.17 3.32-2.48 3.32-1.05 0-2.1-.82-2.36-2.55a22.32 22.32 0 0 1-2 1.9c-1.74 1.52-2.21 2.09-2.21 2.86 0 .13-.07.17-.26.17s-.28 0-.28-.15v-1.9c0-.66.66-1.29 2-2.36l1.78-1.38a2.62 2.62 0 0 0 .66-.63v-.72h-2.78c-.72.05-1.12.33-1.12 1.37zm8.55-1.23c-.92 0-2.75-.08-4.07-.08v.86c0 1.62.82 2.19 2 2.19a1.86 1.86 0 0 0 2.12-2 6.89 6.89 0 0 0-.05-.97zM48 56.46c-1.59 0-3.13-1.08-3.13-4.13a3.29 3.29 0 0 1 3.48-3.58h4.75c.7 0 1.12-.3 1.12-1.32 0-.09.08-.12.23-.12s.27 0 .27.15c0 .28-.07.9-.07 2s.07 1.94.07 2.06-.08.12-.24.12-.26 0-.26-.12c0-1-.27-1.28-1.08-1.31s-2.94-.07-4.9-.07c-1.58 0-2.48 1.08-2.48 2.8 0 1.89.93 2.78 2.47 2.78 1.12 0 4.28-.07 4.71-.07.9 0 1.28-.28 1.28-1.31 0-.08.09-.11.22-.11s.28 0 .28.14c0 .35-.07 1-.07 1.7s.07 1.4.07 1.7c0 .07-.08.11-.23.11s-.27-.05-.27-.11c0-.93-.46-1.33-1.38-1.33zm-2.4 8.36c0 .08-.12.11-.24.11s-.26 0-.26-.14v-4.08c0-.08.08-.09.24-.09s.26 0 .26.09c0 1 .27 1.32 1.07 1.32h6.5c.7 0 1.05-.31 1.05-1.35 0-.07.08-.09.23-.09s.27 0 .27.12c0 .34-.07 1-.07 2.08s.07 1.71.07 2.06c0 .09-.11.11-.26.11s-.24 0-.24-.11c0-1-.47-1.31-1.11-1.31-.92 0-3.61-.08-6.41-.08-.7.04-1.1.32-1.1 1.36zm1.12 8.07c-.71 0-1.12.28-1.12 1.32 0 .08-.11.11-.23.11s-.27 0-.27-.13v-4.08c0-.08.08-.09.24-.09s.26 0 .26.09c0 1 .28 1.32 1.08 1.32h7.38c0-.45.05-.82.05-1.13 0-1.69-.54-2.19-1.9-2.52-.09 0-.09-.07-.09-.12s0-.34.09-.34c.39 0 1.86.09 2.25.09a.23.23 0 0 1 .26.24c0 .22-.07 3.25-.07 4.45s.07 4.21.07 4.42-.11.27-.26.27c-.39 0-1.86.08-2.25.08-.05 0-.11-.13-.11-.31s0-.11.11-.13c1.29-.31 1.9-.85 1.9-2.51v-1c-.88.01-4.6-.03-7.39-.03z"/></svg>