<svg xmlns="http://www.w3.org/2000/svg" viewBox="0 0 488.96 235.41"><title>txt_mv_3</title><path d="M429 47.89c-2.68 0-12-1-12-14.42 0-7 2.45-15.16 5.47-18.3.4-.4.68-.68.68-.8a.06.06 0 0 0-.06-.06c-.57 0-7.13 2.74-12.71 5.64a8.47 8.47 0 0 1-3.76.85c-2.57 0-4.9-1.08-4.9-3 0-.23.06-.57.46-.57a10.87 10.87 0 0 1 1.2.23 20.11 20.11 0 0 0 2.79.29 10.35 10.35 0 0 0 3.31-.57c2.68-.91 12.66-6.27 21.32-8.55a17.14 17.14 0 0 1 4.62-1.14h.29c5.24 0 6.1 1.82 6.1 2.74S441 12 439.07 12a11.11 11.11 0 0 1-1.31-.11 17.78 17.78 0 0 0-3.08-.23 19.86 19.86 0 0 0-8.21 1.6c-4.16 2.22-7.13 11.06-7.13 18.41 0 11.63 7.41 12.09 9.12 12.09a10.68 10.68 0 0 0 3.36-.57 4.7 4.7 0 0 1 1.48-.23c1.54 0 2.57.85 2.57 1.88.01 2.25-4.61 3.05-6.87 3.05zm-4.58 59.67c7-1.42 9.75-6.1 9.75-10.26 0-4.45-3.48-8.72-9.29-8.72-4 0-8.89 1.71-12.54 8.09-.51.91-1.42 3-1.82 3.53a3.18 3.18 0 0 1-2.45 1.6 1.59 1.59 0 0 1-1.6-1.71c0-.91.51-2.11 4.67-7 2.28-2.68 12.77-17.1 13.74-18.64a3.33 3.33 0 0 0 .57-1.43c0-.29-.11-1-1.48-1-2.74 0-4.22 5.25-7.92 5.25-2.05 0-3.59-1.2-3.59-3.25 0-.46.06-.91.46-.91a3.8 3.8 0 0 1 1.08.34 4.46 4.46 0 0 0 1.48.23 3.63 3.63 0 0 0 2.34-.8c1.54-1.25 4.67-3.48 7.81-3.48 2.68 0 5 2.11 5 3.36 0 1.08-1 2-2.22 2.91-4.62 3.48-11.8 13.51-11.8 13.68h.06c.06 0 .11 0 .28-.11a17.32 17.32 0 0 1 9.05-2.66c8.27 0 11.8 6.1 11.8 10.6 0 6.44-6 12.83-15.73 12.83-4.1 0-9-2.17-9-5.76 0-2.57 2.62-4.22 5.36-4.22a6 6 0 0 1 6.1 5.76 5.15 5.15 0 0 1-.34 1.82zm-3-1.77a3.81 3.81 0 0 0-3.71-3.88c-2.39 0-2.68 1.65-2.68 2.28 0 2.11 3.14 3.36 5.93 3.59a4.25 4.25 0 0 0 .5-1.98zm7.58 67.49c-2.68 0-12-1-12-14.42 0-7 2.45-15.16 5.47-18.3.4-.4.68-.68.68-.8a.06.06 0 0 0-.06-.06c-.57 0-7.13 2.74-12.71 5.64a8.47 8.47 0 0 1-3.76.85c-2.57 0-4.9-1.08-4.9-3 0-.23.06-.57.46-.57a10.87 10.87 0 0 1 1.2.23 20.12 20.12 0 0 0 2.79.28 10.35 10.35 0 0 0 3.31-.57c2.68-.91 12.66-6.27 21.32-8.55a17.15 17.15 0 0 1 4.62-1.14h.29c5.24 0 6.1 1.82 6.1 2.74s-.85 1.77-2.74 1.77a11.11 11.11 0 0 1-1.31-.11 17.78 17.78 0 0 0-3.08-.23 19.86 19.86 0 0 0-8.21 1.6c-4.16 2.22-7.13 11.06-7.13 18.41 0 11.63 7.41 12.08 9.12 12.08a10.68 10.68 0 0 0 3.36-.57 4.7 4.7 0 0 1 1.48-.23c1.54 0 2.57.85 2.57 1.88.01 2.28-4.61 3.07-6.87 3.07zM424.42 233c7-1.43 9.75-6.1 9.75-10.26 0-4.45-3.48-8.72-9.29-8.72-4 0-8.89 1.71-12.54 8.09-.51.91-1.42 3-1.82 3.53a3.18 3.18 0 0 1-2.45 1.6 1.59 1.59 0 0 1-1.6-1.71c0-.91.51-2.11 4.67-7 2.28-2.68 12.77-17.1 13.74-18.64a3.33 3.33 0 0 0 .57-1.43c0-.29-.11-1-1.48-1-2.74 0-4.22 5.24-7.92 5.24-2.05 0-3.59-1.2-3.59-3.25 0-.46.06-.91.46-.91a3.8 3.8 0 0 1 1.08.34 4.47 4.47 0 0 0 1.48.23 3.63 3.63 0 0 0 2.34-.8c1.54-1.25 4.67-3.48 7.81-3.48 2.68 0 5 2.11 5 3.36 0 1.08-1 2-2.22 2.91-4.62 3.48-11.8 13.51-11.8 13.68h.06c.06 0 .11 0 .28-.11A17.32 17.32 0 0 1 426 212c8.27 0 11.8 6.1 11.8 10.6 0 6.44-6 12.83-15.73 12.83-4.1 0-9-2.17-9-5.76 0-2.57 2.62-4.22 5.36-4.22a6 6 0 0 1 6.1 5.76 5.15 5.15 0 0 1-.34 1.82zm-3-1.77a3.81 3.81 0 0 0-3.71-3.88c-2.39 0-2.68 1.65-2.68 2.28 0 2.11 3.14 3.36 5.93 3.59a4.24 4.24 0 0 0 .5-2.02zM340.55 17.16c0 5.7.06 12.09.06 15.39 3.19-1.14 6.5-2.45 8.72-3.48a1.71 1.71 0 0 1 .74-.23.15.15 0 0 1 .17.17c0 1.31-15.56 9.24-17.39 10.09-.51.23-.57.8-.91.8-1 0-3.36-4.1-3.36-4.33s.11-.17.29-.17h.51c2.39 0 2.62-.06 7.81-1.71.06-3.88.11-10.72.11-16.48-1.94.11-3.53.34-5.7.51h-.06c-.85 0-2.57-2.05-2.57-2.79a82.46 82.46 0 0 0 8.32.8c0-2.56-.06-4.79-.06-6.27a52.62 52.62 0 0 0-.68-8.55.62.62 0 0 1-.06-.29.15.15 0 0 1 .17-.17s6.5 1.08 6.5 2.39c0 .51-.63 1-1.43 1.31-1.08.46-1.2 1.08-1.2 11.63h1.31c.34 0 .46-.23.63-.51s1.71-2.79 2.39-2.79c1.25 0 4.16 3.31 4.16 4 0 .34-.23.63-1.08.63zm20.92 6.33c-2.11 12.14-7.64 22.06-22.8 26a8.21 8.21 0 0 1-1.65.34q-.34 0-.34-.17a4.05 4.05 0 0 1 1.82-1c14.71-5.13 19.27-18.24 20.18-31.75.06-.91.11-1.65.11-2.34s-.06-1.14-.11-1.82c-3.14.06-7.07.17-10 .46h-.06c-.91 0-2.28-2.11-2.28-2.74 4.1.51 10.15.74 14 .8v-2.6a77 77 0 0 0-.51-8.21 1.11 1.11 0 0 1-.06-.4c0-.06 0-.06.06-.06s6.33.74 6.33 2.11c0 .4-.46.85-1.14 1.25-1.25.74-1.2.63-1.31 2.74-.11 1.88-.17 3.36-.23 5.13h8.32a1.17 1.17 0 0 0 .8-.46c2.34-3.31 2.39-3.36 2.91-3.36a.73.73 0 0 1 .34.06c2.05.74 4.79 3.93 4.79 4.56 0 .34-.29.63-1.25.63h-15.64c.51.11.74.34.74.63s-.4.74-1 1-1 .06-1.14 2.11-.4 3.82-.68 5.64h8.44c.57 0 .68-.28.91-.51a7.58 7.58 0 0 1 1.54-1.37c.68 0 4.39 2.05 4.39 3.19 0 .51-.4 1-1.31 1.37-1.37.68-1.2 1-1.25 2.28-.4 10.49-2.28 21.78-12 21.78h-.57a1.37 1.37 0 0 1-.85-.63c-.57-1.25-7-4.39-7-4.85 0-.06.06-.06.11-.06a5 5 0 0 1 .63.11 32.76 32.76 0 0 0 7.35 1.43c6.9 0 8.84-7.87 8.84-20.41 0-.57-.06-.91-.8-.91zM349 109.9c-3.19 0-11.4.11-16.53.63h-.06c-1.08 0-2.68-2.22-2.68-3 5.87.74 16.25.91 19.55.91H353c.06-3.65.06-10.09.06-15.39h-1.94a112.81 112.81 0 0 0-12 .63h-.06c-1 0-2.57-2.22-2.57-3a123.08 123.08 0 0 0 14.88.91h1.65v-7a39.19 39.19 0 0 0-.51-6.78H350c-3.14 0-9.29.11-14.31.63h-.06c-1 0-2.74-2.22-2.74-3 5.76.68 14.08.91 17.33.91h16.59a1.16 1.16 0 0 0 .91-.51c1.43-2.17 2.57-3.76 3.25-3.76.17 0 .29.06.4.06 1.94.68 5 4.28 5 5 0 .34-.28.63-1.2.63h-17.35a3.77 3.77 0 0 1 .4.11c.51.17.74.4.74.68s-.29.63-.86.91c-1.25.63-1.2.63-1.31 3.93-.06 1.25-.06 4.45-.06 8.21H364a1.15 1.15 0 0 0 .85-.51 27 27 0 0 1 2.68-3.31.7.7 0 0 1 .51-.23c1.2 0 5.07 3.88 5.07 4.73 0 .34-.23.74-1.14.74h-15.23c0 5.42 0 11.69.06 15.39H370a1.18 1.18 0 0 0 1-.51c.57-.91 2.62-3.88 3.42-3.88 1 0 5.53 3.76 5.53 5.13 0 .34-.29.68-1.25.68zm6.21-40.25a27.84 27.84 0 0 0-8.84-5.53c-.29-.11-.46-.23-.46-.29s.29-.23 2-.23 11.52.4 11.52 5a2.08 2.08 0 0 1-2 2.22 3.1 3.1 0 0 1-2.23-1.17zm-66.04-53.97c0 1.77-.06 3.76-.06 5.87 0 7.81.17 17.22.4 24.57a2.19 2.19 0 0 1-2.22 2.34 1.67 1.67 0 0 1-1.71-1.88v-.18c.4-7.75.46-22.29.46-30.73h-13.8c-.85.46-.85.74-.85 1.94-.06 3.76-.4 18.53-.4 28.56v2.05a2.27 2.27 0 0 1-2.39 2 1.45 1.45 0 0 1-1.54-1.6v-.22c.57-6.73.8-16.36.8-23.94 0-1.71-.06-3.31-.06-4.79a43 43 0 0 0-.68-7.64.62.62 0 0 1-.06-.28c0-.11 0-.11.11-.11.57 0 2.68.91 5.93 2.51H286c0-1.77-.06-3.19-.06-4-.06-1.43 0-3-.11-4.22h-3.73c-3.19 0-11.69.11-16.76.63h-.06c-1 0-2.62-2.22-2.62-3 5.87.68 16.36.91 19.67.91h21.15a1.18 1.18 0 0 0 1-.51c.51-.8 2.39-3.65 3.31-3.65a.72.72 0 0 1 .34.06c1.71.63 5.13 3.76 5.13 4.85 0 .34-.29.68-1.25.68h-21.93l.17.06c.57.17.74.4.74.63a1.22 1.22 0 0 1-.74.91c-.91.4-.85.63-.91 1.94s-.06 2.85-.11 4.73h13.85a1 1 0 0 0 .8-.46c.91-1.42 1.43-1.6 1.65-1.6s4.67 1.88 4.67 3.31c0 .68-.8 1.14-1.37 1.48-1.31.86-1.31 1-1.31 8.55 0 4.33.17 8.55.23 13.74 0 1 .11 2.45.11 3.59 0 6-6.5 6.9-7.24 6.9-.57 0-.68-.29-1-.86-.74-1.37-8.21-4.1-8.21-4.56a.25.25 0 0 1 .17-.06c.11 0 .34.06.68.11a50.14 50.14 0 0 0 7.64.85c3.76 0 4.16-1.2 4.22-2.74.11-3.53.17-7.24.17-10.83 0-5.59-.11-10.95-.17-15.28 0-.17-.06-.63-.74-.63zm-16.25 4.39c2.17 0 9.81 1.6 9.81 5.42a2 2 0 0 1-1.82 2.17 2.72 2.72 0 0 1-2.22-1.6 25.63 25.63 0 0 0-5.24-5.3c-.46-.34-.68-.51-.68-.63a.25.25 0 0 1 .15-.06zm5.53 17a25.57 25.57 0 0 0-5-5.64c-.4-.34-.63-.51-.63-.63s.06-.06.17-.06c.91 0 9.52 1.54 9.52 5.76a2.12 2.12 0 0 1-1.94 2.28c-.69-.02-1.49-.53-2.12-1.73zm12.83-17.33c2.17 0 9.81 1.6 9.81 5.42a2 2 0 0 1-1.82 2.17 2.72 2.72 0 0 1-2.22-1.6 25.63 25.63 0 0 0-5.24-5.3c-.46-.34-.68-.51-.68-.63a.25.25 0 0 1 .15-.08zm5.53 16.59a25.56 25.56 0 0 0-5-5.64c-.4-.34-.63-.51-.63-.63s.06-.06.17-.06c.91 0 9.52 1.54 9.52 5.76A2.13 2.13 0 0 1 299 38c-.77 0-1.56-.49-2.19-1.69zm-23.26 43.53c0 5.7.06 12.09.06 15.39 3.19-1.14 6.5-2.45 8.72-3.48a1.71 1.71 0 0 1 .74-.23.15.15 0 0 1 .17.17c0 1.31-15.56 9.24-17.39 10.09-.51.23-.57.8-.91.8-1 0-3.36-4.1-3.36-4.33s.11-.17.29-.17h.51c2.39 0 2.62-.06 7.81-1.71.06-3.88.11-10.72.11-16.48-1.94.11-3.53.34-5.7.51h-.06c-.85 0-2.57-2.05-2.57-2.79a82.46 82.46 0 0 0 8.32.8c0-2.56-.06-4.79-.06-6.27a52.62 52.62 0 0 0-.68-8.55.62.62 0 0 1-.06-.29.15.15 0 0 1 .17-.17s6.5 1.08 6.5 2.39c0 .51-.63 1-1.43 1.31-1.08.46-1.2 1.08-1.2 11.63h1.31c.34 0 .46-.23.63-.51s1.71-2.79 2.39-2.79c1.25 0 4.16 3.31 4.16 4 0 .34-.23.63-1.08.63zm20.92 6.33c-2.11 12.14-7.64 22.06-22.8 26a8.21 8.21 0 0 1-1.65.34q-.34 0-.34-.17a4.05 4.05 0 0 1 1.82-1c14.71-5.13 19.27-18.24 20.18-31.75.06-.91.11-1.65.11-2.34s-.06-1.14-.11-1.82c-3.14.06-7.07.17-10 .46h-.06c-.91 0-2.28-2.11-2.28-2.74 4.1.51 10.15.74 14 .8v-2.61a77 77 0 0 0-.51-8.21 1.11 1.11 0 0 1-.06-.4c0-.06 0-.06.06-.06s6.33.74 6.33 2.11c0 .4-.46.85-1.14 1.25-1.25.74-1.2.63-1.31 2.74-.11 1.88-.17 3.36-.23 5.13h8.32a1.17 1.17 0 0 0 .8-.46c2.34-3.31 2.39-3.36 2.91-3.36a.73.73 0 0 1 .34.06c2.05.74 4.79 3.93 4.79 4.56 0 .34-.29.63-1.25.63h-15.64c.51.11.74.34.74.63s-.4.74-1 1-1 .06-1.14 2.11-.4 3.82-.68 5.64h8.44c.57 0 .68-.28.91-.51a7.58 7.58 0 0 1 1.54-1.37c.68 0 4.39 2.05 4.39 3.19 0 .51-.4 1-1.31 1.37-1.37.68-1.2 1-1.25 2.28-.4 10.49-2.28 21.78-12 21.78h-.57a1.37 1.37 0 0 1-.85-.63c-.57-1.25-7-4.39-7-4.85 0-.06.06-.06.11-.06a5 5 0 0 1 .63.11 32.76 32.76 0 0 0 7.35 1.43c6.9 0 8.84-7.87 8.84-20.41 0-.57-.06-.91-.8-.91zM282 172.6c-3.19 0-11.4.11-16.53.63h-.06c-1.08 0-2.68-2.22-2.68-3 5.87.74 16.25.91 19.55.91H286c.06-3.65.06-10.09.06-15.39h-1.94a112.68 112.68 0 0 0-12 .63h-.06c-1 0-2.57-2.22-2.57-3a123.08 123.08 0 0 0 14.88.91h1.65v-7.07a39.19 39.19 0 0 0-.51-6.78H283c-3.14 0-9.29.11-14.31.63h-.06c-1 0-2.74-2.22-2.74-3 5.76.68 14.08.91 17.33.91h16.59a1.16 1.16 0 0 0 .91-.51c1.43-2.17 2.57-3.76 3.25-3.76.17 0 .29.06.4.06 1.94.68 5 4.28 5 5 0 .34-.28.63-1.2.63h-17.35a3.65 3.65 0 0 1 .4.11c.51.17.74.4.74.68s-.29.63-.86.91c-1.25.63-1.2.63-1.31 3.93-.06 1.25-.06 4.45-.06 8.21H297a1.15 1.15 0 0 0 .85-.51 27 27 0 0 1 2.68-3.31.7.7 0 0 1 .51-.23c1.2 0 5.07 3.88 5.07 4.73 0 .34-.23.74-1.14.74h-15.23c0 5.42 0 11.69.06 15.39H303a1.18 1.18 0 0 0 1-.51c.57-.91 2.62-3.88 3.42-3.88 1 0 5.53 3.76 5.53 5.13 0 .34-.29.68-1.25.68zm6.21-40.25a27.83 27.83 0 0 0-8.84-5.53c-.29-.11-.46-.23-.46-.29s.29-.23 2-.23 11.52.4 11.52 5a2.08 2.08 0 0 1-2 2.22 3.1 3.1 0 0 1-2.23-1.17zM479.28 26.11c.32-.51.49-.61.49-.78s-.2-.19-.43-.19c-.07 0-.12-.07-.12-.19s.07-.35.16-.35h2.91c.16 0 .19.07.19.26s0 .3-.14.3a2.83 2.83 0 0 0-3 2.75 1.84 1.84 0 0 0 1.88 1.94c1.38 0 1.81-1.19 2.29-2.4s1.07-2.52 2.85-2.52a2.62 2.62 0 0 1 2.64 2.69 2.74 2.74 0 0 1-.3 1.38c-.22.43-.3.53-.3.63s.07.26.28.27.08.05.08.11 0 .28-.09.28h-2.52c-.12 0-.18-.05-.18-.28s0-.27.19-.27a2.09 2.09 0 0 0 2.29-2.13A1.48 1.48 0 0 0 486.9 26c-1.15 0-1.51 1-2 2.1-.51 1.35-1.09 2.86-3.16 2.86a2.89 2.89 0 0 1-3-3.1 3 3 0 0 1 .54-1.75zm-.19 7.51c0-.08.08-.09.24-.09s.26 0 .26.09c0 1 .27 1.32 1.07 1.32h6.5c.7 0 1.05-.31 1.05-1.35 0-.07.08-.09.23-.09s.27 0 .27.12c0 .34-.07 1-.07 2.08 0 1.24.07 4.64.07 4.84s-.07.23-.26.23c-.84 0-1.59.09-2 .09-.09 0-.13-.12-.13-.28s0-.24.11-.26c1.16-.22 1.73-.8 1.73-2.23a13 13 0 0 0-.09-1.62c-1 0-2.9-.05-3.6-.11 0 1.93.54 2.08 1.36 2.08.16 0 .19 0 .19.28s0 .27-.2.27a14.81 14.81 0 0 0-1.6-.07c-1 0-1.43.07-1.6.07s-.19-.05-.19-.27.05-.28.19-.28c.92 0 1.38-.26 1.38-2.08h-3.38c-.63 0-1 .2-1 1.54 0 2.27.69 2.82 2.13 3 .13 0 .19.09.19.26s0 .3-.15.3c-.47 0-1.29-.07-2.54-.07-.15 0-.18-.05-.18-.2 0-.9.07-4.4.07-5.44s-.05-1.8-.05-2.13zm.25 12.99c-.16 0-.27 0-.27-.13 0-.34.05-.63.05-1.39s-.05-1.13-.05-1.34.08-.09.24-.09.26 0 .26.12c0 .49.36.78 1 1.15.42.23 7.63 3.39 8 3.45.2.05.28.13.28.32s-.07.23-.24.3c-.93.32-7.65 3.08-8.4 3.59a1.16 1.16 0 0 0-.69 1.09c0 .08-.11.11-.23.11s-.27 0-.27-.14c0-.34.05-.89.05-2s-.05-1.75-.05-2.08c0-.08.08-.09.24-.09s.26 0 .26.09c0 1 .2 1.21.7 1.21a1 1 0 0 0 .38-.08l2.06-.84v-1.63c0-.7 0-1.31.05-1.74-.57-.23-1-.44-1.44-.59a2.82 2.82 0 0 0-1-.27c-.51 0-.69.32-.69.84-.01.11-.12.14-.24.14zm3.92.11v2.92l3.44-1.4c-.45-.24-2.02-.93-3.43-1.52zm-3.98 10.96c.32-.51.49-.61.49-.78s-.2-.19-.43-.19c-.07 0-.12-.07-.12-.19s.07-.35.16-.35h2.91c.16 0 .19.07.19.26s0 .3-.14.3a2.83 2.83 0 0 0-3 2.75 1.84 1.84 0 0 0 1.88 1.94c1.38 0 1.81-1.19 2.29-2.4s1.07-2.52 2.85-2.52a2.62 2.62 0 0 1 2.64 2.69 2.73 2.73 0 0 1-.3 1.38c-.22.43-.3.53-.3.63s.07.26.28.27.08.05.08.11 0 .28-.09.28h-2.52c-.12 0-.18-.05-.18-.28s0-.27.19-.27a2.09 2.09 0 0 0 2.29-2.13 1.48 1.48 0 0 0-1.52-1.62c-1.15 0-1.51 1-2 2.1-.51 1.35-1.09 2.86-3.16 2.86a2.89 2.89 0 0 1-3-3.1 3 3 0 0 1 .51-1.74zm4.61 7.56a5.32 5.32 0 0 1 0 10.63 5 5 0 0 1-5-5.33 5 5 0 0 1 5-5.3zm-.05 1.69c-2.73 0-4.38 1.28-4.38 3.62s1.86 3.64 4.38 3.64c2.72 0 4.56-1.48 4.56-3.64s-1.77-3.62-4.57-3.62zm2.98 13.38h-6c-.89 0-1.21.55-1.21 1.52 0 .05-.09.09-.24.09s-.26 0-.26-.09v-3.56s.12-.07.24-.07.26 0 .26.09c0 .89.32 1.29 1.21 1.31l6.12.05c.61 0 1.28-.38 1.28-1.6 0-.05 0-.09.24-.09s.26.07.26.12c0 .24-.07 1-.07 1.78v.67a.26.26 0 0 1-.12.23c-.75.59-2.25 1.89-3.72 3.13a40.52 40.52 0 0 1-3.21 2.55h5.33c.78 0 1.28-.18 1.28-1.43 0-.07.09-.11.26-.11s.24 0 .24.13c0 .39-.07.86-.07 1.66 0 1 .07 1.51.07 1.73 0 .05-.07.09-.24.09s-.26 0-.26-.11c0-.8-.24-1.28-1.34-1.31s-4 0-5.49 0h-2.27c-.07 0-.09-.15-.09-.38a.26.26 0 0 1 .13-.22c.95-.63 6.21-4.8 7.67-6.18zm-7.48 12.54c-.16 0-.27 0-.27-.13 0-.34.05-.63.05-1.39s-.05-1.13-.05-1.34.08-.09.24-.09.26 0 .26.12c0 .49.36.78 1 1.15.42.23 7.63 3.39 8 3.45.2.05.28.13.28.32s-.07.23-.24.3c-.93.32-7.65 3.08-8.4 3.59a1.16 1.16 0 0 0-.69 1.09c0 .08-.11.11-.23.11s-.27 0-.27-.13c0-.34.05-.89.05-2s-.05-1.75-.05-2.08c0-.08.08-.09.24-.09s.26 0 .26.09c0 1 .2 1.21.7 1.21a1 1 0 0 0 .38-.08l2.06-.84v-1.63c0-.7 0-1.31.05-1.74-.57-.23-1-.45-1.44-.59a2.82 2.82 0 0 0-1-.27c-.51 0-.69.32-.69.84-.01.11-.12.13-.24.13zm3.92.11v2.92l3.44-1.4c-.45-.22-2.02-.92-3.43-1.48zm-4.17 9.45c0-.08.08-.09.24-.09s.26 0 .26.09c0 1 .27 1.32 1.07 1.32h6.5c.7 0 1.05-.31 1.05-1.35 0-.07.08-.09.23-.09s.27 0 .27.12c0 .34-.07 1-.07 2.08s.07 1.71.07 2.06c0 .09-.11.11-.26.11s-.24 0-.24-.11c0-1-.47-1.31-1.11-1.31-1.27 0-4.52-.09-5.71-.09-1.38 0-1.66.69-1.66 1.78 0 1.74.81 2.66 2.06 2.82.16 0 .19.09.19.26s-.05.28-.15.28c-.47 0-1.65-.09-2.52-.09-.22 0-.26-.09-.26-.28 0-.65.07-4 .07-5.42.01-1.06-.03-1.76-.03-2.09zm2.81 16.98a7.93 7.93 0 0 0-2.14-.73.22.22 0 0 0-.24.23c0 .4.58.94 1.46 1.27a.12.12 0 0 1 .07.11c0 .09-.08.28-.22.24-.94-.27-2-1.15-2-2.1 0-.54.22-.8.81-.8a8.53 8.53 0 0 1 2.52.76 8.41 8.41 0 0 0 2.29.74c.28 0 .36-.09.36-.23 0-.4-.58-.94-1.46-1.27a.12.12 0 0 1-.07-.11c0-.09.08-.28.22-.24a2.49 2.49 0 0 1 1.94 2.12c0 .57-.34.78-.86.78a7.35 7.35 0 0 1-2.68-.77zm6.16-.16a.75.75 0 1 1-.76.76.75.75 0 0 1 .76-.76zm-7.93 4.53a.94.94 0 0 0-.24 0 .22.22 0 0 0-.24.23c0 .4.58.94 1.46 1.27a.12.12 0 0 1 .07.11c0 .08-.07.24-.22.24-.94-.27-2.13-1.08-2.13-2.12 0-.49.31-.77.88-.77a3.34 3.34 0 0 1 1 .16l4 1.23v-.73c0-.11 0-.09.15-.09.27 0 .35 0 .35.13v.82l1.75.55c.13 0 .22.4.22.71s-.05.45-.19.45c-.55-.2-1.16-.4-1.78-.61v1.16c0 .24 0 .15-.2.15s-.3-.07-.3-.15v-1.31c-1.84-.59-3.61-1.19-4.58-1.43zm1.65 5.51a5.48 5.48 0 0 0-1.38-.23c-.7 0-1 .3-1 .86a2.41 2.41 0 0 0 1.52 1.92c.11 0 .13.05.13.15s-.08.3-.22.26a2.84 2.84 0 0 1-2.05-2.7 1.63 1.63 0 0 1 1.71-1.63c2.48 0 5 2.13 5 4.17 0 .84-.45 1.16-1.05 1.16-1.03-.01-2.01-1.35-2.66-3.96zm3.1 2.62c0-.76-.94-1.85-2.62-2.46.5 1.77 1.32 2.87 2.2 2.87a.38.38 0 0 0 .42-.42zm-1.31 9.03a3.07 3.07 0 0 1 1.88 2.4 1 1 0 0 1-1.13 1.17 6.08 6.08 0 0 1-2.42-.62 7.15 7.15 0 0 0-2.14-.67.22.22 0 0 0-.24.23c0 .4.58.94 1.46 1.27a.12.12 0 0 1 .07.11c0 .09-.08.28-.22.24-.94-.27-2-1.15-2-2.1 0-.54.22-.77.81-.77a7.75 7.75 0 0 1 2.52.67 6.25 6.25 0 0 0 2.2.59c.35 0 .5-.12.5-.46 0-.71-1.13-1.71-2.35-2.19-.66-.26-3-1-3.41-1.08-.08 0-.16-.16-.16-.38s.09-.65.23-.65a2.27 2.27 0 0 1 .59.12l2.21.67a13.85 13.85 0 0 0 2.39.61c.35 0 .5-.12.5-.46 0-.71-1.13-1.71-2.35-2.19-.66-.26-3-1-3.41-1.08-.08 0-.16-.16-.16-.38s.09-.65.23-.65a2.27 2.27 0 0 1 .59.12l2.21.67a16.66 16.66 0 0 0 2.48.67c.28 0 .36-.09.36-.23 0-.4-.58-.94-1.46-1.27a.12.12 0 0 1-.07-.11c0-.09.08-.28.22-.24a2.49 2.49 0 0 1 1.94 2.12c0 .49-.38.66-.86.66a4.29 4.29 0 0 1-1-.18 3.06 3.06 0 0 1 1.88 2.48c0 .69-.35 1-.94 1a3.63 3.63 0 0 1-.95-.09zM197.89 25.57a4.39 4.39 0 0 0-1.19-1c-.11-.07-.17-.1-.17-.13s.56-.07.59-.07c1 0 1.76.35 1.76.94a.51.51 0 0 1-.48.55.65.65 0 0 1-.51-.29zm.21 6.58V32c0-.41.13-.84.13-1.25a1.28 1.28 0 0 0-1.13-1.36c-.24-.06-.34-.11-.34-.15s.13-.08.34-.08c.56 0 .88-.06 1.18-.64 2-4.06 2.72-5.1 2.83-5.1s0 0 0 .06a.82.82 0 0 1-.08.28c-2 4.52-2.13 5.8-2.13 6.53a4.08 4.08 0 0 0 .22 1.4c.32.94-.08 1.48-.46 1.48s-.56-.33-.56-1.02zm.94-9.47a4.14 4.14 0 0 0-1.04-1.14c-.11-.08-.17-.13-.17-.15s.07 0 .22 0c.83 0 2.09.38 2.09 1.16a.55.55 0 0 1-.52.57.66.66 0 0 1-.62-.44zm5.79 4c0 1.93 0 4.24.1 6a.56.56 0 0 1-.56.57.42.42 0 0 1-.45-.46c.07-1.5.11-4.06.13-6.11-.88 0-2.23.06-3.26.15-.27 0-.66-.55-.66-.73 1.19.14 2.91.21 3.94.22v-3.57c-.74 0-1.6.07-2.33.14-.27 0-.69-.55-.69-.73a41.23 41.23 0 0 0 4.34.22h.61a.31.31 0 0 0 .24-.13c.08-.13.57-.81.74-.81s1.28.74 1.28 1.12c0 .08-.06.17-.28.17h-2.89c.14 0 .18.1.18.15a.3.3 0 0 1-.18.22c-.22.1-.22.15-.24.48 0 .6-.06 1.58-.06 2.73h2.12a.28.28 0 0 0 .22-.13 2.91 2.91 0 0 1 .78-.87c.27 0 1.33.83 1.33 1.18 0 .08-.07.17-.31.17zm-6.58 18.59a16.72 16.72 0 0 1 .73-3.92 6.72 6.72 0 0 0 .24-1.46 3.1 3.1 0 0 0-.69-1.88c-.07-.1-.15-.18-.15-.22s.17-.07.18-.07c.49 0 1.55 1.26 1.55 2.25a5.06 5.06 0 0 1-.55 1.67 8.32 8.32 0 0 0-.76 2.87c0 .43.1.88.2.88s.1-.07.17-.24a12.45 12.45 0 0 1 1.47-2.72s.06 0 .06.07a.65.65 0 0 1-.08.25 11.72 11.72 0 0 0-1.15 4 1.67 1.67 0 0 0 .11.66 1 1 0 0 1 .08.38c0 .28-.15.45-.35.45-.63.03-1.06-1.55-1.06-2.97zm7.31-5.56c0-1.39-.08-1.4-.43-1.5s-.32-.1-.32-.2a.71.71 0 0 1 .59-.43 1.35 1.35 0 0 1 1 1 2 2 0 0 1 0 .27c.25.1.78.32 1 .38.53.14.73.24.73.55 0 .74-1.44 1.16-1.89 1.29v.62c0 1.08 0 2 .08 2.67v1c1 .31 2.18 1.13 2.18 1.74 0 .28-.17.53-.39.53s-.31-.11-.48-.38a3.48 3.48 0 0 0-1.38-1.25 2.32 2.32 0 0 1-2.21 2 1.81 1.81 0 0 1-1.88-1.47c0-.83 1.15-1.43 2.54-1.43a5.16 5.16 0 0 1 .91.08v-4.01a3.1 3.1 0 0 1-.69.07A2.27 2.27 0 0 1 202.6 40h.06a1.15 1.15 0 0 1 .34 0c.27.1.74.32 1 .41a3.43 3.43 0 0 0 1 .14 5 5 0 0 0 .6-.06zm-1.26 5.93c-1 0-1.71.48-1.71.94s.73.73 1.21.73a1.74 1.74 0 0 0 1.74-1.49 4.85 4.85 0 0 0-1.23-.19zm3.15-7.38a4.39 4.39 0 0 0-1.18-1c-.1-.06-.2-.1-.2-.13s.24-.1.52-.1c.73 0 1.6.32 1.6.92a.41.41 0 0 1-.38.45.48.48 0 0 1-.35-.15zm-1.25 2.14c1-.27 1-.57 1-.69s-.24-.36-.85-.73a12.21 12.21 0 0 0-.15 1.42zm2.69-2.8a4.47 4.47 0 0 0-1.2-.91c-.1-.06-.21-.1-.21-.13s.57-.11.6-.11c.53 0 1.56.18 1.56.9a.41.41 0 0 1-.38.43.53.53 0 0 1-.37-.19zm-8.35 18.07a4 4 0 0 1-.53.06 1.82 1.82 0 0 1-1.58-1.25s0-.06.06-.06a.88.88 0 0 1 .39.21A1.83 1.83 0 0 0 200 55a3.68 3.68 0 0 0 .55 0v-.79c0-.63-.38-.7-.38-.88a.42.42 0 0 1 .43-.41.79.79 0 0 1 .8.76v.11a3.3 3.3 0 0 0 1.11.2c.29 0 .49.2.49.42s-.22.81-1.92 1.22c-.08.77-.13 1.61-.15 2.42a1.58 1.58 0 0 1 .18.76 2.57 2.57 0 0 1-.34 1.19 3.56 3.56 0 0 0-.5 1.55c0 1.26 1.64 1.4 2.07 1.4 1.19 0 3-.59 3-2.3v-.15c-.07-.92-.11-1.65-.11-2.27 0-1.08.14-2.72 1.46-2.72a1.86 1.86 0 0 1 1.85 1.67.65.65 0 0 1-.7.73h-.42a4.18 4.18 0 0 0-1.07.14.51.51 0 0 1-.18 0h-.1s.06-.1.18-.15c.39-.17 1.29-.62 1.29-1.09a.65.65 0 0 0 0-.22 1 1 0 0 0-.9-.64c-.63 0-1.05.52-1.05 1.85a12.31 12.31 0 0 0 .13 1.53c.08.74.43 1.32.43 1.89 0 .9-1.08 2.58-3.5 2.58-1 0-2.77-.34-2.77-2.1a3.66 3.66 0 0 1 .11-.85c-.85 0-1.21-1.37-1.21-2.25s.25-1.37 1-1.37a1.29 1.29 0 0 1 .84.35zm-.09 3.33v-.1c0-.59-.42-1.37-.84-1.37s-.49.71-.49.83c0 .74.43 1.51.81 1.51.22.03.41-.21.52-.87zm.83-4.57a2.7 2.7 0 0 0-.07.34 2.21 2.21 0 0 0 .77-.29s.1-.1.1-.14 0-.06-.69-.46c-.02.19-.07.37-.11.58zm1.98 21.89v1.78a1.62 1.62 0 0 1-1.74 1.54.32.32 0 0 1-.28-.17c-.24-.31-1.74-.9-1.74-1s0 0 .06 0h.17a12.89 12.89 0 0 0 1.78.22c.91 0 .92-.43.92-1.55v-.83h-.64c-.78 0-2.82 0-4.08.15-.27 0-.66-.55-.66-.73 1.44.18 4 .22 4.82.22h.56a6 6 0 0 0-.15-1.2.3.3 0 0 1 0-.1s.46.07.91.17a7.26 7.26 0 0 0 .81-1.08s0-.06-.11-.06h-.76c-1 0-1.95 0-3.17.08-.18 0-.42-.29-.5-.49a11 11 0 0 1-3.37 1.53h-.07s.08-.11.25-.2a15.63 15.63 0 0 0 5.38-4.24h-.22c-.74 0-2.79 0-4 .15-.27 0-.69-.55-.69-.73 1.37.18 4 .22 4.75.22h.92v-.27a9.33 9.33 0 0 0-.07-1.08c-1.23.11-2.61.2-3.87.2-.39 0-.76 0-.76-.13s.06-.07.22-.08a43.42 43.42 0 0 0 6.72-1.11 2.28 2.28 0 0 0 .77-.39l.08-.06.08.06c.76.76.77 1 .77 1.05s-.07.14-.18.14a.53.53 0 0 1-.24-.06.75.75 0 0 0-.27-.06h-.1c-.57.11-1.39.22-2.31.32.34.06.41.15.41.22s-.07.15-.2.21c-.28.15-.29.15-.29 1h3.31a.31.31 0 0 0 .24-.13c.56-.8.64-.87.76-.87.29 0 1.3.87 1.3 1.16 0 .1-.06.18-.29.18h-5a10.71 10.71 0 0 0 5.9 3c.1 0 .14 0 .14.06s-1.15.38-1.48.69a.2.2 0 0 1-.15.07c-.52 0-3.15-1.57-4.71-3.78 0 .56 0 1.23.07 2.1 0 .31-.34.48-.52.48a.36.36 0 0 1-.36-.41c0-.76.06-1.26.06-1.74a13.52 13.52 0 0 1-2.79 2.41c1.5.14 3 .15 3.53.15h.76a.36.36 0 0 0 .27-.11c.21-.21.34-.32.42-.32s1 .53 1 .83a.34.34 0 0 1-.31.31 1.62 1.62 0 0 0-.67.24l-1 .64h.07c.17.06.22.11.22.17s-.14.18-.29.25-.27.11-.29.56v.1h2.91a.29.29 0 0 0 .24-.13c.07-.13.62-.88.81-.88s1.36.88 1.36 1.19c0 .08-.07.17-.31.17zm-4.33 8.17a7 7 0 0 1-2.4 1.92s0-.08.14-.17a8.35 8.35 0 0 0 2.33-3.68v-.15s1.42.56 1.42.87c0 .11-.2.17-.43.17s-.22 0-.36.21-.28.34-.42.5h1.72a.24.24 0 0 0 .17-.11c.11-.2.42-.66.59-.66s1 .69 1 1c0 .07-.06.14-.27.14zm2.44 6.19h-2.44v2.51c.78-.2 1.7-.45 2.38-.67a8 8 0 0 0-1.09-1s-.07-.06-.07-.07 2.59.46 2.59 1.79c0 .29-.17.52-.38.52s-.36-.14-.53-.48a3.49 3.49 0 0 0-.41-.59 36.82 36.82 0 0 1-3.78 1.71c-.11 0-.15.17-.24.17s-.74-.94-.74-1 0 0 .07 0h.15a4 4 0 0 0 .84-.1l.42-.08V88a13.3 13.3 0 0 0-.14-1.6v-.06a4.37 4.37 0 0 1 1.09.57h1.93a.24.24 0 0 0 .18-.11c.08-.14.22-.34.34-.34s1 .48 1 .79c0 .11-.13.2-.27.29s-.24.25-.24.67c0 .62.06 2 .1 2.61a.47.47 0 0 1-.49.45.34.34 0 0 1-.36-.38zm-2.14-3.43l-.07.06c-.21.15-.18.14-.21.5v.77h2.45v-1.16a.15.15 0 0 0-.17-.17zm-.29 1.7v1.37h2.44v-1.37zm1.34-3a3.25 3.25 0 0 0-.69-1c-.07-.07-.1-.11-.1-.14s0 0 .1 0c.38 0 1.63.25 1.63 1.06a.55.55 0 0 1-.48.57c-.19-.04-.36-.17-.47-.44zm3.56-1.47a7.22 7.22 0 0 1-2.1 1.78s0-.08.11-.17c.64-.67 1.95-2.3 2-3.5 0-.11 0-.15.06-.15s1.44.45 1.44.78c0 .11-.15.17-.42.18a.56.56 0 0 0-.18 0 .75.75 0 0 0-.17.18c-.14.18-.29.38-.46.57h2.66A.24.24 0 0 0 207 84c.53-.71.64-.77.7-.77a2.32 2.32 0 0 1 1.16 1.05c0 .08-.06.17-.27.17zm.83 2.8c-.2.15-.2.15-.2 2.33v4.83a.5.5 0 0 1-.52.5.33.33 0 0 1-.36-.35c.06-1.33.08-3.28.08-4.75v-1.58a12.07 12.07 0 0 0-.14-1.79.25.25 0 0 1 0-.08h.1a5.46 5.46 0 0 1 1.09.53h1.79a.27.27 0 0 0 .22-.11c.2-.32.27-.35.32-.35.24 0 1.11.52 1.11.79 0 .11-.1.21-.25.31s-.28.2-.28 1.15v3.15a1.5 1.5 0 0 1-1.54 1.39c-.1 0-.13-.06-.18-.17-.11-.31-1.25-.9-1.25-1h.34a5.55 5.55 0 0 0 1.22.18c.55 0 .74-.2.76-.55s0-.92 0-1.69v-2.55c0-.31-.1-.2-.15-.2zm.49-1.33a3.26 3.26 0 0 0-.69-1c-.07-.07-.1-.11-.1-.14s0 0 .1 0c.38 0 1.63.25 1.63 1.06a.55.55 0 0 1-.48.57c-.19-.04-.36-.17-.47-.44zm-6.82 20.64a18.73 18.73 0 0 1 .78-4 4.85 4.85 0 0 0 .1-1 3 3 0 0 0-.31-1.44c-.06-.11-.17-.21-.17-.27s.1-.08.28-.08c.45 0 1.08.71 1.08 1.65a3.89 3.89 0 0 1-.38 1.44 8.27 8.27 0 0 0-.79 2.94c0 .55.13 1 .22 1s.11-.06.18-.22a11 11 0 0 1 1.39-2.58v.06a.86.86 0 0 1-.07.25 12.8 12.8 0 0 0-1 3.7 3.21 3.21 0 0 0 .1.8 1.32 1.32 0 0 1 0 .22.4.4 0 0 1-.38.45c-.75-.02-1.03-2.14-1.03-2.92zm7.12 2.33c-2.66 0-3.1-1.5-3.1-1.81 0-.08 0-.13.07-.13s.17.08.28.25a3.1 3.1 0 0 0 2.3.71 5 5 0 0 0 .78-.06 6.17 6.17 0 0 1 1-.25h.08c.46 0 .71.21.71.45.05.67-1.34.84-2.12.84zm-.81-6.42c-1.92 0-2.1-1.13-2.1-1.23v-.06a.65.65 0 0 1 .24.11 2.8 2.8 0 0 0 1.4.34 6.67 6.67 0 0 0 1.16-.13c.2 0 .35-.14.53-.18a1.07 1.07 0 0 1 .29 0c.39 0 .63.2.63.42.04.63-1.69.73-2.16.73zm-1.8 12.21c-2.63 4-6.05 5.79-6.65 5.79s.07-.1.22-.2a17 17 0 0 0 5.45-5.94 3.77 3.77 0 0 0 .29-1v-.1s1.57.63 1.57.88-.14.21-.46.27h-.14c1.08 1.5 3.81 3.89 6.37 4.27.08 0 .13 0 .13.06s-1.22.46-1.53.78a.22.22 0 0 1-.14.07c-.42 0-3.19-1.81-5-5zm2.41 10.65v-.56h-5v.63c0 .25-.28.43-.57.43s-.39-.1-.39-.35c.13-1.37.13-2.37.13-3.08a12.51 12.51 0 0 0-.17-1.72.23.23 0 0 1 0-.08 5.81 5.81 0 0 1 1.32.66h4.24a.23.23 0 0 0 .2-.08c.28-.32.38-.43.49-.43s1.06.64 1.06.85-.1.17-.24.25-.28.17-.28 1c0 .67.06 1.58.11 2.45 0 .32-.29.5-.55.5a.36.36 0 0 1-.39-.38zm-2.8-6.22a14.7 14.7 0 0 0-2.09.13c-.14 0-.53-.52-.53-.67a18.63 18.63 0 0 0 2.66.2h1.19a.27.27 0 0 0 .17-.11c.14-.27.53-.84.64-.84a.11.11 0 0 1 .07 0c.34.15 1.13.84 1.13 1.09 0 .1-.06.2-.27.2zm-1.86 2.42l-.08.06c-.27.17-.22.13-.24.56v2.25h5v-2.71a.17.17 0 0 0-.18-.17zm.4 14.6c0 .24-.06.85-.06 1.26a11.46 11.46 0 0 0 .31 2.49 1.56 1.56 0 0 1 .06.41c0 .39-.17.59-.36.59s-.53-.31-.59-1a8.19 8.19 0 0 0-.73-2 9.73 9.73 0 0 0-.62 1.5c-.18.59-.57.92-.84.92s-.24-.1-.24-.32a8.42 8.42 0 0 1 1.39-2.72 8.39 8.39 0 0 0-.81-1.25 1 1 0 0 1-.28-.59c0-.14.08-.28.31-.38a2.15 2.15 0 0 0 .76-.55 8.32 8.32 0 0 1 1.67-1.36v-1.3a1.77 1.77 0 0 0-.83-1.83c-.14-.1-.21-.14-.21-.2s.22-.21.52-.21c0 0 1.18 0 1.18 1.44 0 .29-.18 1.62-.22 1.86.6 0 .8.15.8.38s-.38.77-.64 1.18c-.17.25-.36.58-.57.91v.25l.14-.13a5.63 5.63 0 0 1 4-2c1.5 0 3.19 1 3.19 2.73 0 2.94-4.31 4.43-5.1 4.43h-.06s.17-.14.48-.27c.87-.36 3.74-1.92 3.74-4.09a2.33 2.33 0 0 0-2.58-2.18 5.29 5.29 0 0 0-3.73 1.92zm-.08-2.41a2.82 2.82 0 0 0-1.12 1.3.89.89 0 0 1-.8.62c-.14 0-.17.07-.17.13a5.31 5.31 0 0 0 .64 1.3 2.94 2.94 0 0 1 .2-.25 19.52 19.52 0 0 0 1.09-1.68c.03-.51.09-.99.13-1.42zm-1.09 3.92c.41.76.53.87.59.87s.07 0 .07-.11v-.17a12.29 12.29 0 0 1 .13-1.64c-.32.38-.62.7-.82 1.05zm1.58-3.66a.66.66 0 0 0 .08-.29c0-.08 0-.15-.13-.15 0 .24-.1.5-.14.8zm3.32 17.79c-.36.8-.92 1.15-1.29 1.15a.36.36 0 0 1-.39-.35 2.38 2.38 0 0 0-.76-1.32c-.13-.11-.17-.18-.17-.22s0 0 .06 0a.45.45 0 0 1 .24.11 2.12 2.12 0 0 0 1.15.53c.39 0 .74-.31.94-2a17.9 17.9 0 0 0-3.31 1 21.12 21.12 0 0 0 .21 2.56c.17 1 1.08 1.32 2 1.32a5.52 5.52 0 0 0 1.72-.29 1.5 1.5 0 0 1 .52-.11c.38 0 .64.21.64.43 0 .59-1.69.78-2.55.78-1.56 0-2.73-.6-2.94-2-.08-.56-.15-1.5-.22-2.41a15.14 15.14 0 0 0-1.65.84 1.68 1.68 0 0 1-.94.32c-.08 0-1.62-.13-1.62-1.11 0-.18.08-.25.17-.25a.4.4 0 0 1 .2.08 1.14 1.14 0 0 0 .91.36 3.1 3.1 0 0 0 1.13-.25c.55-.2 1.13-.41 1.76-.6-.06-.66-.11-1.25-.18-1.62-.11-.56-.7-.87-.7-1.09s.28-.25.56-.25 1 .21 1 1.4v1.37a32.37 32.37 0 0 1 3.36-.91v-.6c0-.49 0-2-.42-2.16-.11 0-.15-.1-.15-.14s.25-.31.56-.31a.75.75 0 0 1 .81.66c0 .25-.11.67-.14 1.58v.84l1.29-.25c.14 0 .18-.08.18-.14a.17.17 0 0 0-.06-.13 4.22 4.22 0 0 1-.62-.74.06.06 0 0 1 .07-.06.36.36 0 0 1 .2.1 5.73 5.73 0 0 0 1.63.85c1 .32 1.18.5 1.18.77s-.2.35-.53.35a1.65 1.65 0 0 1-.48-.08 6 6 0 0 0-1.75-.24 10.07 10.07 0 0 0-1.13.07 7.22 7.22 0 0 1-.49 2.16zm-.14 19.49c-.66 0-2.94-.24-2.94-3.54a7.55 7.55 0 0 1 1.34-4.5c.1-.1.17-.17.17-.2a23.18 23.18 0 0 0-3.12 1.39 2.08 2.08 0 0 1-.92.21c-.63 0-1.2-.27-1.2-.74 0-.06 0-.14.11-.14a2.8 2.8 0 0 1 .29.06 4.87 4.87 0 0 0 .69.07 2.55 2.55 0 0 0 .81-.14 43.34 43.34 0 0 1 5.24-2.1 4.2 4.2 0 0 1 1.13-.28h.07c1.29 0 1.5.45 1.5.67s-.21.43-.67.43h-.32a4.37 4.37 0 0 0-.76-.06 4.88 4.88 0 0 0-2 .39c-1 .55-1.75 2.72-1.75 4.52 0 2.86 1.82 3 2.24 3a2.61 2.61 0 0 0 .83-.14 1.15 1.15 0 0 1 .36-.06c.38 0 .63.21.63.46-.04.5-1.17.7-1.73.7zm3.41 5.58a5.27 5.27 0 0 0-1.7-1.76c-.14-.11-.28-.2-.28-.24s0 0 .1 0c.57 0 3 .56 3 1.78a.64.64 0 0 1-.59.67.66.66 0 0 1-.53-.45zM173 26c-1.27 0-2.21-.87-2.21-1.51 0-.11 0-.35.11-.35s.15.07.28.22a2.92 2.92 0 0 0 1.95.83 5.42 5.42 0 0 0 1.72-.42c-.57-.46-1.11-.85-1.46-1.12a.83.83 0 0 1-.35-.66.67.67 0 0 1 .66-.69.74.74 0 0 1 .29.06 1.51 1.51 0 0 1 .43.31 3.71 3.71 0 0 0 2 .71 2.19 2.19 0 0 0 .36 0 .44.44 0 0 1 .43.45c0 .53-1 1.09-1.33 1.28 1.21 1 2.83 2.55 2.83 4.1a.85.85 0 0 1-.77 1c-.24 0-.42-.18-.66-.36a6.18 6.18 0 0 0-2.9-.63c-1.51 0-2.09.66-2.09 1.26s.74 1.37 2.27 1.37a3.72 3.72 0 0 0 1.09-.15 1 1 0 0 1 .27 0c.38 0 .66.22.66.46s-.22.62-1.7.62c-3 0-3.25-1.76-3.25-2.07 0-1 1.06-1.88 3.38-1.88a11.34 11.34 0 0 1 2.12.21h.24c.28 0 .35-.13.35-.31 0-.42-.34-1.65-2.27-3.36A6.11 6.11 0 0 1 173 26zm3.11-2.07c0-.11-.07-.24-.32-.36a8.91 8.91 0 0 0-1.61-.5c-.18 0-.27.08-.27.18s.45.56 1.39 1.33c.61-.33.83-.5.83-.68zm-1.55 21.56c-.42 0-.6 0-.6-.11s.21-.14.56-.2c4-.63 4.62-2.45 4.62-3.05a1.55 1.55 0 0 0-1.74-1.4 4.54 4.54 0 0 0-3 1.42 1.91 1.91 0 0 1-1.28.6.94.94 0 0 1-.92-.62c0-.08.1-.11.29-.13a5.26 5.26 0 0 0 1.88-.84 5.78 5.78 0 0 1 2.89-1c1.19 0 2.61.84 2.61 2.16s-1.57 3.17-5.31 3.17zm-4.31 15.18a16.72 16.72 0 0 1 .73-3.92 6.72 6.72 0 0 0 .24-1.46 3.1 3.1 0 0 0-.69-1.88c-.07-.1-.15-.18-.15-.22s.17-.07.18-.07c.49 0 1.55 1.26 1.55 2.25a5.06 5.06 0 0 1-.55 1.67 8.32 8.32 0 0 0-.76 2.87c0 .43.1.88.2.88s.1-.07.17-.24a12.45 12.45 0 0 1 1.47-2.72s.06 0 .06.07a.65.65 0 0 1-.08.25 11.72 11.72 0 0 0-1.15 4 1.67 1.67 0 0 0 .11.66 1 1 0 0 1 .08.38c0 .28-.15.45-.35.45-.63.03-1.06-1.56-1.06-2.97zm7.31-5.56c0-1.39-.08-1.4-.43-1.5s-.32-.1-.32-.2a.71.71 0 0 1 .59-.43 1.35 1.35 0 0 1 1 1 2 2 0 0 1 0 .27c.25.1.78.32 1 .38.53.14.73.24.73.55 0 .74-1.44 1.16-1.89 1.29v.62c0 1.08 0 2 .08 2.68v1c1 .31 2.18 1.13 2.18 1.74 0 .28-.17.53-.39.53s-.31-.11-.48-.38a3.48 3.48 0 0 0-1.36-1.25 2.32 2.32 0 0 1-2.21 2 1.81 1.81 0 0 1-1.9-1.41c0-.83 1.15-1.43 2.54-1.43a5.16 5.16 0 0 1 .91.08v-4.01a3.1 3.1 0 0 1-.69.07 2.27 2.27 0 0 1-2.28-1.3h.06a1.15 1.15 0 0 1 .32.08c.27.1.74.32 1 .41a3.43 3.43 0 0 0 1 .14 5 5 0 0 0 .6-.06zM176.31 61c-1 0-1.71.48-1.71.94s.73.73 1.21.73a1.74 1.74 0 0 0 1.74-1.49 4.85 4.85 0 0 0-1.24-.18zm1.89-5.24c1-.27 1-.57 1-.69s-.24-.36-.85-.73a12.21 12.21 0 0 0-.15 1.45zm1.86-1.62a1.22 1.22 0 0 1-1.23-1.23 1.24 1.24 0 0 1 1.23-1.25 1.25 1.25 0 0 1 1.25 1.25 1.24 1.24 0 0 1-1.25 1.26zm.84-1.25a.82.82 0 0 0-.83-.83.83.83 0 0 0-.84.83.84.84 0 0 0 .84.84.83.83 0 0 0 .83-.81zM173.5 71s0-.07.1-.24c.38-1.21 1.08-1.78 1.76-1.78 1.44 0 2.16 2.16 2.16 4 0 4.54-3.94 6.75-4.5 6.75s.14-.17.46-.38a7.62 7.62 0 0 0 3.15-6.26c0-1.75-.6-3.46-1.53-3.46-.77 0-1.55 1.16-1.55 2.63A3.87 3.87 0 0 0 174 74a.91.91 0 0 1 .08.38c0 .36-.2.69-.43.69-.41 0-.94-1.2-.94-2.17a8.87 8.87 0 0 1 .28-1.92 12.64 12.64 0 0 0 .39-2.41c0-.38-.07-.67-.25-.76s-.2-.11-.2-.21.27-.25.38-.25.76.22.76 1.12a9.64 9.64 0 0 1-.49 2.34c-.06.06-.08.13-.08.19zm.33 16.2a17 17 0 0 1 .21-2 8.21 8.21 0 0 0 .08-.9c0-.53-.17-.73-.73-.84-.13 0-.2-.08-.2-.15a.54.54 0 0 1 .57-.39 1.48 1.48 0 0 1 1.3 1.36 4.38 4.38 0 0 1-.17.85 11.58 11.58 0 0 0-.38 2.28 1.36 1.36 0 0 0 1 1.51 3.08 3.08 0 0 1 1.22-.34c.56 0 .6.34.6.43 0 .53-.7.7-1.11.7h-.32c-1.16 0-3 1.08-3 2.38 0 .87.73 1.61 2.2 1.61a4.31 4.31 0 0 0 1.89-.42 1.12 1.12 0 0 1 .43-.11.53.53 0 0 1 .57.48c0 .67-1.51 1-2.51 1-2.41 0-3.18-1.51-3.18-2.4a3.8 3.8 0 0 1 2.51-3 1.94 1.94 0 0 1-.98-2.05zm1.45 22.61c-1.23 0-3.05-.59-3.05-4.15 0-1.54.32-3.11.32-4.64a2.5 2.5 0 0 0-.39-1.67c-.13-.14-.18-.22-.18-.28s.06-.08.15-.08a1.43 1.43 0 0 1 1.47 1.48 2.89 2.89 0 0 1 0 .46 33.71 33.71 0 0 0-.67 5c0 .81.07 3 2.55 3a6.68 6.68 0 0 0 4.15-1.81.58.58 0 0 1 .25-.15c-.02.24-2.07 2.84-4.6 2.84zm-3.28 7.66c-1.61 0-1.91-1.06-1.91-1.27 0-.06 0-.08.06-.08a.88.88 0 0 1 .28.14 3.08 3.08 0 0 0 1.53.46 5.45 5.45 0 0 0 1.12-.14 6.06 6.06 0 0 0 .07-.87c0-.5-.1-.91-.41-1-.15 0-.35-.07-.35-.18a.71.71 0 0 1 .63-.36c.27 0 .85.21.92 1.09a5.46 5.46 0 0 0 .91.21c.24 0 .41.17.41.38 0 .59-1.16 1.08-1.68 1.26l-.08.24a58 58 0 0 0-1.93 6.37c-.15.71-.55 1.16-.83 1.16s-.42-.24-.42-.64a1.78 1.78 0 0 1 .28-.88 56.26 56.26 0 0 0 2.33-6.05 3.69 3.69 0 0 1-.93.16zm1.82-1.16c.38-.2.59-.39.59-.5s-.14-.24-.46-.38a3.52 3.52 0 0 1-.09.87zm4.43 8.54c-1.69 0-3.29-.88-3.29-1.91 0-.41.29-.84.43-.84s.07 0 .07.11a.6.6 0 0 1-.06.21.58.58 0 0 0-.07.27c0 .6 1 1.21 2.33 1.21.25 0 .5-.07.91-.07.66 0 1 .24 1 .48.06.05.04.54-1.29.54zm1.42-6.77a3.9 3.9 0 0 0-2 1 .28.28 0 0 1-.18.08h-.06a.17.17 0 0 1 .06-.13c.32-.41.43-.46.69-.84a.84.84 0 0 0 .2-.43c0-.42-.85-.55-1.13-.55h-.15a1.93 1.93 0 0 1-.32.06h-.08a1.46 1.46 0 0 1 1.19-.43c1.29 0 2.23.66 2.23 1-.05.07-.2.16-.42.24zm-8.17 22.5a.56.56 0 0 1-.56.53c-.21 0-.39-.14-.39-.46.07-1.53.11-3.87.14-6a6.17 6.17 0 0 1-2.69 3s.07-.11.2-.24a11.55 11.55 0 0 0 2.54-4.83v-.1a11.58 11.58 0 0 0-1.58.13c-.17 0-.56-.52-.56-.67a17.47 17.47 0 0 0 2.16.2 29.16 29.16 0 0 0-.14-3.33.32.32 0 0 1 0-.1s1.44.18 1.44.5c0 .08-.08.17-.24.25s-.31.1-.34.55 0 1.22 0 2.16h.21a.26.26 0 0 0 .18-.11c.25-.43.48-.69.57-.69.25 0 1 .78 1 1s-.06.17-.25.17h-1.79v.92c.62 0 1.74.25 1.74 1a.43.43 0 0 1-.39.48.61.61 0 0 1-.46-.34 3.52 3.52 0 0 0-.88-1c0 2.28 0 5.07.1 7zm7.26-1.88c-.45 2.37-2 2.38-2.07 2.38a.16.16 0 0 1-.17-.11c-.13-.43-1.19-1-1.19-1.15s0 0 .06 0h.08a8.55 8.55 0 0 0 1.22.21c.5 0 .94-.27 1.22-1.32h-3.57c0 .27-.1.53-.14.77a.66.66 0 0 1-.63.43.26.26 0 0 1-.29-.27.37.37 0 0 1 0-.13 28.22 28.22 0 0 0 .77-3.89c-.55 0-1.13.06-1.65.11-.21 0-.59-.48-.59-.64.67.1 1.57.14 2.31.17.11-.83.22-2.73.22-2.94v-.22h.1c.2.07.7.35 1 .46h2.65c.15 0 .17-.06.22-.11.29-.32.32-.32.34-.32.18 0 1 .5 1 .71s-.13.24-.36.36-.18.14-.18.38c0 .53 0 1.09-.06 1.64h.45a.24.24 0 0 0 .17-.1c.35-.56.49-.74.62-.74h.08c.39.17 1 .73 1 1 0 .1-.06.18-.27.18h-2c0 1-.1 2-.2 2.69v.08h.52a.29.29 0 0 0 .18-.11c.42-.66.49-.74.6-.74h.08c.24.1 1 .71 1 1 0 .07-.07.15-.27.15zm-4.06-7.7c-1 1.71-1.75 2.38-1.92 2.38a.88.88 0 0 1 .2-.32 12.35 12.35 0 0 0 1.77-4.4v-.14s1.37.41 1.37.64c0 .08-.11.17-.38.22s-.2.11-.28.27-.32.62-.55 1h3.46a.29.29 0 0 0 .2-.11c.41-.57.53-.74.7-.74.34 0 1.23.77 1.23 1 0 .1-.07.18-.31.18zm1.08 7.37c.11-.67.25-1.75.35-2.77h-1.34c-.11.87-.24 1.86-.39 2.77zm.39-3.11c.06-.48.13-1.71.13-2.1V133h-.91c-.29.11-.28.08-.35.63 0 .38-.11 1-.2 1.65zm1.82 3.11a19 19 0 0 0 .27-2.77h-1.42c-.08.92-.18 1.85-.31 2.77zm.28-3.11c0-.81.06-1.58.07-2.09 0-.17-.11-.2-.21-.2h-.79a.14.14 0 0 1 .07.11s0 .1-.14.15-.22.08-.27.55-.1 1-.14 1.5zm-6.46 16.82h-1.5v1.49a.51.51 0 0 1-.52.48.35.35 0 0 1-.36-.39c.07-1.08.08-2.75.08-4.17a18.52 18.52 0 0 0-.14-3.82.5.5 0 0 0 0-.08 5.78 5.78 0 0 1 1.23.62h.88a.24.24 0 0 0 .2-.11c.21-.35.29-.39.36-.39s1 .45 1 .74-.18.25-.28.32-.2.1-.21.42 0 .83 0 1.48c0 1.4 0 3.32.07 4.24a.51.51 0 0 1-.49.5c-.18 0-.34-.11-.34-.42zm5-2c.73 1.32 2.58 3.67 4.71 4.23h.08s-1.13.21-1.5.53a.17.17 0 0 1-.13.06c-.42 0-2.46-2.27-3.28-4.59 0 1.89 0 4 .1 5.58a.5.5 0 0 1-.53.48.37.37 0 0 1-.39-.41c.07-1.36.1-3.18.11-4.9a9.4 9.4 0 0 1-5.74 4.57h-.07s.1-.11.29-.21a12.24 12.24 0 0 0 5.14-5.28c-.67 0-1.47 0-2.17.11-.22 0-.59-.52-.59-.69a31.32 31.32 0 0 0 3.15.2v-2.18c-.59 0-1.27 0-2.07.13-.22 0-.59-.52-.59-.69a24.23 24.23 0 0 0 2.68.18 16.25 16.25 0 0 0-.17-2.7.18.18 0 0 1 0-.08h.06c.32 0 1.47.29 1.47.5s-.07.17-.21.24c-.29.15-.34.06-.36.52v1.57h1.18a.26.26 0 0 0 .21-.13c.11-.17.52-.77.7-.77h.08c.41.15 1.12.78 1.12 1.08 0 .08-.06.17-.27.17h-3v2.18h2a.26.26 0 0 0 .21-.13c.11-.18.56-.77.7-.77h.08c.32.13 1.13.74 1.13 1.06 0 .1-.06.18-.28.18zm-5 1.68v-5.07c0-.07 0-.17-.13-.17h-1.11c-.18.14-.22.17-.24.57s0 1.06 0 1.91v2.72zm1.54 13.7c1.42 2.2 2.65 4.13 2.65 5.37 0 .56-.28.85-.56.85s-.5-.25-.5-.81c0-1.08-.31-2.34-2-5.17-.07-.11-.13-.22-.21-.35l-.53.43a3 3 0 0 1-1.82.8 1.28 1.28 0 0 1-1.26-.87c0-.07 0-.11.14-.11h.2a1.94 1.94 0 0 0 .62.1c.67 0 1.15-.28 2.24-1a8 8 0 0 0-.88-1.11 1.07 1.07 0 0 1-.45-.78 1.1 1.1 0 0 1 .36-.73c.28-.29.63-.36 1.34-.36h1.33c.62 0 .9-.06.9-.38a1.15 1.15 0 0 0-.13-.49c0-.06-.1-.13-.1-.17s0 0 .08 0c.31 0 1.19.52 1.19 1.16a.69.69 0 0 1-.71.74 2.6 2.6 0 0 1-.76-.15 7 7 0 0 0-1.83-.41c-.78 0-.92.56-.92.71s.17.6 1 1.72c1.47-1 3.22-2.07 5-2.07s2.77 1 2.77 2-1.16 2.21-2.8 2.21a3.62 3.62 0 0 1-3.24-2.19s.2.11.38.31a3.33 3.33 0 0 0 2.54 1.09c1.89 0 2.26-1.18 2.26-1.58 0-.87-.85-1.39-1.91-1.39-1.58 0-3.35 1.19-4.65 2.21zM146.74 25l.73-.28c.35-.13.52-.42 1-.46h.17c.83 0 1 .1 1 .34s-.2.38-.57.45a18.7 18.7 0 0 0-2.19.63c.15.62.31 1.2.49 1.81l1.88-.63c.78-.27.48-.45 1.23-.45h.08c1.32 0 1.49.21 1.49.48s-.22.41-.6.42a10.53 10.53 0 0 0-3.91.74 27.44 27.44 0 0 0 1.13 3 3 3 0 0 1 .27 1.18c0 .36-.11.57-.29.57-.5 0-.81-1.36-.85-1.51s-.06-.45-.13-.74c-.17-.64-.41-1.48-.66-2.35-.67.24-1.37.5-2.13.81-.57.24-.67.45-1.16.45a4.36 4.36 0 0 1-1.32-.25.85.85 0 0 1-.52-.67c0-.1.06-.13.15-.13a1 1 0 0 1 .31.06 3.28 3.28 0 0 0 .87.11 14.81 14.81 0 0 0 3.64-.94c-.18-.6-.38-1.23-.56-1.81a7.27 7.27 0 0 1-2.34.64c-.78 0-1.11-.46-1.11-.73 0-.07 0-.1.1-.1h.14a1.45 1.45 0 0 0 .53.08 8.45 8.45 0 0 0 2.46-.56c-.06-.18-.13-.35-.18-.52-.42-1.22-.57-1.65-1.08-1.65h-.28c-.1 0-.2 0-.2-.13a.65.65 0 0 1 .71-.46c.39 0 1.44.27 1.44.8a1.58 1.58 0 0 1 0 .25 2.38 2.38 0 0 0 0 .29 2.89 2.89 0 0 0 .15.77zm3.5 18.59c.38 0 .49-.14.74-.14.59 0 1.27.34 1.27.7 0 .18-.2.34-.45.34a1 1 0 0 1-.2 0 7.15 7.15 0 0 0-1.76-.18 16.86 16.86 0 0 0-3.38.39 3.85 3.85 0 0 1-.64.11c-.49 0-1.33-.25-1.33-.81 0-.17.07-.24.17-.24a.37.37 0 0 1 .17 0l.13.07a2.44 2.44 0 0 0 1 .18l2.72-.29c.15-.73.39-1.83.53-2.47a.62.62 0 0 1 0-.07.08.08 0 0 0-.08-.08 8.08 8.08 0 0 0-1.78.48 1.73 1.73 0 0 1-.53.11c-.45 0-1.08-.41-1.08-.74a.14.14 0 0 1 .15-.15.83.83 0 0 1 .27.07.89.89 0 0 0 .32 0 17.44 17.44 0 0 0 2.33-.32c.25 0 .32-.24.55-.24s1.08.29 1.08.67a.35.35 0 0 1-.11.21c-.11.11-.25.2-.31.35-.2.57-.45 1.46-.62 2.07zm-3.91 17.7v-.17c0-.9.07-2.44.07-4 0-3.28-.11-3.7-.55-3.84-.08 0-.24-.1-.24-.2a.38.38 0 0 1 .41-.25c.49 0 1.54.64 1.54 1.09 0 .24-.18.45-.24.67s-.13.06-.13 3.07v3.25c0 1.5-.25 1.88-.48 1.88s-.38-.5-.38-1.5zm.13 12.55c0 1.74 0 3.5.06 3.71 0 .92-.21 1.39-.49 1.39s-.62-.48-.62-1.25a3.62 3.62 0 0 1 .07-.64 7.48 7.48 0 0 0 .17-.87c.08-.67.13-2.42.13-3.91 0-2.8-.17-3.33-.66-3.36-.2 0-.28-.07-.28-.17a.42.42 0 0 1 .43-.32c.45 0 1.49.57 1.49 1.26 0 .29-.14.62-.2 1.15s-.08 1.12-.1 1.86h.85c2.07 0 2.56.74 2.56 1.18a.48.48 0 0 1-.49.5.93.93 0 0 1-.55-.22 6.65 6.65 0 0 0-2.38-1.29zM144 90.6a1.1 1.1 0 0 1-.88.7.28.28 0 0 1-.31-.32 1.26 1.26 0 0 1 .28-.7 23.82 23.82 0 0 0 2.46-4.28c0-.06.06-.11.07-.17a3.58 3.58 0 0 1-.9.13 1.62 1.62 0 0 1-1.72-1.3c0-.06 0-.07.06-.07a.76.76 0 0 1 .27.13 2.72 2.72 0 0 0 1.44.46 4.29 4.29 0 0 0 1-.15 5.26 5.26 0 0 0 0-.64c0-.9-.22-.91-.35-.91s-.35 0-.35-.14a.58.58 0 0 1 .56-.42.88.88 0 0 1 .87 1c1.05.2 1.18.24 1.18.5s-.69 1-1.55 1.27c-.13.31-.26.77-2.13 4.91zm2.49 4a1.78 1.78 0 0 1-1.83-1.51c0-.83 1.05-1.32 2.45-1.32a4.94 4.94 0 0 1 1 .1c0-.59-.07-1.23-.07-1.75a2.61 2.61 0 0 1 1.33-2.56c.46-.31.85-.63.85-1 0-.15 0-.18-.39-.57-.11-.11-.2-.2-.2-.24s.06-.06.18-.06c.85 0 1.72.73 1.72 1.36 0 .21-.14.76-.56.76a2 2 0 0 1-.38-.06.64.64 0 0 0-.18 0c-.43 0-1.92.14-1.92 1.51 0 .22 0 .49.06.8 0 .58.18 1.33.21 2 1.16.41 2.07 1.11 2.07 1.74a.48.48 0 0 1-.41.53c-.15 0-.32-.11-.48-.39a3.14 3.14 0 0 0-1.22-1.15 2.37 2.37 0 0 1-2.25 1.79zm.22-2.38c-1 0-1.65.41-1.65.81s.71.74 1.27.74a1.69 1.69 0 0 0 1.75-1.3 4.17 4.17 0 0 0-1.38-.27zm-.25-7.41a1.75 1.75 0 0 0 .39-.25.27.27 0 0 0 .1-.21c0-.18-.22-.28-.38-.34a3.5 3.5 0 0 1-.13.78zm2.13 24.88c-.66 0-2.94-.24-2.94-3.54a7.55 7.55 0 0 1 1.34-4.5c.1-.1.17-.17.17-.2a23.18 23.18 0 0 0-3.12 1.39 2.08 2.08 0 0 1-.92.21c-.63 0-1.2-.27-1.2-.74 0-.06 0-.14.11-.14a2.8 2.8 0 0 1 .29.06 4.87 4.87 0 0 0 .69.07 2.55 2.55 0 0 0 .81-.14A43.34 43.34 0 0 1 149 100a4.2 4.2 0 0 1 1.13-.28h.07c1.29 0 1.5.45 1.5.67s-.21.43-.67.43h-.32a4.37 4.37 0 0 0-.76-.06 4.88 4.88 0 0 0-2 .39c-1 .55-1.75 2.72-1.75 4.52 0 2.86 1.82 3 2.24 3a2.61 2.61 0 0 0 .83-.14 1.15 1.15 0 0 1 .36-.06c.38 0 .63.21.63.46.02.56-1.11.76-1.67.76zm-1.12 14.65a2.65 2.65 0 0 0 2.4-2.52 2.17 2.17 0 0 0-2.28-2.14 3.46 3.46 0 0 0-3.08 2c-.13.22-.35.73-.45.87a.78.78 0 0 1-.6.39.39.39 0 0 1-.39-.42c0-.22.13-.52 1.15-1.72.56-.66 3.14-4.2 3.38-4.58a.82.82 0 0 0 .14-.35c0-.07 0-.25-.36-.25-.67 0-1 1.29-1.95 1.29a.8.8 0 0 1-.88-.8c0-.11 0-.22.11-.22a.92.92 0 0 1 .27.08 1.1 1.1 0 0 0 .36.06.89.89 0 0 0 .57-.2 3.4 3.4 0 0 1 1.92-.85c.66 0 1.22.52 1.22.83s-.25.49-.55.71a19 19 0 0 0-2.9 3.36h.07a4.26 4.26 0 0 1 2.23-.64 2.7 2.7 0 0 1 2.9 2.61c0 1.58-1.47 3.15-3.87 3.15-1 0-2.2-.53-2.2-1.41a1.2 1.2 0 0 1 1.32-1 1.47 1.47 0 0 1 1.5 1.42 1.28 1.28 0 0 1-.08.45zm-.73-.43a.94.94 0 0 0-.91-1c-.59 0-.66.41-.66.56 0 .52.77.83 1.46.88a1 1 0 0 0 .11-.44zm1.85 16.58c-.66 0-2.94-.24-2.94-3.54a7.55 7.55 0 0 1 1.34-4.5c.1-.1.17-.17.17-.2a23.18 23.18 0 0 0-3.12 1.39 2.08 2.08 0 0 1-.92.21c-.63 0-1.2-.27-1.2-.74 0-.06 0-.14.11-.14a2.8 2.8 0 0 1 .29.06 4.87 4.87 0 0 0 .69.07 2.55 2.55 0 0 0 .81-.14 43.34 43.34 0 0 1 5.24-2.1 4.2 4.2 0 0 1 1.13-.28h.07c1.29 0 1.5.45 1.5.67s-.21.43-.67.43h-.32a4.37 4.37 0 0 0-.76-.06 4.88 4.88 0 0 0-2 .39c-1 .55-1.75 2.72-1.75 4.52 0 2.86 1.82 3 2.24 3a2.61 2.61 0 0 0 .83-.14 1.15 1.15 0 0 1 .36-.06c.38 0 .63.21.63.46-.04.5-1.17.7-1.73.7zm-1.12 14.65a2.65 2.65 0 0 0 2.4-2.52 2.17 2.17 0 0 0-2.28-2.14 3.46 3.46 0 0 0-3.08 2c-.13.22-.35.73-.45.87a.78.78 0 0 1-.6.39.39.39 0 0 1-.39-.42c0-.22.13-.52 1.15-1.72.56-.66 3.14-4.2 3.38-4.58a.82.82 0 0 0 .14-.35c0-.07 0-.25-.36-.25-.67 0-1 1.29-1.95 1.29a.8.8 0 0 1-.88-.8c0-.11 0-.22.11-.22a.92.92 0 0 1 .27.08 1.1 1.1 0 0 0 .36.06.89.89 0 0 0 .57-.2 3.4 3.4 0 0 1 1.92-.85c.66 0 1.22.52 1.22.83s-.25.49-.55.71a19 19 0 0 0-2.9 3.36h.07a4.26 4.26 0 0 1 2.23-.64 2.7 2.7 0 0 1 2.9 2.61c0 1.58-1.47 3.15-3.87 3.15-1 0-2.2-.53-2.2-1.41a1.2 1.2 0 0 1 1.32-1 1.47 1.47 0 0 1 1.5 1.42 1.28 1.28 0 0 1-.08.45zm-.73-.43a.94.94 0 0 0-.91-1c-.59 0-.66.41-.66.56 0 .52.77.83 1.46.88a1 1 0 0 0 .11-.44zm-3.42 9.03v3.78c.78-.28 1.6-.6 2.14-.85a.42.42 0 0 1 .18-.06c0 .32-3.82 2.27-4.27 2.48-.13.06-.14.2-.22.2-.25 0-.83-1-.83-1.06s0 0 .07 0h.13a4.77 4.77 0 0 0 1.92-.42v-4c-.48 0-.87.08-1.4.13-.21 0-.63-.5-.63-.69a20.19 20.19 0 0 0 2 .2v-1.54a13 13 0 0 0-.17-2.1.15.15 0 0 1 0-.07s1.6.27 1.6.59c0 .13-.15.24-.35.32s-.29.27-.29 2.86h.32c.08 0 .11-.06.15-.13s.42-.69.59-.69 1 .81 1 1-.06.15-.27.15zm5.14 1.55c-.52 3-1.88 5.42-5.6 6.39a2 2 0 0 1-.41.08h-.08a1 1 0 0 1 .45-.25c3.61-1.26 4.73-4.48 5-7.8v-1.02c-.77 0-1.74 0-2.47.11-.22 0-.56-.52-.56-.67 1 .13 2.49.18 3.45.2v-.63a18.92 18.92 0 0 0-.13-2 .26.26 0 0 1 0-.1s1.55.18 1.55.52c0 .1-.11.21-.28.31s-.29.15-.32.67 0 .83-.06 1.26h2a.29.29 0 0 0 .2-.11c.57-.81.59-.83.71-.83h.09a2.67 2.67 0 0 1 1.18 1.12c0 .08-.07.15-.31.15H149c.13 0 .18.08.18.15s-.1.18-.24.25-.24 0-.28.52-.1.94-.17 1.39h2.07c.14 0 .17-.07.22-.13a1.85 1.85 0 0 1 .38-.34c.17 0 1.08.5 1.08.78 0 .13-.1.24-.32.34s-.29.24-.31.56c-.1 2.58-.56 5.35-2.94 5.35h-.14a.34.34 0 0 1-.21-.15c-.14-.31-1.72-1.08-1.72-1.19h.15a8 8 0 0 0 1.81.35c1.69 0 2.17-1.93 2.17-5 0-.14 0-.22-.2-.22zm-3.07 21.23c-.79 0-2.8 0-4.06.15-.27 0-.66-.55-.66-.73 1.44.18 4 .22 4.8.22h.92v-3.78h-.48a27.75 27.75 0 0 0-2.94.15c-.24 0-.63-.55-.63-.73a30.14 30.14 0 0 0 3.66.2h.41v-1.7a9.63 9.63 0 0 0-.13-1.67h-.63c-.77 0-2.28 0-3.52.15-.25 0-.67-.55-.67-.73 1.41.17 3.46.22 4.26.22h4.08a.29.29 0 0 0 .22-.13c.35-.53.63-.92.8-.92h.1a2.89 2.89 0 0 1 1.22 1.23c0 .08-.07.15-.29.15h-4.26.1c.13 0 .18.1.18.17s-.07.15-.21.22c-.31.15-.29.15-.32 1v2h1.78a.28.28 0 0 0 .21-.13 6.64 6.64 0 0 1 .66-.81.17.17 0 0 1 .13-.06 2.8 2.8 0 0 1 1.25 1.16c0 .08-.06.18-.28.18h-3.79v3.78h3.24a.29.29 0 0 0 .24-.13c.14-.22.64-1 .84-1s1.36.92 1.36 1.26c0 .08-.07.17-.31.17zm1.53-9.89a6.82 6.82 0 0 0-2.17-1.36c-.07 0-.11-.06-.11-.07s.07-.06.49-.06 2.83.1 2.83 1.22a.51.51 0 0 1-.49.55.76.76 0 0 1-.55-.28zm.27 17.91c0 3.07-2.45 6.19-3.66 6.19-.69 0-.94-.94-1.51-1.77a2.17 2.17 0 0 1-.34-1.27 5.71 5.71 0 0 1 5.65-5.5 4.46 4.46 0 0 1 4.82 4.48c0 4.26-4.87 5.46-6 5.46-.13 0-.2 0-.2-.06s.22-.18.63-.29c3.68-1 4.68-3.43 4.68-5.17a3.86 3.86 0 0 0-4.09-4h-.5a2.43 2.43 0 0 1 .52 1.93zm-.49-.5c0-1-.24-1.25-.55-1.25h-.25a5 5 0 0 0-3.52 4.55c0 1.23.62 2.17 1.29 2.17.94.03 3.03-2.9 3.03-5.51zM117.39 32.49c-.79 0-2.8 0-4.06.15-.27 0-.66-.55-.66-.73 1.44.18 4 .22 4.8.22h.81v-4.94h-.5a30.15 30.15 0 0 0-3.08.15c-.24 0-.63-.55-.63-.73a32.23 32.23 0 0 0 3.8.22h.43v-2.45a7.83 7.83 0 0 0-.24-1.67h-.55c-.77 0-2.28 0-3.52.15-.25 0-.67-.55-.67-.73 1.42.17 3.46.22 4.26.22h4.36a.28.28 0 0 0 .22-.13c.35-.53.63-.92.8-.92h.1a2.88 2.88 0 0 1 1.22 1.23c0 .08-.07.15-.29.15h-4.5.1c.13 0 .18.1.18.17s-.07.15-.21.22c-.31.15-.29.15-.32 1v2.75h2.09a.28.28 0 0 0 .21-.13 6.71 6.71 0 0 1 .66-.81.17.17 0 0 1 .13-.06 2.8 2.8 0 0 1 1.2 1.18c0 .08-.06.18-.28.18h-4v4.94h3.33a.29.29 0 0 0 .24-.13c.14-.22.64-1 .84-1S125 32 125 32.32c0 .08-.07.17-.31.17zm4.51-2.63a7.79 7.79 0 0 0-1.43-1.54c-.11-.1-.15-.14-.15-.17.45 0 2.69.55 2.69 1.71a.5.5 0 0 1-.45.56c-.18-.02-.43-.17-.66-.56zm-2.63 12.64v3.07c0 .39.06 1 .06 1.3 0 1.6-1.76 1.68-1.89 1.68s-.2-.06-.28-.18c-.22-.35-1.64-1-1.64-1.08s0 0 .06 0h.18a11.23 11.23 0 0 0 1.78.24c.59 0 .87-.2.9-.78v-4.26h-1.21c-.78 0-2.82 0-4.08.15-.27 0-.66-.55-.66-.73 1.44.18 4 .22 4.82.22h1.13v-.52a9.77 9.77 0 0 0-.17-1.72.4.4 0 0 1 0-.11 9.92 9.92 0 0 1 1 .21 9.79 9.79 0 0 0 1.47-2s0-.08-.15-.08h-1.89c-1.2 0-2.27 0-3.74.11-.27 0-.66-.49-.66-.7 1.89.2 3.82.21 4.44.21h1.91a.5.5 0 0 0 .35-.14c.13-.1.34-.29.43-.35a.3.3 0 0 1 .15-.06c.27 0 1.27.71 1.27 1s-.2.32-.42.36a2 2 0 0 0-.91.36c-.48.36-1.29 1-1.92 1.4h.08c.17.06.22.13.22.2s-.14.21-.29.29-.32.17-.32 1.57h3.36a.29.29 0 0 0 .24-.13c.2-.31.66-.92.81-.92s1.3.89 1.3 1.22c0 .08-.07.17-.31.17zm-6.37 21.27c0-.22.17-.48.55-.62a2.68 2.68 0 0 0 1.48-1.28c0-.07.06-.1.08-.1s0 .25 0 .28c0 1.25-.88 2.21-1.6 2.21a.52.52 0 0 1-.51-.49zm4.61-9.57c-.74 0-2.72 0-3.92.15-.25 0-.66-.52-.66-.7 1.39.17 3.89.22 4.66.22h1.79a6.59 6.59 0 0 0 1-2.31c0-.1 0-.13.06-.13s1.36.66 1.36 1c0 .11-.18.17-.45.17a.41.41 0 0 0-.38.15c-.27.24-.9.78-1.36 1.15h2.86a.31.31 0 0 0 .24-.13c.14-.21.6-.77.77-.77s1.3.73 1.3 1.06c0 .08-.06.15-.29.15zm-2.31 4.72v2.14c0 .29-.35.41-.52.41s-.36-.08-.36-.29c.07-1.21.08-3 .08-4a8.17 8.17 0 0 0-.14-2.09.2.2 0 0 1 0-.08 6.77 6.77 0 0 1 1.16.5h1.91a.22.22 0 0 0 .18-.1 1.87 1.87 0 0 1 .27-.29.34.34 0 0 1 .13 0c.11 0 .92.39.92.7 0 .13-.15.21-.28.28s-.25.15-.25 1.78v2.31a1.18 1.18 0 0 1-1.27 1.22c-.11 0-.15 0-.21-.14s-1.12-.73-1.12-.83h.08a10 10 0 0 0 1.08.13c.38 0 .6-.1.62-.43s0-.63 0-1.15zm2.42-1.54h-2.41v1.21h2.42zm-2.17-1.54c-.18.13-.17.11-.18.45V57h2.41v-1s0-.14-.17-.14zm1.46-2.7a4.41 4.41 0 0 0-.9-1.19c-.07-.07-.11-.11-.11-.14s0 0 .1 0c.53 0 1.93.39 1.93 1.26a.52.52 0 0 1-.48.56c-.18-.03-.39-.16-.55-.5zm0 10.48v-.1a3.91 3.91 0 0 0 0-.41 6.58 6.58 0 0 0-.1-1.12v-.13c0-.02 0 0 0 0A2.36 2.36 0 0 1 118 63.3a.74.74 0 0 1-.63.83c-.26 0-.44-.13-.44-.52zm3.25-.07a6.7 6.7 0 0 0-.6-1.48.58.58 0 0 1-.07-.15c.22 0 1.71.73 1.71 1.58a.58.58 0 0 1-.53.62c-.17-.03-.39-.19-.49-.58zm0-3.64a.32.32 0 0 1-.32-.36v-.06c.06-.59.08-2.56.08-2.8a6.28 6.28 0 0 0-.11-1.16.19.19 0 0 1 0-.07s1.34.17 1.34.46c0 .07-.07.14-.2.21s-.29 0-.32.48v2.88a.47.47 0 0 1-.49.41zm.22.55h.11a6.13 6.13 0 0 0 1.29.2c.45 0 .67-.15.69-.52V58.9a19.94 19.94 0 0 0-.14-3.92.19.19 0 0 1 0-.07s1.4.15 1.4.42c0 .08-.1.18-.22.24s-.28 0-.29.56v3.12c0 .24.06 1 .06 1a1.31 1.31 0 0 1-1.42 1.23c-.11 0-.15 0-.22-.14-.18-.25-1.3-.8-1.3-.88zm3.14 3.07a8.34 8.34 0 0 0-1.13-1.43c-.08-.07-.11-.11-.11-.14s0 0 .06 0c.52 0 2.28.49 2.28 1.5a.52.52 0 0 1-.48.56.75.75 0 0 1-.64-.51zm-6.73 11.34h-2v2.73a17.78 17.78 0 0 0 1.85-.63 7 7 0 0 0-1.06-1s-.08-.06-.08-.07c.41 0 2.49.57 2.49 1.6a.45.45 0 0 1-.41.49c-.17 0-.36-.13-.52-.42a3 3 0 0 0-.31-.48 25.43 25.43 0 0 1-3.26 1.75c-.11.06-.14.18-.22.18a2.48 2.48 0 0 1-.78-.94h.13a3.41 3.41 0 0 0 .92-.15l.49-.13v-5.49c0-.14 0-.7-.08-1.21a6 6 0 0 1-1.65 1.54s0-.08.11-.18c1.2-1.39 2.75-4.29 2.83-5.37v-.15s1.42.57 1.42.85c0 .13-.17.21-.39.22s-.31.07-.34.1h.07c1.21.21 2.16.7 2.16 1.4a.43.43 0 0 1-.38.48c-.17 0-.36-.13-.55-.42a5.85 5.85 0 0 0-1.3-1.33 20.66 20.66 0 0 1-1.62 2.52 4.43 4.43 0 0 1 .81.45h.39a5.14 5.14 0 0 0-.14-1.5v-.06c0-.06 0 0 .07 0s1.36.21 1.36.45c0 .08-.08.15-.22.22s-.35.17-.35.71v.21h.35a.22.22 0 0 0 .17-.11c.08-.14.24-.34.34-.34s1 .5 1 .78c0 .11-.13.2-.27.29s-.22.22-.22.71 0 1.92.08 2.48a.47.47 0 0 1-.48.45.34.34 0 0 1-.35-.38zm-2-1.71v1.34h2v-1.34zm.29-1.64l-.07.06c-.21.15-.17.14-.2.5v.71h2v-1.11a.16.16 0 0 0-.17-.17zm7.76 2.35c0 1.67 0 3.63.1 5.13a.57.57 0 0 1-.55.53c-.21 0-.39-.13-.39-.45.07-1.71.08-3.68.08-5.18h-1.54a5.82 5.82 0 0 1-4.22 5.7 1.06 1.06 0 0 1-.35.08h-.06s.13-.14.28-.21a6 6 0 0 0 3.53-5.53c-.43 0-.9.06-1.36.1-.24 0-.59-.52-.59-.67a19.62 19.62 0 0 0 2 .17v-1.13a16.43 16.43 0 0 0-.08-1.7c-.29 0-.6.06-.94.08-.24 0-.59-.52-.59-.67a22.16 22.16 0 0 0 3.17.2 8.15 8.15 0 0 0 1.21-3v-.15s1.37.6 1.37.85-.14.2-.43.21-.21.07-.32.22c-.31.41-.92 1.21-1.5 1.88H123a.24.24 0 0 0 .17-.11s.39-.66.56-.66h.1c.06 0 1 .53 1 .92 0 .08-.06.18-.28.18h-1.43c.11 0 .14.07.14.13s-.13.18-.21.24-.17.1-.17.69v1.85h.49a.26.26 0 0 0 .18-.11c.11-.2.43-.69.6-.69h.1c.43.17 1 .69 1 1 0 .1-.06.18-.28.18zm-3-4.82a5.24 5.24 0 0 0-.94-1.4 1.28 1.28 0 0 1-.14-.17c.41 0 2 .56 2 1.53a.53.53 0 0 1-.46.59c-.11-.02-.3-.17-.46-.55zm2.21 3.15c0-.53 0-1.21-.07-1.58h-1.18c.1 0 .15.08.15.14s-.07.15-.21.22-.18.1-.18.59v1.95h1.51zM116 90.6a1.1 1.1 0 0 1-.88.7.28.28 0 0 1-.31-.32 1.26 1.26 0 0 1 .28-.7 23.82 23.82 0 0 0 2.46-4.28c0-.06.06-.11.07-.17a3.58 3.58 0 0 1-.9.13 1.62 1.62 0 0 1-1.72-1.3c0-.06 0-.07.06-.07a.76.76 0 0 1 .27.13 2.72 2.72 0 0 0 1.44.46 4.29 4.29 0 0 0 1-.15 5.26 5.26 0 0 0 0-.64c0-.9-.22-.91-.35-.91s-.35 0-.35-.14a.58.58 0 0 1 .56-.42.88.88 0 0 1 .87 1c1.05.2 1.18.24 1.18.5s-.69 1-1.55 1.27c-.13.31-.26.77-2.13 4.91zm2.49 4a1.78 1.78 0 0 1-1.83-1.51c0-.83 1.05-1.32 2.45-1.32a4.94 4.94 0 0 1 1 .1c0-.59-.07-1.23-.07-1.75a2.61 2.61 0 0 1 1.33-2.56c.46-.31.85-.63.85-1 0-.15 0-.18-.39-.57-.11-.11-.2-.2-.2-.24s.06-.06.18-.06c.85 0 1.72.73 1.72 1.36 0 .21-.14.76-.56.76a2 2 0 0 1-.38-.06.64.64 0 0 0-.18 0c-.43 0-1.92.14-1.92 1.51 0 .22 0 .49.06.8 0 .58.18 1.33.21 2 1.16.41 2.07 1.11 2.07 1.74a.48.48 0 0 1-.41.53c-.15 0-.32-.11-.48-.39a3.14 3.14 0 0 0-1.22-1.15 2.37 2.37 0 0 1-2.25 1.79zm.22-2.38c-1 0-1.65.41-1.65.81s.71.74 1.27.74a1.69 1.69 0 0 0 1.75-1.3 4.17 4.17 0 0 0-1.38-.27zm-.25-7.41a1.75 1.75 0 0 0 .39-.25.27.27 0 0 0 .1-.21c0-.18-.22-.28-.38-.34a3.5 3.5 0 0 1-.13.78zm-.63 17.79a17 17 0 0 1 .21-2 8.21 8.21 0 0 0 .08-.9c0-.53-.17-.73-.73-.84-.13 0-.2-.08-.2-.15a.54.54 0 0 1 .57-.39 1.48 1.48 0 0 1 1.3 1.36 4.38 4.38 0 0 1-.17.85 11.58 11.58 0 0 0-.38 2.28 1.36 1.36 0 0 0 1 1.51 3.08 3.08 0 0 1 1.22-.34c.56 0 .6.34.6.43 0 .53-.7.7-1.11.7h-.32c-1.16 0-3 1.08-3 2.38 0 .87.73 1.61 2.2 1.61a4.31 4.31 0 0 0 1.89-.42 1.12 1.12 0 0 1 .43-.11.53.53 0 0 1 .57.48c0 .67-1.51 1-2.51 1-2.41 0-3.18-1.51-3.18-2.4a3.8 3.8 0 0 1 2.51-3 1.94 1.94 0 0 1-.98-2.05zm4 .57a4.42 4.42 0 0 0-1.21-1c-.11-.06-.21-.1-.21-.14a1.19 1.19 0 0 1 .59-.03c.76 0 1.65.32 1.65 1a.43.43 0 0 1-.41.46.55.55 0 0 1-.36-.29zm1.47-.67a4.79 4.79 0 0 0-1.23-1c-.11-.06-.22-.1-.22-.13s.59-.11.62-.11c.77 0 1.61.32 1.61.92a.43.43 0 0 1-.41.45.53.53 0 0 1-.32-.13zm.7 12.77a5.27 5.27 0 0 0-1.7-1.76c-.14-.11-.28-.2-.28-.24s0 0 .1 0c.57 0 3 .56 3 1.78a.64.64 0 0 1-.59.67.66.66 0 0 1-.53-.45zM90 31.09v.07c0 .74-.29 1.08-.57 1.08a.52.52 0 0 1-.43-.31 1.87 1.87 0 0 0-1.13-.7 3.44 3.44 0 0 1-.8.38 2.12 2.12 0 0 1-.59.1c-.34 0-.48-.14-.48-.35s.34-.77.56-.77h.11c.04 0 .07.07.15.07s.56-.13 2.61-1.43v-2.71a3.91 3.91 0 0 1-1.72.48c-1 0-1.2-.57-1.2-.88 0-.06 0-.08.06-.08a.74.74 0 0 1 .2.06 3.5 3.5 0 0 0 1.05.15 3.07 3.07 0 0 0 1.58-.45c-.1-1.62-.17-2.13-.85-2.13-.18 0-.25 0-.25-.11a.56.56 0 0 1 .6-.42c.46 0 1.12.35 1.12.94a3.15 3.15 0 0 1 0 .35 4.82 4.82 0 0 0 .91.18.39.39 0 0 1 .41.41c0 .5-.59.84-1.36 1.25v2.62a6.64 6.64 0 0 1 3.5-1.25c1.5 0 2.28.71 2.28 1.65 0 1.47-1.72 2.46-2.91 2.46a1.31 1.31 0 0 1-1.46-1.39 3 3 0 0 1 .6-1.75v.1a1.85 1.85 0 0 1-.07.38 2.87 2.87 0 0 0-.11.73A1 1 0 0 0 92.84 31a2 2 0 0 0 2.1-1.76c0-.85-1-1.16-1.75-1.16a5.46 5.46 0 0 0-3.26 1.51c.01.52.01 1.04.07 1.5zm-1.91 0a6.86 6.86 0 0 0 .85.08c.38 0 .39-.11.41-.31s0-.55 0-.81c-.45.37-.88.73-1.35 1.02zm1.84-5.52a4.3 4.3 0 0 0 .42-.28.32.32 0 0 0 .1-.2c0-.11-.13-.22-.5-.42v.46zm5.9.6a2.81 2.81 0 0 0-.73.32.59.59 0 0 1-.2.08.37.37 0 0 1 .11-.17 1.51 1.51 0 0 0 .43-.84c0-.11-.06-.43-.7-.43a1.72 1.72 0 0 0-1 .34.7.7 0 0 1-.31.14 2.23 2.23 0 0 1 1.88-1c.87 0 1.67.5 1.67 1.08 0 .18-.13.29-.31.38s-.38-.07-.89.09zm-6.07 14.7a2.47 2.47 0 0 1 .84-.18c.77 0 1.43.49 1.43 2.34 0 2.91-1.54 4.43-3 4.43a1.47 1.47 0 0 1-.52-.08c-.62-.2-.35-.71-.52-1.23a2.27 2.27 0 0 1-.11-.48v-.06s.18.13.36.38a1.25 1.25 0 0 0 1 .56c1.19 0 2-2 2-3.8 0-1-.22-1.61-.81-1.61a2 2 0 0 0-1.05.48c-.67 1.6-1.79 3.84-2.58 5.29a1.3 1.3 0 0 1-1 .77.28.28 0 0 1-.31-.32 1.8 1.8 0 0 1 .43-.94 28 28 0 0 0 2.79-4.61 6.05 6.05 0 0 1-1.75.6 1 1 0 0 1-1.09-1c0-.46.08-.5.11-.5s.17.13.27.27a1 1 0 0 0 .87.31 5.52 5.52 0 0 0 1.88-.36 6.2 6.2 0 0 0 .27-1.54c0-.45-.11-.77-.45-.83-.17 0-.31-.1-.31-.2s.59-.48.88-.48.73.07.73.88a6.94 6.94 0 0 1-.45 1.82zm5.79 3.64a1.06 1.06 0 0 0-.5-.07h-.77c-.31 0-.43 0-.43-.07s.17-.1.41-.14c1-.2 1.56-.43 1.56-1.19 0-1.08-1.12-1.43-1.85-1.72-.31-.11-.46-.18-.46-.22s.07 0 .18 0c1.86 0 3.1 1 3.1 2.2 0 .71-.43 1.3-.94 1.3a.6.6 0 0 1-.31-.09zm-5.74 14.03a1.83 1.83 0 0 1-2-1.33.63.63 0 0 1-.06-.24s0-.07.06-.07a.48.48 0 0 1 .24.14 3.05 3.05 0 0 0 2.06.78 6.6 6.6 0 0 0 2-.36c-.21-.49-.42-1-.66-1.48a3.29 3.29 0 0 1-.91.14 2.07 2.07 0 0 1-2.17-1.39v-.06a1.15 1.15 0 0 1 .28.13 4 4 0 0 0 1.85.67 2.19 2.19 0 0 0 .59-.1 9.22 9.22 0 0 0-1.55-2.13 1.26 1.26 0 0 0-.88-.46c-.11 0-.17-.07-.17-.14s.22-.41.71-.41c.74 0 1.11.45 2.3 3a1.48 1.48 0 0 0 .34-.18 1.48 1.48 0 0 1 .7-.34.31.31 0 0 1 .31.32c0 .27-.31.55-1.05.83.22.5.45 1 .67 1.46.5-.2.71-.34.71-.49s-.08-.29-.41-.53c-.17-.13-.25-.2-.25-.24a1.75 1.75 0 0 1 .43.15 4.13 4.13 0 0 0 1 .32c.29 0 .48.14.48.34 0 .38-.92.84-1.67 1.11a17.79 17.79 0 0 0 .9 1.61 1.65 1.65 0 0 1 .29.9.92.92 0 0 1-.84 1c-.22 0-.25-.14-.34-.25a4.74 4.74 0 0 0-2.45-.59c-1.36 0-1.74.8-1.74 1.15s.42 1.29 2 1.29a3.77 3.77 0 0 0 1-.14.71.71 0 0 1 .24 0 .52.52 0 0 1 .56.46c0 .34-.49.6-1.54.6-2.14 0-2.86-1.29-2.86-2 0-.29.11-1.65 2.87-1.65.78 0 1.55.08 1.89.1a.31.31 0 0 0 .35-.32.84.84 0 0 0-.1-.38c-.24-.49-.46-1-.69-1.57a9.93 9.93 0 0 1-2.49.35zm1.38 12.8c0 3.07-2.45 6.19-3.66 6.19-.69 0-.94-.94-1.51-1.77a2.17 2.17 0 0 1-.34-1.27A5.71 5.71 0 0 1 91.33 69a4.46 4.46 0 0 1 4.82 4.48c0 4.26-4.87 5.46-6 5.46-.13 0-.2 0-.2-.06s.22-.18.63-.29c3.68-1 4.68-3.43 4.68-5.17a3.86 3.86 0 0 0-4.09-4h-.5a2.43 2.43 0 0 1 .52 1.92zm-.49-.5c0-1-.24-1.25-.55-1.25h-.25a5 5 0 0 0-3.52 4.55c0 1.23.62 2.17 1.29 2.17.94.03 3.03-2.9 3.03-5.48zm-2.89 19.63h-1.5v1.49a.51.51 0 0 1-.52.48.35.35 0 0 1-.36-.39c.07-1.08.08-2.75.08-4.17a18.52 18.52 0 0 0-.12-3.88.5.5 0 0 0 0-.08 5.79 5.79 0 0 1 1.23.62h.88a.24.24 0 0 0 .2-.11c.21-.35.29-.39.36-.39s1 .45 1 .74-.18.25-.28.32-.2.1-.21.42 0 .83 0 1.48c0 1.4 0 3.32.07 4.24a.51.51 0 0 1-.49.5c-.18 0-.34-.11-.34-.42zm5-2c.73 1.32 2.58 3.67 4.71 4.23h.08s-1.13.21-1.5.53a.17.17 0 0 1-.13.06c-.42 0-2.46-2.27-3.28-4.59 0 1.89 0 4 .1 5.58a.5.5 0 0 1-.53.48.37.37 0 0 1-.39-.41c.07-1.36.1-3.18.11-4.9A9.4 9.4 0 0 1 86.25 94h-.07s.1-.11.29-.21a12.24 12.24 0 0 0 5.14-5.28c-.67 0-1.47 0-2.17.11-.22 0-.59-.52-.59-.69a31.32 31.32 0 0 0 3.15.2v-2.18c-.59 0-1.27 0-2.07.13-.22 0-.59-.52-.59-.69a24.23 24.23 0 0 0 2.66.11 16.25 16.25 0 0 0-.17-2.7.18.18 0 0 1 0-.08h.06c.32 0 1.47.29 1.47.5s-.07.17-.21.24c-.29.15-.34.06-.36.52v1.57h1.18a.26.26 0 0 0 .21-.13c.11-.17.52-.77.7-.77h.08c.41.15 1.12.78 1.12 1.08 0 .08-.06.17-.27.17h-3v2.18h2a.26.26 0 0 0 .21-.13c.11-.18.56-.77.7-.77h.08c.32.13 1.13.74 1.13 1.06 0 .1-.06.18-.28.18zm-5 1.68v-5.07c0-.07 0-.17-.13-.17h-1.09c-.18.14-.22.17-.24.57s0 1.06 0 1.91v2.72zm-1.56 16.72a16.72 16.72 0 0 1 .73-3.92 6.72 6.72 0 0 0 .24-1.46 3.1 3.1 0 0 0-.69-1.88c-.07-.1-.15-.18-.15-.22s.17-.07.18-.07c.49 0 1.55 1.26 1.55 2.25a5.06 5.06 0 0 1-.55 1.67 8.32 8.32 0 0 0-.76 2.87c0 .43.1.88.2.88s.1-.07.17-.24a12.45 12.45 0 0 1 1.48-2.75s.06 0 .06.07a.65.65 0 0 1-.08.25 11.72 11.72 0 0 0-1.15 4 1.67 1.67 0 0 0 .11.66 1 1 0 0 1 .08.38c0 .28-.15.45-.35.45-.64.06-1.07-1.52-1.07-2.94zm7.31-5.56c0-1.39-.08-1.4-.43-1.5s-.32-.1-.32-.2a.71.71 0 0 1 .59-.43 1.35 1.35 0 0 1 1 1 2 2 0 0 1 0 .27c.25.1.78.32 1 .38.53.14.73.24.73.55 0 .74-1.44 1.16-1.89 1.29v.62c0 1.08 0 2 .08 2.67v1c1 .31 2.18 1.13 2.18 1.74 0 .28-.17.53-.39.53s-.31-.11-.48-.38a3.48 3.48 0 0 0-1.36-1.25 2.32 2.32 0 0 1-2.21 2 1.81 1.81 0 0 1-1.88-1.47c0-.83 1.15-1.43 2.54-1.43a5.16 5.16 0 0 1 .91.08v-4.01a3.1 3.1 0 0 1-.69.07 2.27 2.27 0 0 1-2.28-1.3h.06a1.15 1.15 0 0 1 .32.08c.27.1.74.32 1 .41a3.43 3.43 0 0 0 1 .14 5 5 0 0 0 .6-.06zm-1.26 5.93c-1 0-1.71.48-1.71.94s.73.73 1.21.73a1.74 1.74 0 0 0 1.74-1.49 4.85 4.85 0 0 0-1.23-.19zm1.9-5.24c1-.27 1-.57 1-.69s-.24-.36-.85-.73a12.21 12.21 0 0 0-.15 1.42zm-1.6 17.29a.1.1 0 0 1 .06.08c0 .07-.11.14-.21.2s-.11.1-.13.63-.06 2.13-.06 3.19 0 1.26 1.68 1.26a8.5 8.5 0 0 0 1.3-.1c.7-.11.87-1.23 1.06-2.34a.48.48 0 0 1 0-.1c.08 0 .17 1.79.42 2a.48.48 0 0 1 .27.41c0 .38-.56.8-1.65.91-.46 0-1 .07-1.46.07-1.4 0-2.48-.2-2.48-1.46v-4.71h-1.52c.18 0 .31.08.31.2s-.06.14-.17.18-.21.06-.24.59a5.76 5.76 0 0 1-5.34 5.56h-.1s.15-.1.41-.18A5.73 5.73 0 0 0 88.9 120a4.17 4.17 0 0 0 0-.69c-.85 0-2.18 0-3.25.15-.25 0-.67-.56-.67-.74 1.44.17 3.6.22 4.41.22h1v-2.42h-2.85c-1.2 1.63-2 2.07-2.09 2.07s0-.08.13-.18c.74-.81 2.17-3.38 2.17-4.36v-.15s1.49.45 1.49.76c0 .11-.18.2-.42.21s-.22 0-.34.22c-.2.35-.43.73-.69 1.09h2.52v-.8a13.19 13.19 0 0 0-.14-2 .28.28 0 0 1 0-.1s1.67.22 1.67.53c0 .1-.08.2-.22.28-.32.21-.38.06-.42.71v1.36h1.58A.26.26 0 0 0 93 116s.55-.9.81-.9a.2.2 0 0 1 .1 0 2.77 2.77 0 0 1 1.25 1.19c0 .1-.07.18-.31.18h-3.69v2.42h3a.27.27 0 0 0 .22-.13c.1-.15.62-.94.85-.94h.1a3 3 0 0 1 1.27 1.23c0 .1-.07.18-.31.18zm-2.25 10.84v.07c0 .07-.07.15-.2.2s-.17.11-.17.29v2.65c0 2.3 0 5.32.1 6.49 0 .39-.48.53-.59.53s-.38-.13-.38-.43c0-.56 0-1.5.06-2.55a38.28 38.28 0 0 1-3.77 1.5c-.14 0-.18.21-.28.21s-.77-1-.77-1.05 0 0 .1 0h.08a8.28 8.28 0 0 0 1.54-.22v-6.36a8.22 8.22 0 0 0 0-1.22l-.8.07c-.24 0-.63-.52-.63-.69a29.48 29.48 0 0 0 3.45.21h1.55a.26.26 0 0 0 .21-.13c.22-.34.53-.69.66-.69s1.11.63 1.11 1c0 .1-.07.18-.28.18zm-1.13 2.54H86.9v2h2.33zm-2.33 2.4v2.54c.76-.17 1.6-.35 2.28-.53v-2zm1.11-4.94h-.8a.14.14 0 0 1 .08.1c0 .07-.11.14-.27.18s-.11.13-.11.27v1.61h2.3v-.7a12.18 12.18 0 0 0 0-1.46zm6.57 1.32c.1 0 .17-.08.22-.14.27-.27.31-.28.38-.28.24 0 1.08.5 1.08.76 0 .1-.07.21-.27.28s-.29.08-.32.22a14 14 0 0 1-1.82 5.18 6.66 6.66 0 0 0 3.63 2.72c.08 0 .11 0 .11.07s-1.21.17-1.57.5a.25.25 0 0 1-.15.07 7.11 7.11 0 0 1-2.51-2.66 7.68 7.68 0 0 1-4.46 3h-.06s.13-.13.28-.2a8.47 8.47 0 0 0 3.87-3.5 13.75 13.75 0 0 1-1.16-5.6l-.94.07c-.18 0-.59-.49-.59-.63a28.52 28.52 0 0 0 3 .15zm-1.34.38H92.1a13.08 13.08 0 0 0 1.3 4.87 13.46 13.46 0 0 0 1.34-4.7c0-.08 0-.14-.14-.14zM89.5 148s0-.07.1-.24c.38-1.21 1.08-1.78 1.76-1.78 1.44 0 2.16 2.16 2.16 4 0 4.54-3.94 6.75-4.5 6.75s.14-.17.46-.38a7.62 7.62 0 0 0 3.15-6.26c0-1.75-.6-3.46-1.53-3.46-.77 0-1.55 1.16-1.55 2.63A3.87 3.87 0 0 0 90 151a.91.91 0 0 1 .08.38c0 .36-.2.69-.43.69-.41 0-.94-1.2-.94-2.17a8.87 8.87 0 0 1 .28-1.92 12.64 12.64 0 0 0 .39-2.41c0-.38-.07-.67-.25-.76s-.2-.11-.2-.21.27-.25.38-.25.76.22.76 1.12a9.64 9.64 0 0 1-.49 2.34c-.06.06-.08.13-.08.19zm3.79 18.35h-3c.74.41.87.57.87.67s-.11.17-.36.17h-.15c-.15 0-.21 0-.31.18l-.32.39h2.46a.52.52 0 0 0 .27-.1 1.48 1.48 0 0 1 .41-.2c.1 0 1 .5 1 .74s-.1.21-.34.28a1.12 1.12 0 0 0-.56.28 13.24 13.24 0 0 1-1.5 1.18 9.48 9.48 0 0 0 4.09.81c.42 0 .84 0 1.26-.06h.15s-1.32.66-1.51 1c0 .07-.08.1-.29.1a8.17 8.17 0 0 1-4.27-1.5 11.93 11.93 0 0 1-5.75 1.71h-.21s.17-.1.48-.14a12.63 12.63 0 0 0 4.92-1.95 4.23 4.23 0 0 1-1-1.6 11.52 11.52 0 0 1-5 3.17h-.07s.08-.1.27-.18a15.15 15.15 0 0 0 4.89-4.27 2.13 2.13 0 0 0 .27-.57h-1.4v.27a.5.5 0 0 1-.53.43.34.34 0 0 1-.38-.35c.06-.84.1-3.08.1-3.75a10.74 10.74 0 0 0-.17-1.61.18.18 0 0 1 0-.08h.13a5.61 5.61 0 0 1 1.15.52h1c0-.28.08-.56.1-.71v-.52h-.59c-.79 0-2.51 0-3.78.15-.27 0-.69-.55-.69-.73 1.46.17 3.73.22 4.55.22h4.8a.26.26 0 0 0 .22-.13c.1-.15.64-.91.83-.91a2.68 2.68 0 0 1 1.37 1.22c0 .08-.07.17-.31.17H91c.08 0 .41.15.41.28s-.11.15-.36.2-.2.11-.27.21-.25.36-.39.55H93a.23.23 0 0 0 .2-.08c.21-.29.27-.38.39-.38s1.09.46 1.09.74-.18.25-.32.32-.28.22-.28.76c0 .9.1 2.72.13 3.31a.51.51 0 0 1-.53.46.33.33 0 0 1-.36-.35zm-4.45-4.24h-.06c-.17.11-.21.1-.22.55v.43h4.74v-.88a.15.15 0 0 0-.14-.14zm4.47 1.37h-4.77v1h4.76zm-4.76 1.37v1.16h4.73v-1.16zm1.3 3.29a3.65 3.65 0 0 0 1.22 1.4 6 6 0 0 0 1.46-1.32s0-.08-.14-.08zm.08 12.75v-.15c0-1.23-.17-1.54-.48-1.64a5.55 5.55 0 0 1-.8.08c-.8 0-1.36-.38-1.36-.77 0-.08 0-.24.13-.24a.41.41 0 0 1 .21.1 2 2 0 0 0 1.06.22 13.73 13.73 0 0 0 2.59-.38c.55-.11.73-.42 1.3-.42.22 0 1.06.07 1.06.53 0 .2-.22.38-.62.39a22 22 0 0 0-2.84.35l.14.13c.35.31.45.45.45.74s0 .35-.06.63 0 .38-.06.59c.73-.1 1.47-.2 2.13-.25s.9-.27 1.37-.27 1.41.17 1.41.63c0 .21-.25.38-.62.38h-.14a11.07 11.07 0 0 0-1.54-.1 18.26 18.26 0 0 0-2.65.21c-.06.76-.08 1.5-.08 1.93s0 1.19 1.81 1.19h.56c.6-.06.92-.41 1.44-.43h.11c.5 0 1 .2 1 .49 0 .7-2.58.7-2.87.7-1.34 0-2.82-.18-2.82-1.72v-.22c.07-.73.1-1.3.11-1.79-.64.11-1.23.24-1.74.36a4.16 4.16 0 0 1-.91.21c-.06 0-1.64-.08-1.64-.88 0-.17 0-.22.13-.22a.89.89 0 0 1 .29.1 3.61 3.61 0 0 0 1.21.2c.29 0 .91-.08 2.68-.35zm.4 19v-.17c0-.9.07-2.44.07-4 0-3.28-.11-3.7-.55-3.84-.08 0-.24-.1-.24-.2a.38.38 0 0 1 .41-.25c.49 0 1.54.64 1.54 1.09 0 .24-.18.45-.24.67s-.13.06-.13 3.07v3.25c0 1.5-.25 1.88-.48 1.88s-.38-.49-.38-1.5zm.13 12.55c0 1.74 0 3.5.06 3.71 0 .92-.21 1.39-.49 1.39s-.62-.48-.62-1.25a3.62 3.62 0 0 1 .07-.64 7.48 7.48 0 0 0 .17-.87c.08-.67.13-2.42.13-3.91 0-2.8-.17-3.33-.66-3.36-.2 0-.28-.07-.28-.17a.42.42 0 0 1 .43-.32c.45 0 1.49.57 1.49 1.26 0 .29-.14.62-.2 1.15s-.08 1.12-.1 1.86h.85c2.07 0 2.56.74 2.56 1.18a.48.48 0 0 1-.49.5.93.93 0 0 1-.55-.22 6.65 6.65 0 0 0-2.38-1.29zm3-2.59a4.41 4.41 0 0 0-1.2-1c-.11-.06-.21-.1-.21-.14a1.22 1.22 0 0 1 .55-.08c.76 0 1.65.32 1.65 1a.43.43 0 0 1-.41.46.55.55 0 0 1-.38-.24zm1.47-.67a4.78 4.78 0 0 0-1.23-1c-.11-.06-.22-.1-.22-.13s.59-.11.62-.11c.77 0 1.61.32 1.61.92a.43.43 0 0 1-.41.45.53.53 0 0 1-.37-.13zm.61 14.95a1.63 1.63 0 1 1 1.63-1.62 1.64 1.64 0 0 1-1.63 1.62zm0-2.77a1.15 1.15 0 1 0 1.15 1.15 1.15 1.15 0 0 0-1.15-1.15zM63.23 29.37c.9 1.7 2.84 2.91 6.05 2.91h.25s-1.19.53-1.53.87a.27.27 0 0 1-.22.1A6 6 0 0 1 63 29.37h-.13c-.85 3.56-5.35 4.06-6.4 4.06-.18 0-.24 0-.24-.06s.14-.1.31-.13c2.82-.41 4.92-2 5.43-3.88h-.38c-.76 0-2.69 0-3.91.15-.27 0-.7-.55-.7-.73 1.39.18 3.91.22 4.69.22H62a9 9 0 0 0 .07-1.09v-.51s1.47.21 1.47.48c0 .08-.08.15-.28.22s-.25 0-.36.8a.49.49 0 0 1 0 .14h3.46a.31.31 0 0 0 .24-.13c.46-.66.62-.88.77-.88a2.65 2.65 0 0 1 1.32 1.18c0 .1-.06.18-.29.18zm-1.67-2.17c-.76 0-2.69 0-3.91.15-.27 0-.7-.55-.7-.73 1.39.18 3.91.22 4.69.22h.62v-1.51H62a30.08 30.08 0 0 0-3.11.14c-.24 0-.63-.53-.63-.7a35.62 35.62 0 0 0 3.82.21h.21v-1.46h-.83c-.73 0-2 0-3.22.15-.24 0-.63-.55-.63-.73a34.37 34.37 0 0 0 3.92.22h1.61a6.67 6.67 0 0 0 1.08-2.38c0-.1 0-.13.06-.13s1.36.66 1.36 1c0 .11-.18.17-.45.17a.41.41 0 0 0-.38.15c-.28.25-1 .85-1.46 1.22h2.24a.28.28 0 0 0 .22-.13c.48-.64.6-.81.74-.81s1.25.73 1.25 1.11c0 .1-.07.18-.29.18h-4a.18.18 0 0 1 .06.1c0 .08-.08.17-.25.24s-.2.15-.2 1.12h1.58a.29.29 0 0 0 .21-.13c.45-.57.56-.71.7-.71a2.46 2.46 0 0 1 1.21 1c0 .08-.06.18-.28.18h-3.45v1.51h3.28a.31.31 0 0 0 .24-.13c.46-.66.62-.88.77-.88.38 0 1.32 1 1.32 1.18s-.06.18-.29.18zm-.66-4.83a4.43 4.43 0 0 0-.9-1.19c-.07-.07-.11-.11-.11-.14s0 0 .1 0c.53 0 1.93.39 1.93 1.26a.52.52 0 0 1-.48.56c-.17-.04-.38-.16-.54-.5zm-2.69 19.79A5.6 5.6 0 0 1 56 43.72s.06-.1.18-.2a12.26 12.26 0 0 0 3.28-4.06v-.08s1 .56 1 .81c0 .1-.1.17-.36.18s-.17 0-.32.21-.53.6-.8.88c.35.07.56.11.56.25s-.1.18-.24.25-.28.14-.31.57v5.67a.59.59 0 0 1-.57.57c-.2 0-.38-.14-.38-.45v-.08c.13-1.46.22-4 .22-5.08zM60 37.78h-.13c-.08 0-.11 0-.22.14a9.25 9.25 0 0 1-3.38 2.24h-.06s.06-.08.17-.15a9.16 9.16 0 0 0 2.9-3.21v-.06s1 .57 1 .85c.01.1-.06.19-.28.19zm-.6 8.61a.51.51 0 0 1 .1-.22 11.32 11.32 0 0 0 1.12-4.24 4.73 4.73 0 0 0 0-.49v-.1c0-.03 0 0 .08 0s1.23.13 1.23.48c0 .11-.11.21-.32.28s-.15.06-.2.27c-.66 2.83-1.72 4.1-2 4.1-.01-.05-.01-.06-.01-.08zm3.6 1.47a.55.55 0 0 1-.55.52c-.21 0-.39-.13-.39-.45.08-2 .14-5.11.14-7.33v-.71a15 15 0 0 0-1.58.11c-.17 0-.56-.52-.56-.67a17 17 0 0 0 2.16.2v-.55a14.4 14.4 0 0 0-.11-2 .32.32 0 0 1 0-.1s1.41.2 1.41.5a.19.19 0 0 1-.07.13h.08c.73 0 1.4.38 1.4.85a.47.47 0 0 1-.43.48c-.15 0-.32-.11-.43-.36a2.86 2.86 0 0 0-.6-.81.6.6 0 0 1-.1-.1c-.34.17-.38.22-.41.59s0 .84 0 1.44h1.06a.3.3 0 0 0 .14-.11c.13-.21.48-.55.57-.55s.9.48.9.85c0 .08 0 .17-.21.17h-2.56v.92c0 2.17 0 5 .1 7.06zm1.27-3.26a9.49 9.49 0 0 0-.92-3.22.22.22 0 0 1 0-.07.06.06 0 0 1 .06-.06 5.84 5.84 0 0 1 1.88 3.28c0 .48-.28.8-.55.8s-.48-.21-.5-.73zm3.36-3.38c.08 0 .13.07.13.13s-.06.11-.15.15c-.25.11-.24.1-.25.53s0 1.15 0 1.74v1.83c0 .46.06 1.21.06 1.5a1.58 1.58 0 0 1-1.47 1.53c-.1 0-.14 0-.21-.14-.22-.31-1.33-.91-1.33-1h.14a5.24 5.24 0 0 0 1.22.18c.53 0 .79-.2.81-.63s0-1.12 0-2c0-1.62 0-3.42-.08-3.77a12.34 12.34 0 0 0-1.42.14c-.24 0-.62-.53-.62-.7a16.1 16.1 0 0 0 2.35.21h.59a.23.23 0 0 0 .18-.13c.13-.25.49-.76.6-.76a.08.08 0 0 1 .06 0c.32.15 1 .73 1 1 0 .08-.06.17-.24.17zm-.69-3a7.38 7.38 0 0 0-1.23.14c-.24 0-.6-.53-.6-.7a8.06 8.06 0 0 0 1.65.21H67a.24.24 0 0 0 .18-.13c.13-.25.48-.76.59-.76a.11.11 0 0 1 .07 0 2.13 2.13 0 0 1 1 1.06c0 .08-.06.15-.22.15zm-2.48 22.34c0 1 0 2.09.06 3.05a.57.57 0 0 1-.6.55.38.38 0 0 1-.41-.42v-.07c.13-1.51.17-3.73.17-5.34v-1.55c0-.37 0-1.11-.07-1.64h-1a11.81 11.81 0 0 1-2.52 2.45l-.21.13c-.06 1.5-.08 3.26-.08 4.86v.94a.63.63 0 0 1-.63.59c-.22 0-.41-.13-.41-.46v-.08c.21-2.07.29-5 .31-6.81v-.84c-1.65 2.1-2.88 2.76-3 2.76s.07-.13.22-.27a17.94 17.94 0 0 0 3.6-5.41 4.32 4.32 0 0 0 .28-1v-.11s1.43.62 1.43.88c0 .1-.13.21-.43.28s-.25.07-.41.34c-.32.55-.67 1.09-1 1.61.7.11.71.25.71.31s-.07.17-.24.25-.25.14-.28.59 0 .91-.06 1.43l.08-.08c.83-.78 3.08-3.75 3.35-5.58 0-.07 0-.11.07-.11s1.4.6 1.4.92c0 .13-.14.22-.48.29s-.27 0-.43.32c-.27.43-.62 1-1 1.47h3.92a.29.29 0 0 0 .22-.13c.28-.39.59-.81.77-.81h.08c.39.14 1.2.81 1.2 1.11 0 .08-.06.17-.29.17h-3.91a.14.14 0 0 1 .07.11c0 .1-.11.2-.22.24-.27.11-.28.18-.28 2.1h1.78a.26.26 0 0 0 .21-.13s.48-.73.69-.73h.08c.45.17 1.13.77 1.13 1 0 .08-.07.17-.29.17h-3.6v2.27h1.83a.26.26 0 0 0 .21-.13s.48-.73.69-.73h.08c.45.17 1.13.77 1.13 1 0 .08-.07.17-.29.17zm-.7 10.71A14.42 14.42 0 0 0 64.84 74a5.47 5.47 0 0 0 2-1.86v-.07s1.16.85 1.16 1.1c0 .1-.1.17-.31.17h-.35a.61.61 0 0 0-.27.07c-.45.21-1.44.66-2.09.88a6.92 6.92 0 0 0 4.19 3.4c.08 0 .11 0 .11.06s-1.2.17-1.61.53a.25.25 0 0 1-.15.08s-2.82-1.21-4-7.07h-.73c.29.08.43.13.43.22s-.08.15-.22.17-.21.06-.5.29-.48.38-.74.56c1.37.49 2.33 2.52 2.33 4.25 0 1.47-.7 2.69-2.28 2.69-.17 0-.18-.07-.25-.18a11.92 11.92 0 0 0-1.4-1.11.49.49 0 0 1 .17 0 6.4 6.4 0 0 0 1.6.28c.77 0 1.37-.35 1.37-1.92a6.69 6.69 0 0 0-.1-1h-.18c-.22 0-.2.1-.36.25a10.13 10.13 0 0 1-6 3c-.1 0-.17 0-.17-.06s.14-.11.48-.2a10.37 10.37 0 0 0 5.18-3.6c.06-.11 0-.14.07-.14a3.23 3.23 0 0 1 .88.36 5.87 5.87 0 0 0-.39-1.15.23.23 0 0 1-.1 0c-.24 0-.18 0-.46.2a11.74 11.74 0 0 1-5.27 2.3h-.14s.14-.13.46-.22a11.14 11.14 0 0 0 4.57-2.84c.06-.08.06-.13.11-.13s.22.06.53.22a2.64 2.64 0 0 0-.83-.8h-.06A11.55 11.55 0 0 1 57 74.46h-.1s.13-.11.45-.22A11.35 11.35 0 0 0 62 71.28c-.84 0-1.86.07-2.59.14-.25 0-.64-.55-.64-.71 1.37.17 3.85.22 4.62.22h1.13a.29.29 0 0 0 .22-.13c.14-.22.57-.74.74-.74s.79.48.83.52a5.61 5.61 0 0 0 .53-1.26s0-.07-.08-.07h-7.9c-.1 1.28-.88 2-1.4 2a.49.49 0 0 1-.52-.48.84.84 0 0 1 .38-.62 3.11 3.11 0 0 0 1.3-1.93c0-.1 0-.15.08-.15s.17.53.17.84h3.49v-.14a9.19 9.19 0 0 0-.14-1.7.48.48 0 0 1 0-.08c.07 0 1.65.18 1.65.49 0 .08-.1.18-.27.27s-.29.14-.34.53v.64h3.52a.4.4 0 0 0 .24-.1c.14-.14.32-.29.45-.29.08 0 1.18.59 1.18 1.08 0 .17-.14.32-.5.34a3.46 3.46 0 0 0-1.69.83.68.68 0 0 1 .22.38c0 .08-.06.15-.28.15zm-.95 15.12a1.25 1.25 0 1 1 1.25-1.25 1.25 1.25 0 0 1-1.25 1.25zm-3.22 16.39a.56.56 0 0 1-.56.53c-.22 0-.41-.14-.41-.46.06-1.48.11-3.78.14-5.84a6.6 6.6 0 0 1-2.65 2.89s.07-.11.2-.24a11.6 11.6 0 0 0 2.49-4.76v-.18a11.1 11.1 0 0 0-1.55.13c-.17 0-.55-.52-.55-.67a16.73 16.73 0 0 0 2.12.2 29.2 29.2 0 0 0-.19-3.38.3.3 0 0 1 0-.1s1.44.18 1.44.5c0 .08-.08.17-.24.25s-.29.1-.32.55 0 1.22 0 2.16h.27a.2.2 0 0 0 .14-.11c.17-.28.42-.69.56-.69a.11.11 0 0 1 .07 0 2.17 2.17 0 0 1 .84 1c0 .08-.06.18-.25.18h-1.65v1.61c.56 0 1.68.34 1.68 1.11a.44.44 0 0 1-.38.46c-.15 0-.32-.11-.46-.36a3.34 3.34 0 0 0-.84-1.08c0 2.16 0 4.61.1 6.36zm7.16-2.45h-2.23v.56c0 .22-.27.38-.5.38a.29.29 0 0 1-.32-.29c.06-.6.07-2.17.07-3.42a18.63 18.63 0 0 0-.14-3.31.5.5 0 0 0 0-.08v-.06h.08a5.5 5.5 0 0 1 1.06.55h.08c0-.59 0-.79.07-1.4h-.21a24.28 24.28 0 0 0-2.71.14c-.24 0-.66-.55-.66-.73a27.41 27.41 0 0 0 3.47.22H65v-.58a7.89 7.89 0 0 0-.1-1.3.62.62 0 0 0 0-.07h.07c.2 0 1.39.14 1.39.45 0 .11-.13.24-.34.34s-.18.13-.27 1.22H67a.29.29 0 0 0 .22-.13c.15-.25.55-.73.69-.73s1.18.69 1.18 1c0 .08-.06.17-.28.17h-3.12c0 .5-.06 1-.07 1.4h.85a.24.24 0 0 0 .18-.11 1.71 1.71 0 0 1 .24-.29.32.32 0 0 1 .13 0c.24 0 1 .49 1 .73s-.13.21-.25.28-.24.15-.24.88c0 1 0 3.66.08 4.48a.48.48 0 0 1-.49.45.35.35 0 0 1-.38-.38zm-4.24 2v.42a.48.48 0 0 1-.48.49.38.38 0 0 1-.39-.43c0-.88.07-3.73.07-5.49a15.79 15.79 0 0 0-.11-2.58.25.25 0 0 1 0-.08h.06c.06 0 1.34.04 1.34.34a.32.32 0 0 1-.15.22c-.25.14-.32.18-.34.55s0 1.28 0 2.35v3.87h4.62a.28.28 0 0 0 .22-.13c.15-.25.56-.74.76-.74h.08c.36.13 1.15.76 1.15 1 0 .08-.06.17-.29.17zM64.77 95l-.1.07c-.15.11-.18.14-.18 1.29h2.28v-1.22a.14.14 0 0 0-.17-.14zm2 1.7h-2.28v1.39h2.28zm-2.27 1.71V100h2.25v-1.58zM66.67 118v-.7h-7.74v.67a.59.59 0 0 1-.62.53.39.39 0 0 1-.41-.43c.1-1.58.13-3.47.13-5.27a29.51 29.51 0 0 0-.22-5.39.35.35 0 0 1 0-.1 5.72 5.72 0 0 1 1.47.66h7.06a.31.31 0 0 0 .22-.13c.15-.2.43-.46.53-.46.25 0 1.22.66 1.22.94s-.18.28-.43.41-.29.2-.29 2.07c0 2.06.07 5.35.13 7.09a.57.57 0 0 1-.6.59.39.39 0 0 1-.42-.42zm-4.37-7.79a12.1 12.1 0 0 0-.06-1.89h-3l-.11.08c-.24.15-.25.22-.25.6v3.22h3.4zm0 6.71v-4.31h-3.4v4.31zm4.43-4.69v-3.71a.19.19 0 0 0-.18-.2h-3a.12.12 0 0 1 0 .08c0 .08-.1.18-.22.24s-.11.13-.11.27v3.32zm0 4.69v-4.31h-3.57v4.31zm-10.09 15.79c0-.27.2-.57.67-.74a2.75 2.75 0 0 0 1.7-1.77c0-.08.06-.13.08-.13s.06.27.06.29c0 1.41-1 2.82-2 2.82a.49.49 0 0 1-.51-.47zm5.74-5c-.78 0-2.47.06-3.8.15-.27 0-.66-.55-.66-.73a40.83 40.83 0 0 0 4.44.22v-2.45h-1c-.78 0-2.54.06-3.87.15-.27 0-.66-.55-.66-.73a41.08 41.08 0 0 0 4.61.22h1v-1.04a6.3 6.3 0 0 0-.15-1.57.25.25 0 0 1 0-.08s1.65.1 1.65.49c0 .1-.08.2-.22.28-.32.2-.36 0-.41.67v1.32h3.11a.29.29 0 0 0 .24-.13c.13-.21.59-.85.78-.85a2.57 2.57 0 0 1 1.39 1.16c0 .08-.07.17-.31.17h-5.29v2.45h2a.31.31 0 0 0 .24-.13c.18-.29.59-.83.74-.83s1.34.81 1.34 1.13c0 .08-.07.17-.31.17zm1.92 6.12c-.5 0-1.06.06-1.53.06-1.84 0-2.49-.41-2.49-1.16v-.06c0-.41.07-1.26.07-1.58a7.81 7.81 0 0 0-.11-1.62.65.65 0 0 1 0-.11h.08c.25 0 1.54.24 1.54.53 0 .1-.1.18-.29.28s-.29.11-.35.56a16.63 16.63 0 0 0-.07 1.74c0 .52.17.69 1.89.69s2-.22 2.44-2.25c0-.1 0-.13.06-.13s.18 1.53.48 1.69a.57.57 0 0 1 .32.45c-.03.38-.72.85-2.03.93zm-.86-3.83a5.52 5.52 0 0 0-1.4-1.39c-.11-.08-.15-.13-.15-.15s2.6.31 2.6 1.53a.47.47 0 0 1-.43.52c-.17-.06-.41-.2-.62-.51zm4.45 2.23a6.32 6.32 0 0 0-1.76-2s-.07-.07-.07-.1 0 0 .07 0c.43 0 2.93 1 2.93 2.06a.59.59 0 0 1-.52.63c-.21-.09-.45-.24-.65-.64zm-3.09 11.85a8.25 8.25 0 0 0 4.69 3.75h.08s-1.12.2-1.5.52a.17.17 0 0 1-.13.06c-.35 0-2.42-1.72-3.31-4.17v1.09c0 1.16 0 2.51.1 3.66 0 .36-.36.48-.56.48a.38.38 0 0 1-.41-.39c.08-1.34.13-2.87.14-4.09a7.58 7.58 0 0 1-4.54 3.78v.15a.64.64 0 0 1-.62.59c-.22 0-.42-.14-.42-.48V149c.17-1.92.25-4.57.25-6.33v-1.11A8.3 8.3 0 0 1 56 144a.44.44 0 0 1 .14-.21 20.47 20.47 0 0 0 3.53-5.36 4.34 4.34 0 0 0 .27-1c0-.07 0-.13.06-.13s1.39.59 1.39.88c0 .11-.13.21-.45.28s-.24.06-.39.32c-.36.6-.76 1.21-1.16 1.78.32.06.67.13.67.28s-.11.17-.29.25-.31.14-.32.59c0 1.16-.07 2.73-.07 4.31v2.7l.18-.11a10.25 10.25 0 0 0 3.94-4.44c-.81 0-2 0-2.9.13-.22 0-.6-.52-.6-.69a37.92 37.92 0 0 0 3.94.2v-.25a9.19 9.19 0 0 0-.15-1.55.16.16 0 0 1 0-.07h.07c.24 0 1.46.27 1.46.5 0 .08-.07.17-.21.24-.29.15-.34.06-.36.52v.66h2.13a.26.26 0 0 0 .21-.13c.11-.18.56-.77.7-.77h.08c.29.11 1.15.74 1.15 1.08 0 .08-.06.17-.28.17zm1.45-2.08v-.41h-3.67v.41a.49.49 0 0 1-.5.45.36.36 0 0 1-.38-.39c.07-1 .11-2.2.11-2.7a12.85 12.85 0 0 0-.18-1.72v-.08a6.71 6.71 0 0 1 1.25.59H66a.19.19 0 0 0 .18-.07c.28-.34.35-.36.42-.36s1.08.5 1.08.78-.18.24-.34.32-.25.14-.25.87.06 1.43.08 2.21a.55.55 0 0 1-.55.53.32.32 0 0 1-.34-.36zm-3.32-3.54a.47.47 0 0 1-.13.1c-.21.14-.24.17-.24 1v1.67h3.68v-2.65a.13.13 0 0 0-.11-.14zM61 157.58c-1.27 0-2.21-.87-2.21-1.51 0-.11 0-.35.11-.35s.15.07.28.22a2.92 2.92 0 0 0 1.95.83 5.42 5.42 0 0 0 1.72-.42c-.57-.46-1.11-.85-1.46-1.12a.83.83 0 0 1-.35-.66.67.67 0 0 1 .66-.69.74.74 0 0 1 .29.06 1.51 1.51 0 0 1 .43.31 3.71 3.71 0 0 0 2 .71 2.19 2.19 0 0 0 .36 0 .44.44 0 0 1 .43.45c0 .53-1 1.09-1.33 1.28 1.21 1 2.83 2.55 2.83 4.1a.85.85 0 0 1-.77 1c-.24 0-.42-.18-.66-.36a6.18 6.18 0 0 0-2.9-.63c-1.51 0-2.09.66-2.09 1.26s.74 1.37 2.27 1.37a3.72 3.72 0 0 0 1.09-.15 1 1 0 0 1 .27 0c.38 0 .66.22.66.46s-.22.62-1.7.62c-3 0-3.25-1.76-3.25-2.07 0-1 1.06-1.88 3.38-1.88a11.34 11.34 0 0 1 2.12.21h.24c.28 0 .35-.13.35-.31 0-.42-.34-1.65-2.27-3.36a6.11 6.11 0 0 1-2.45.63zm3.11-2.07c0-.11-.07-.24-.32-.36a8.91 8.91 0 0 0-1.61-.5c-.18 0-.27.08-.27.18s.45.56 1.39 1.33c.61-.31.83-.48.83-.66zm1 23.91a1.39 1.39 0 0 1-1.56-1.42 3.19 3.19 0 0 1 .11-.77 5.59 5.59 0 0 0 .36-1.67v-.11c0-1-.56-1.44-1.27-1.44-1.05 0-3.07 1-3.43 4.5-.07.64-.46 1-.77 1s-.42-.17-.42-.5a1.61 1.61 0 0 1 0-.24c.85-3.67 3.56-6.85 4.08-8a3.09 3.09 0 0 0 .32-1c0-.22-.1-.38-.41-.46s-.29-.13-.29-.17.28-.21.52-.21a1.43 1.43 0 0 1 1.19 1.23 1.68 1.68 0 0 1-.52 1 18.61 18.61 0 0 0-2.76 3.68.4.4 0 0 0-.06.15s.07 0 .13-.13a3.36 3.36 0 0 1 2.55-1.39 1.84 1.84 0 0 1 1.89 2 7.51 7.51 0 0 1-.24 1.67 3.29 3.29 0 0 0-.06.48.81.81 0 0 0 .92.91 4.59 4.59 0 0 0 2.79-1.25 1.53 1.53 0 0 1 .39-.31 4.26 4.26 0 0 1-3.46 2.45zm-1.92 8.12c0 3.07-2.45 6.19-3.66 6.19-.69 0-.94-.94-1.51-1.77a2.17 2.17 0 0 1-.34-1.27 5.71 5.71 0 0 1 5.65-5.5 4.46 4.46 0 0 1 4.82 4.48c0 4.26-4.87 5.46-6 5.46-.13 0-.2 0-.2-.06s.22-.18.63-.29c3.68-1 4.68-3.43 4.68-5.17a3.86 3.86 0 0 0-4.09-4h-.5a2.43 2.43 0 0 1 .52 1.93zm-.49-.5c0-1-.24-1.25-.55-1.25h-.25a5 5 0 0 0-3.52 4.55c0 1.23.62 2.17 1.29 2.17.94.03 3.03-2.9 3.03-5.51zM31.77 25.29s-1.51 0-2.23.14c-.18 0-.6-.56-.6-.73a22.86 22.86 0 0 0 2.73.21h.45a.57.57 0 0 0 .29-.14c.34-.34.34-.34.41-.34s1.05.56 1.05.85c0 .14-.15.21-.34.29s-.27.1-.41.46c-1.86 4.94-5 5.71-5 5.71s.1-.14.31-.28c2.84-1.95 3.88-6 3.88-6.07s-.06-.1-.14-.1zm3.57-2.79c-.06.6-.08 2.9-.08 4.9v4.33c0 1.43-1.58 1.58-1.75 1.58a.2.2 0 0 1-.21-.17c-.14-.36-1.62-1-1.62-1.05h.15a9.81 9.81 0 0 0 1.6.18c.74 0 .9-.24.91-.76v-8.38a13.41 13.41 0 0 0-.14-2v-.1c.1 0 1.72.18 1.72.53 0 .07-.06.14-.17.22a15.73 15.73 0 0 0 .9 4.2c1.54-1 2.31-1.76 2.48-2.25 0-.06 0-.08.06-.08s1.4.88 1.4 1.2c0 .11-.11.17-.31.17h-.46a.78.78 0 0 0-.32.08c-.63.29-1.88.85-2.73 1.2a8.66 8.66 0 0 0 4.58 4.88c.08 0 .11.06.11.08s-1.23.1-1.62.42a.21.21 0 0 1-.15.06.2.2 0 0 1-.14-.06c-1.65-1.37-3.89-4.27-4-9.75-.25.07-.17.07-.21.57zm-2.76 20.35v1.18c1 0 2.66.49 2.66 1.37 0 .28-.15.52-.41.52s-.38-.13-.6-.42a4.74 4.74 0 0 0-1.65-1.32v3.95a.56.56 0 0 1-.59.53.38.38 0 0 1-.41-.42v-.06c.1-1.36.17-2.79.2-3.85a8.21 8.21 0 0 1-3.8 2.9s.07-.1.24-.21a14 14 0 0 0 3.63-4.17h-.45a17.51 17.51 0 0 0-2.23.13c-.17 0-.56-.52-.56-.67a21.66 21.66 0 0 0 2.83.2h.43a9.61 9.61 0 0 0-.13-1.75.3.3 0 0 1 0-.1 5.47 5.47 0 0 1 1.43.35 11.58 11.58 0 0 0 1.06-2.1 2.79 2.79 0 0 0 .11-.66v-.06s1.39.6 1.39.83-.18.14-.35.15-.25 0-.38.17a19.44 19.44 0 0 1-1.72 1.81h-.06a.38.38 0 0 1-.24.24c-.24.11-.34.08-.36.52v.6h1.09a.24.24 0 0 0 .17-.11c.11-.18.48-.71.67-.71a2.32 2.32 0 0 1 1.09 1c0 .08-.06.17-.27.17zM35 37.47a.75.75 0 0 1-.24 0h-.21a.81.81 0 0 0-.27 0 29.74 29.74 0 0 1-5.31.71c-.07 0-.48 0-.48-.06s.11-.07.35-.08c.76-.07 4.64-1 5.34-1.64.06 0 .06-.08.08-.08a2.46 2.46 0 0 1 1 1c.05.08-.05.15-.26.15zm-5 2.82a4 4 0 0 0-.78-1.29s-.07-.07-.07-.08c.32 0 1.78.5 1.78 1.27a.51.51 0 0 1-.46.52c-.13-.03-.31-.15-.47-.43zm1.86-.48a4.36 4.36 0 0 0-.56-1.39.23.23 0 0 1 0-.08c.29 0 1.51.66 1.51 1.42a.54.54 0 0 1-.5.56c-.15-.04-.31-.18-.4-.51zM41 45.06h-.37c-.08 0-.11 0-.21.14a10.24 10.24 0 0 1-6.95 3.46h-.22s.1-.07.29-.11c3.18-.67 6-3.33 6.37-4.64v-.11s1.36.85 1.36 1.13c.04.07-.06.13-.27.13zm-.56-3.73h-.28c-.13 0-.18.08-.28.2A8.81 8.81 0 0 1 35 44.37h-.07s.08-.1.28-.18c1.82-.83 3.84-2.69 4.15-3.94 0-.07 0-.13.07-.13s1.3.74 1.3 1c0 .13-.1.21-.29.21zM40 37.72h-.22c-.13 0-.14.07-.25.18a10 10 0 0 1-4.5 3h-.06s.08-.11.28-.21c.9-.48 3.31-2.51 3.68-4 0-.07 0-.13.07-.13s1.36.7 1.36 1-.15.16-.36.16zm-3.22 23.03h-4v.55c0 .28-.34.42-.52.42a.32.32 0 0 1-.36-.34c.08-1.41.1-2.8.1-3.81v-.92a13 13 0 0 0-.17-1.76.28.28 0 0 1 0-.1 6.49 6.49 0 0 1 1.26.57h1.25v-.22a14.83 14.83 0 0 0-.07-2h-1c-.78 0-2.66 0-3.91.15-.25 0-.62-.55-.62-.73 1.44.17 3.78.22 4.59.22h5a.29.29 0 0 0 .24-.13c.13-.2.59-.9.81-.9h.08c.42.15 1.26.92 1.26 1.19 0 .08-.07.17-.31.17H35.4c.08 0 .11.08.11.13s-.1.18-.22.24-.11.11-.11.25v1.64h1.33a.2.2 0 0 0 .18-.08c.29-.38.36-.38.42-.38s1.06.52 1.06.81-.18.24-.34.32-.27.14-.27 1 .06 2.54.11 4a.48.48 0 0 1-.5.45.35.35 0 0 1-.38-.38zm2.31 3v-.73H30.4v.69a.55.55 0 0 1-.57.48.35.35 0 0 1-.38-.38v-.06c.14-1.85.2-3.75.2-5.56v-1.22a12.21 12.21 0 0 0-.17-2 .25.25 0 0 1 0-.08s1.6.34 1.6.63c0 .1-.1.21-.32.34s-.24.21-.24.55c0 1-.08 3.78-.1 6.29h8.73v-5.67a12.84 12.84 0 0 0-.22-2 .25.25 0 0 1 0-.08s1.65.27 1.65.63c0 .1-.1.21-.31.34S40 56 40 58.22c0 1.58 0 3.67.13 5.48a.5.5 0 0 1-.56.48.4.4 0 0 1-.43-.42zm-4.75-8.08h-1.26l-.08.06c-.25.15-.25.25-.25 2h1.6zm0 4.75v-2.33h-1.6v2.33zm2.48-2.67v-1.92a.16.16 0 0 0-.17-.15h-1.49v2.07zm0 2.67v-2.33h-1.68v2.33zm-2.31 14.74c-1.21.73-1.7 1.46-1.7 2s.45 1.25 1.81 1.25a3.63 3.63 0 0 0 1.65-.39.86.86 0 0 1 .42-.11.45.45 0 0 1 .5.41c0 .53-1.12.92-2.19.92-1.61 0-2.7-1-2.7-1.93s.91-1.91 2.2-2.66c0-.67-.07-2.09-.94-2.09-.38 0-.87.31-1.43 1.11-.1.17-.2.38-.31.59-.21.39-.6 1.06-1 1.06a.41.41 0 0 1-.36-.46 1.48 1.48 0 0 1 .55-1 8.59 8.59 0 0 0 2.34-3.35c0-.06 0-.11.07-.17h-.1a2.67 2.67 0 0 1-.76.11c-1.43 0-1.72-1-1.72-1.23v-.06a1.16 1.16 0 0 1 .32.18 2 2 0 0 0 1.22.39 4.19 4.19 0 0 0 1.23-.21 1.83 1.83 0 0 0 0-.45c0-.49-.14-.77-.56-.87-.08 0-.2-.06-.2-.13s.38-.28.59-.28a.76.76 0 0 1 .8.7h.48a1.64 1.64 0 0 0 .41 0 .42.42 0 0 1 .17 0 .31.31 0 0 1 .29.35c0 .55-.77 1-1.68 1.33l-.06.11a22.77 22.77 0 0 1-1.13 2.2 1.66 1.66 0 0 1 .83-.24c.71 0 1.25.62 1.43 1.46.6-1.51 1.75-3 3.12-3 .74 0 1.71.56 1.71 1.22s-.63 1.09-1.54 1.46-2.2.87-3.15 1.34v1.49c0 .48-.38.84-.63.84s-.32-.15-.32-.55v-.18a6.81 6.81 0 0 0 .2-1zm-.14-6.49v.11a2.68 2.68 0 0 1-.07.57c.31-.13.53-.31.53-.43s-.32-.21-.34-.21zm.8 5.65c.83-.43 2-1 2.8-1.42.6-.32 1-.66 1-1a.84.84 0 0 0-.88-.74c-1.33 0-2.55 2.07-2.9 3.14zm-4.55 12.02A9.1 9.1 0 0 1 28 89.13s0-.08.11-.17c1.06-1.18 3.15-4.4 3.35-6.16v-.1s1.37.46 1.37.74c0 .1-.11.18-.39.27s-.22.08-.36.34c-.32.57-.69 1.18-1.08 1.76.83.18 1 .22 1 .36s-.11.17-.29.25-.31.14-.32.59c0 1.15-.07 2.7-.07 4.27v3.11a.59.59 0 0 1-.62.59c-.22 0-.42-.14-.42-.48v-.07c.17-2 .27-4.66.27-6.44v-1.65zm8.25 3.45v-.29h-2a6.15 6.15 0 0 1-.87 2.78 6.5 6.5 0 0 0 4.19 1.37 7.68 7.68 0 0 0 1.12-.07h.21s-.9.6-1.19.9c-.1.1-.1.2-.31.2a6.71 6.71 0 0 1-4.34-2 6.69 6.69 0 0 1-4.13 2.07h-.08s.17-.14.38-.21a5.74 5.74 0 0 0 3.45-2.33 4.42 4.42 0 0 1-.66-1.4v-.17a10.57 10.57 0 0 0-.64 1.22c0 .11 0 .34-.15.34a1.92 1.92 0 0 1-.77-.52l.08-.08a3 3 0 0 0 1.26-1.37.37.37 0 0 1 .38-.28c.34 0 .39.14.39.21s-.06.13-.2.2 0 .06 0 .15a2.9 2.9 0 0 0 .66 1.29 6.55 6.55 0 0 0 .52-2.31h-2.06v.28c0 .29-.31.41-.5.41a.32.32 0 0 1-.36-.34c.07-.84.1-1.36.1-1.92a10.27 10.27 0 0 0-.14-1.61.28.28 0 0 1 0-.1 4.31 4.31 0 0 1 1.19.49h1.67v-1.6c-.77 0-2 0-3.15.14-.27 0-.71-.53-.71-.7a38.79 38.79 0 0 0 3.88.21v-.49a6.77 6.77 0 0 0-.14-1.54.16.16 0 0 1 0-.07s0-.06.08-.06 1.41.15 1.41.43-.2.28-.28.32c-.28.1-.22.17-.25.91v.49h1.74a.31.31 0 0 0 .24-.13c.57-.83.71-.83.76-.83.25 0 1.27.8 1.27 1.12 0 .1-.07.18-.29.18h-3.75v1.56h1.71a.18.18 0 0 0 .17-.08c.27-.32.32-.36.43-.36s1 .49 1 .8c0 .14-.15.24-.31.32s-.25.21-.25.57V88c0 .55.07 1.12.1 1.65a.48.48 0 0 1-.5.48.34.34 0 0 1-.36-.36zM36.08 87h-1.66l-.1.07c-.21.14-.22.15-.22 1.22v.83h2v-.81zm2.8 2.11v-2a.16.16 0 0 0-.15-.15h-1.86v2.11zm-3.65 20.32a.57.57 0 0 1-.59.52.39.39 0 0 1-.41-.45c.06-1.11.08-2.69.11-4.23h-3.19c-.56 3.94-2.72 5.18-2.86 5.18s.08-.17.27-.38c1.55-1.76 1.92-4.52 1.92-7.21a24.06 24.06 0 0 0-.35-4.47.38.38 0 0 1 0-.1 6.35 6.35 0 0 1 1.5.66l.08.06h6.51c.07 0 .11-.06.17-.13s.35-.45.5-.45 1.2.63 1.2.92-.18.27-.43.39-.27.14-.27 2c0 1.53 0 3.77.06 5.14 0 .81.06 1.08.06 1.65a1.91 1.91 0 0 1-1.85 1.79c-.1 0-.13 0-.21-.15-.2-.28-1.89-1-1.89-1.11h.13a9.21 9.21 0 0 0 1.68.21c.83 0 1.13-.28 1.15-.88v-3h-3.35c0 1.6 0 3.18.06 4.17zm-3.91-7.2a23.62 23.62 0 0 1-.13 2.63h3.15v-2.63zm3.05-1.43v-1.51h-2.8l-.1.07c-.15.11-.2.13-.2.56v1.93h3.05zm.81 1.43v2.63h3.38v-2.63zm.41-2.94v.06c0 .06-.13.18-.22.24s-.17.1-.18.69v1.58h3.35c0-1 0-1.78-.06-2.37a.2.2 0 0 0-.18-.2zm-.31 25.92c-1.23 0-3.05-.59-3.05-4.15 0-1.54.32-3.11.32-4.64a2.5 2.5 0 0 0-.39-1.67c-.13-.14-.18-.22-.18-.28s.06-.08.15-.08a1.43 1.43 0 0 1 1.47 1.48 2.89 2.89 0 0 1 0 .46 33.71 33.71 0 0 0-.67 5c0 .81.07 3 2.55 3a6.68 6.68 0 0 0 4.15-1.81.58.58 0 0 1 .25-.15c-.02.24-2.07 2.84-4.6 2.84zM32 132.87c-1.61 0-1.91-1.06-1.91-1.27 0-.06 0-.08.06-.08a.88.88 0 0 1 .28.14 3.08 3.08 0 0 0 1.53.46 5.45 5.45 0 0 0 1.12-.14 6.06 6.06 0 0 0 .07-.87c0-.5-.1-.91-.41-1-.15 0-.35-.07-.35-.18a.71.71 0 0 1 .63-.36c.27 0 .85.21.92 1.09a5.46 5.46 0 0 0 .91.21c.24 0 .41.17.41.38 0 .59-1.16 1.08-1.68 1.26l-.08.24a58 58 0 0 0-1.93 6.37c-.15.71-.55 1.16-.83 1.16s-.42-.24-.42-.64a1.78 1.78 0 0 1 .28-.88 56.26 56.26 0 0 0 2.4-6.02 3.69 3.69 0 0 1-1 .13zm1.82-1.16c.38-.2.59-.39.59-.5s-.14-.24-.46-.38a3.52 3.52 0 0 1-.09.87zm4.43 8.54c-1.69 0-3.29-.88-3.29-1.91 0-.41.29-.84.43-.84s.07 0 .07.11a.6.6 0 0 1-.06.21.58.58 0 0 0-.07.27c0 .6 1 1.21 2.33 1.21.25 0 .5-.07.91-.07.66 0 1 .24 1 .48.06.05.04.54-1.29.54zm1.42-6.77a3.9 3.9 0 0 0-2 1 .28.28 0 0 1-.18.08h-.06a.17.17 0 0 1 .06-.13c.32-.41.43-.46.69-.84a.84.84 0 0 0 .2-.43c0-.42-.85-.55-1.13-.55h-.15a1.93 1.93 0 0 1-.32.06h-.08a1.46 1.46 0 0 1 1.19-.43c1.29 0 2.23.66 2.23 1a.7.7 0 0 1-.42.24zM.13 30.71H0s.1-.1.28-.15C2.63 29.79 5 27.14 5 26.14c0-.5-.32-.59-.6-.63-.11 0-.15-.07-.15-.14s.25-.37.51-.37a1.5 1.5 0 0 1 1.3 1.21 1.77 1.77 0 0 1-.42.94 8 8 0 0 1-5.51 3.56zM10.49 29a10.57 10.57 0 0 0-2.61-3.68c-.21-.2-.31-.32-.31-.38.41 0 4.08 2.28 4.08 4 0 .46-.25.74-.53.74s-.46-.19-.63-.68zm-.29-3.71a1.25 1.25 0 1 1 0-2.51 1.25 1.25 0 1 1 0 2.51zm.85-1.29a.83.83 0 0 0-.84-.84.84.84 0 0 0-.85.84.85.85 0 0 0 .85.85.84.84 0 0 0 .84-.85zM6.57 42.36a8 8 0 0 0-1-1 .27.27 0 0 1-.11-.17c0-.06.06-.08.18-.08.63 0 1.79.42 1.79 1.15 0 .27-.15.46-.36.46a.68.68 0 0 1-.5-.36zm-.69 3.92h-.1s.11-.14.34-.24a9.87 9.87 0 0 0 4.59-5.24c0-.15-.11-.24-.34-.28s-.22-.1-.22-.17a.47.47 0 0 1 .5-.35c.42 0 1.19.36 1.19.78 0 .27-.32.5-.45.74-2.26 4.23-5.25 4.76-5.51 4.76zm2.35-4.65a6.77 6.77 0 0 0-.85-1.19.36.36 0 0 1-.1-.17s0-.07.13-.07c.43 0 1.7.53 1.7 1.32a.43.43 0 0 1-.39.48c-.16 0-.33-.11-.48-.37zm-.29 14.84c.34.21.43.38.43.55s-.18.39-.25.59C6.39 62.43 2.41 63.29 2 63.29h-.07a.77.77 0 0 1 .34-.18c2.72-1 5-4.69 5-5.91 0-.46-.31-.55-.46-.55h-.13c-.1 0-.15 0-.17-.06a7.43 7.43 0 0 1-1.06.15 1.08 1.08 0 0 1-.78-.28c-1.72 2.63-3.12 3-3.15 3s.06-.11.2-.24a12.39 12.39 0 0 0 3.08-4.93c0-.27-.22-.42-.55-.48-.14 0-.22-.08-.22-.17a.49.49 0 0 1 .55-.36c.59 0 1.36.53 1.36 1 0 .21 0 .39-1 1.88a2 2 0 0 0 .43 0 20 20 0 0 0 3.12-.49c.5-.11.66-.36 1.23-.36s1.6.2 1.6.73c0 .18-.18.32-.53.32h-.24a5.36 5.36 0 0 0-.85-.06 17.25 17.25 0 0 0-1.85.13zM6.33 76.69v-.17c0-.9.07-2.44.07-4 0-3.28-.11-3.7-.55-3.84-.08 0-.24-.1-.24-.2A.38.38 0 0 1 6 68.2c.49 0 1.54.64 1.54 1.09 0 .24-.18.45-.24.67S7.2 70 7.2 73v3.25c0 1.5-.25 1.88-.48 1.88s-.39-.43-.39-1.44zM3.35 88c1.21 0 1.7.5 1.7 1a.39.39 0 0 1-.41.42 1 1 0 0 1-.53-.18 10.12 10.12 0 0 0-1.93-.91c-.11 0-.17-.06-.17-.08A2.62 2.62 0 0 1 3.35 88zm9.43-2.23a2.48 2.48 0 0 1-.17.46c-.88 2.13-4 5.22-6.93 7-.36.22-.5.53-.85.53s-1.61-.55-1.61-1.27c0-.17.11-.55.27-.55s.14.1.18.21a.7.7 0 0 0 .67.39c1.93 0 6.53-4.52 8.13-6.46.18-.22.29-.34.32-.34zm-6.66 1.12a10.14 10.14 0 0 0-1.78-1.16c-.1 0-.15-.08-.15-.1s.34-.13.76-.13c1.67 0 2.16.73 2.16 1.19a.41.41 0 0 1-.41.45.92.92 0 0 1-.58-.25zm4.46-1.5a4.42 4.42 0 0 0-1.21-1c-.11-.06-.21-.1-.21-.14a1.21 1.21 0 0 1 .55-.08c.76 0 1.65.32 1.65 1a.43.43 0 0 1-.41.46.55.55 0 0 1-.37-.24zm1.42-.67a4.82 4.82 0 0 0-1.23-1c-.11-.06-.22-.1-.22-.13s.59-.11.62-.11c.77 0 1.61.32 1.61.92a.43.43 0 0 1-.41.45.53.53 0 0 1-.37-.13zM5.59 102.5c-1-.56-1.64-1.4-1.64-1.82 0-.06 0-.08.06-.08s.14.07.21.15a4.18 4.18 0 0 0 1.48 1 10.82 10.82 0 0 0 .13-1.54c0-.69-.11-1.39-.57-1.67-.1-.06-.14-.1-.14-.14s.25-.18.32-.18a1.52 1.52 0 0 1 1.26 1.46 9.06 9.06 0 0 1-.24 1.53c0 .21-.08.45-.13.69a2.16 2.16 0 0 1 .45.06c.29.14.43.31.43.46s-.1.24-.29.31a8.53 8.53 0 0 0-.84.35c-.15.78-.31 1.63-.41 2.45h.53c.18 0 .34-.14.52-.15h.1c.43 0 .73.18.73.39s-.76.57-1.46.57a2.63 2.63 0 0 1-.49 0v.43c0 2.38 1.08 2.65 1.57 2.65A2.17 2.17 0 0 0 9 107.07a4.78 4.78 0 0 0-1.5-3.12 1.86 1.86 0 0 1-.41-.53s2.75 1.65 2.75 3.85a3 3 0 0 1-2.7 2.89c-2 0-2-2.8-2-3.24v-.71A1.55 1.55 0 0 1 4 104.84c0-.63.55-1.3 1.58-2zm-.13.83c-.55.25-1.13.81-1.13 1.32 0 .13 0 .56.87.81.05-.73.17-1.46.26-2.13zm-.26 20.48H5a.56.56 0 0 0-.35.14 10.33 10.33 0 0 1-4.13 1.65c-.08 0-.13 0-.13-.06s.08-.08.25-.14c1.32-.45 3.28-1.77 3.59-2.54 0-.07 0-.13.07-.13s1.2.64 1.2.92c0 .1-.09.16-.3.16zm1.3-5.56c.43.18.57.31.57.41s-.14.2-.39.27a.56.56 0 0 0-.31.14c-.27.25-.8.69-1.13.94a.94.94 0 0 1 .5.74.4.4 0 0 1-.39.43.73.73 0 0 1-.55-.35 6.33 6.33 0 0 0-1.26-1.13c-.08-.07-.13-.1-.13-.13s0 0 .08 0a4.46 4.46 0 0 1 1.51.35 5.46 5.46 0 0 0 .78-1.64h-.36c-.76 0-2.73 0-4 .15-.25 0-.66-.55-.66-.73 1.39.18 3.91.22 4.69.22h.87v-1.26h-.39c-.71 0-2 .11-2.89.14H3c-.24 0-.64-.53-.64-.7a32 32 0 0 0 3.61.21h.36v-1.15h-1c-.73 0-2 0-3.22.15-.24 0-.63-.55-.63-.73a34.37 34.37 0 0 0 3.92.22h.9a9.36 9.36 0 0 0-.15-1.5.38.38 0 0 1 0-.1s1.63.18 1.63.5c0 .08-.08.18-.22.27-.32.21-.39.07-.39.56v.29h2.48a.26.26 0 0 0 .22-.1c.21-.29.57-.73.74-.73s1.25.62 1.25 1c0 .1-.07.18-.29.18H7.21v1.15H8.7a.25.25 0 0 0 .21-.1c.49-.63.66-.63.7-.63.29 0 1.21.69 1.21.9s-.06.18-.28.18H7.2v1.26h3.32a.29.29 0 0 0 .24-.1c.07-.11.57-.8.77-.8s1.32.66 1.32 1.06c0 .1-.06.18-.29.18zm.91 3.75c.14 0 .2.1.2.15s-.1.17-.17.2c-.24.11-.25.14-.25 1 0 .55 0 1.18.06 2 0 .25-.28.41-.53.41a.36.36 0 0 1-.41-.35c0-.8.08-1.43.08-2v-1.25c-1.32.17-2.61.29-3.78.43-.15 0-.25.15-.36.15s-.71-1.08-.71-1.15h.11a8.67 8.67 0 0 0 1.29.14c.77 0 1.68 0 2.63-.1a14 14 0 0 0 2.3-2.14 3.17 3.17 0 0 0 .38-.71c0-.06 0-.08.06-.08s1.29.69 1.29.92-.14.18-.43.18h-.11a.48.48 0 0 0-.35.08 25.92 25.92 0 0 1-2.65 1.72c1.33-.1 2.73-.22 4-.35a7.71 7.71 0 0 0-1-1s-.07-.07-.07-.08 0 0 .06 0c.24 0 2.58.85 2.58 1.92a.56.56 0 0 1-.48.6c-.2 0-.42-.15-.59-.52a4.13 4.13 0 0 0-.34-.6c-.94.2-1.9.35-2.88.49zm3.31 2.94a8.81 8.81 0 0 0-2.4-2c-.06 0-.08-.06-.08-.08s0 0 .07 0c.24 0 3.4.67 3.4 1.93a.54.54 0 0 1-.46.59c-.17-.07-.35-.18-.53-.45zm-6.64 5.99a27 27 0 0 0-2.73.13c-.24 0-.52-.49-.52-.64a28.08 28.08 0 0 0 3 .18v-.17a9.66 9.66 0 0 0-.1-1.61.24.24 0 0 1 0-.08c.1 0 1.41.18 1.41.49 0 .08-.1.18-.24.27-.31.2-.27.15-.29.62v.5h1.51a.25.25 0 0 0 .15-.11c.13-.24.42-.64.53-.64h.08c.29.14.92.59.92.9 0 .08-.06.18-.27.18zm-1.71 2.62h-.06c-.18.13-.2.18-.2 1.89v5.1a.48.48 0 0 1-.48.48.33.33 0 0 1-.35-.34c.06-1.13.07-2.9.07-4.3v-1.92a10.33 10.33 0 0 0-.14-1.65.24.24 0 0 1 0-.08 5.61 5.61 0 0 1 1.06.48h2.24a5 5 0 0 0 .5-2v-.06s1.25.39 1.25.71c0 .08-.11.15-.36.15s-.2.07-.31.2-.59.7-.84 1h1.57a.21.21 0 0 0 .15-.1 1.25 1.25 0 0 1 .21-.25.13.13 0 0 1 .1 0c.18 0 .81.56.81.74s-.11.2-.22.25-.25.08-.27.35 0 .78 0 1.39v3.5a1.44 1.44 0 0 1-1.43 1.47c-.11 0-.14 0-.21-.15s-1.33-.78-1.33-.88h.17a8.54 8.54 0 0 0 1.32.15c.57 0 .76-.18.77-.63v-5.25s0-.14-.15-.14zm2.45 5.14v-.18H3.56v.62a.38.38 0 0 1-.39.38.27.27 0 0 1-.27-.29c0-.42.06-1.32.06-1.92a6.56 6.56 0 0 0-.1-1.08.61.61 0 0 0 0-.07 2.73 2.73 0 0 1 .91.38h.1v-1.13c-.28 0-.53 0-1.11.11-.22 0-.52-.48-.52-.62a10 10 0 0 0 1.64.18v-.11a7.05 7.05 0 0 0-.1-1 .15.15 0 0 1 0-.07s1.11.11 1.11.34c0 .07-.08.15-.22.22s-.18.11-.2.42v.13h.39s.06 0 .1-.1c.31-.43.34-.48.41-.48a.11.11 0 0 1 .07 0c.41.2.7.53.7.71s-.06.17-.21.17H4.48v1.13h.13a.14.14 0 0 0 .14-.07c.2-.29.27-.31.29-.31s.78.36.78.64c0 .13-.11.2-.21.27s-.18.13-.18.45 0 .81.07 1.16a.38.38 0 0 1-.39.43c-.15 0-.28-.1-.28-.32zM3 132.51a3.22 3.22 0 0 0-.6-1c-.06-.07-.08-.1-.08-.13.45 0 1.49.27 1.49 1a.48.48 0 0 1-.42.52c-.11.04-.28-.08-.39-.39zm1.81 5.69v-1.29a.13.13 0 0 0-.13-.13H3.7c-.13.1-.13.1-.14.34v1zm6.71-5.56c.18 0 .59.17.59.34s-.11.2-.28.24-.17.17-.2.41a11.26 11.26 0 0 1-1.25 4.17 5.71 5.71 0 0 0 3.12 2.4c.08 0 .13 0 .13.07s-1.12.18-1.46.46a.32.32 0 0 1-.17.08 5.31 5.31 0 0 1-2-2.34 7.32 7.32 0 0 1-4.52 2.7h-.06s.15-.14.32-.2a6.89 6.89 0 0 0 3.92-3.19A14.05 14.05 0 0 1 8.54 133c-.84 1.81-1.31 2-1.33 2a.72.72 0 0 1 .08-.21A16.43 16.43 0 0 0 8.87 129c0-.15 0-.15.06-.15.24 0 1.47.31 1.47.57 0 .1-.14.18-.35.24s-.22.07-.29.28a23.45 23.45 0 0 1-.85 2.35h2.54a.24.24 0 0 0 .17-.11c.21-.35.48-.73.59-.73s1.12.69 1.12 1.05c0 .07-.06.14-.27.14zm-2.79 0a12.27 12.27 0 0 0 1.27 4.43 10.3 10.3 0 0 0 .85-4.09 2.59 2.59 0 0 0 0-.34zm-.14 23.25c-.66 0-2.94-.24-2.94-3.54a7.55 7.55 0 0 1 1.35-4.5c.1-.1.17-.17.17-.2A23.18 23.18 0 0 0 4 149a2.08 2.08 0 0 1-.92.21c-.63 0-1.2-.27-1.2-.74 0-.06 0-.14.11-.14a2.8 2.8 0 0 1 .29.06 4.87 4.87 0 0 0 .69.07 2.55 2.55 0 0 0 .81-.14A43.34 43.34 0 0 1 9 146.23a4.2 4.2 0 0 1 1.13-.28h.07c1.29 0 1.5.45 1.5.67s-.21.43-.67.43h-.32A4.37 4.37 0 0 0 10 147a4.88 4.88 0 0 0-2 .39c-1 .55-1.75 2.72-1.75 4.52 0 2.86 1.82 3 2.24 3a2.61 2.61 0 0 0 .83-.14 1.15 1.15 0 0 1 .36-.06c.38 0 .63.21.63.46-.03.52-1.16.72-1.72.72zm1.88-6.18a4.49 4.49 0 0 0-1.21-1c-.11-.06-.21-.1-.21-.14a1.22 1.22 0 0 1 .55-.08c1.12 0 1.65.5 1.65 1a.44.44 0 0 1-.41.48.52.52 0 0 1-.38-.26zM12 149a4.79 4.79 0 0 0-1.25-.94c-.11-.06-.22-.1-.22-.14a1.13 1.13 0 0 1 .62-.11c.7 0 1.61.25 1.61.92a.42.42 0 0 1-.39.45.53.53 0 0 1-.37-.18zm-5.26 19.75h-.18a.8.8 0 0 1-.67-.36 2.89 2.89 0 0 1-.58-1.67 1.23 1.23 0 0 1 1.28-1.33 1.72 1.72 0 0 1 .73.17v-2.19a12.92 12.92 0 0 0-3.6.87 2.51 2.51 0 0 1-1 .2c-.76 0-1.55-.48-1.55-1.09 0-.14.06-.2.14-.2a.49.49 0 0 1 .29.17 1.44 1.44 0 0 0 .85.17 5.77 5.77 0 0 0 .69 0c1.42-.18 2.76-.39 4.13-.53v-1.4a1 1 0 0 0-.55-1c-.08-.06-.11-.08-.11-.14s.15-.29.56-.29a1 1 0 0 1 1 1.05 3.4 3.4 0 0 1-.06.49c-.08.43-.14.85-.18 1.25.57 0 1.15-.08 1.75-.1.15 0 .22 0 .22-.08s0 0-.06-.06a9.11 9.11 0 0 1-1.15-.9 1 1 0 0 1 .39.14 7.13 7.13 0 0 0 1.88.7c1.47.21 1.58.73 1.58.9s-.17.36-.46.36a1.22 1.22 0 0 1-.36-.06 11 11 0 0 0-3.18-.43H7.9v2.65a1.9 1.9 0 0 1 .52 1.46c0 2.65-2.87 4.4-3.85 4.4h-.1s.11-.14.36-.24a5.31 5.31 0 0 0 2.62-3.28 1.33 1.33 0 0 1-.71.37zm-.35-3a.67.67 0 0 0-.66.76c0 .21.15 1.36 1 1.36.56 0 .66-.62.66-1a2.11 2.11 0 0 0 0-.42 1.06 1.06 0 0 0-1-.7zm5.15 12.18a1.63 1.63 0 1 1 1.63-1.62 1.64 1.64 0 0 1-1.63 1.62zm0-2.77a1.15 1.15 0 1 0 1.15 1.15 1.15 1.15 0 0 0-1.15-1.15z"/></svg>