<svg id="design" xmlns="http://www.w3.org/2000/svg" viewBox="0 0 324.55 235.24"><defs><style>.cls-1{fill:#000}</style></defs><title>txt_top_2</title><path class="cls-1" d="M267.54 44l.06-2.85h-20.47v2.75a2.45 2.45 0 0 1-2.57 2.17 1.6 1.6 0 0 1-1.71-1.77v-.17c.4-6.44.51-14.19.51-21.55 0-16.7-.46-20.07-.91-22a1.51 1.51 0 0 1-.06-.4c0-.11 0-.17.06-.17a23.31 23.31 0 0 1 6.1 2.68c.06.06.17.11.23.17h17.33a1.26 1.26 0 0 0 .91-.51c.63-.8 1.77-1.88 2.17-1.88.57 0 5.07 2.57 5.07 3.82 0 .68-.74 1.14-1.77 1.65s-1.2.68-1.2 8.49c0 8.38.29 21.89.51 29a2.4 2.4 0 0 1-2.51 2.39 1.63 1.63 0 0 1-1.77-1.71zm-19-39.56a3.18 3.18 0 0 1-.46.34c-1 .63-1 .91-1 2.45 0 2.28-.06 7.3-.06 13.23h20.69c0-6.33 0-11.91-.17-15.22a.77.77 0 0 0-.74-.8zM247 22c0 5.64 0 12 .06 17.62h20.52c.06-5.7.11-11.91.11-17.62zm7.94 58.83c-8.49 10.83-17 16.3-18.36 16.3a.2.2 0 0 1-.11-.06c0-.17.34-.51 1.14-1.14 5.13-3.93 13.23-13.8 17.1-21a27.1 27.1 0 0 0 1.77-4.73c.06-.28.06-.46.17-.46.74 0 5.42 2.57 5.42 3.88 0 .51-.51 1-2 1.31-1 .23-1.14.4-2 1.6-.63.91-1.25 1.82-2 2.79h8.15a1.67 1.67 0 0 0 1.31-.57c1.2-1.2 1.37-1.2 1.48-1.2.74 0 4.79 2.68 4.79 4.39 0 .74-.68 1.14-1.65 1.31-1.6.29-2.28.23-3.48 1.25a117.31 117.31 0 0 1-9.67 7.67c1.37.4 5.53 1.77 5.53 4.85a2 2 0 0 1-1.88 2.11 3.91 3.91 0 0 1-2.85-1.77 23.33 23.33 0 0 0-7.41-5.59c-.23-.11-.34-.23-.34-.29s.23-.23.68-.23a21.6 21.6 0 0 1 4.85.51c3.88-3.88 8.78-9.63 8.78-10.49 0-.23-.17-.46-.57-.46zm-10.21 67.71c-7 6.21-12.66 8.61-13.74 8.61a.25.25 0 0 1-.17-.06c0-.17.34-.46 1.14-.91 5-2.91 12.14-10 16.36-16a23.72 23.72 0 0 0 2.05-3.93c.11-.28.11-.4.23-.4s4.5 2.68 4.5 3.93c0 .51-.51.85-1.94 1-.86.11-1.08.23-1.94 1.2s-2.05 2.22-3.19 3.36c1.48.46 2.05.68 2.05 1.14s-.51.85-1.25 1.2-.68.51-.8 2.11c-.17 2.11-.34 7.41-.34 12.6 0 2.45 0 4.9.11 6.9a2.32 2.32 0 0 1-2.39 2.45c-.86 0-1.6-.57-1.6-1.88v-.4c.68-6.9.8-13.34.91-17.73zm19.84-18.24c.06 1.2.06 2.51.11 3.93 0 .46-.29 1.6-2.11 1.6-.8 0-1.48-.34-1.48-1.25v-.17c.11-1.77.17-3.08.23-4.1h-9.06c.06 1 .06 2 .11 3.25 0 .46-.29 1.6-2.11 1.6-.8 0-1.48-.34-1.48-1.25v-.17c.11-1.48.11-2.62.17-3.42-3.65.06-9.29.23-13.4.63h-.06c-1 0-2.62-2.17-2.62-2.91 4.73.57 11.86.8 16.13.85 0-.57.06-1 .06-1.43a37.89 37.89 0 0 0-.57-5.59c0-.17-.06-.23-.06-.34s.06-.17.23-.17c.91 0 5.76.51 5.76 1.82 0 .34-.29.8-1.14 1.2-1 .46-1.08 1.25-1.08 4.56h9.18v-1.48a37.89 37.89 0 0 0-.57-5.59c0-.17-.06-.23-.06-.34s.06-.17.23-.17c.91 0 5.76.51 5.76 1.82 0 .34-.29.8-1.14 1.2s-1.08.63-1.08 4.56h7.64a1.16 1.16 0 0 0 .91-.51c2.34-3.59 2.91-3.65 3.25-3.65.11 0 .29.06.4.06 1.94.68 5 4 5 4.79 0 .34-.28.68-1.25.68zm-2.85 32.55c.06 2.62.51 3.65 6.84 3.65a35.52 35.52 0 0 0 5.36-.4c2.79-.46 3.48-5 4.28-9.41a1.78 1.78 0 0 1 .11-.4c.34 0 .68 7.24 1.71 7.87a1.94 1.94 0 0 1 1.08 1.65c0 1.48-2.28 3.19-6.67 3.65-1.88.17-4.1.29-6 .29-5.36 0-10-.68-10-5.87v-.23c.11-6.61.29-14.19.34-19.21a68.2 68.2 0 0 0-.4-7.41 3.23 3.23 0 0 0-.06-.4c0-.17.06-.23.23-.23.8 0 5.93 1.25 5.93 2.28 0 .4-.4.8-1.2 1.14s-1.14.23-1.25 2.11c-.11 1.31-.23 5.42-.28 9.81 7.64-4.1 11.52-7.3 12.09-9 .06-.17.11-.29.23-.29.4 0 4.5 3.53 4.5 4.9 0 .4-.34.68-1 .68a4.22 4.22 0 0 1-1.08-.17 3.92 3.92 0 0 0-.74-.11 1.12 1.12 0 0 0-.57.11 105.34 105.34 0 0 1-13.39 5.14c-.06 4-.06 8-.06 9.85zm-6.78 43.38c-8.49 10.83-17 16.3-18.36 16.3a.2.2 0 0 1-.11-.06c0-.17.34-.51 1.14-1.14 5.13-3.93 13.23-13.8 17.1-21a27.08 27.08 0 0 0 1.77-4.73c.06-.29.06-.46.17-.46.74 0 5.42 2.57 5.42 3.88 0 .51-.51 1-2 1.31-1 .23-1.14.4-2 1.6-.63.91-1.25 1.82-2 2.79h8.15a1.67 1.67 0 0 0 1.31-.57c1.2-1.2 1.37-1.2 1.48-1.2.74 0 4.79 2.68 4.79 4.39 0 .74-.68 1.14-1.65 1.31-1.6.29-2.28.23-3.48 1.25a117.22 117.22 0 0 1-9.63 7.64c1.37.4 5.53 1.77 5.53 4.85a2 2 0 0 1-1.88 2.11 3.91 3.91 0 0 1-2.85-1.77 23.32 23.32 0 0 0-7.41-5.59c-.23-.11-.34-.23-.34-.29s.23-.23.68-.23a21.57 21.57 0 0 1 4.85.51c3.88-3.88 8.78-9.63 8.78-10.49 0-.23-.17-.46-.57-.46zm59.92-183.77c.32-.51.49-.61.49-.78s-.2-.19-.43-.19c-.07 0-.12-.07-.12-.19s.07-.35.16-.35h2.91c.16 0 .19.07.19.26s0 .3-.14.3a2.83 2.83 0 0 0-3 2.75 1.84 1.84 0 0 0 1.88 1.94c1.38 0 1.81-1.19 2.29-2.4s1.07-2.52 2.85-2.52a2.62 2.62 0 0 1 2.61 2.72 2.74 2.74 0 0 1-.3 1.38c-.22.43-.3.53-.3.63s.07.26.28.27.08.05.08.11 0 .28-.09.28h-2.52c-.12 0-.18-.05-.18-.28s0-.27.19-.27A2.09 2.09 0 0 0 324 24a1.48 1.48 0 0 0-1.52-1.62c-1.15 0-1.51 1-2 2.1-.51 1.35-1.09 2.86-3.16 2.86a2.89 2.89 0 0 1-3-3.1 3 3 0 0 1 .54-1.78zm-.19 7.54c0-.08.08-.09.24-.09s.26 0 .26.09c0 1 .27 1.32 1.07 1.32h6.5c.7 0 1.05-.31 1.05-1.35 0-.07.08-.09.23-.09s.27 0 .27.12c0 .34-.07 1-.07 2.08 0 1.24.07 4.64.07 4.84s-.07.23-.26.23c-.84 0-1.59.09-2 .09-.09 0-.13-.12-.13-.28s0-.24.11-.26c1.16-.22 1.73-.8 1.73-2.23a12.9 12.9 0 0 0-.09-1.62c-1 0-2.9-.05-3.6-.11 0 1.93.54 2.08 1.36 2.08.16 0 .19 0 .19.28s0 .27-.2.27a14.81 14.81 0 0 0-1.6-.07c-1 0-1.43.07-1.61.07s-.19-.05-.19-.27.05-.28.19-.28c.92 0 1.38-.26 1.38-2.08h-3.38c-.63 0-1 .2-1 1.54 0 2.27.69 2.82 2.13 3 .13 0 .19.09.19.26s0 .3-.15.3c-.47 0-1.29-.07-2.54-.07-.15 0-.18-.05-.18-.2 0-.9.07-4.4.07-5.44s-.04-1.83-.04-2.13zm.26 13c-.16 0-.27 0-.27-.13 0-.34.05-.63.05-1.39s-.05-1.13-.05-1.33.08-.09.24-.09.26 0 .26.12c0 .49.36.78 1 1.15.42.23 7.63 3.39 8 3.45.2.05.28.13.28.32s-.07.23-.24.3c-.93.32-7.65 3.08-8.4 3.59a1.16 1.16 0 0 0-.69 1.09c0 .08-.11.11-.23.11s-.27 0-.27-.13c0-.34.05-.89.05-2s-.05-1.75-.05-2.08c0-.08.08-.09.24-.09s.26 0 .26.09c0 1 .2 1.21.7 1.21a1 1 0 0 0 .38-.08l2.06-.84v-1.63c0-.7 0-1.31.05-1.74-.57-.23-1-.45-1.44-.59a2.83 2.83 0 0 0-1-.27c-.51 0-.69.32-.69.84-.01.05-.12.12-.24.12zm3.93.11v2.92l3.44-1.4c-.46-.27-2.03-.97-3.44-1.56zm-4 10.89c.32-.51.49-.61.49-.78s-.2-.19-.43-.19c-.07 0-.12-.07-.12-.19s.07-.35.16-.35h2.91c.16 0 .19.07.19.26s0 .3-.14.3a2.83 2.83 0 0 0-3 2.75 1.84 1.84 0 0 0 1.88 1.94c1.38 0 1.81-1.19 2.29-2.4s1.07-2.52 2.85-2.52a2.62 2.62 0 0 1 2.58 2.72 2.74 2.74 0 0 1-.3 1.38c-.22.43-.3.53-.3.63s.07.26.28.27.08.05.08.11 0 .28-.09.28h-2.52c-.12 0-.18-.05-.18-.28s0-.27.19-.27a2.09 2.09 0 0 0 2.32-2.09 1.48 1.48 0 0 0-1.52-1.62c-1.15 0-1.51 1-2 2.1-.51 1.35-1.09 2.86-3.16 2.86a2.89 2.89 0 0 1-3-3.1 3 3 0 0 1 .54-1.81zm4.62 7.59a5.32 5.32 0 0 1 0 10.63 5 5 0 0 1-5-5.33 5 5 0 0 1 5-5.3zm-.05 1.69c-2.72 0-4.38 1.28-4.38 3.62s1.86 3.64 4.38 3.64c2.72 0 4.56-1.48 4.56-3.64s-1.78-3.62-4.57-3.62zm2.97 13.39h-6c-.89 0-1.21.55-1.21 1.52 0 .05-.09.09-.24.09s-.26 0-.26-.09v-3.56s.12-.07.24-.07.26 0 .26.09c0 .89.32 1.29 1.21 1.31l6.12.05c.61 0 1.28-.38 1.28-1.61 0-.05 0-.09.24-.09s.26.07.26.12c0 .24-.07 1-.07 1.78v.67a.26.26 0 0 1-.12.23c-.76.59-2.25 1.89-3.72 3.13a40.59 40.59 0 0 1-3.21 2.55h5.33c.78 0 1.28-.18 1.28-1.43 0-.07.09-.11.26-.11s.24 0 .24.13c0 .39-.07.86-.07 1.66 0 1 .07 1.51.07 1.73 0 .05-.07.09-.24.09s-.26 0-.26-.11c0-.8-.24-1.28-1.34-1.31s-4 0-5.49 0h-2.27c-.07 0-.09-.15-.09-.38a.26.26 0 0 1 .13-.22c.96-.63 6.22-4.84 7.67-6.17zm-7.47 12.53c-.16 0-.27 0-.27-.13 0-.34.05-.63.05-1.39s-.05-1.13-.05-1.34.08-.09.24-.09.26 0 .26.12c0 .49.36.78 1 1.15.42.23 7.63 3.39 8 3.45.2.05.28.13.28.32s-.07.23-.24.3c-.93.32-7.65 3.08-8.4 3.59a1.16 1.16 0 0 0-.69 1.09c0 .08-.11.11-.23.11s-.27 0-.27-.13c0-.34.05-.89.05-2s-.05-1.75-.05-2.08c0-.08.08-.09.24-.09s.26 0 .26.09c0 1 .2 1.21.7 1.21a1 1 0 0 0 .38-.08l2.06-.84v-1.63c0-.7 0-1.31.05-1.74-.57-.23-1-.45-1.44-.59a2.81 2.81 0 0 0-1-.27c-.51 0-.69.32-.69.84-.01.11-.12.13-.24.13zm3.93.11v2.92l3.44-1.4c-.46-.22-2.03-.92-3.44-1.52zm-4.19 9.45c0-.08.08-.09.24-.09s.26 0 .26.09c0 1 .27 1.32 1.07 1.32h6.5c.7 0 1.05-.31 1.05-1.35 0-.07.08-.09.23-.09s.27 0 .27.12c0 .34-.07 1-.07 2.08s.07 1.71.07 2.06c0 .09-.11.11-.26.11s-.24 0-.24-.11c0-1-.47-1.31-1.11-1.31-1.27 0-4.52-.09-5.71-.09-1.38 0-1.66.69-1.66 1.78 0 1.74.81 2.66 2.06 2.82.16 0 .19.09.19.26s-.05.28-.15.28c-.47 0-1.65-.09-2.52-.09-.22 0-.26-.09-.26-.28 0-.65.07-4 .07-5.42.01-1.06-.03-1.76-.03-2.09zm2.82 16.98a7.92 7.92 0 0 0-2.14-.73.22.22 0 0 0-.24.23c0 .41.58.94 1.46 1.27a.12.12 0 0 1 .07.11c0 .09-.08.28-.22.24-.94-.27-2-1.15-2-2.1 0-.54.22-.8.81-.8a8.51 8.51 0 0 1 2.52.76 8.43 8.43 0 0 0 2.29.74c.28 0 .36-.09.36-.23 0-.41-.58-.94-1.46-1.27a.12.12 0 0 1-.07-.11c0-.09.08-.28.22-.24a2.49 2.49 0 0 1 1.94 2.12c0 .57-.34.78-.86.78a7.36 7.36 0 0 1-2.68-.77zm6.16-.16a.75.75 0 1 1-.76.75.75.75 0 0 1 .76-.75zm-7.93 4.53a1 1 0 0 0-.24 0 .22.22 0 0 0-.24.23c0 .4.58.94 1.46 1.27a.12.12 0 0 1 .07.11c0 .08-.07.24-.22.24-.94-.27-2.13-1.08-2.13-2.12 0-.49.31-.77.88-.77a3.32 3.32 0 0 1 1 .16l4 1.23v-.73c0-.11 0-.09.15-.09.27 0 .35 0 .35.13v.82l1.75.55c.14 0 .22.41.22.71s-.05.45-.19.45c-.55-.2-1.16-.4-1.78-.61v1.16c0 .24 0 .15-.2.15s-.3-.07-.3-.15v-1.31c-1.84-.59-3.61-1.14-4.58-1.43zm1.65 5.51a5.48 5.48 0 0 0-1.38-.23c-.7 0-1 .3-1 .86a2.41 2.41 0 0 0 1.52 1.92c.11 0 .13.05.13.15s-.08.3-.22.26a2.84 2.84 0 0 1-2.05-2.7 1.63 1.63 0 0 1 1.71-1.63c2.48 0 5 2.13 5 4.17 0 .84-.45 1.16-1.05 1.16-1.03-.01-2.03-1.35-2.66-3.96zm3.1 2.62c0-.76-.94-1.85-2.62-2.46.5 1.77 1.32 2.87 2.2 2.87a.38.38 0 0 0 .42-.42zm-1.31 9.04a3.07 3.07 0 0 1 1.88 2.4 1 1 0 0 1-1.13 1.17 6.08 6.08 0 0 1-2.41-.62 7.16 7.16 0 0 0-2.14-.67.22.22 0 0 0-.24.23c0 .4.58.94 1.46 1.27a.12.12 0 0 1 .07.11c0 .09-.08.28-.22.24-.94-.27-2-1.15-2-2.1 0-.54.22-.77.81-.77a7.75 7.75 0 0 1 2.52.67 6.26 6.26 0 0 0 2.2.59c.35 0 .5-.12.5-.46 0-.71-1.13-1.71-2.35-2.19-.66-.26-3-1-3.41-1.08-.08 0-.16-.16-.16-.38s.09-.65.23-.65a2.27 2.27 0 0 1 .59.12l2.21.67a13.86 13.86 0 0 0 2.39.61c.35 0 .5-.12.5-.46 0-.71-1.13-1.71-2.35-2.18-.66-.26-3-1-3.41-1.08-.08 0-.16-.16-.16-.38s.09-.65.23-.65a2.26 2.26 0 0 1 .59.12l2.21.67a16.65 16.65 0 0 0 2.48.67c.28 0 .36-.09.36-.23 0-.41-.58-.94-1.46-1.27a.12.12 0 0 1-.07-.11c0-.09.08-.28.22-.24a2.49 2.49 0 0 1 1.94 2.12c0 .49-.38.66-.86.66a4.32 4.32 0 0 1-1-.18 3.06 3.06 0 0 1 1.88 2.48c0 .69-.35 1-.94 1a3.61 3.61 0 0 1-.96-.1zM170.51 20.86c-.13 1.36-.87 1.74-1.21 1.74a.49.49 0 0 1-.52-.48.77.77 0 0 1 .32-.57 2.6 2.6 0 0 0 1.12-1.78c0-.1 0-.15.08-.15s.15.15.2.9h5.9a5.58 5.58 0 0 0 .59-2.26c-.77.11-1.72.22-2.72.31 1 .55 1 1.13 1 1.23a.52.52 0 0 1-.46.55c-.17 0-.32-.13-.38-.45a3.53 3.53 0 0 0-.42-1.32c-.69.06-1.42.1-2.12.13 1.11.36 1.26 1 1.26 1.16a.49.49 0 0 1-.43.52c-.15 0-.29-.1-.39-.35a3.6 3.6 0 0 0-.71-1.32h-1.44c-.15 0-.28-.06-.28-.13s.07-.07.24-.08a45.2 45.2 0 0 0 7-1.13 2.36 2.36 0 0 0 .8-.38c.06 0 .08-.06.11-.06h.07c.53.53.78.85.78 1.05s-.07.15-.18.15a.82.82 0 0 1-.24-.06.85.85 0 0 0-.29-.07h-.08c-.25 0-.56.1-.9.14.43.17 1.15.5 1.15.69s-.17.15-.31.18-.2 0-.32.2-.67.85-1 1.22h2.17a.46.46 0 0 0 .25-.11s.24-.28.45-.28 1.15.69 1.15 1c0 .17-.15.31-.55.32a4.62 4.62 0 0 0-1.82.57h-.11a.18.18 0 0 1 .06-.1 4.41 4.41 0 0 0 .69-1c0-.06 0-.08-.1-.08zm3 5a10 10 0 0 1-4.55 3.28h-.07s.07-.11.24-.2a12.74 12.74 0 0 0 4.4-4.65c-.79-.11-1-.35-1-.94v-1.71a.47.47 0 0 0 0-.08s1.18.15 1.18.43c0 .11-.14.21-.24.27s-.22.18-.22.87c0 .36 0 .55 1.37.55 1.63 0 1.93 0 2.13-1.44 0-.1 0-.15.07-.15s0 .06.07.14c.18.81.2.84.43 1a.31.31 0 0 1 .15.28c0 .29-.36.7-1.47.83-.36 0-1 .06-1.57.06.36.24.46.34.46.43s-.1.15-.34.15h-.15c-.15 0-.2 0-.28.18a3.91 3.91 0 0 1-.28.39h2.48a.43.43 0 0 0 .25-.1 1.37 1.37 0 0 1 .39-.21c.07 0 1 .52 1 .77 0 .1-.1.21-.31.27a.87.87 0 0 0-.5.28 12.64 12.64 0 0 1-1.43 1.26 8.64 8.64 0 0 0 3.85.79c.45 0 .91 0 1.36-.07h.14s-1.29.67-1.49 1c-.06.11-.15.11-.28.11a7.52 7.52 0 0 1-4.09-1.53 10.61 10.61 0 0 1-5.32 1.57h-.21s.15-.08.45-.14a10.57 10.57 0 0 0 4.54-1.89 4.69 4.69 0 0 1-1.09-1.74zm-3.68-1.67a.72.72 0 0 1 .43-.6 3.61 3.61 0 0 0 1.46-1.32c0-.07.07-.1.1-.1s.06 0 .06.11c0 .5-.5 2.35-1.55 2.35a.46.46 0 0 1-.55-.44zm3.94 1.67a3.89 3.89 0 0 0 1.22 1.46 5.41 5.41 0 0 0 1.34-1.37c0-.06 0-.08-.14-.08zm1.11-3.39a3.43 3.43 0 0 0-.88-1.17c-.06-.06-.08-.08-.08-.1.52 0 1.82.43 1.82 1.18a.49.49 0 0 1-.45.52c-.17-.03-.34-.14-.47-.43zm4.09 1.47a4.86 4.86 0 0 0-1.3-1.57c-.06 0-.08-.07-.08-.08s0 0 .06 0c.69 0 2.31.7 2.31 1.55a.51.51 0 0 1-.46.56.63.63 0 0 1-.59-.46zm-6.49 13.23a2.67 2.67 0 0 0 0-.34 1.7 1.7 0 0 1 0-.27c0-1.11 1-1.54 1.79-2 .11-.07.35-.22.35-.41v-.06c-.08-.31-.29-.46-.34-.62a2.4 2.4 0 0 1-.1-.25h.06c.06 0 1.91.78 1.91 1.68a.59.59 0 0 1-.52.62 2 2 0 0 1-.52-.13 3.18 3.18 0 0 0-1-.14.92.92 0 0 0-1.05 1 1.16 1.16 0 0 0 .06.39 2.08 2.08 0 0 1 .11.66 7.42 7.42 0 0 1-.22 1.25 9.93 9.93 0 0 0-.2 1.72c0 1 .31 1.19.49 1.19a1 1 0 0 0 .48-.21c.34-.22.73-.63 1.39-1.06a2.81 2.81 0 0 1 1.5-.46 2.2 2.2 0 0 1 2.25 2c0 2.17-2.91 3.47-5.2 3.47h-.15s.18-.1.6-.2c2.62-.63 3.84-2.14 3.84-3.24a1.61 1.61 0 0 0-2.59-1.18 7.18 7.18 0 0 0-1.42 1.63c-.22.29-.41.42-.6.42-.38 0-1.19-.52-1.19-2.09a21.31 21.31 0 0 1 .25-2.48 5.4 5.4 0 0 0 .02-.89zM175.37 60c-1.23 0-3.05-.59-3.05-4.15 0-1.54.32-3.11.32-4.64a2.5 2.5 0 0 0-.39-1.67c-.13-.14-.18-.22-.18-.28s.06-.08.15-.08a1.43 1.43 0 0 1 1.47 1.48 2.9 2.9 0 0 1 0 .46 33.71 33.71 0 0 0-.67 5c0 .81.07 3 2.55 3a6.68 6.68 0 0 0 4.15-1.81.58.58 0 0 1 .25-.15c-.02.2-2.08 2.84-4.6 2.84zm-3.76 7.84a5.26 5.26 0 0 1-.14 1 6.15 6.15 0 0 0-.13 1.23c0 2.37 1.42 2.8 1.64 2.8a.51.51 0 0 0 .45-.27c.28-.48.62-1.3.87-1.83.15-.31.24-.42.27-.42s0 0 0 .06a2.45 2.45 0 0 1-.08.48 9.36 9.36 0 0 0-.27 2v.65c0 .42-.31.6-.7.6a2.25 2.25 0 0 1-1.33-.52 4.89 4.89 0 0 1-1.64-4.17v-1.63a4.85 4.85 0 0 0-.1-1 1.08 1.08 0 0 1 0-.17c0-.08 0-.13.1-.13a1.37 1.37 0 0 1 1.06 1.32zm7.56 2.87A3.08 3.08 0 0 0 177 68c-.41-.1-.6-.2-.6-.25s.1-.06.28-.06c1.93 0 3.56 1.48 3.56 2.87 0 .5-.28.76-.56.76s-.47-.21-.5-.61zm-7.37 14.74a8.79 8.79 0 0 1-3.38 2.12s.08-.11.28-.22a16.08 16.08 0 0 0 4-3.92 5.78 5.78 0 0 0 .5-1c0-.07 0-.1.06-.1s1.11.66 1.11 1c0 .13-.13.21-.48.25s-.27.06-.48.29-.5.55-.78.83c.36.11.5.17.5.28s-.13.21-.31.29-.17.13-.2.52-.08 1.82-.08 3.1v1.69a.57.57 0 0 1-.59.6c-.21 0-.39-.14-.39-.46v-.1c.17-1.69.2-3.28.22-4.36zm4.87-4.45v1c0 .11-.07.39-.52.39-.2 0-.36-.08-.36-.31 0-.43 0-.76.06-1h-2.23v.8c0 .11-.07.39-.52.39-.2 0-.36-.08-.36-.31v-.84c-.9 0-2.28.06-3.29.15-.25 0-.64-.53-.64-.71 1.16.14 2.91.2 4 .21v-.35a9.35 9.35 0 0 0-.14-1.37v-.08c0-.02 0 0 .06 0 .22 0 1.42.13 1.42.45 0 .08-.07.2-.28.29s-.27.31-.27 1.12h2.26v-.36a9.24 9.24 0 0 0-.14-1.37v-.08c0-.02 0 0 .06 0 .22 0 1.42.13 1.42.45 0 .08-.07.2-.28.29s-.27.15-.27 1.12h1.88a.28.28 0 0 0 .22-.13c.57-.88.71-.9.8-.9h.1a2.85 2.85 0 0 1 1.23 1.18c0 .08-.07.17-.31.17zm-.7 8c0 .64.13.9 1.68.9a8.8 8.8 0 0 0 1.32-.1c.69-.11.85-1.22 1.05-2.31a.41.41 0 0 1 0-.1c.08 0 .17 1.78.42 1.93a.48.48 0 0 1 .27.41c0 .36-.56.78-1.64.9-.46 0-1 .07-1.47.07-1.32 0-2.45-.17-2.45-1.44v-.06c0-1.62.07-3.49.08-4.72a16.93 16.93 0 0 0-.1-1.82.74.74 0 0 0 0-.1s0-.06.06-.06c.2 0 1.46.31 1.46.56 0 .1-.1.2-.29.28s-.28.06-.31.52-.06 1.33-.07 2.41c1.88-1 2.83-1.79 3-2.2 0 0 0-.07.06-.07s1.11.87 1.11 1.21c0 .1-.08.17-.24.17a1 1 0 0 1-.27 0h-.18a.28.28 0 0 0-.14 0 25.9 25.9 0 0 1-3.32 1.17V89zm-1.67 10.62c-2.09 2.66-4.19 4-4.51 4s.08-.13.28-.28a19.93 19.93 0 0 0 4.2-5.16 6.64 6.64 0 0 0 .43-1.16v-.11c.18 0 1.33.63 1.33 1 0 .13-.13.24-.49.32s-.28.1-.49.39-.31.45-.49.69h2a.41.41 0 0 0 .32-.14c.29-.29.34-.29.36-.29.18 0 1.18.66 1.18 1.08 0 .18-.17.28-.41.32a1.38 1.38 0 0 0-.85.31 28.82 28.82 0 0 1-2.37 1.88c.34.1 1.36.43 1.36 1.19a.48.48 0 0 1-.46.52 1 1 0 0 1-.7-.43 5.74 5.74 0 0 0-1.82-1.37c-.06 0-.08-.06-.08-.07s.06-.06.17-.06a5.33 5.33 0 0 1 1.19.13 13.86 13.86 0 0 0 2.16-2.58c0-.06 0-.11-.14-.11zm-.46 14.6a2.47 2.47 0 0 1 .84-.18c.77 0 1.43.49 1.43 2.34 0 2.91-1.54 4.43-3 4.43a1.47 1.47 0 0 1-.52-.08c-.62-.2-.35-.71-.52-1.23a2.27 2.27 0 0 1-.07-.5v-.06s.18.13.36.38a1.25 1.25 0 0 0 1 .56c1.19 0 2-2 2-3.8 0-1-.22-1.61-.81-1.61a2 2 0 0 0-1.05.48c-.67 1.6-1.79 3.84-2.58 5.29a1.3 1.3 0 0 1-1 .77.28.28 0 0 1-.31-.32 1.8 1.8 0 0 1 .43-.94 28 28 0 0 0 2.79-4.61 6.05 6.05 0 0 1-1.75.6 1 1 0 0 1-1.09-1c0-.46.08-.5.11-.5s.17.13.27.27a1 1 0 0 0 .87.31 5.52 5.52 0 0 0 1.88-.36 6.2 6.2 0 0 0 .27-1.54c0-.45-.11-.77-.45-.83-.17 0-.31-.1-.31-.2s.59-.48.88-.48.73.07.73.88a6.94 6.94 0 0 1-.45 1.82zm5.79 3.64a1.06 1.06 0 0 0-.5-.07h-.77c-.31 0-.43 0-.43-.07s.17-.1.41-.14c1-.2 1.56-.43 1.56-1.19 0-1.08-1.12-1.43-1.85-1.72-.31-.11-.46-.18-.46-.22s.07 0 .18 0c1.86 0 3.1 1 3.1 2.2 0 .71-.43 1.3-.94 1.3a.6.6 0 0 1-.3-.08zm-.18-4a4.54 4.54 0 0 0-1.29-.87c-.11 0-.22-.08-.22-.13s.38-.14.76-.14c1.18 0 1.5.53 1.5.87a.41.41 0 0 1-.38.43.51.51 0 0 1-.38-.19zm.74-1.92c.85 0 1.4.36 1.4.83a.42.42 0 0 1-.39.45.52.52 0 0 1-.35-.15 4.67 4.67 0 0 0-1.32-.84c-.11 0-.22-.07-.22-.11a1.91 1.91 0 0 1 .88-.21zm-33.94-88.16c-.81 0-3.52 0-4.82.15-.27 0-.7-.64-.7-.83 1.5.18 4.76.24 5.6.24h4.17a.26.26 0 0 0 .22-.13c.67-1 .84-1 .92-1h.1c.46.18 1.37 1.09 1.37 1.35s-.07.22-.32.22zm4.54 12.53c.46.15.57.24.57.35s-.11.2-.29.25-.18.18-.22.45a12.6 12.6 0 0 1-1.34 4.06 7.61 7.61 0 0 0 3.8 2.55c.08 0 .13.06.13.07s-1.25.15-1.61.53a.23.23 0 0 1-.15.07 7.85 7.85 0 0 1-2.68-2.51 7.48 7.48 0 0 1-4.87 2.87h-.1s.15-.14.32-.2a7.26 7.26 0 0 0 4.27-3.35 11.15 11.15 0 0 1-1.4-4.76 9 9 0 0 1-1.4 2 .87.87 0 0 1 .21.18.76.76 0 0 1 .24.52.44.44 0 0 1-.42.46.75.75 0 0 1-.56-.35 4.23 4.23 0 0 0-1.29-1.18v6.2c0 .36-.39.55-.59.55a.4.4 0 0 1-.41-.45c.1-1.54.2-4 .25-6.11a7.9 7.9 0 0 1-3.22 3.12s.06-.11.21-.24a13.33 13.33 0 0 0 3.08-4.86v-.11a15.09 15.09 0 0 0-2.09.13c-.17 0-.56-.52-.56-.67a18.42 18.42 0 0 0 2.68.2v-1.27a13.83 13.83 0 0 0-.1-2.09.33.33 0 0 1 0-.1s1.53.2 1.53.49c0 .08-.08.18-.25.27s-.34.08-.36.53-.06 1.21-.08 2.14h.41a.24.24 0 0 0 .17-.11c.13-.21.48-.71.63-.71s1 .69 1 1c0 .08-.06.17-.25.17h-2v1.83h.1a3.7 3.7 0 0 1 1.53.32 17.68 17.68 0 0 0 1.91-4.8 4.68 4.68 0 0 0 .11-1v-.11s1.5.38 1.5.73c0 .11-.11.24-.39.29s-.24.11-.35.39c-.31.73-.59 1.37-.88 2h3a.26.26 0 0 0 .21-.13c.56-.78.69-.8.74-.8h.08c.43.17 1.16.85 1.16 1.09 0 .08-.06.17-.28.17zm-3.31 0a11.05 11.05 0 0 0 1.52 4.42 11.29 11.29 0 0 0 1-4.24v-.17zm-1.23 18.27c-.81 0-3.52 0-4.82.15-.27 0-.7-.64-.7-.83 1.5.18 4.76.24 5.6.24h4.17a.26.26 0 0 0 .22-.13c.67-1 .84-1 .92-1a.2.2 0 0 1 .1 0c.46.18 1.37 1.09 1.37 1.34s-.07.22-.32.22zm4.54 12.53c.46.15.57.24.57.35s-.11.2-.29.25-.18.18-.22.45a12.6 12.6 0 0 1-1.34 4.06 7.61 7.61 0 0 0 3.8 2.55c.08 0 .13.06.13.07s-1.25.15-1.61.53a.23.23 0 0 1-.15.07 7.85 7.85 0 0 1-2.68-2.51 7.48 7.48 0 0 1-4.92 2.89h-.1s.15-.14.32-.2a7.26 7.26 0 0 0 4.27-3.35 11.15 11.15 0 0 1-1.4-4.76 9 9 0 0 1-1.4 2 .87.87 0 0 1 .21.18.76.76 0 0 1 .24.52.44.44 0 0 1-.42.46.75.75 0 0 1-.56-.35 4.23 4.23 0 0 0-1.24-1.2v6.2c0 .36-.39.55-.59.55a.4.4 0 0 1-.41-.45c.1-1.54.2-4 .25-6.11a7.9 7.9 0 0 1-3.22 3.12s.06-.11.21-.24a13.33 13.33 0 0 0 3.08-4.86v-.11a15.09 15.09 0 0 0-2.09.13c-.17 0-.56-.52-.56-.67a18.42 18.42 0 0 0 2.68.2v-1.27a13.83 13.83 0 0 0-.1-2.09.33.33 0 0 1 0-.1s1.53.2 1.53.49c0 .08-.08.18-.25.27s-.34.08-.36.53-.06 1.21-.08 2.14h.41a.24.24 0 0 0 .17-.11c.13-.21.48-.71.63-.71s1 .69 1 1c0 .08-.06.17-.25.17h-2v1.83h.1a3.7 3.7 0 0 1 1.53.32 17.68 17.68 0 0 0 1.91-4.8 4.68 4.68 0 0 0 .11-1v-.11s1.5.38 1.5.73c0 .11-.11.24-.39.29s-.24.11-.35.39c-.31.73-.59 1.37-.88 2h3a.26.26 0 0 0 .21-.13c.56-.78.69-.8.74-.8h.08c.43.17 1.16.85 1.16 1.09 0 .08-.06.17-.28.17zm-3.31 0a11.05 11.05 0 0 0 1.52 4.42 11.29 11.29 0 0 0 1-4.24v-.17zm-.14 19.44v1.76c0 .26.06 1 .06 1.3a1.76 1.76 0 0 1-1.88 1.68.31.31 0 0 1-.28-.18c-.22-.35-1.62-1-1.62-1.08s0 0 .06 0h.18a11.11 11.11 0 0 0 1.78.24c.59 0 .87-.2.9-.78v-2.94h-1.23c-.78 0-2.82 0-4.08.15-.27 0-.66-.55-.66-.73 1.44.18 4 .22 4.82.22h1.16v-2.48h-.22c-.76 0-2.77 0-4 .15-.27 0-.69-.55-.69-.73 1.39.18 4 .22 4.76.22h.15v-1a10.2 10.2 0 0 0-.08-1.57 45.74 45.74 0 0 1-4.57.32c-.15 0-.29-.06-.29-.11s.07-.08.24-.1a46.41 46.41 0 0 0 7-1.29 2.72 2.72 0 0 0 .81-.41l.1-.06c.06 0 .91.79.91 1.08 0 .1-.08.15-.21.15a.82.82 0 0 1-.24-.06.93.93 0 0 0-.27-.06h-.11c-.6.13-1.44.27-2.41.39.31.08.39.14.39.21s-.13.2-.28.24-.17.13-.17.35v1.88h2.42a.31.31 0 0 0 .24-.13c.39-.56.62-.87.77-.87s1.32.84 1.32 1.16c0 .1-.06.18-.29.18h-4.45v2.48h3.38A.29.29 0 0 0 151 86c.2-.31.66-.92.81-.92a2.85 2.85 0 0 1 1.36 1.23c0 .08-.07.17-.31.17zm-3.78 11.38v2.41c.63-.25 1.19-.5 1.63-.71a.52.52 0 0 1 .2-.06s0 .15-1.86 1.29v2.33c0 .27.06 1.39.06 1.7a1.43 1.43 0 0 1-1.47 1.44c-.11 0-.14 0-.21-.15-.2-.35-1.15-.92-1.15-1.05s0 0 .06 0h.18a5 5 0 0 0 1.09.17c.5 0 .67-.2.69-.6v-3.36c-.39.22-.8.46-1.25.7-.11.06-.14.21-.24.21s-.87-1-.87-1h.08a7.54 7.54 0 0 0 2.27-.62v-2.69a14.46 14.46 0 0 0-1.58.13c-.17 0-.57-.52-.57-.67a18.48 18.48 0 0 0 2.17.18 17.73 17.73 0 0 0-.18-3.19.26.26 0 0 1 0-.1s1.6.22 1.6.52c0 .11-.13.24-.27.31-.29.15-.29 0-.32.71 0 .52 0 1.13-.06 1.79h.13a.24.24 0 0 0 .17-.11c.42-.58.48-.64.59-.64.29 0 1 .76 1 1s-.06.14-.27.14zm6.71-1c0 .57 0 1.16.06 1.61 0 .28-.29.43-.5.43a.31.31 0 0 1-.34-.34v-1.68h-1.58v1.67a.45.45 0 0 1-.5.41.3.3 0 0 1-.34-.31c0-.6.06-1.21.06-1.71-.56 0-1.18.06-1.78.11-.22 0-.6-.5-.6-.67.77.1 1.65.14 2.41.17a11.87 11.87 0 0 0-.14-2.07.62.62 0 0 0 0-.07s0-.06.06-.06 1.39.18 1.39.5c0 .08-.07.17-.28.25s-.28.22-.28 1.47h1.6v-1a7.65 7.65 0 0 0-.11-1.13.62.62 0 0 0 0-.07s0-.06.06-.06 1.39.18 1.39.5c0 .08-.07.17-.28.25s-.27.1-.27 1.47h.7a.26.26 0 0 0 .21-.13c.56-.78.69-.8.74-.8h.08c.43.17 1.16.85 1.16 1.09 0 .08-.06.17-.28.17zm.76 9.16v-.46h-4.53v.6a.5.5 0 0 1-.53.45.35.35 0 0 1-.38-.36c.08-1.23.1-2.82.1-3.91a16.55 16.55 0 0 0-.17-2.9.25.25 0 0 1 0-.08 7.3 7.3 0 0 1 1.29.6h3.88a.24.24 0 0 0 .2-.11s.25-.39.42-.39 1.11.45 1.11.81c0 .15-.18.25-.32.32s-.28.15-.28 1.23 0 3.14.11 4.17c0 .35-.34.52-.53.52a.37.37 0 0 1-.39-.41zm-2.68-4.71a9 9 0 0 0-.07-1.05h-1.44l-.1.07c-.21.15-.22.11-.24.53s0 1 0 1.53h1.86zm0 3.88v-2.42h-1.86v2.42zm2.7 0v-2.42h-1.95v2.42zm0-2.8v-2a.17.17 0 0 0-.2-.17h-1.44a.13.13 0 0 1 .08.11c0 .08-.1.18-.22.24s-.11.11-.11.35v1.43zm-5.15 14.03a1.83 1.83 0 0 1-2-1.33.63.63 0 0 1-.06-.24s0-.07.06-.07a.48.48 0 0 1 .24.14 3.05 3.05 0 0 0 2.06.78 6.6 6.6 0 0 0 2-.36c-.21-.49-.42-1-.66-1.48a3.29 3.29 0 0 1-.91.14 2.07 2.07 0 0 1-2.17-1.39v-.06a1.15 1.15 0 0 1 .28.13 4 4 0 0 0 1.85.67 2.19 2.19 0 0 0 .59-.1 9.22 9.22 0 0 0-1.55-2.13 1.26 1.26 0 0 0-.88-.46c-.11 0-.17-.07-.17-.14s.22-.41.71-.41c.74 0 1.11.45 2.3 3a1.48 1.48 0 0 0 .41-.18 1.48 1.48 0 0 1 .7-.34.31.31 0 0 1 .31.32c0 .27-.31.55-1.05.83.22.5.45 1 .67 1.46.5-.2.71-.34.71-.49s-.08-.29-.41-.53c-.17-.13-.25-.2-.25-.24a1.75 1.75 0 0 1 .43.15 4.13 4.13 0 0 0 1 .32c.29 0 .48.14.48.34 0 .38-.92.84-1.67 1.11a17.79 17.79 0 0 0 .9 1.61 1.65 1.65 0 0 1 .29.9.92.92 0 0 1-.84 1c-.22 0-.25-.14-.34-.25a4.74 4.74 0 0 0-2.45-.59c-1.36 0-1.74.8-1.74 1.15s.42 1.29 2 1.29a3.77 3.77 0 0 0 1-.14.71.71 0 0 1 .24 0 .52.52 0 0 1 .56.46c0 .34-.49.6-1.54.6-2.14 0-2.86-1.29-2.86-2 0-.29.11-1.65 2.87-1.65.78 0 1.55.08 1.89.1a.31.31 0 0 0 .35-.32.84.84 0 0 0-.1-.38c-.24-.49-.46-1-.69-1.57a9.93 9.93 0 0 1-2.56.35zm2.77 20.35c-.66 0-2.94-.24-2.94-3.54a7.55 7.55 0 0 1 1.34-4.5c.1-.1.17-.17.17-.2a23.18 23.18 0 0 0-3.14 1.4 2.08 2.08 0 0 1-.92.21c-.63 0-1.2-.27-1.2-.74 0-.06 0-.14.11-.14a2.8 2.8 0 0 1 .29.06 4.87 4.87 0 0 0 .69.07 2.55 2.55 0 0 0 .81-.14 43.34 43.34 0 0 1 5.24-2.1 4.2 4.2 0 0 1 1.13-.28h.07c1.29 0 1.5.45 1.5.67s-.21.43-.67.43h-.32a4.37 4.37 0 0 0-.76-.06 4.88 4.88 0 0 0-2 .39c-1 .55-1.75 2.72-1.75 4.52 0 2.86 1.82 3 2.24 3a2.61 2.61 0 0 0 .83-.14 1.15 1.15 0 0 1 .36-.06c.38 0 .63.21.63.46-.01.49-1.15.69-1.71.69zm1.88-6.18a4.49 4.49 0 0 0-1.21-1c-.11-.06-.21-.1-.21-.14a1.22 1.22 0 0 1 .55-.08c1.12 0 1.65.5 1.65 1a.44.44 0 0 1-.41.48.52.52 0 0 1-.37-.26zM152 130a4.79 4.79 0 0 0-1.25-.94c-.11-.06-.22-.1-.22-.14a1.13 1.13 0 0 1 .62-.11c.7 0 1.61.25 1.61.92a.42.42 0 0 1-.39.45.53.53 0 0 1-.37-.18zm-11.55 22.27a.42.42 0 0 1 .06-.18 11.41 11.41 0 0 0 1-3.91v-.14c.18 0 1.39.36 1.39.64 0 .1-.1.18-.34.24s-.24.13-.31.32a7.56 7.56 0 0 1-1.76 3.07s-.04-.02-.04-.04zm1.76-5.86c.31-.43 2.06-3 2.26-4.23 0-.11 0-.14.06-.14s1.26.55 1.26.76-.11.2-.39.22a.44.44 0 0 0-.32.21 35.46 35.46 0 0 1-2.54 3.15c.77 0 1.67-.11 2.31-.18a6.33 6.33 0 0 0-.46-.88.42.42 0 0 1-.08-.17 3 3 0 0 1 1.05.66c1-1 2.82-3.73 2.93-5.27v-.13s1.43.42 1.43.69c0 .11-.13.2-.41.24a.25.25 0 0 0-.18.08 9.55 9.55 0 0 0 4.47 3.66c.07 0 .1 0 .1.06s-1.09.28-1.33.59a.17.17 0 0 1-.13.08 11.87 11.87 0 0 1-3.24-4.11 12 12 0 0 1-3.49 4.23 1.41 1.41 0 0 1 .45.9.54.54 0 0 1-.48.59c-.21 0-.41-.17-.48-.57a1.81 1.81 0 0 0-.08-.38l-.85.24c.08 0 .14.08.14.14s-.06.13-.17.18-.2.13-.2 1.36 0 2.86.06 4a.53.53 0 0 1-.55.52c-.18 0-.35-.11-.35-.41v-.06c.1-1.5.14-3 .14-4.51v-1l-1.43.34c-.14 0-.24.17-.34.17s-.66-.92-.66-1.06h.1a8.51 8.51 0 0 0 1 .06h.38zm.87-2.13a.49.49 0 0 1-.43.52.6.6 0 0 1-.5-.39 3.67 3.67 0 0 0-1.05-1.18c-.1-.07-.13-.13-.13-.15s0 0 .07 0a3.31 3.31 0 0 1 1 .24 8.06 8.06 0 0 0 .81-2.73v-.27s1.37.46 1.37.73c0 .08-.11.18-.38.22a.35.35 0 0 0-.31.22 19.9 19.9 0 0 1-1.29 1.92c.76.28.84.59.84.87zm1.06 3.63c.15 0 1.78 1 1.78 2a.55.55 0 0 1-.46.6c-.18 0-.38-.15-.46-.52a7 7 0 0 0-.77-1.89.83.83 0 0 1-.1-.18zm4.86.09l.18.06c.13 0 .2.11.2.2s-.07.17-.27.24-.21.11-.27.24c-.27.56-.73 1.76-1.18 2.61 1.39-.1 2.56-.27 3.47-.41a10.25 10.25 0 0 0-1.36-1.46.2.2 0 0 1-.07-.11.06.06 0 0 1 .07-.06c.18 0 3 1.32 3 2.58a.59.59 0 0 1-.5.64c-.18 0-.38-.14-.52-.5a4.37 4.37 0 0 0-.49-.88 40.63 40.63 0 0 1-5.11 1.12c-.18 0-.27.2-.38.2s-.69-1.06-.69-1.15h.07a7.41 7.41 0 0 0 1 .1h1.08A17.53 17.53 0 0 0 148 148c-.5 0-1.08 0-1.85.11-.24 0-.59-.52-.59-.67a24.72 24.72 0 0 0 3.31.2h1.9a.24.24 0 0 0 .17-.11c.46-.7.62-.7.64-.7h.08c.39.15 1.09.67 1.09 1 0 .08-.08.18-.31.18zm.14-2.19a15.74 15.74 0 0 0-2 .13c-.24 0-.55-.52-.55-.67a18.44 18.44 0 0 0 2.65.2h.31a.24.24 0 0 0 .17-.11s.39-.67.6-.67 1.11.64 1.11.94c0 .1-.07.2-.29.2zm-6.23 14.05a9.06 9.06 0 0 1-2.82 2.56s.06-.11.14-.2a18.58 18.58 0 0 0 3.54-5.07 5.25 5.25 0 0 0 .29-1c0-.07 0-.11.06-.11s1.36.62 1.36.91c0 .1-.13.2-.45.27s-.24.06-.41.32c-.32.5-.64 1-1 1.46.57.13.7.2.7.29s-.11.17-.29.25-.31.14-.32.59c0 1.13-.07 2.72-.07 4.31v3.12a.62.62 0 0 1-.62.59c-.21 0-.41-.14-.41-.48v-.07c.17-1.95.27-4.74.27-6.51v-1.21zm7.45.36c0 1.68 0 3.6.07 4.62 0 .42.08 1.37.08 1.65a1.72 1.72 0 0 1-1.79 1.57c-.14 0-.18-.08-.27-.2s-1.85-.88-1.85-1h.17a9.36 9.36 0 0 0 1.56.17c.87 0 1.19-.27 1.2-.71s0-.78 0-1.3c0-1.36 0-3.22-.06-4.85h-1.11c-.67 0-2.25.07-3.25.15-.24 0-.63-.56-.63-.71a32.78 32.78 0 0 0 3.94.22h1.05a20.86 20.86 0 0 0-.22-3.71.25.25 0 0 1 0-.08c.08 0 1.64.18 1.64.53 0 .1-.08.2-.24.29s-.34.06-.35.71 0 1.37 0 2.3h.7a.32.32 0 0 0 .2-.13c.5-.79.64-.81.73-.81h.1c.46.17 1.16.84 1.16 1.08s-.07.18-.32.18zm-3.43 3.38a7.51 7.51 0 0 0-1.43-1.4c-.11-.1-.18-.14-.18-.18s0 0 .1 0c.39 0 2.62.43 2.62 1.53a.48.48 0 0 1-.46.52.84.84 0 0 1-.65-.47zM143 179a21.42 21.42 0 0 1 .46-3.47 5.71 5.71 0 0 0 .08-.85c0-.57-.08-.87-.84-1.34-.14-.08-.2-.17-.2-.24s.15-.18.34-.18a1.19 1.19 0 0 1 .49.08 2.24 2.24 0 0 1 1.06 1.53 3 3 0 0 1-.24 1 10.24 10.24 0 0 0-.69 3.07c0 .87.29 1.27.35 1.27s.11-.07.18-.24a21 21 0 0 1 1.77-3.4v.07a1.24 1.24 0 0 1-.1.39 12.8 12.8 0 0 0-1.21 4.22 2.8 2.8 0 0 0 .14 1 .81.81 0 0 1 .06.28.31.31 0 0 1-.32.35c-.65-.11-1.33-1.67-1.33-3.54zm6.43-4.45c0-.7-.1-1.53-.56-1.53h-.17c-.21 0-.28-.07-.28-.14s.21-.38.62-.38a1.22 1.22 0 0 1 1.16 1.16v.15c.28.08.6.15.81.2s.38 0 .49 0a.5.5 0 0 1 .41.49c0 .46-.6 1.06-1.82 1.36 0 .66.07 1.26.11 1.88v.56a5.43 5.43 0 0 1-4.29 5.49h-.07s.14-.14.53-.35a6.43 6.43 0 0 0 3.07-5.39v-2.03h-.94c-1.61 0-1.92-1-1.92-1h.06a1.89 1.89 0 0 1 .36.13 5.56 5.56 0 0 0 1.64.2h.27a3.56 3.56 0 0 0 .53-.06zm.73-.39c0 .35-.06.67-.07 1a1.73 1.73 0 0 0 .8-.49.22.22 0 0 0 .06-.14c0-.18-.42-.39-.76-.55a1 1 0 0 1 .01.18zm-5.06 17.57c-1.27 0-2.21-.87-2.21-1.51 0-.11 0-.35.11-.35s.15.07.28.22a2.92 2.92 0 0 0 1.95.83 5.42 5.42 0 0 0 1.72-.42c-.57-.46-1.11-.85-1.46-1.12a.83.83 0 0 1-.35-.66.67.67 0 0 1 .66-.69.74.74 0 0 1 .29.06 1.51 1.51 0 0 1 .43.31 3.71 3.71 0 0 0 2 .71 2.19 2.19 0 0 0 .36 0 .44.44 0 0 1 .43.45c0 .53-1 1.09-1.33 1.28 1.21 1 2.83 2.55 2.83 4.1a.85.85 0 0 1-.77 1c-.24 0-.42-.18-.66-.36a6.18 6.18 0 0 0-2.9-.63c-1.51 0-2.09.66-2.09 1.26s.74 1.37 2.27 1.37a3.72 3.72 0 0 0 1.09-.15 1 1 0 0 1 .27 0c.38 0 .66.22.66.46s-.22.62-1.7.62c-3 0-3.25-1.76-3.25-2.07 0-1 1.06-1.88 3.38-1.88a11.34 11.34 0 0 1 2.12.21h.24c.28 0 .35-.13.35-.31 0-.42-.34-1.65-2.27-3.36a6.11 6.11 0 0 1-2.45.63zm3.11-2.07c0-.11-.07-.24-.32-.36a8.91 8.91 0 0 0-1.61-.5c-.18 0-.27.08-.27.18s.45.56 1.39 1.33c.6-.31.81-.47.81-.66zm-3 16.61c.38 0 .5.18.5.36a1.07 1.07 0 0 1-.18.48c1.83-1.83 3-2 3.47-2 .9 0 1.47.62 1.47 1.75a5.23 5.23 0 0 1-.06.62c-.15 1-.59 2-.63 2.94v.1c0 .91.48 1.36 1.15 1.36a3.5 3.5 0 0 0 2.25-1.19c.32-.32.48-.43.53-.43 0 .22-1.37 2.45-3.21 2.45-.92 0-1.62-.64-1.62-2v-.41a27.26 27.26 0 0 1 .77-2.86 4.23 4.23 0 0 0 .1-.78c0-.74-.34-1.15-.92-1.15-.92 0-2.59 1-4 2.84a16.32 16.32 0 0 0-.14 2.09 8.08 8.08 0 0 0 .31 2.35 1.86 1.86 0 0 1 .11.62c0 .38-.17.57-.38.57s-.63-.38-.64-1.16a10.74 10.74 0 0 0-.63-2 7.31 7.31 0 0 0-.38 1.15c-.15.66-.6 1.08-.88 1.08s-.24-.1-.24-.34a7.62 7.62 0 0 1 1.21-2.66c-.81-1.81-.91-2-.91-2.3 0-.57.5-.92 2.38-1.4a1.5 1.5 0 0 0 0-.21c0-.45.08-.92.08-1.36s0-1.37-.77-1.51c-.22-.06-.34-.14-.34-.24s.42-.28.52-.28a1.71 1.71 0 0 1 1.32 1.55 5.4 5.4 0 0 1-.14 1c-.07.36-.15.71-.18 1zm-.67.91a.37.37 0 0 0-.14 0c-.07 0-1.7.15-1.7.84a5.71 5.71 0 0 0 .62 1.81 11.92 11.92 0 0 0 1.16-2.21zm-.92 3.25c0 .07.43.87.56.87s0 0 0-.17v-.28c0-.49 0-1.12.1-1.75a8.23 8.23 0 0 0-.67 1.33zm.5 11.19c-1.61 0-1.91-1.06-1.91-1.27 0-.06 0-.08.06-.08a.88.88 0 0 1 .28.14 3.08 3.08 0 0 0 1.53.46 5.45 5.45 0 0 0 1.12-.14 6.06 6.06 0 0 0 .07-.87c0-.5-.1-.91-.41-1-.15 0-.35-.07-.35-.18a.71.71 0 0 1 .63-.36c.27 0 .85.21.92 1.09a5.46 5.46 0 0 0 .91.21c.24 0 .41.17.41.38 0 .59-1.16 1.08-1.68 1.26l-.08.24a58 58 0 0 0-1.93 6.37c-.15.71-.55 1.16-.83 1.16s-.42-.24-.42-.64a1.78 1.78 0 0 1 .28-.88 56.26 56.26 0 0 0 2.33-6.05 3.69 3.69 0 0 1-.93.16zm1.82-1.16c.38-.2.59-.39.59-.5s-.14-.24-.46-.38a3.52 3.52 0 0 1-.13.87zm4.43 8.54c-1.69 0-3.29-.88-3.29-1.91 0-.41.29-.84.43-.84s.07 0 .07.11a.6.6 0 0 1-.06.21.58.58 0 0 0-.07.27c0 .6 1 1.21 2.33 1.21.25 0 .5-.07.91-.07.66 0 1 .24 1 .48.02.05.01.54-1.32.54zm1.42-6.77a3.9 3.9 0 0 0-2 1 .28.28 0 0 1-.18.08h-.06a.17.17 0 0 1 .06-.13c.32-.41.43-.46.69-.84a.84.84 0 0 0 .2-.43c0-.42-.85-.55-1.13-.55h-.15a1.93 1.93 0 0 1-.32.06h-.08a1.46 1.46 0 0 1 1.19-.43c1.29 0 2.23.66 2.23 1-.08.08-.24.2-.46.24zm.3 12.59a5.27 5.27 0 0 0-1.7-1.76c-.14-.11-.28-.2-.28-.24s0 0 .1 0c.57 0 3 .56 3 1.78a.64.64 0 0 1-.59.67.66.66 0 0 1-.53-.45zM117.48 28.84c-.79 0-2.8 0-4.06.15-.27 0-.66-.55-.66-.73 1.44.18 4 .22 4.8.22h.81v-4.94h-.5a30.15 30.15 0 0 0-3.08.15c-.24 0-.63-.55-.63-.73a32.23 32.23 0 0 0 3.8.22h.43v-2.45a7.83 7.83 0 0 0-.24-1.67h-.55c-.77 0-2.28 0-3.52.15-.25 0-.67-.55-.67-.73 1.42.17 3.46.22 4.26.22H122a.28.28 0 0 0 .22-.13c.35-.53.63-.92.8-.92h.1a2.88 2.88 0 0 1 1.22 1.23c0 .08-.07.15-.29.15h-4.5.1c.13 0 .18.1.18.17s-.07.15-.21.22c-.31.15-.29.15-.32 1v2.75h2.09a.28.28 0 0 0 .21-.13 6.71 6.71 0 0 1 .66-.81.17.17 0 0 1 .13-.06 2.8 2.8 0 0 1 1.25 1.16c0 .08-.06.18-.28.18h-4v4.94h3.33a.29.29 0 0 0 .24-.13c.14-.22.64-1 .84-1s1.36.92 1.36 1.26c0 .08-.07.17-.31.17zm4.52-2.63a7.79 7.79 0 0 0-1.43-1.54c-.11-.1-.15-.14-.15-.17.45 0 2.69.55 2.69 1.71a.5.5 0 0 1-.45.56c-.2-.02-.45-.17-.66-.56zm-2.65 12.64v3.07c0 .39.06 1 .06 1.3 0 1.6-1.76 1.68-1.89 1.68s-.2-.06-.28-.18c-.22-.35-1.64-1-1.64-1.08s0 0 .06 0h.18a11.23 11.23 0 0 0 1.78.24c.59 0 .87-.2.9-.78v-4.26h-1.21c-.78 0-2.82 0-4.08.15-.27 0-.66-.55-.66-.73 1.44.18 4 .22 4.82.22h1.13v-.52a9.77 9.77 0 0 0-.17-1.72.4.4 0 0 1 0-.11 9.92 9.92 0 0 1 1 .21 9.79 9.79 0 0 0 1.47-2s0-.08-.15-.08h-1.91c-1.2 0-2.27 0-3.74.11-.27 0-.66-.49-.66-.7 1.89.2 3.82.21 4.44.21h1.91a.5.5 0 0 0 .35-.14c.13-.1.34-.29.43-.35a.3.3 0 0 1 .15-.06c.27 0 1.27.71 1.27 1s-.2.32-.42.36a2 2 0 0 0-.91.36c-.48.36-1.29 1-1.92 1.4h.08c.17.06.22.13.22.2s-.14.21-.29.29-.32.17-.32 1.57h3.36a.29.29 0 0 0 .24-.13c.2-.31.66-.92.81-.92s1.36 1 1.36 1.23c0 .08-.07.17-.31.17zM113 60.12c0-.22.17-.48.55-.62a2.68 2.68 0 0 0 1.45-1.27c0-.07.06-.1.08-.1s0 .25 0 .28c0 1.25-.88 2.21-1.6 2.21a.52.52 0 0 1-.48-.5zm4.61-9.57c-.74 0-2.72 0-3.92.15-.25 0-.66-.52-.66-.7 1.39.17 3.89.22 4.66.22h1.79a6.59 6.59 0 0 0 1-2.31c0-.1 0-.13.06-.13s1.36.66 1.36 1c0 .11-.18.17-.45.17a.41.41 0 0 0-.38.15c-.27.24-.9.78-1.36 1.15h2.86a.31.31 0 0 0 .24-.13c.14-.21.6-.77.77-.77s1.3.73 1.3 1.06c0 .08-.06.15-.29.15zm-2.31 4.72v2.14c0 .29-.35.41-.52.41s-.36-.08-.36-.29c.07-1.21.08-3 .08-4a8.17 8.17 0 0 0-.14-2.09.2.2 0 0 1 0-.08 6.77 6.77 0 0 1 1.16.5h1.91a.22.22 0 0 0 .18-.1 1.87 1.87 0 0 1 .27-.29.34.34 0 0 1 .13 0c.11 0 .92.39.92.7 0 .13-.15.21-.28.28s-.25.15-.25 1.78v2.31a1.18 1.18 0 0 1-1.27 1.22c-.11 0-.15 0-.21-.14s-1.12-.73-1.12-.83h.2a10 10 0 0 0 1.08.13c.38 0 .6-.1.62-.43s0-.63 0-1.15zm2.42-1.54h-2.41v1.21h2.42zm-2.17-1.54c-.18.13-.17.11-.18.45v.71h2.41v-1s0-.14-.17-.14zm1.46-2.7a4.41 4.41 0 0 0-.9-1.19c-.07-.07-.11-.11-.11-.14s0 0 .1 0c.53 0 1.93.39 1.93 1.26a.52.52 0 0 1-.48.56c-.2-.03-.41-.16-.55-.49zM117 60v-.1a3.91 3.91 0 0 0 0-.41 6.58 6.58 0 0 0-.1-1.12v-.13c0-.02 0 0 0 0a2.36 2.36 0 0 1 1.12 1.48.74.74 0 0 1-.63.83c-.19-.07-.39-.22-.39-.55zm3.25-.07a6.7 6.7 0 0 0-.6-1.48.58.58 0 0 1-.07-.15c.22 0 1.71.73 1.71 1.58a.58.58 0 0 1-.53.62c-.17-.06-.4-.21-.5-.61zm0-3.64a.32.32 0 0 1-.32-.36v-.06c.06-.59.08-2.56.08-2.8a6.28 6.28 0 0 0-.11-1.16.19.19 0 0 1 0-.07s1.34.17 1.34.46c0 .07-.07.14-.2.21s-.29 0-.32.48v2.88a.47.47 0 0 1-.5.38zm.22.55h.11a6.13 6.13 0 0 0 1.29.2c.45 0 .67-.15.69-.52v-1.26a19.94 19.94 0 0 0-.14-3.92.19.19 0 0 1 0-.07s1.4.15 1.4.42c0 .08-.1.18-.22.24s-.28 0-.29.56v3.12c0 .24.06 1 .06 1a1.31 1.31 0 0 1-1.42 1.23c-.11 0-.15 0-.22-.14-.18-.25-1.3-.8-1.3-.88zm3.14 3.07a8.34 8.34 0 0 0-1.13-1.43c-.08-.07-.11-.11-.11-.14s0 0 .06 0c.52 0 2.28.49 2.28 1.5a.52.52 0 0 1-.48.56.75.75 0 0 1-.65-.53zm-6.73 11.31h-2v2.73a17.78 17.78 0 0 0 1.85-.63 7 7 0 0 0-1.06-1s-.08-.06-.08-.07c.41 0 2.49.57 2.49 1.6a.45.45 0 0 1-.41.49c-.17 0-.36-.13-.52-.42a3 3 0 0 0-.31-.48 25.43 25.43 0 0 1-3.26 1.75c-.11.06-.14.18-.22.18a2.48 2.48 0 0 1-.78-.94h.13a3.41 3.41 0 0 0 .92-.15l.49-.13v-5.49c0-.14 0-.7-.08-1.21a6 6 0 0 1-1.66 1.55s0-.08.11-.18c1.2-1.39 2.75-4.29 2.83-5.37v-.15s1.42.57 1.42.85c0 .13-.17.21-.39.22s-.31.07-.34.1h.06c1.21.21 2.16.7 2.16 1.4a.43.43 0 0 1-.38.48c-.17 0-.36-.13-.55-.42a5.85 5.85 0 0 0-1.3-1.33 20.66 20.66 0 0 1-1.65 2.4 4.43 4.43 0 0 1 .81.45h.39a5.14 5.14 0 0 0-.14-1.5v-.06c0-.06 0 0 .07 0s1.36.21 1.36.45c0 .08-.08.15-.22.22s-.35.17-.35.71v.21h.35a.22.22 0 0 0 .17-.11c.08-.14.24-.34.34-.34s1 .5 1 .78c0 .11-.13.2-.27.29s-.22.22-.22.71 0 1.92.08 2.48a.47.47 0 0 1-.48.45.34.34 0 0 1-.35-.38zm-2-1.71v1.34h2v-1.34zm.29-1.64l-.07.06c-.21.15-.17.14-.2.5v.71h2v-1.11a.16.16 0 0 0-.17-.17zm7.76 2.35c0 1.67 0 3.63.1 5.13a.57.57 0 0 1-.55.53c-.21 0-.39-.13-.39-.45.07-1.71.08-3.68.08-5.18h-1.57a5.82 5.82 0 0 1-4.22 5.7 1.06 1.06 0 0 1-.38.05h-.06s.13-.14.28-.21a6 6 0 0 0 3.53-5.53c-.43 0-.9.06-1.36.1-.24 0-.59-.52-.59-.67a19.62 19.62 0 0 0 2 .17v-1.13a16.43 16.43 0 0 0-.08-1.7c-.29 0-.6.06-.94.08-.24 0-.59-.52-.59-.67a22.16 22.16 0 0 0 3.17.2 8.15 8.15 0 0 0 1.21-3v-.15s1.37.6 1.37.85-.14.2-.43.21-.21.07-.32.22c-.31.41-.92 1.21-1.5 1.88H123a.24.24 0 0 0 .17-.11s.39-.66.56-.66h.1c.06 0 1 .53 1 .92 0 .08-.06.18-.28.18h-1.43c.11 0 .14.07.14.13s-.13.18-.21.24-.17.1-.17.69v1.85h.49a.26.26 0 0 0 .18-.11c.11-.2.43-.69.6-.69h.1c.43.17 1 .69 1 1 0 .1-.06.18-.28.18zm-3-4.82A5.24 5.24 0 0 0 119 64a1.28 1.28 0 0 1-.14-.17c.41 0 2 .56 2 1.53a.53.53 0 0 1-.46.59c-.12-.01-.33-.17-.47-.55zm2.21 3.15c0-.53 0-1.21-.07-1.58h-1.19c.1 0 .15.08.15.14s-.07.15-.21.22-.18.1-.18.59v1.95h1.51zm-2.87 14.54c0 3.07-2.45 6.19-3.66 6.19-.69 0-.94-.94-1.51-1.77a2.17 2.17 0 0 1-.34-1.27 5.71 5.71 0 0 1 5.65-5.5 4.46 4.46 0 0 1 4.82 4.48c0 4.26-4.87 5.46-6 5.46-.13 0-.2 0-.2-.06s.22-.18.63-.29c3.68-1 4.68-3.43 4.68-5.17a3.86 3.86 0 0 0-4.09-4h-.5a2.43 2.43 0 0 1 .52 1.93zm-.49-.5c0-1-.24-1.25-.55-1.25H118a5 5 0 0 0-3.52 4.55c0 1.23.62 2.17 1.29 2.17.92.03 3.01-2.9 3.01-5.48zm-.78 21.85v.07c0 .74-.29 1.08-.57 1.08a.52.52 0 0 1-.43-.31 1.87 1.87 0 0 0-1.13-.7 3.44 3.44 0 0 1-.8.38 2.12 2.12 0 0 1-.59.1c-.34 0-.48-.14-.48-.35s.34-.77.56-.77h.11c.04 0 .07.07.15.07s.56-.13 2.61-1.43v-2.71a3.91 3.91 0 0 1-1.72.48c-1 0-1.2-.57-1.2-.88 0-.06 0-.08.06-.08a.74.74 0 0 1 .2.06 3.5 3.5 0 0 0 1.05.15 3.07 3.07 0 0 0 1.58-.45c-.1-1.62-.17-2.13-.85-2.13-.18 0-.25 0-.25-.11a.56.56 0 0 1 .6-.42c.46 0 1.12.35 1.12.94a3.15 3.15 0 0 1 0 .35 4.82 4.82 0 0 0 .91.18.39.39 0 0 1 .41.41c0 .5-.59.84-1.36 1.25v2.62a6.64 6.64 0 0 1 3.5-1.25c1.5 0 2.28.71 2.28 1.65 0 1.47-1.72 2.46-2.91 2.46a1.31 1.31 0 0 1-1.46-1.39A3 3 0 0 1 120 102v.1a1.85 1.85 0 0 1-.07.38 2.87 2.87 0 0 0-.11.73 1 1 0 0 0 1.05 1.11 2 2 0 0 0 2.1-1.76c0-.85-1-1.16-1.75-1.16a5.46 5.46 0 0 0-3.26 1.51c.04.55.04 1.09.04 1.53zm-1.91 0a6.86 6.86 0 0 0 .85.08c.38 0 .39-.11.41-.31s0-.55 0-.81c-.35.37-.8.73-1.22 1.03zm1.91-5.53a4.3 4.3 0 0 0 .42-.28.32.32 0 0 0 .1-.2c0-.11-.13-.22-.5-.42v.46zm5.9.6a2.81 2.81 0 0 0-.73.32.59.59 0 0 1-.2.08.37.37 0 0 1 .11-.17 1.51 1.51 0 0 0 .43-.84c0-.11-.06-.43-.7-.43a1.72 1.72 0 0 0-1 .34.7.7 0 0 1-.31.14 2.23 2.23 0 0 1 1.88-1c.87 0 1.67.5 1.67 1.08 0 .18-.13.29-.31.38s-.37-.05-.88.1zm-8.59 13.17a17.73 17.73 0 0 0-2.25.13c-.17 0-.58-.52-.58-.67a22.55 22.55 0 0 0 2.87.2h.55a.24.24 0 0 0 .17-.11 5.2 5.2 0 0 1 .49-.69.15.15 0 0 1 .1 0c.25 0 1.12.78 1.12 1.05 0 .08-.06.14-.27.14zm.88 8.73v-.32h-2v.62c0 .25-.28.42-.53.42a.32.32 0 0 1-.35-.32v-.06c.08-1 .1-1.68.1-2.24a11.08 11.08 0 0 0-.17-2.21v-.08c0-.02 0 0 0 0a4.74 4.74 0 0 1 1.25.56h1.4a.22.22 0 0 0 .18-.11c.06-.08.25-.38.39-.38s1.06.5 1.06.77-.17.25-.29.34-.25.27-.25.77 0 1.32.1 2.17a.5.5 0 0 1-.52.48.35.35 0 0 1-.38-.36zm-.88-10.67a9.63 9.63 0 0 0-1.5.13c-.2 0-.53-.46-.53-.67a12 12 0 0 0 2.07.2h.18a.25.25 0 0 0 .15-.11c.1-.17.41-.67.56-.67a.1.1 0 0 1 .07 0c.43.2.91.71.91.94s-.06.18-.25.18zm0 3.7a8 8 0 0 0-1.5.13c-.17 0-.53-.43-.53-.67a12.11 12.11 0 0 0 2.07.2h.22a.25.25 0 0 0 .15-.11s.34-.63.55-.63h.07c.31.14.88.63.88.9 0 .08-.06.18-.25.18zm0 1.85a8.09 8.09 0 0 0-1.5.13c-.17 0-.53-.46-.53-.67a12 12 0 0 0 2.07.2h.22a.25.25 0 0 0 .15-.11c.06-.11.38-.63.55-.63a.11.11 0 0 1 .07 0c.36.17.88.63.88.9 0 .1-.06.18-.25.18zm.9 4.44v-2.43s0-.15-.11-.15h-1.61l-.1.07c-.14.1-.18.18-.18.46v2.05zm4.86-5.2a20.8 20.8 0 0 0-2.31.14c-.24 0-.62-.53-.62-.7a26.65 26.65 0 0 0 2.82.22v-2.37c-.73 0-1.62.06-2.45.14-.25 0-.63-.55-.63-.73 1 .13 2.18.18 3.1.21v-.63a11.38 11.38 0 0 0-.13-2 .28.28 0 0 1 0-.1s1.51.2 1.51.52c0 .11-.13.24-.31.34s-.28.17-.28 1.86H123a.26.26 0 0 0 .21-.13c0-.07.56-.85.73-.85h.06a2.73 2.73 0 0 1 1.16 1.13c0 .1-.07.18-.29.18h-3.15v2.38h.85a.25.25 0 0 0 .21-.11c.22-.35.53-.77.7-.77s1.13.76 1.13 1.05c0 .08-.06.17-.27.17zm1.9 6v-.57h-3.22v.57a.5.5 0 0 1-.52.45.35.35 0 0 1-.38-.36c.1-1.3.1-2.14.1-2.83a13.7 13.7 0 0 0-.17-1.82.54.54 0 0 0 0-.08 6 6 0 0 1 1.26.6h2.58a.24.24 0 0 0 .2-.11c.21-.34.31-.38.39-.38.24 0 1.11.55 1.11.8s-.17.24-.31.32-.27.25-.27 1.15c0 .59 0 1.26.1 2.24 0 .38-.36.52-.52.52a.37.37 0 0 1-.39-.41zm-2.89-3.74l-.1.07c-.21.15-.21.11-.22.53s0 .62 0 1v1.22H123v-2.64a.17.17 0 0 0-.2-.17zm-1.15 8.67c-2.63 4-6.05 5.79-6.65 5.79s.07-.1.22-.2a17 17 0 0 0 5.45-5.94 3.77 3.77 0 0 0 .29-1v-.1s1.57.63 1.57.88-.14.21-.46.27h-.14c1.08 1.5 3.81 3.89 6.37 4.27.08 0 .13 0 .13.06s-1.22.46-1.53.78a.22.22 0 0 1-.14.07c-.42 0-3.19-1.81-5-5zm2.41 10.65v-.56h-5v.63c0 .25-.28.43-.57.43s-.39-.1-.39-.35c.13-1.37.13-2.37.13-3.08a12.51 12.51 0 0 0-.17-1.72.23.23 0 0 1 0-.08 5.81 5.81 0 0 1 1.32.66h4.24a.23.23 0 0 0 .2-.08c.28-.32.38-.43.49-.43s1.06.64 1.06.85-.1.17-.24.25-.28.17-.28 1c0 .67.06 1.58.11 2.45 0 .32-.29.5-.55.5a.36.36 0 0 1-.39-.38zm-2.8-6.22a14.7 14.7 0 0 0-2.09.13c-.14 0-.53-.52-.53-.67a18.63 18.63 0 0 0 2.66.2h1.19a.27.27 0 0 0 .17-.11c.14-.27.53-.84.64-.84a.11.11 0 0 1 .07 0c.34.15 1.13.84 1.13 1.09 0 .1-.06.2-.27.2zm-1.86 2.42l-.08.06c-.27.17-.22.13-.24.56v2.25h5v-2.71a.17.17 0 0 0-.18-.17zm4.13 14.84c-.36.8-.92 1.15-1.29 1.15a.36.36 0 0 1-.39-.35 2.38 2.38 0 0 0-.76-1.32c-.13-.11-.17-.18-.17-.22s0 0 .06 0a.45.45 0 0 1 .24.11 2.12 2.12 0 0 0 1.15.53c.39 0 .74-.31.94-2a17.9 17.9 0 0 0-3.31 1 21.12 21.12 0 0 0 .21 2.56c.17 1 1.08 1.32 2 1.32a5.52 5.52 0 0 0 1.72-.29 1.5 1.5 0 0 1 .52-.11c.38 0 .64.21.64.43 0 .59-1.69.78-2.55.78-1.56 0-2.73-.6-2.94-2-.08-.56-.15-1.5-.22-2.41a15.14 15.14 0 0 0-1.65.84 1.68 1.68 0 0 1-.94.32c-.08 0-1.62-.13-1.62-1.11 0-.18.08-.25.17-.25a.4.4 0 0 1 .2.08 1.14 1.14 0 0 0 .91.36 3.1 3.1 0 0 0 1.13-.25c.55-.2 1.13-.41 1.76-.6-.06-.66-.11-1.25-.18-1.62-.11-.56-.7-.87-.7-1.09s.28-.25.56-.25 1 .21 1 1.4v1.37a32.37 32.37 0 0 1 3.36-.91v-.6c0-.49 0-2-.42-2.16-.11 0-.15-.1-.15-.14s.25-.31.56-.31a.75.75 0 0 1 .81.66c0 .25-.11.67-.14 1.58v.84l1.29-.25c.14 0 .18-.08.18-.14a.17.17 0 0 0-.06-.13 4.22 4.22 0 0 1-.62-.74.06.06 0 0 1 .07-.06.36.36 0 0 1 .2.1 5.73 5.73 0 0 0 1.63.85c1 .32 1.18.5 1.18.77s-.2.35-.53.35a1.65 1.65 0 0 1-.48-.08 6 6 0 0 0-1.75-.24 10.07 10.07 0 0 0-1.13.07 7.22 7.22 0 0 1-.49 2.16zm2.82 10.73a1.63 1.63 0 1 1 1.63-1.62 1.64 1.64 0 0 1-1.63 1.62zm0-2.77a1.15 1.15 0 1 0 1.15 1.15 1.15 1.15 0 0 0-1.15-1.15zM88.78 29.15a.56.56 0 0 1-.56.53c-.21 0-.39-.14-.39-.46 0-1 .08-2.41.11-3.85a7.36 7.36 0 0 1-3.77 3.07s.07-.1.24-.21A10.15 10.15 0 0 0 88 23.67v-2h-1.16l-.07.06c-.25.14-.24.13-.27.53s0 .71 0 2.51c0 .25-.29.42-.55.42a.3.3 0 0 1-.34-.32v-.06c.08-.88.13-1.82.13-2.37a11.88 11.88 0 0 0-.13-1.6v-.12a4.13 4.13 0 0 1 1.13.52H88v-1.38h-.5a17.34 17.34 0 0 0-2.23.13c-.17 0-.56-.52-.56-.67a21.68 21.68 0 0 0 2.83.2H88a14.26 14.26 0 0 0-.13-2 .32.32 0 0 1 0-.1s1.47.2 1.47.5c0 .08-.07.17-.24.25s-.32.08-.35.53v.88h1.36a.24.24 0 0 0 .17-.11 3.06 3.06 0 0 1 .55-.67.16.16 0 0 1 .11 0c.18 0 1.11.73 1.11 1 0 .08-.06.17-.27.17h-3v1.46H90a.18.18 0 0 0 .17-.11c.13-.22.25-.31.34-.31s1 .48 1 .76c0 .1-.1.2-.25.28s-.34.1-.34.55v.81a1.8 1.8 0 0 1 0 .27v.35a1 1 0 0 1-1 1c-.11 0-.14 0-.18-.15-.13-.35-.78-.69-.78-.77s0 0 .06 0a.84.84 0 0 1 .22 0 3 3 0 0 0 .59.08c.27 0 .35-.13.36-.48v-1.83c0-.07 0-.18-.17-.18h-1.34v3.66c.22 0 2.62.42 2.62 1.53a.45.45 0 0 1-.42.49.71.71 0 0 1-.57-.42 5 5 0 0 0-1.67-1.51c0 1.34.06 2.65.08 3.7zm3.67-.92h.11a7.48 7.48 0 0 0 1.63.24c.83 0 1-.32 1-.74v-3.84a40.11 40.11 0 0 0-.19-6.21.26.26 0 0 1 0-.1s1.6.21 1.6.52c0 .11-.13.24-.27.31-.29.15-.29 0-.32.71 0 .91-.06 2-.06 3.21v3.87c0 .27.06 1.36.06 1.67a1.73 1.73 0 0 1-1.77 1.61c-.11 0-.17 0-.24-.15-.21-.31-1.67-1-1.67-1.06zm.1-2c.06-1.47.1-3.18.1-4.61a21.34 21.34 0 0 0-.15-3.14.25.25 0 0 1 0-.08c.18 0 1.51.25 1.51.55 0 .1-.08.2-.22.28-.29.17-.31.06-.35.59-.06.73-.07 1.74-.07 2.79 0 1.3 0 2.68.07 3.6a.53.53 0 0 1-.52.53c-.2 0-.38-.13-.38-.45zM84.52 44.2a.85.85 0 0 1 .07-.22 12.54 12.54 0 0 0 .73-3.45 1.65 1.65 0 0 0 0-.28.4.4 0 0 1 0-.11s1.25.32 1.25.62c0 .08-.08.18-.29.24s-.2.14-.27.32a8.06 8.06 0 0 1-1.46 3l-.03-.12zm2.91-5.45c.2.07.35.11.35.22s0 .11-.15.18-.17.1-.17 1.34 0 2.84.06 4A.5.5 0 0 1 87 45c-.2 0-.35-.11-.35-.42.1-1.5.14-3 .14-4.48v-1.15l-1.27.32c-.13 0-.21.17-.29.17s-.6-1-.6-1h.08a6.64 6.64 0 0 0 .88.06h.56a14 14 0 0 0 1.79-4v-.14s1.16.52 1.16.78c0 .11-.11.2-.35.21a.38.38 0 0 0-.28.21 30.45 30.45 0 0 1-2.07 3c.6 0 1.26-.08 1.74-.14a5.3 5.3 0 0 0-.46-.81.27.27 0 0 1-.07-.15c.17 0 1.57.74 1.57 1.54a.49.49 0 0 1-.45.53c-.32 0-.39-.28-.53-.85zm-.67-2.33c0 .29-.18.52-.38.52s-.31-.1-.43-.36a3.86 3.86 0 0 0-.95-1.15c-.08-.07-.13-.11-.13-.14s0 0 .1 0a2.37 2.37 0 0 1 .92.21 13.31 13.31 0 0 0 .7-2.72v-.2s1.27.42 1.27.7c0 .1-.1.2-.34.22s-.2.07-.27.21a19.62 19.62 0 0 1-1.16 1.93 1 1 0 0 1 .67.78zm.43 8.73h-.06s.08-.1.31-.22c2-1.09 2.21-3.18 2.21-4.64v-.9a9.16 9.16 0 0 0-.1-1.57.14.14 0 0 0 0-.06c.28 0 1.23.22 1.23.45 0 .07 0 .13-.2.2s-.21.07-.21.22c0 3.31-.1 5.39-2.76 6.44a1.42 1.42 0 0 1-.42.08zm1-3.42a4.63 4.63 0 0 0-.49-1.56.93.93 0 0 1-.07-.15s1.44.85 1.44 1.68a.53.53 0 0 1-.48.57c-.12-.02-.3-.17-.36-.54zm4.94-.92v.6c.84.07 1.92.59 1.92 1.25a.42.42 0 0 1-.39.45c-.17 0-.35-.11-.5-.39a3.66 3.66 0 0 0-1-1.21c0 1.29.06 2.42.1 3.08 0 .24-.27.38-.49.38s-.34-.08-.34-.29c.06-.73.08-1.78.1-2.94a6.74 6.74 0 0 1-3.42 3h-.06s.07-.11.22-.21a10.77 10.77 0 0 0 3-3.63c-.41 0-.83 0-1.33.1-.22 0-.52-.42-.52-.57a17.79 17.79 0 0 0 2.14.14v-3.24c-.7 0-1.19 0-2.37.13-.25 0-.69-.5-.69-.67a26.14 26.14 0 0 0 3.07.2v-1.06c-.85 0-1.64.06-2.93.14-.25 0-.66-.53-.66-.7a30.85 30.85 0 0 0 3.6.2v-.94c-.56 0-1.42 0-2.27.11-.25 0-.63-.46-.63-.63 1 .13 2.23.15 2.93.17a8.1 8.1 0 0 0-.14-1.56c.07 0 1.37.13 1.37.45a.34.34 0 0 1-.18.25c-.25.17-.35.06-.36.57v.39h1.42a.16.16 0 0 0 .15-.08c.1-.15.31-.36.39-.36s.91.45.91.74c0 .14-.15.24-.29.31s-.2.18-.21.48v.21h.24a.2.2 0 0 0 .14-.11 2.42 2.42 0 0 1 .55-.63s.94.52.94.92c0 .1-.07.18-.27.18h-1.6c0 .43.06 1 .08 1.3a.42.42 0 0 1-.43.42.33.33 0 0 1-.34-.35h-1.81v2.84a6.74 6.74 0 0 0 1-2v-.13s1 .56 1 .77-.08.13-.25.13h-.13c-.11 0-.14 0-.22.13a17.87 17.87 0 0 1-1.33 1.26l-.08.06v.17h.76a.24.24 0 0 0 .17-.11c.11-.21.41-.57.49-.57a.11.11 0 0 1 .08 0c.35.17.81.63.81.78s-.07.2-.28.2zm-1.79-1.22a3.42 3.42 0 0 0-.69-1.06.31.31 0 0 1-.08-.11c.28 0 1.51.42 1.51 1.13a.44.44 0 0 1-.39.46c-.07-.01-.22-.14-.31-.42zm1.81-3.75v1.06h1.75v-1.06zm0-1.3v.94h1.71v-.78a.16.16 0 0 0-.15-.15zm3.08 10a.47.47 0 0 1-.49.41.31.31 0 0 1-.32-.35v-3.18a29.28 29.28 0 0 0-.17-3.63.28.28 0 0 0 0-.07c.07 0 1.32.17 1.32.46a.28.28 0 0 1-.18.22c-.25.13-.25.07-.27.45s0 .78 0 1.27c0 1.29 0 3 .08 4.43zm-3.69 12.37c0 1 0 2.09.06 3.05a.57.57 0 0 1-.6.55.38.38 0 0 1-.41-.42V60c.13-1.51.17-3.73.17-5.34v-1.55c0-.37 0-1.11-.07-1.64h-1a11.81 11.81 0 0 1-2.52 2.45l-.21.13c-.06 1.5-.08 3.26-.08 4.86v.94a.63.63 0 0 1-.63.59c-.22 0-.41-.13-.41-.46v-.08c.21-2.07.29-5 .31-6.81v-.84c-1.65 2.1-2.88 2.76-3 2.76s.07-.13.22-.27a17.94 17.94 0 0 0 3.63-5.4 4.32 4.32 0 0 0 .28-1v-.11s1.43.62 1.43.88c0 .1-.13.21-.43.28s-.25.07-.41.34c-.32.55-.67 1.09-1 1.61.7.11.71.25.71.31s-.07.17-.24.25-.25.14-.28.59 0 .91-.06 1.43l.08-.08c.83-.78 3.08-3.75 3.35-5.58 0-.07 0-.11.07-.11s1.4.6 1.4.92c0 .13-.14.22-.48.29s-.27 0-.43.32c-.27.43-.62 1-1 1.47h3.91a.29.29 0 0 0 .22-.13c.28-.39.59-.81.77-.81H96c.39.14 1.2.81 1.2 1.11 0 .08-.06.17-.29.17H93a.14.14 0 0 1 .07.11c0 .1-.11.2-.22.24-.27.11-.28.18-.28 2.1h1.73a.26.26 0 0 0 .21-.13s.48-.73.69-.73h.08c.45.17 1.13.77 1.13 1 0 .08-.07.17-.29.17h-3.6v2.27h1.83a.26.26 0 0 0 .21-.13s.48-.73.69-.73h.08c.45.17 1.13.77 1.13 1 0 .08-.07.17-.29.17zm-.7 10.71a14.42 14.42 0 0 0 1.08 2.72 5.47 5.47 0 0 0 2-1.86v-.07s1.13.87 1.13 1.12c0 .1-.1.17-.31.17h-.35a.61.61 0 0 0-.27.07c-.45.21-1.44.66-2.09.88A6.92 6.92 0 0 0 97.27 74c.08 0 .11 0 .11.06s-1.2.17-1.61.53a.25.25 0 0 1-.15.08s-2.82-1.21-4-7.07h-.73c.29.08.43.13.43.22s-.08.15-.22.17-.21.06-.5.29-.48.38-.74.56c1.37.49 2.33 2.52 2.33 4.25 0 1.47-.7 2.69-2.28 2.69-.17 0-.18-.07-.25-.18a11.92 11.92 0 0 0-1.4-1.11.49.49 0 0 1 .17 0 6.4 6.4 0 0 0 1.6.28c.77 0 1.37-.35 1.37-1.92a6.69 6.69 0 0 0-.1-1h-.18c-.22 0-.2.1-.36.25a10.13 10.13 0 0 1-6 3c-.1 0-.17 0-.17-.06s.14-.11.48-.2a10.37 10.37 0 0 0 5.18-3.6c.06-.11 0-.14.07-.14a3.23 3.23 0 0 1 .88.36 5.87 5.87 0 0 0-.42-1.21.23.23 0 0 1-.1 0c-.24 0-.18 0-.46.2A11.74 11.74 0 0 1 85 72.83h-.14s.14-.13.46-.22a11.14 11.14 0 0 0 4.57-2.84c.06-.08.06-.13.11-.13s.22.06.53.22a2.64 2.64 0 0 0-.83-.8h-.06a11.55 11.55 0 0 1-4.55 1.82h-.1s.13-.11.45-.22A11.35 11.35 0 0 0 90 67.63c-.84 0-1.86.07-2.59.14-.25 0-.64-.55-.64-.71 1.37.17 3.85.22 4.62.22h1.13a.29.29 0 0 0 .22-.13c.14-.22.57-.74.74-.74s.79.48.83.52a5.61 5.61 0 0 0 .53-1.26s0-.07-.08-.07h-7.82c-.1 1.28-.88 2-1.4 2a.49.49 0 0 1-.54-.5.84.84 0 0 1 .38-.62 3.11 3.11 0 0 0 1.3-1.93c0-.1 0-.15.08-.15s.17.53.17.84h3.49v-.14a9.19 9.19 0 0 0-.14-1.7.48.48 0 0 1 0-.08c.07 0 1.65.18 1.65.49 0 .08-.1.18-.27.27s-.29.14-.34.53v.64h3.52a.4.4 0 0 0 .24-.1c.14-.14.32-.29.45-.29.08 0 1.18.59 1.18 1.08 0 .17-.14.32-.5.34a3.46 3.46 0 0 0-1.69.83.68.68 0 0 1 .22.38c0 .08-.06.15-.28.15zm4.25 13.2a5.27 5.27 0 0 0-1.7-1.76c-.14-.11-.28-.2-.28-.24s0 0 .1 0c.57 0 3 .56 3 1.78a.64.64 0 0 1-.59.67.66.66 0 0 1-.53-.45zM63.21 21.81c.76 2.73 3 5.91 6.35 6.72.08 0 .13 0 .13.06s-1.4.24-1.78.62a.22.22 0 0 1-.14.07c-.36 0-3.88-2.47-4.71-7.16a8.94 8.94 0 0 1-6.19 7.42 1.78 1.78 0 0 1-.43.1h-.07s.18-.18.41-.27c3.19-1.27 5-4.69 5.41-7.54h-.66c-.77 0-2.55 0-3.8.15-.27 0-.7-.55-.7-.73 1.43.17 3.77.22 4.57.22h.64a6.7 6.7 0 0 0 0-.73 17.41 17.41 0 0 0-.14-3.29.15.15 0 0 1 0-.07c.52 0 1.76.29 1.76.6 0 .14-.17.25-.38.34s-.32 0-.32.85v2.31h3.35a.29.29 0 0 0 .24-.13c.08-.14.59-.88.79-.88h.1c.45.15 1.26.92 1.26 1.18 0 .08-.07.17-.31.17zM59.4 36.85v3.6c.76-.31 1.55-.66 2.09-.92a.42.42 0 0 1 .18-.06h.06c0 .25-2.82 1.93-4.19 2.63-.11.06-.14.2-.22.2s-.85-.88-.85-1 0 0 .06 0a5.46 5.46 0 0 0 2-.49V36.9c-.48 0-.87.08-1.4.13-.21 0-.63-.5-.63-.69a20.19 20.19 0 0 0 2 .2v-1.5a13 13 0 0 0-.17-2.1.15.15 0 0 1 0-.07s1.6.27 1.6.59c0 .13-.15.24-.35.32s-.29.17-.29 2.82h.29c.08 0 .11-.06.15-.13s.42-.69.59-.69 1 .81 1 1-.06.15-.27.15zm5.74-.41h.06a.14.14 0 0 1 .11.13v.07A14.9 14.9 0 0 0 66 39.1a4.2 4.2 0 0 0 1.64-1.6s0-.07.06-.07 1.08.8 1.08 1.13c0 .11-.1.17-.27.17a.85.85 0 0 1-.25 0h-.22a.36.36 0 0 0-.17 0 18.24 18.24 0 0 1-1.76.64 7 7 0 0 0 3.2 3.63c.08 0 .13.08.13.11s-1.13.11-1.4.41a.22.22 0 0 1-.15.07c-.24 0-2.31-2.44-2.77-6.83-.15 0-.22 0-.43.25a6.52 6.52 0 0 1-1.13.88c1.22.59 2 2.72 2 4.31S64.8 45 63.4 45c-.17 0-.17-.07-.24-.17-.35-.49-1.34-1-1.34-1.09h.17a5.18 5.18 0 0 0 1.34.24c1.09 0 1.5-.8 1.5-2.06a6.88 6.88 0 0 0-.11-1.15c-.17 0-.15.11-.28.25-1.54 1.68-4.38 3-5.41 3h-.13s.13-.11.42-.21c1.5-.48 4.19-2.52 4.59-3.6 0-.11 0-.14.06-.14a5.39 5.39 0 0 1 .63.24 6.22 6.22 0 0 0-.36-1.05h-.07c-.18 0-.15 0-.36.17a9.52 9.52 0 0 1-4.17 2.14h-.1s.11-.11.36-.21a8.68 8.68 0 0 0 3.5-2.66c0-.08.06-.13.1-.13a2.24 2.24 0 0 1 .5.22 2.31 2.31 0 0 0-.7-.76 9.21 9.21 0 0 1-3.22 1.32h-.07s.11-.08.35-.18a10.14 10.14 0 0 0 3.77-2.69 14.55 14.55 0 0 0-1.72.13c-.24 0-.64-.49-.64-.66a18.19 18.19 0 0 0 2.66.2h1.74a.24.24 0 0 0 .2-.13c.38-.48.5-.64.6-.64a4.72 4.72 0 0 0 .24-.88.08.08 0 0 0-.08-.08h-4.59c-.06 1-.59 1.53-1.06 1.53a.45.45 0 0 1-.48-.43.69.69 0 0 1 .27-.49 2.3 2.3 0 0 0 .9-1.67c0-.1 0-.14.07-.14s.25.49.29.85h4.59a.45.45 0 0 0 .25-.11.66.66 0 0 1 .42-.28c.07 0 1.12.53 1.12 1 0 .17-.15.31-.55.32a2.63 2.63 0 0 0-1.13.52c.39.22.8.62.8.81s-.06.18-.27.18zM62.3 56.57c.06.24.13.49.21.74a.69.69 0 0 1 0 .22.52.52 0 0 1-.43.56c-.17 0-.36-.17-.46-.59v-.18A4.67 4.67 0 0 1 59 58.88a.89.89 0 0 1-.9-1c0-1.61 2.37-3.78 3.52-4.55.07-.64.14-1.26.2-1.79a6.32 6.32 0 0 1-1 .13c-1.61 0-1.64-1.29-1.64-1.33s0-.08.06-.08a.49.49 0 0 1 .18.07 3.15 3.15 0 0 0 1.71.64 3.09 3.09 0 0 0 .8-.11c0-.28.06-.5.06-.7v-.5c0-.49-.07-.71-.46-.76-.13 0-.25-.06-.25-.15a.53.53 0 0 1 .52-.34c.1 0 1 .17 1 .94a6.45 6.45 0 0 1-.13.81c0 .17 0 .34-.07.5a12.24 12.24 0 0 0 1.26-.55c.21-.11.42-.29.6-.36a.85.85 0 0 1 .31-.06c.27 0 .48.14.48.34s-.1.28-.32.41a12 12 0 0 1-2.44 1c-.1.53-.2 1.08-.27 1.65a5.69 5.69 0 0 1 1.78-.66.56.56 0 0 0-.2-.48c-.11-.08-.15-.15-.15-.2s0-.06.1-.06a.8.8 0 0 1 .76.69h.14a3.26 3.26 0 0 1 3.4 3.21c0 3.45-4.85 4.86-6.32 4.86h-.15s.25-.18.8-.34c2.1-.6 4.75-2.14 4.75-4.52a2.66 2.66 0 0 0-2.63-2.7 10.4 10.4 0 0 1-2.2 3.68zm-.8-.84c0-.62 0-1.26.1-1.91-1.7 1.21-2.7 2.94-2.7 3.74a.41.41 0 0 0 .43.45c.73 0 2.14-1.41 2.2-1.47-.01-.26-.03-.54-.03-.81zm.66-2.21c0 .38-.06.76-.06 1.13a11.29 11.29 0 0 0 .07 1.18 9 9 0 0 0 1.76-3 4.85 4.85 0 0 0-1.77.69zm-.73 15.89c1.42 2.2 2.65 4.13 2.65 5.37 0 .56-.28.85-.56.85s-.5-.25-.5-.81c0-1.08-.31-2.34-2-5.17-.07-.11-.13-.22-.21-.35l-.53.43a3 3 0 0 1-1.82.8 1.28 1.28 0 0 1-1.26-.87c0-.07 0-.11.14-.11h.2a1.94 1.94 0 0 0 .62.1c.67 0 1.15-.28 2.24-1a8 8 0 0 0-.88-1.11 1.07 1.07 0 0 1-.45-.78 1.1 1.1 0 0 1 .36-.73c.28-.29.63-.36 1.34-.36h1.33c.62 0 .9-.06.9-.38a1.15 1.15 0 0 0-.13-.49c0-.06-.1-.13-.1-.17s0 0 .08 0c.31 0 1.19.52 1.19 1.16a.69.69 0 0 1-.71.74 2.6 2.6 0 0 1-.76-.15 7 7 0 0 0-1.84-.38c-.78 0-.92.56-.92.71s.17.6 1 1.72c1.47-1 3.22-2.07 5-2.07s2.77 1 2.77 2-1.16 2.21-2.8 2.21a3.62 3.62 0 0 1-3.24-2.19s.2.11.38.31a3.33 3.33 0 0 0 2.54 1.09c1.89 0 2.26-1.18 2.26-1.58 0-.87-.85-1.39-1.91-1.39-1.58 0-3.35 1.19-4.65 2.21zM63.35 85v3.07c0 .39.06 1 .06 1.3 0 1.6-1.76 1.68-1.89 1.68s-.2-.06-.28-.18c-.22-.35-1.64-1-1.64-1.08s0 0 .06 0h.18a11.23 11.23 0 0 0 1.78.24c.59 0 .87-.2.9-.78v-4.26h-1.18c-.78 0-2.82 0-4.08.15-.27 0-.66-.55-.66-.73 1.44.18 4 .22 4.82.22h1.13v-.52a9.77 9.77 0 0 0-.17-1.72.4.4 0 0 1 0-.11 9.92 9.92 0 0 1 1 .21 9.79 9.79 0 0 0 1.47-2s0-.08-.15-.08h-1.92c-1.2 0-2.27 0-3.74.11-.27 0-.66-.49-.66-.7 1.89.2 3.82.21 4.44.21h1.88a.5.5 0 0 0 .35-.14c.13-.1.34-.29.43-.35a.3.3 0 0 1 .15-.06c.27 0 1.27.71 1.27 1s-.2.32-.42.36a2 2 0 0 0-.91.36c-.48.36-1.29 1-1.92 1.4h.08c.17.06.22.13.22.2s-.14.21-.29.29-.32.17-.32 1.57h3.36a.29.29 0 0 0 .24-.13c.2-.31.66-.92.81-.92s1.36 1 1.36 1.23c0 .08-.07.17-.31.17zm1.33 15.24a.1.1 0 0 1 .06.08c0 .07-.11.14-.21.2s-.11.1-.13.63-.06 2.13-.06 3.19 0 1.26 1.68 1.26a8.5 8.5 0 0 0 1.3-.1c.7-.11.87-1.23 1.06-2.34a.48.48 0 0 1 0-.1c.08 0 .17 1.79.42 2a.48.48 0 0 1 .27.41c0 .38-.56.8-1.65.91-.46 0-1 .07-1.46.07-1.4 0-2.48-.2-2.48-1.46v-4.73H62c.18 0 .31.08.31.2s-.06.14-.17.18-.21.06-.24.59a5.76 5.76 0 0 1-5.34 5.56h-.1s.15-.1.41-.18a5.73 5.73 0 0 0 4.13-5.69 4.17 4.17 0 0 0 0-.69c-.85 0-2.18 0-3.25.15-.25 0-.67-.56-.67-.74 1.44.17 3.6.22 4.41.22h1v-2.42h-2.86c-1.2 1.63-2 2.07-2.09 2.07s0-.08.13-.18c.74-.81 2.17-3.38 2.17-4.36v-.15s1.49.45 1.49.76c0 .11-.18.2-.42.21s-.22 0-.34.22c-.2.35-.43.73-.69 1.09h2.52v-.8a13.19 13.19 0 0 0-.14-2 .28.28 0 0 1 0-.1s1.67.22 1.67.53c0 .1-.08.2-.22.28-.32.21-.38.06-.42.71v1.36h1.58A.26.26 0 0 0 65 97s.55-.9.81-.9a.2.2 0 0 1 .1 0 2.77 2.77 0 0 1 1.25 1.19c0 .1-.07.18-.31.18h-3.61v2.42h3a.27.27 0 0 0 .22-.13c.1-.15.62-.94.85-.94h.1a3 3 0 0 1 1.27 1.23c0 .1-.07.18-.31.18zm-3.12 21.1c-.79 0-2.79 0-4 .15-.27 0-.66-.55-.66-.73 1.44.17 4 .22 4.78.22h.84v-3.57h-.36a27.27 27.27 0 0 0-2.91.15c-.24 0-.63-.55-.63-.73a32.87 32.87 0 0 0 3.63.22h.29v-3h-2.8c-1.47 2.44-2.83 3.29-2.94 3.29s.07-.13.21-.28c1.16-1.22 2.88-4.66 2.88-6.11v-.07s1.56.41 1.56.77c0 .11-.11.21-.46.28s-.25.13-.38.42-.42.88-.69 1.34h2.58a29.08 29.08 0 0 0-.2-3.7.24.24 0 0 1 0-.08c.29 0 1.72.21 1.72.53a.4.4 0 0 1-.22.29c-.31.21-.38 0-.41.7v2.28h2.51a.26.26 0 0 0 .21-.13c.49-.67.69-.92.81-.92a2.61 2.61 0 0 1 1.29 1.22c0 .1-.07.18-.29.18h-4.55v3H65a.28.28 0 0 0 .21-.13c.6-.77.67-.85.77-.85a2.76 2.76 0 0 1 1.25 1.15c0 .08-.06.18-.28.18h-3.58v3.57h3.23a.29.29 0 0 0 .24-.13c.14-.24.64-.94.84-.94.38 0 1.34 1 1.34 1.25 0 .08-.07.17-.31.17zM61.28 137c-.77 0-2.66 0-3.92.15-.27 0-.66-.55-.66-.73.71.08 1.68.15 2.55.18v-1.11a14 14 0 0 0-.18-2.61v-.08a6.48 6.48 0 0 1 1.27.6h5a.18.18 0 0 0 .17-.08c.1-.1.21-.24.29-.31a.25.25 0 0 1 .2-.01c.11 0 1.08.5 1.08.8 0 .14-.17.24-.32.32s-.27.34-.27 1.08v1.51H67a.29.29 0 0 0 .24-.13c.35-.57.55-.81.69-.81a2.51 2.51 0 0 1 1.19 1.12c0 .08-.07.17-.31.17zm-2.82-4.85v.63c0 .22-.31.38-.56.38s-.34-.08-.34-.28c.11-1.19.14-4.48.14-5.44a11.18 11.18 0 0 0-.15-1.74.25.25 0 0 1 0-.08 5.58 5.58 0 0 1 1.25.57h2.68a.33.33 0 0 0 .2-.1c.39-.5.43-.56.57-.56h.07c.14 0 1 .55 1 .77s-.07.22-.31.22h-2.18c.11 0 .15.07.15.11s-.08.13-.17.15-.17.07-.18.27v1h.8a.25.25 0 0 0 .2-.1.7.7 0 0 1 .35-.28c.2 0 1 .43 1 .62s-.1.15-.21.22c-.27.15-.28.11-.28.28s0 .43.06 1.54c0 .2-.24.32-.45.32s-.31-.08-.31-.25v-.21h-.89s.06 0 .06.07-.07.1-.14.14-.2.13-.2.59v.88h1a.25.25 0 0 0 .21-.1 2.41 2.41 0 0 1 .45-.48.32.32 0 0 1 .15 0c.35 0 1 .66 1 .77s-.08.2-.35.2zm0-3.82v1.44h3.28v-1.3a.17.17 0 0 0-.18-.14zm1.44 3.47v-1a4.55 4.55 0 0 0 0-.66h-1.4v1.68zm0-4.62a5.26 5.26 0 0 0 0-.71h-1a.73.73 0 0 1-.15.1c-.27.13-.27.14-.27 1.4h1.43zm1.46 9.47v-2.21a4.78 4.78 0 0 0 0-.69h-1l-.13.1c-.21.14-.22.14-.24.59v2.2h1.33zm2.14 0v-2.22a4.78 4.78 0 0 0 0-.69h-1.06a.17.17 0 0 1 .08.13c0 .08-.08.18-.24.24s-.15.08-.15 2.12v.42zm1.12-8.53a5.87 5.87 0 0 1-1.7 2 .87.87 0 0 1 .2-.32 12 12 0 0 0 1.77-4.4v-.14s1.37.41 1.37.64c0 .08-.11.17-.38.22s-.2.11-.28.27c-.18.34-.45.84-.76 1.37h2a.29.29 0 0 0 .2-.11c.41-.57.53-.74.7-.74.34 0 1.23.77 1.23 1 0 .1-.07.18-.31.18zm1.7 2.88a17.73 17.73 0 0 0-2.25.13c-.17 0-.57-.52-.57-.67a22.38 22.38 0 0 0 2.87.2h.42a.26.26 0 0 0 .18-.11c.15-.22.53-.73.67-.73h.08c.32.13 1.16.78 1.16 1 0 .08-.06.14-.29.14zm-.63 5.67v-2.76a.14.14 0 0 0-.13-.14h-1a.17.17 0 0 1 .08.13c0 .08-.08.18-.24.24s-.15.08-.15 2.12v.42zm-7.39 8.13a7.67 7.67 0 0 1-2.23 2.38.46.46 0 0 1 .11-.18c.9-1 3-4.41 3.17-6.25v-.1s1.41.49 1.41.78c0 .1-.11.18-.41.27s-.24.08-.38.35c-.36.66-.74 1.33-1.15 2 .53.1.87.17.87.32s-.11.17-.29.25-.31.14-.32.59c0 1.15-.07 2.62-.07 4.13v3a.59.59 0 0 1-.62.59c-.22 0-.42-.14-.42-.48v-.07c.17-2 .27-4.48.27-6.23v-1.35zm8.14-2.14c.41.15.53.21.53.34s-.13.2-.29.2-.18 0-.27.2a7.79 7.79 0 0 1-1 1.57 7.56 7.56 0 0 0 3.94 1.22h.17s-1 .38-1.4.67a.3.3 0 0 1-.2.08 6.29 6.29 0 0 1-2.94-1.54 7.65 7.65 0 0 1-4 2.1c0 .92 0 1.83.06 2.54a.54.54 0 0 1-.49.52c-.17 0-.34-.13-.34-.43.06-1.46.1-3 .1-4.31a17.83 17.83 0 0 0-.21-2.82.15.15 0 0 1 0-.07c.21 0 1.39.24 1.39.5 0 .08-.07.17-.2.24s-.29 0-.32.52-.06 1.5-.06 2.42v.87l.22-.11a8.8 8.8 0 0 0 3.33-2.37 5.31 5.31 0 0 1-1.22-2.12c-1.29 1.82-1.76 1.88-1.78 1.88s.06-.13.18-.28a10.81 10.81 0 0 0 1.86-3.82v-.14s1.19.42 1.19.63-.11.2-.36.22-.18.08-.27.22-.31.49-.52.8h3.16a.24.24 0 0 0 .17-.11c.1-.17.46-.64.57-.64s1.08.6 1.08 1c0 .07-.06.13-.25.13zm1.68 7.4h-.26c-.07 0-.1 0-.18.13a10.71 10.71 0 0 1-7.12 2.73h-.31s.1-.07.31-.1c3.56-.46 6.18-2.54 6.65-3.68 0-.06 0-.08.07-.08s1.09.63 1.09.94c-.03 0-.1.05-.25.05zm-1.3-1.55h-.28c-.11 0-.17.07-.27.15a9 9 0 0 1-4.56 2.34h-.39s.1-.08.31-.15a8.8 8.8 0 0 0 4.3-3.33c0-.06 0-.1.07-.1s1 .63 1 .9c0 .12-.06.18-.19.18zm-1.13-1.32h-.29c-.07 0-.08 0-.18.13a7.74 7.74 0 0 1-3.77 2.1s.07-.07.22-.14a7.37 7.37 0 0 0 3.24-2.91c0-.06 0-.1.07-.1s.92.55.92.85c-.04 0-.09.06-.22.06zm-2.24-4.52a5.52 5.52 0 0 0 1.37 1.86 4.17 4.17 0 0 0 .9-1.86zm-.18 17.42c0 3.07-2.45 6.19-3.66 6.19-.69 0-.94-.94-1.51-1.77a2.17 2.17 0 0 1-.34-1.27 5.71 5.71 0 0 1 5.65-5.5 4.46 4.46 0 0 1 4.82 4.48c0 4.26-4.87 5.46-6 5.46-.13 0-.2 0-.2-.06s.22-.18.63-.29c3.68-1 4.68-3.43 4.68-5.17a3.86 3.86 0 0 0-4.09-4h-.5a2.43 2.43 0 0 1 .52 1.93zm-.49-.5c0-1-.24-1.25-.55-1.25H62a5 5 0 0 0-3.52 4.55c0 1.23.62 2.17 1.29 2.17.92.03 3.01-2.9 3.01-5.48zm-3.47 15.92a9.6 9.6 0 0 1-3.19 2.72s.07-.13.17-.21a19.82 19.82 0 0 0 4.08-5.38 4.47 4.47 0 0 0 .32-1v-.11a9.19 9.19 0 0 1 1.34.67c.07.07.11.13.11.18s-.14.22-.48.29-.27.07-.45.34c-.41.6-.83 1.19-1.26 1.75.53.11.83.17.83.31s-.11.17-.31.25-.34.14-.35.59c0 1.15-.07 2.61-.07 4.12v3a.66.66 0 0 1-.64.59.41.41 0 0 1-.43-.46v-.08c.17-2 .28-4.48.28-6.25v-1.29zm4.69 5.93c0 .74 0 .9 1.72.9a10.39 10.39 0 0 0 1.42-.07c.73-.1.94-1.23 1.27-2.76 0-.11 0-.15.06-.15s0 2.34.31 2.49a.48.48 0 0 1 .29.41c0 .36-.6.78-1.79.87h-1.75c-1.51 0-2.41-.11-2.41-1.4v-.1c0-1.64.07-6.84.08-8.08a17.19 17.19 0 0 0-.1-1.85v-.11c0-.03 0 0 .06 0 .22 0 1.54.31 1.54.57 0 .08-.1.18-.29.28s-.28.06-.31.52 0 2.24-.06 4.19c.9-.56 3.1-2 3.28-2.73 0-.06 0-.07.06-.07.2 0 1.26.91 1.26 1.15s-.1.2-.32.2h-.36a.27.27 0 0 0-.17 0 26.64 26.64 0 0 1-3.79 1.73v4.01zm-.56 7.89l-.1.07c-.2.14-.2.06-.2.63v1.64c0 2.49-.25 5.46-3 7a1.19 1.19 0 0 1-.43.18.58.58 0 0 1-.45.22.39.39 0 0 1-.39-.45c.06-1.26.1-3.08.13-4.86a7.44 7.44 0 0 1-2.83 3.08s.06-.13.2-.25a13.92 13.92 0 0 0 2.63-4.78 14.18 14.18 0 0 0-1.86.13c-.18 0-.57-.5-.57-.66a19.8 19.8 0 0 0 2.46.2 40.39 40.39 0 0 0-.13-4.61.4.4 0 0 1 0-.11s1.44.22 1.44.5c0 .08-.08.17-.24.25s-.31.08-.34.53 0 1.5 0 2.66a8.56 8.56 0 0 0 1-2.24c0-.1 0-.14.06-.14s1.05.7 1.05.87-.08.13-.28.13h-.14c-.13 0-.15.06-.25.15a17.28 17.28 0 0 1-1.44 1.44v.55h.56a.24.24 0 0 0 .17-.11s.38-.63.55-.63 1 .67 1 .92c0 .07-.06.15-.25.15h-2v1.08c.85.06 1.88.48 1.88 1.19a.46.46 0 0 1-.41.5.63.63 0 0 1-.5-.39 4.09 4.09 0 0 0-1-1.16c0 1.92.07 4 .11 5.5a.4.4 0 0 1 0 .13c2.25-1.5 2.56-4.38 2.56-6.61a22.42 22.42 0 0 0-.24-3.61.32.32 0 0 1 0-.1 9 9 0 0 1 1.29.62h1.67v-.69a6.15 6.15 0 0 0-.13-1.46.31.31 0 0 1 0-.08s1.5.17 1.5.49c0 .08-.07.17-.2.25-.29.18-.35.06-.36.5v1H67a.27.27 0 0 0 .18-.11c.38-.57.49-.74.64-.74h.1a2.39 2.39 0 0 1 1.08 1c0 .1-.07.18-.29.18zm-5.7.73a3.63 3.63 0 0 0-.66-1.19.48.48 0 0 1-.1-.14c.49 0 1.62.52 1.62 1.23a.52.52 0 0 1-.45.56c-.15-.01-.33-.14-.41-.46zm7.52 8.19c-.7 0-1.43 0-2.75.13-.24 0-.58-.52-.58-.67a32.52 32.52 0 0 0 3.32.2v-4c-.36 0-.76 0-1.47.11-.24 0-.57-.5-.57-.66.88.11 1.51.15 2.06.18v-1.74a7.83 7.83 0 0 0-.18-1.76.6.6 0 0 0 0-.07h.07c.07 0 1.47.15 1.47.46 0 .11-.11.22-.32.32s-.31.25-.31 2.81h.64a.29.29 0 0 0 .2-.11c.42-.66.5-.74.64-.74h.1c.21.07 1 .71 1 1 0 .08-.07.17-.29.17H66v4h1.11a.29.29 0 0 0 .2-.11 5.06 5.06 0 0 1 .56-.74.19.19 0 0 1 .13 0c.28 0 1.19.78 1.19 1.06 0 .1-.08.18-.34.18zm-4.9 9.86v1.29h.14c.81 0 1.89.36 1.89 1.12a.42.42 0 0 1-.39.48.69.69 0 0 1-.5-.35 4.08 4.08 0 0 0-1.15-1.15v4.61a.53.53 0 0 1-.57.49.36.36 0 0 1-.39-.39c.1-1.5.2-3 .24-4.33a8.08 8.08 0 0 1-3.47 3s.07-.11.22-.22a12.71 12.71 0 0 0 3.31-4.47 15.39 15.39 0 0 0-2.1.13c-.17 0-.56-.52-.56-.67a18.72 18.72 0 0 0 2.69.2 8.84 8.84 0 0 0-.1-1.88.24.24 0 0 1 0-.08c.32 0 1.44.29 1.44.5s-.08.14-.25.22-.31.14-.36 1.3h.32a.24.24 0 0 0 .17-.11c.13-.21.48-.71.63-.71s1.05.76 1.05 1c0 .08-.06.17-.25.17zm-1.12-4a7.68 7.68 0 0 1-2.62 2.54s0-.08.13-.18c.63-.6 2.35-3.11 2.44-4.29v-.15s1.44.45 1.44.83c0 .11-.2.18-.43.2s-.22 0-.35.21-.24.36-.36.55H61a.24.24 0 0 0 .17-.11c.08-.14.41-.66.57-.66s1 .69 1 1c0 .07-.06.14-.27.14zm1.18 1.32a3.1 3.1 0 0 0-.69-1c-.07-.07-.1-.11-.1-.13s0 0 .08 0c.32 0 1.64.27 1.64 1a.54.54 0 0 1-.48.55c-.18-.03-.35-.15-.46-.45zm3.58-1.34c-1.58 2.2-2.27 2.46-2.37 2.46a.4.4 0 0 1 .13-.18 14 14 0 0 0 2-3.43 2.54 2.54 0 0 0 .2-.77v-.15s1.43.52 1.43.8c0 .11-.17.17-.43.18a.49.49 0 0 0-.18 0 5.35 5.35 0 0 0-.55.74h2.51a.24.24 0 0 0 .17-.11c.56-.76.6-.77.69-.77a2.31 2.31 0 0 1 1.16 1.05c0 .08-.06.17-.27.17zm2.9 9.29h-3v.62a.52.52 0 0 1-.55.45.33.33 0 0 1-.36-.36c.1-1.42.11-4.08.11-5.38a12.07 12.07 0 0 0-.18-2.42.25.25 0 0 1 0-.08 5 5 0 0 1 1.32.56h2.37a.24.24 0 0 0 .2-.1c.06-.07.28-.36.43-.36s1.11.45 1.11.76c0 .14-.18.24-.32.32s-.28.17-.28 1.12c0 1.39.06 4.23.11 5.34a.53.53 0 0 1-.53.5.37.37 0 0 1-.39-.41zm-3-4.26v1.58h3v-1.58zm0 1.95v1.95h3v-1.95zm.31-4l-.13.08c-.13.07-.17.06-.17.41v1.22h3.05v-1.55a.18.18 0 0 0-.15-.15zm1.13-1.46a3.24 3.24 0 0 0-.69-1c-.07-.07-.1-.11-.1-.14s0 0 .1 0c.38 0 1.63.25 1.63 1.06a.55.55 0 0 1-.48.57c-.23-.1-.4-.21-.51-.51zm-.67 23.63c-.66 0-2.94-.24-2.94-3.54a7.55 7.55 0 0 1 1.34-4.5c.1-.1.17-.17.17-.2a23.18 23.18 0 0 0-3.12 1.39 2.08 2.08 0 0 1-.92.21c-.63 0-1.2-.27-1.2-.74 0-.06 0-.14.11-.14a2.8 2.8 0 0 1 .29.06 4.87 4.87 0 0 0 .69.07 2.55 2.55 0 0 0 .81-.14 43.34 43.34 0 0 1 5.24-2.1 4.2 4.2 0 0 1 1.13-.28h.07c1.29 0 1.5.45 1.5.67s-.21.43-.67.43h-.32a4.37 4.37 0 0 0-.76-.06 4.88 4.88 0 0 0-2 .39c-1 .55-1.75 2.72-1.75 4.52 0 2.86 1.82 3 2.24 3a2.61 2.61 0 0 0 .83-.14 1.15 1.15 0 0 1 .36-.06c.38 0 .63.21.63.46-.03.46-1.17.7-1.73.7zm1.88-6.18a4.49 4.49 0 0 0-1.21-1c-.11-.06-.21-.1-.21-.14a1.22 1.22 0 0 1 .55-.08c1.12 0 1.65.5 1.65 1a.44.44 0 0 1-.41.48.52.52 0 0 1-.37-.26zm1.5-.69a4.79 4.79 0 0 0-1.25-.94c-.11-.06-.22-.1-.22-.14a1.13 1.13 0 0 1 .62-.11c.7 0 1.61.25 1.61.92a.42.42 0 0 1-.39.45.53.53 0 0 1-.42-.18zm.04 12.45a5.27 5.27 0 0 0-1.7-1.76c-.14-.11-.28-.2-.28-.24s0 0 .1 0c.57 0 3 .56 3 1.78a.64.64 0 0 1-.59.67.66.66 0 0 1-.53-.45zM35.21 21.81c.76 2.73 3 5.91 6.35 6.72.08 0 .13 0 .13.06s-1.4.24-1.78.62a.22.22 0 0 1-.14.07c-.36 0-3.88-2.47-4.71-7.16a8.94 8.94 0 0 1-6.19 7.42 1.78 1.78 0 0 1-.43.1h-.07s.18-.18.41-.27c3.19-1.27 5-4.69 5.41-7.54h-.66c-.77 0-2.55 0-3.8.15-.27 0-.7-.55-.7-.73 1.43.17 3.77.22 4.57.22h.64a6.7 6.7 0 0 0 0-.73 17.41 17.41 0 0 0-.14-3.29.15.15 0 0 1 0-.07c.52 0 1.76.29 1.76.6 0 .14-.17.25-.38.34s-.32 0-.32.85v2.31h3.35a.29.29 0 0 0 .24-.13c.08-.14.59-.88.79-.88h.1c.45.15 1.26.92 1.26 1.18 0 .08-.07.17-.31.17zm-4.03 15.61v3.07c0 .5.06.7.74.7a4 4 0 0 0 .8-.08c.62-.14.62-.92.78-2.09v-.11s.13 1.55.35 1.7a.62.62 0 0 1 .32.48c0 .17-.21.91-2.35.91-1.32 0-1.51-.69-1.51-1.25v-3.08c-.31.1-.63.22-1.22.45h-.06a1.24 1.24 0 0 1-.74-.56c.87-.1 1.5-.2 2-.31v-2.66a10.39 10.39 0 0 0-.02-1.59.3.3 0 0 1 0-.1s0-.06.08-.06 1.46.17 1.46.53c0 .1-.1.21-.28.31s-.28.15-.29.5 0 1.57 0 2.83l1.46-.35c.08 0 .14-.11.17-.18.29-.81.39-.87.49-.87.39 0 1.27.49 1.27.77 0 .08 0 .17-.22.21zm6.23-2.65c.11 0 .15.1.15.15s-.13.21-.29.28-.29.08-.31.57c-.18 4.68-1.37 8-5.79 9.16a1.41 1.41 0 0 1-.38.07h-.08s.14-.14.32-.22c2.82-1.21 5-3.31 5-9.36v-.62c-.71 0-1.62 0-2.51.13-.25 0-.64-.56-.64-.73a38.51 38.51 0 0 0 3.92.22h2.4a.24.24 0 0 0 .24-.11c.17-.24.32-.39.39-.39s1.12.56 1.12.87c0 .11-.1.22-.32.34s-.31.18-.31.59a49 49 0 0 1-.34 5.69c-.43 2.42-1.79 3.33-3.1 3.33h-.11a.26.26 0 0 1-.24-.11c-.18-.34-1.81-1.19-1.81-1.3h.17a6.48 6.48 0 0 0 1.86.36c1.09 0 1.93-.59 2.34-2.56a44.78 44.78 0 0 0 .28-6.13c0-.21-.1-.24-.2-.24zm-5.35 21.38a1.1 1.1 0 0 1-.88.7.28.28 0 0 1-.31-.32 1.26 1.26 0 0 1 .28-.7 23.82 23.82 0 0 0 2.48-4.29c0-.06.06-.11.07-.17a3.58 3.58 0 0 1-.9.13 1.62 1.62 0 0 1-1.74-1.29c0-.06 0-.07.06-.07a.76.76 0 0 1 .27.13 2.72 2.72 0 0 0 1.44.46 4.29 4.29 0 0 0 1-.15 5.26 5.26 0 0 0 0-.64c0-.9-.22-.91-.35-.91s-.35 0-.35-.14a.58.58 0 0 1 .56-.42.88.88 0 0 1 .87 1c1.05.2 1.18.24 1.18.5s-.69 1-1.55 1.27c-.07.35-.19.76-2.13 4.91zm2.49 4a1.78 1.78 0 0 1-1.83-1.51c0-.83 1.05-1.32 2.45-1.32a4.94 4.94 0 0 1 1 .1c0-.59-.07-1.23-.07-1.75a2.61 2.61 0 0 1 1.33-2.56c.46-.31.85-.63.85-1 0-.15 0-.18-.39-.57-.11-.11-.2-.2-.2-.24s.06-.06.18-.06c.85 0 1.72.73 1.72 1.36 0 .21-.14.76-.56.76a2 2 0 0 1-.38-.06.64.64 0 0 0-.18 0c-.43 0-1.92.14-1.92 1.51 0 .22 0 .49.06.8 0 .58.18 1.33.21 2 1.16.41 2.07 1.11 2.07 1.74a.48.48 0 0 1-.41.53c-.15 0-.32-.11-.48-.39a3.14 3.14 0 0 0-1.22-1.15 2.37 2.37 0 0 1-2.22 1.79zm.22-2.38c-1 0-1.65.41-1.65.81s.71.74 1.27.74A1.69 1.69 0 0 0 36.15 58a4.17 4.17 0 0 0-1.37-.25zm-.25-7.41a1.75 1.75 0 0 0 .39-.25.27.27 0 0 0 .1-.21c0-.18-.22-.28-.38-.34a3.5 3.5 0 0 1-.1.78zm.99 15.94c.1 0 .14.1.14.15s-.11.2-.28.27-.28 0-.35.53-.14.94-.24 1.39h2.69a.27.27 0 0 0 .24-.13c.34-.34.34-.34.38-.34s1.2.49 1.2.84c0 .11-.11.22-.35.32s-.34.25-.36.59c-.14 1.79-.53 5.77-3.43 5.77h-.25a.38.38 0 0 1-.22-.17c-.13-.34-1.89-1.26-1.89-1.39a.44.44 0 0 1 .15 0 8.27 8.27 0 0 0 2.12.45c.92 0 2.44-.27 2.61-5.38 0-.14 0-.22-.21-.22H34.7a8.82 8.82 0 0 1-6.08 6.77 1.52 1.52 0 0 1-.41.1h-.07s.15-.15.36-.24c4.74-1.95 5.59-7.55 5.59-9v-.32h-.59c-.77 0-2.59 0-3.84.15-.27 0-.64-.55-.64-.71 1.43.17 3.77.21 4.57.21h.76v-.52a9.77 9.77 0 0 0-.13-1.92.28.28 0 0 1 0-.1s1.71.18 1.71.52c0 .08-.08.18-.22.27-.32.21-.36.06-.42.71v1.05h3.21a.28.28 0 0 0 .24-.11c.2-.32.66-.92.8-.92s1.36.87 1.36 1.22c0 .08-.07.17-.31.17zm5.42 22.24a2.05 2.05 0 0 1-.46-.06c-2.63-.63-4-3-6.33-4.55a.92.92 0 0 0-.52-.15 1.14 1.14 0 0 0-.76.34A16.58 16.58 0 0 0 31.5 86a1.1 1.1 0 0 1-.91.52 1.23 1.23 0 0 1-1.22-1.07c0-.14.06-.21.13-.21a.24.24 0 0 1 .17.11.54.54 0 0 0 .43.15 1 1 0 0 0 .56-.17c.28-.18 1.08-1 1.79-1.58a1.87 1.87 0 0 1 1.15-.42 1.72 1.72 0 0 1 .91.27c2.55 1.51 4.22 3.52 6.25 3.77.55.07.84.39.84.69s-.21.48-.67.48zm-5.66 9.95c0 3.07-2.45 6.19-3.66 6.19-.69 0-.94-.94-1.51-1.77a2.17 2.17 0 0 1-.34-1.27 5.71 5.71 0 0 1 5.65-5.5 4.46 4.46 0 0 1 4.82 4.48c0 4.26-4.87 5.46-6 5.46-.13 0-.2 0-.2-.06s.22-.18.63-.29c3.68-1 4.68-3.43 4.68-5.17a3.86 3.86 0 0 0-4.09-4h-.5a2.43 2.43 0 0 1 .52 1.93zm-.49-.5c0-1-.24-1.25-.55-1.25H34a5 5 0 0 0-3.52 4.55c0 1.23.62 2.17 1.29 2.17.92.03 3.01-2.9 3.01-5.46zM3.18 27.61H3c-.11 0-.15 0-.28.17A7.34 7.34 0 0 1 0 29.71s.06-.08.18-.2a6.87 6.87 0 0 0 2-2.79c0-.06 0-.08.07-.08s1.15.66 1.15.87-.07.1-.22.1zm.91-1.82H2.35V26a.54.54 0 0 1-.52.52c-.18 0-.35-.11-.35-.42.07-1.3.08-3 .08-4.43a26.62 26.62 0 0 0-.15-4.08.49.49 0 0 0 0-.08 5.3 5.3 0 0 1 1.22.62H3.8a.24.24 0 0 0 .2-.19c.07-.13.27-.39.38-.39s1 .49 1 .76-.17.25-.27.32-.22.11-.24.46 0 1.11 0 1.91c0 1.65 0 3.75.08 4.86a.55.55 0 0 1-.52.56c-.18 0-.34-.13-.34-.45zm0-5.31v-1.86c0-.07 0-.17-.11-.17H2.62l-.07.06c-.21.14-.22.17-.22 2zm0 2.2v-1.82H2.33v1.82zm0 2.73v-2.35H2.33v2.35zm.62 3.14a6 6 0 0 0-1.26-1.75s-.06-.07-.06-.1c.22 0 2.19.74 2.19 1.78a.53.53 0 0 1-.43.58c-.15-.06-.32-.18-.44-.51zm6.95-4.8v-.1H6.79v.21a.47.47 0 0 1-.49.41.32.32 0 0 1-.3-.33v-.06c.07-.84.1-2.18.1-2.75a12.67 12.67 0 0 0-.14-1.64v-.06a4.2 4.2 0 0 1 1.13.49h2.34a9.1 9.1 0 0 0 1-2.51v-.15s1.37.63 1.37.9c0 .1-.13.18-.42.2s-.22.06-.35.2c-.29.31-.84.9-1.36 1.37h1.64a.18.18 0 0 0 .17-.08c.24-.28.32-.34.42-.34s1 .36 1 .71c0 .14-.15.25-.29.34s-.25.25-.25.53v.15c0 .64.07 1.88.1 2.41a.46.46 0 0 1-.49.48.33.33 0 0 1-.35-.36zm-.8 5.35v-.5H7.61v.53a.46.46 0 0 1-.5.45.35.35 0 0 1-.38-.36c.08-1.23.1-1.83.1-2.31a13.54 13.54 0 0 0-.17-2.44.23.23 0 0 1 0-.08 7 7 0 0 1 1.26.6h2.61a.24.24 0 0 0 .2-.11s.25-.39.43-.39 1.08.48 1.08.8c0 .15-.18.25-.32.34s-.28.17-.28 1.06c0 .63 0 1.36.11 2.4 0 .38-.36.52-.52.52a.37.37 0 0 1-.39-.41zM7.65 19a4 4 0 0 0-.87-1.18c-.07-.07-.11-.11-.11-.14s0 0 .07 0c.42 0 1.95.35 1.95 1.21a.56.56 0 0 1-.52.59c-.17-.08-.4-.21-.52-.48zm1.19 2.41v-1.08H7.07l-.07.02c-.17.11-.2.11-.21.55v.66h2.05zm-2.06.56v1.36h2v-1.36zm1.16 3.36l-.1.07c-.21.15-.22.11-.24.53v.63h3.29V25.5a.17.17 0 0 0-.2-.17zm-.35 1.6v1.34h3.26v-1.34zm2.35-6.6a.08.08 0 0 1 0 .06c0 .07-.07.14-.18.18s-.18.1-.18.29v.74h2.1v-1.12a.15.15 0 0 0-.14-.15zm-.36 1.64v1.36h2.07v-1.36zM5.59 36.54s0-.07.1-.24c.38-1.21 1.08-1.78 1.76-1.78 1.44 0 2.16 2.16 2.16 4 0 4.54-3.94 6.75-4.5 6.75s.14-.17.46-.38a7.62 7.62 0 0 0 3.13-6.28c0-1.75-.6-3.46-1.53-3.46-.77 0-1.55 1.16-1.55 2.63A3.87 3.87 0 0 0 6 39.52a.91.91 0 0 1 .08.38c0 .36-.2.69-.43.69-.41 0-.94-1.2-.94-2.17A8.87 8.87 0 0 1 5 36.5a12.64 12.64 0 0 0 .39-2.41c0-.38-.07-.67-.25-.76s-.2-.11-.2-.21.27-.25.38-.25.76.22.76 1.12a9.63 9.63 0 0 1-.49 2.34c.01.09 0 .17 0 .21zm5.21 14.79a.08.08 0 0 1 0 .07c0 .07-.11.14-.24.2s-.18.17-.22.55c-.9 7.09-5.63 7.91-5.74 7.91h-.06s.15-.17.32-.24c3.89-1.68 4.65-6.93 4.65-8.47h-.63a.11.11 0 0 1 0 .06c0 .07-.11.14-.24.2s-.14.1-.24.46c-1.12 4.2-3.8 5.39-3.92 5.39a.89.89 0 0 1 .25-.29 10.1 10.1 0 0 0 3-5.8h-1.1a8.76 8.76 0 0 1-2 2.7.45.45 0 0 1 .1-.18 11.17 11.17 0 0 0 1-1.76H4.08v2.65c.64-.22 1.26-.48 1.78-.69a1.41 1.41 0 0 1 .32-.1 9.7 9.7 0 0 1-2.14 1.29c0 1.82 0 3.6.07 4.64a.56.56 0 0 1-.57.53.39.39 0 0 1-.39-.45c.07-1.12.11-2.69.14-4.29-.55.28-1.12.56-1.71.84-.13.06-.17.2-.25.2s-.84-1-.84-1.08 0 0 .1 0a8.32 8.32 0 0 0 2.7-.67v-2.91H2.13a7.06 7.06 0 0 1-1.2 2.68.69.69 0 0 1 0-.2A19.48 19.48 0 0 0 1.65 50a3.78 3.78 0 0 0 0-.43v-.13c.15 0 1.5.34 1.5.67 0 .1-.13.21-.36.28s-.24.13-.28.31c-.08.36-.18.71-.28 1.05h1.08a30.26 30.26 0 0 0-.17-3.6.28.28 0 0 1 0-.1s1.57.17 1.57.52c0 .08-.08.18-.22.28-.29.2-.32.07-.35.67s0 1.32-.06 2.24h.07a.29.29 0 0 0 .2-.11c.42-.66.45-.69.55-.69s.67.45.88.84a13.26 13.26 0 0 0 1.05-3.6v-.15c.18 0 1.44.31 1.44.64 0 .13-.13.24-.39.31a.39.39 0 0 0-.34.29c-.24.57-.49 1.13-.76 1.67h4.3a.24.24 0 0 0 .24-.11c.31-.38.38-.38.39-.38s1.08.56 1.08.85c0 .11-.1.22-.32.34s-.34.21-.34.59a43.86 43.86 0 0 1-.13 4.58c-.32 2.45-1.49 3.25-2.72 3.35a.16.16 0 0 1-.18-.11c-.13-.39-1.72-1.06-1.72-1.18h.14a8.77 8.77 0 0 0 1.68.25c1 0 1.6-.5 1.91-2.4a50.9 50.9 0 0 0 .24-5.21c0-.2-.11-.21-.21-.21zM2.42 72.14a18.73 18.73 0 0 1 .78-4 4.85 4.85 0 0 0 .1-1 3 3 0 0 0-.3-1.41c-.06-.11-.17-.21-.17-.27s.1-.08.28-.08c.45 0 1.08.71 1.08 1.65a3.89 3.89 0 0 1-.38 1.44A8.27 8.27 0 0 0 3 71.41c0 .55.13 1 .22 1s.11-.06.18-.22a11 11 0 0 1 1.39-2.58v.06a.87.87 0 0 1-.07.25 12.8 12.8 0 0 0-1 3.7 3.21 3.21 0 0 0 .1.8 1.32 1.32 0 0 1 0 .22.4.4 0 0 1-.38.45c-.74-.09-1.02-2.16-1.02-2.95zm7.12 2.33c-2.66 0-3.1-1.5-3.1-1.81 0-.08 0-.13.07-.13s.17.08.28.25a3.1 3.1 0 0 0 2.3.71 5 5 0 0 0 .78-.06 6.17 6.17 0 0 1 1-.25H11c.46 0 .71.21.71.45 0 .67-1.39.84-2.17.84zm-.81-6.42c-1.92 0-2.1-1.13-2.1-1.23v-.06a.65.65 0 0 1 .24.11 2.8 2.8 0 0 0 1.4.34 6.67 6.67 0 0 0 1.16-.13c.2 0 .35-.14.53-.18a1.07 1.07 0 0 1 .29 0c.39 0 .63.2.63.42.05.68-1.69.73-2.15.73zm-3.06 15.4C4.71 82.89 4 82 4 81.63c0-.06 0-.08.06-.08s.14.07.21.15a4.18 4.18 0 0 0 1.48 1 10.82 10.82 0 0 0 .13-1.54c0-.69-.11-1.39-.57-1.67-.1-.06-.14-.1-.14-.14s.25-.18.32-.18a1.52 1.52 0 0 1 1.26 1.51 9.06 9.06 0 0 1-.24 1.53c0 .21-.08.45-.13.69a2.16 2.16 0 0 1 .45.06c.29.14.43.31.43.46s-.1.24-.29.31a8.53 8.53 0 0 0-.84.35c-.15.78-.31 1.63-.41 2.45h.6c.18 0 .34-.14.52-.15h.1c.43 0 .73.18.73.39s-.76.57-1.46.57a2.63 2.63 0 0 1-.49 0v.43c0 2.38 1.08 2.65 1.57 2.65A2.17 2.17 0 0 0 9.11 88a4.78 4.78 0 0 0-1.5-3.12 1.86 1.86 0 0 1-.41-.53S10 86 10 88.2a3 3 0 0 1-2.7 2.89c-2 0-2-2.8-2-3.24v-.71A1.55 1.55 0 0 1 4 85.79c0-.63.55-1.3 1.58-2zm-.13.83c-.55.25-1.13.81-1.13 1.32 0 .13 0 .56.87.81.06-.73.17-1.41.27-2.13zm1.3 15.26a.1.1 0 0 1 0 .08c0 .07-.07.15-.21.2s-.17.11-.17.29v1.54c0 1.28 0 2.84.13 4.06a.44.44 0 0 1 0 .2A7.93 7.93 0 0 0 8.8 104a7.38 7.38 0 0 1-1.16-2.77H7.3c-.18 0-.57-.49-.57-.64a14.88 14.88 0 0 0 2.38.18h1.13a.33.33 0 0 0 .21-.1 2 2 0 0 1 .27-.21h.08c.08 0 1.06.5 1.06.78 0 .11-.1.21-.36.29s-.24.06-.35.29a11.65 11.65 0 0 1-1.47 2.24 8.08 8.08 0 0 0 3.84 1.83c.08 0 .13 0 .13.06s-1.26.28-1.6.6a.17.17 0 0 1-.13.06 6 6 0 0 1-2.69-2.07 8 8 0 0 1-4.48 2.27h-.08s.14-.11.42-.21a7.41 7.41 0 0 0 .84-.34.38.38 0 0 1-.25-.41c0-.59.06-1.22.07-1.83-1.16.66-3.38 1.67-4 1.91-.14.06-.2.24-.32.24s-.88-.88-.88-1 0 0 .11 0a7.69 7.69 0 0 0 2.13-.41v-3.91a7.57 7.57 0 0 0 0-1.21c-.63 0-1.27.06-1.79.11-.25 0-.64-.53-.64-.73 1.44.18 4 .24 4.76.24H11a.33.33 0 0 0 .25-.14c.53-.76.63-.85.78-.85h.08a2.53 2.53 0 0 1 1.25 1.16c0 .08-.07.17-.31.17zm2.67-1.29V98h-5.2v.21c0 .22-.22.41-.55.41s-.39-.1-.39-.34c.08-.84.11-1.7.11-2.26a11.61 11.61 0 0 0-.15-1.69.28.28 0 0 1 0-.1 4.91 4.91 0 0 1 1.29.55H9.2a.2.2 0 0 0 .18-.08c.1-.1.21-.24.29-.31a.25.25 0 0 1 .15-.06s1.11.43 1.11.8c0 .14-.18.24-.34.32s-.27.22-.27.57v.14c0 .6.07 1.5.1 2a.49.49 0 0 1-.55.48.35.35 0 0 1-.38-.36zm-5.88 2.87v1.28h2.13v-1.28zm0 1.61v1.71c.77-.25 1.58-.53 2.12-.74v-1zm1.46-3.19H3.94a.13.13 0 0 1 .08.1c0 .07-.11.14-.27.18s-.11.13-.11.27v.69h2.1v-1.25zm-.47-4.44l-.1.07c-.18.11-.2.11-.22.55v.42h5.24v-.88a.15.15 0 0 0-.15-.15zm-.34 1.4v1.15h5.25V96.5zM9 101.15a10.76 10.76 0 0 0-1.13 0 6.19 6.19 0 0 0 1.29 2.34 8.26 8.26 0 0 0 1.18-2.31s0-.07-.11-.07zm-6.6 14.74a9.51 9.51 0 0 0-1.05.15c-.22 0-.6-.55-.6-.74a13.89 13.89 0 0 0 1.69.2h.22a.31.31 0 0 0 .22-.13c.29-.35.36-.35.41-.35s1.13.45 1.13.81c0 .15-.21.27-.35.32s-.35.06-.38.38-.06 1-.06 1.54v1.07c0 1.76 3 1.83 3.91 1.83a23.07 23.07 0 0 0 5.86-.73h.17s-1 .76-1.16 1.18a.36.36 0 0 1-.27.22 36.72 36.72 0 0 1-3.78.22c-1.6 0-4.43-.06-5.06-2.34-.34.46-1.13 1.37-1.75 2 0 .06-.07.32-.21.32s-1.06-.94-1.06-1 0-.06.1-.07a6.93 6.93 0 0 0 2.19-1.29c.24-.2.24-.55.24-2.66v-.83a.15.15 0 0 0-.17-.15zM3 112a5.17 5.17 0 0 0-1.53-1.41c-.06 0-.08-.07-.08-.08s0 0 .11 0c.48 0 2.59.34 2.59 1.4a.53.53 0 0 1-.48.57A.78.78 0 0 1 3 112zm5.53-.43c-.7 0-2.27.06-3.45.15-.24 0-.63-.55-.63-.73 1.25.14 2.7.21 3.6.22v-.36a5.39 5.39 0 0 0-.11-1.22.24.24 0 0 1 0-.08H8c.22 0 1.46.14 1.46.45 0 .08-.1.18-.24.27-.29.17-.31.18-.31 1h1.83a.26.26 0 0 0 .21-.13c.22-.34.53-.69.66-.69s1.11.63 1.11 1c0 .1-.07.18-.28.18zM6 113.92c-.14.11-.14.14-.14 1.89v3.92a.46.46 0 0 1-.49.43c-.2 0-.36-.1-.36-.31.06-1.16.08-2.7.08-3.88v-1.25a10 10 0 0 0-.09-1.63.25.25 0 0 1 0-.09 7.93 7.93 0 0 1 1.18.53h2.6a4.05 4.05 0 0 0 .56-1.6c0-.1 0-.14.06-.14s1.25.62 1.25.87c0 .08-.08.14-.27.14h-.17c-.13 0-.2.07-.32.17s-.57.42-.83.59h1.86c.08 0 .13 0 .18-.11s.13-.2.18-.25 0 0 .08 0 1 .41 1 .7c0 .11-.13.2-.29.29s-.17.17-.17 1.29v3.57a1.22 1.22 0 0 1-1.22 1.09c-.08 0-.11 0-.17-.15-.14-.27-1-.74-1-.84h.13a4.66 4.66 0 0 0 .9.14c.38 0 .52-.15.53-.48s0-1 0-1.86v-2.8c0-.14 0-.18-.18-.18zm3.29 4.71v-.17H7.63v.38c0 .24-.24.38-.42.38a.27.27 0 0 1-.28-.29c0-.42.06-.85.06-1.46a6.55 6.55 0 0 0-.1-1.08.56.56 0 0 0 0-.07 4.51 4.51 0 0 1 .94.39h.29v-1a13.49 13.49 0 0 0-1.4.11c-.22 0-.53-.45-.53-.6a10.13 10.13 0 0 0 1.93.18v-.08a5.08 5.08 0 0 0-.1-1 .19.19 0 0 1 0-.07s1.16.14 1.16.36c0 .07-.08.15-.22.22s-.18.08-.2.39v.18h.67c.07 0 .1 0 .14-.1.32-.46.35-.49.45-.49h.08a1.17 1.17 0 0 1 .67.73c0 .07 0 .15-.21.15H8.77v1h.32a.16.16 0 0 0 .14-.07c.13-.18.2-.29.29-.29s.81.38.81.66c0 .11-.11.17-.21.24s-.2.17-.2.43 0 .59.07.94a.41.41 0 0 1-.41.43.28.28 0 0 1-.28-.32zM7.2 113a3.11 3.11 0 0 0-.66-.91c-.07-.07-.1-.1-.1-.11s0 0 .15 0c1.11 0 1.5.53 1.5.94a.48.48 0 0 1-.43.5c-.17.02-.35-.09-.46-.42zm.64 4h-.07c-.14.1-.15.13-.15 1.13h1.7v-1.05a.13.13 0 0 0-.13-.13zm.83 19.84c-.66 0-2.94-.24-2.94-3.54a7.55 7.55 0 0 1 1.34-4.5c.1-.1.17-.17.17-.2A23.18 23.18 0 0 0 4.1 130a2.08 2.08 0 0 1-.92.21c-.63 0-1.2-.27-1.2-.74 0-.06 0-.14.11-.14a2.8 2.8 0 0 1 .29.06 4.87 4.87 0 0 0 .69.07 2.55 2.55 0 0 0 .81-.14 43.34 43.34 0 0 1 5.24-2.1 4.2 4.2 0 0 1 1.13-.28h.07c1.29 0 1.5.45 1.5.67s-.21.43-.67.43h-.32a4.37 4.37 0 0 0-.76-.06 4.88 4.88 0 0 0-2 .39c-1 .55-1.75 2.72-1.75 4.52 0 2.86 1.82 3 2.24 3a2.61 2.61 0 0 0 .83-.14 1.15 1.15 0 0 1 .36-.06c.38 0 .63.21.63.46-.01.49-1.15.69-1.71.69zm1.88-6.18a4.49 4.49 0 0 0-1.21-1c-.11-.06-.21-.1-.21-.14a1.22 1.22 0 0 1 .55-.08c1.12 0 1.65.5 1.65 1a.44.44 0 0 1-.41.48.52.52 0 0 1-.37-.26zM12 130a4.79 4.79 0 0 0-1.2-1c-.11-.06-.22-.1-.22-.14a1.13 1.13 0 0 1 .62-.11c.7 0 1.61.25 1.61.92a.42.42 0 0 1-.39.45.53.53 0 0 1-.42-.12zm-5.18 19.7h-.18a.8.8 0 0 1-.67-.36 2.89 2.89 0 0 1-.58-1.67 1.23 1.23 0 0 1 1.28-1.33 1.72 1.72 0 0 1 .73.17v-2.19a12.92 12.92 0 0 0-3.6.87 2.51 2.51 0 0 1-1 .2c-.76 0-1.55-.48-1.55-1.09 0-.14.06-.2.14-.2a.49.49 0 0 1 .29.17 1.44 1.44 0 0 0 .85.17 5.77 5.77 0 0 0 .69 0c1.42-.18 2.76-.39 4.13-.53v-1.4a1 1 0 0 0-.55-1c-.08-.06-.11-.08-.11-.14s.15-.29.56-.29a1 1 0 0 1 1 1.05 3.4 3.4 0 0 1-.06.49c-.08.43-.14.85-.18 1.25.57 0 1.15-.08 1.75-.1.15 0 .22 0 .22-.08s0 0-.06-.06a9.11 9.11 0 0 1-1.15-.9 1 1 0 0 1 .39.14 7.13 7.13 0 0 0 1.88.7c1.47.21 1.58.73 1.58.9s-.17.36-.46.36a1.22 1.22 0 0 1-.36-.06 11 11 0 0 0-3.18-.43H8v2.65a1.9 1.9 0 0 1 .52 1.46c0 2.65-2.87 4.4-3.85 4.4h-.1s.11-.14.36-.24a5.31 5.31 0 0 0 2.62-3.28 1.33 1.33 0 0 1-.73.37zm-.35-3a.67.67 0 0 0-.66.76c0 .21.15 1.36 1 1.36.56 0 .66-.62.66-1a2.1 2.1 0 0 0 0-.42 1.06 1.06 0 0 0-1-.7zm5.16 12.18a1.63 1.63 0 1 1 1.63-1.62 1.64 1.64 0 0 1-1.63 1.62zm0-2.77a1.15 1.15 0 1 0 1.15 1.15 1.15 1.15 0 0 0-1.15-1.15z"/></svg>